{
	"asset":{
		"generator":"Khronos glTF Blender I/O v4.4.56",
		"version":"2.0"
	},
	"extensionsUsed":[
		"KHR_materials_specular"
	],
	"scene":0,
	"scenes":[
		{
			"name":"Scene",
			"nodes":[
				0,
				1,
				2,
				3,
				4,
				5,
				6,
				7,
				8,
				9,
				10,
				11,
				12,
				13,
				14,
				15,
				16,
				17,
				18,
				19,
				20,
				21,
				22,
				23,
				24
			]
		}
	],
	"nodes":[
		{
			"mesh":0,
			"name":"Plane.003"
		},
		{
			"mesh":1,
			"name":"Floor-col"
		},
		{
			"mesh":2,
			"name":"Walls-col"
		},
		{
			"mesh":3,
			"name":"ChurchDecoration.001-col"
		},
		{
			"mesh":4,
			"name":"ChurchBody-col"
		},
		{
			"mesh":5,
			"name":"Wall-col"
		},
		{
			"mesh":6,
			"name":"Wall.001-col"
		},
		{
			"mesh":7,
			"name":"Wall.002-col"
		},
		{
			"mesh":8,
			"name":"Wall.003-col"
		},
		{
			"mesh":9,
			"name":"Wall.004-col"
		},
		{
			"mesh":10,
			"name":"Wall.005-col"
		},
		{
			"mesh":11,
			"name":"Spire.001-col"
		},
		{
			"mesh":12,
			"name":"ChurchInterior-col"
		},
		{
			"mesh":13,
			"name":"ChurchExtension-col"
		},
		{
			"mesh":14,
			"name":"ChurchExtension.001-col"
		},
		{
			"mesh":15,
			"name":"ChurchExtensionFloor-col"
		},
		{
			"mesh":16,
			"name":"Spire.002-col"
		},
		{
			"mesh":17,
			"name":"ChurchSquareTower-col"
		},
		{
			"mesh":18,
			"name":"Spire-col"
		},
		{
			"mesh":19,
			"name":"ChurchAirPath-col"
		},
		{
			"mesh":20,
			"name":"ChurchFloor.002-col"
		},
		{
			"mesh":21,
			"name":"ChurchFloor.001-col"
		},
		{
			"mesh":22,
			"name":"ChurchFloor-col"
		},
		{
			"mesh":23,
			"name":"ChurchTop-col"
		},
		{
			"mesh":24,
			"name":"ChurchDecoration-col"
		}
	],
	"materials":[
		{
			"doubleSided":true,
			"name":"Marble",
			"pbrMetallicRoughness":{
				"baseColorTexture":{
					"index":0
				},
				"metallicFactor":0,
				"roughnessFactor":0.5
			}
		},
		{
			"doubleSided":true,
			"extensions":{
				"KHR_materials_specular":{
					"specularFactor":0
				}
			},
			"name":"Grass",
			"pbrMetallicRoughness":{
				"baseColorTexture":{
					"index":1
				},
				"metallicFactor":0
			}
		},
		{
			"alphaMode":"BLEND",
			"doubleSided":true,
			"name":"Grate",
			"pbrMetallicRoughness":{
				"baseColorTexture":{
					"index":2
				},
				"metallicFactor":0,
				"roughnessFactor":0.5
			}
		},
		{
			"doubleSided":true,
			"extensions":{
				"KHR_materials_specular":{
					"specularFactor":0
				}
			},
			"name":"Material.001",
			"pbrMetallicRoughness":{
				"baseColorTexture":{
					"index":3
				},
				"metallicFactor":0
			}
		}
	],
	"meshes":[
		{
			"name":"Plane.001",
			"primitives":[
				{
					"attributes":{
						"POSITION":0,
						"NORMAL":1,
						"TEXCOORD_0":2
					},
					"indices":3,
					"material":0
				}
			]
		},
		{
			"name":"Plane",
			"primitives":[
				{
					"attributes":{
						"POSITION":4,
						"NORMAL":5,
						"TEXCOORD_0":6
					},
					"indices":7,
					"material":1
				},
				{
					"attributes":{
						"POSITION":8,
						"NORMAL":9,
						"TEXCOORD_0":10
					},
					"indices":11,
					"material":2
				}
			]
		},
		{
			"name":"Cube.012",
			"primitives":[
				{
					"attributes":{
						"POSITION":12,
						"NORMAL":13,
						"TEXCOORD_0":14
					},
					"indices":15,
					"material":0
				}
			]
		},
		{
			"name":"Circle",
			"primitives":[
				{
					"attributes":{
						"POSITION":16,
						"NORMAL":17,
						"TEXCOORD_0":18
					},
					"indices":19,
					"material":3
				}
			]
		},
		{
			"name":"Cube.013",
			"primitives":[
				{
					"attributes":{
						"POSITION":20,
						"NORMAL":21,
						"TEXCOORD_0":22
					},
					"indices":23,
					"material":3
				}
			]
		},
		{
			"name":"Cube",
			"primitives":[
				{
					"attributes":{
						"POSITION":24,
						"NORMAL":25,
						"TEXCOORD_0":26
					},
					"indices":27,
					"material":3
				}
			]
		},
		{
			"name":"Cube.001",
			"primitives":[
				{
					"attributes":{
						"POSITION":28,
						"NORMAL":29,
						"TEXCOORD_0":30
					},
					"indices":31,
					"material":3
				}
			]
		},
		{
			"name":"Cube.002",
			"primitives":[
				{
					"attributes":{
						"POSITION":32,
						"NORMAL":33,
						"TEXCOORD_0":34
					},
					"indices":35,
					"material":3
				}
			]
		},
		{
			"name":"Cube.003",
			"primitives":[
				{
					"attributes":{
						"POSITION":36,
						"NORMAL":37,
						"TEXCOORD_0":38
					},
					"indices":39,
					"material":3
				}
			]
		},
		{
			"name":"Cube.004",
			"primitives":[
				{
					"attributes":{
						"POSITION":40,
						"NORMAL":41,
						"TEXCOORD_0":42
					},
					"indices":43,
					"material":3
				}
			]
		},
		{
			"name":"Cube.005",
			"primitives":[
				{
					"attributes":{
						"POSITION":44,
						"NORMAL":45,
						"TEXCOORD_0":46
					},
					"indices":47,
					"material":3
				}
			]
		},
		{
			"name":"Cube.006",
			"primitives":[
				{
					"attributes":{
						"POSITION":48,
						"NORMAL":49,
						"TEXCOORD_0":50
					},
					"indices":51,
					"material":3
				}
			]
		},
		{
			"name":"Cube.007",
			"primitives":[
				{
					"attributes":{
						"POSITION":52,
						"NORMAL":53,
						"TEXCOORD_0":54
					},
					"indices":55,
					"material":3
				}
			]
		},
		{
			"name":"Cube.008",
			"primitives":[
				{
					"attributes":{
						"POSITION":56,
						"NORMAL":57,
						"TEXCOORD_0":58
					},
					"indices":59,
					"material":3
				}
			]
		},
		{
			"name":"Cube.009",
			"primitives":[
				{
					"attributes":{
						"POSITION":60,
						"NORMAL":61,
						"TEXCOORD_0":62
					},
					"indices":63,
					"material":3
				}
			]
		},
		{
			"name":"Cube.010",
			"primitives":[
				{
					"attributes":{
						"POSITION":64,
						"NORMAL":65,
						"TEXCOORD_0":66
					},
					"indices":67,
					"material":3
				}
			]
		},
		{
			"name":"Cube.011",
			"primitives":[
				{
					"attributes":{
						"POSITION":68,
						"NORMAL":69,
						"TEXCOORD_0":70
					},
					"indices":71,
					"material":3
				}
			]
		},
		{
			"name":"Cube.015",
			"primitives":[
				{
					"attributes":{
						"POSITION":72,
						"NORMAL":73,
						"TEXCOORD_0":74
					},
					"indices":75,
					"material":3
				}
			]
		},
		{
			"name":"Cube.018",
			"primitives":[
				{
					"attributes":{
						"POSITION":76,
						"NORMAL":77,
						"TEXCOORD_0":78
					},
					"indices":79,
					"material":3
				}
			]
		},
		{
			"name":"Cube.019",
			"primitives":[
				{
					"attributes":{
						"POSITION":80,
						"NORMAL":81,
						"TEXCOORD_0":82
					},
					"indices":83,
					"material":3
				}
			]
		},
		{
			"name":"Plane.002",
			"primitives":[
				{
					"attributes":{
						"POSITION":84,
						"NORMAL":85,
						"TEXCOORD_0":86
					},
					"indices":87,
					"material":3
				}
			]
		},
		{
			"name":"Plane.006",
			"primitives":[
				{
					"attributes":{
						"POSITION":88,
						"NORMAL":89,
						"TEXCOORD_0":90
					},
					"indices":91,
					"material":3
				}
			]
		},
		{
			"name":"Plane.012",
			"primitives":[
				{
					"attributes":{
						"POSITION":92,
						"NORMAL":93,
						"TEXCOORD_0":94
					},
					"indices":95,
					"material":3
				}
			]
		},
		{
			"name":"Plane.014",
			"primitives":[
				{
					"attributes":{
						"POSITION":96,
						"NORMAL":97,
						"TEXCOORD_0":98
					},
					"indices":99,
					"material":3
				}
			]
		},
		{
			"name":"Plane.015",
			"primitives":[
				{
					"attributes":{
						"POSITION":100,
						"NORMAL":101,
						"TEXCOORD_0":102
					},
					"indices":103,
					"material":3
				}
			]
		}
	],
	"textures":[
		{
			"sampler":0,
			"source":0
		},
		{
			"sampler":0,
			"source":1
		},
		{
			"sampler":0,
			"source":2
		},
		{
			"sampler":0,
			"source":3
		}
	],
	"images":[
		{
			"mimeType":"image/jpeg",
			"name":"CarvedMarble.jpg",
			"uri":"../textures/CarvedMarble.jpg"
		},
		{
			"mimeType":"image/jpeg",
			"name":"CNK_DARKCONCRETE01.jpg",
			"uri":"../textures/CNK_DARKCONCRETE01.jpg"
		},
		{
			"mimeType":"image/png",
			"name":"grate_albedo.png",
			"uri":"../textures/grate_albedo.png"
		},
		{
			"mimeType":"image/png",
			"name":"STO_ANCIENTBRICK01.png",
			"uri":"../textures/STO_ANCIENTBRICK01.png"
		}
	],
	"accessors":[
		{
			"bufferView":0,
			"componentType":5126,
			"count":4,
			"max":[
				330.25445556640625,
				4.275184631347656,
				74.64592742919922
			],
			"min":[
				-390.3997802734375,
				-415.724853515625,
				74.20199584960938
			],
			"type":"VEC3"
		},
		{
			"bufferView":1,
			"componentType":5126,
			"count":4,
			"type":"VEC3"
		},
		{
			"bufferView":2,
			"componentType":5126,
			"count":4,
			"type":"VEC2"
		},
		{
			"bufferView":3,
			"componentType":5123,
			"count":6,
			"type":"SCALAR"
		},
		{
			"bufferView":4,
			"componentType":5126,
			"count":114,
			"max":[
				330.2544250488281,
				1.185595989227295,
				75.49598693847656
			],
			"min":[
				-390.3997802734375,
				-2.6437816619873047,
				-45.90703582763672
			],
			"type":"VEC3"
		},
		{
			"bufferView":5,
			"componentType":5126,
			"count":114,
			"type":"VEC3"
		},
		{
			"bufferView":6,
			"componentType":5126,
			"count":114,
			"type":"VEC2"
		},
		{
			"bufferView":7,
			"componentType":5123,
			"count":276,
			"type":"SCALAR"
		},
		{
			"bufferView":8,
			"componentType":5126,
			"count":4,
			"max":[
				-10.20988655090332,
				-2.0436618328094482,
				50.77023696899414
			],
			"min":[
				-29.344512939453125,
				-2.0436618328094482,
				36.32758712768555
			],
			"type":"VEC3"
		},
		{
			"bufferView":9,
			"componentType":5126,
			"count":4,
			"type":"VEC3"
		},
		{
			"bufferView":10,
			"componentType":5126,
			"count":4,
			"type":"VEC2"
		},
		{
			"bufferView":11,
			"componentType":5123,
			"count":6,
			"type":"SCALAR"
		},
		{
			"bufferView":12,
			"componentType":5126,
			"count":48,
			"max":[
				50.00037384033203,
				45,
				66.2126693725586
			],
			"min":[
				-86.13560485839844,
				-2.3249940872192383,
				-44.36091232299805
			],
			"type":"VEC3"
		},
		{
			"bufferView":13,
			"componentType":5126,
			"count":48,
			"type":"VEC3"
		},
		{
			"bufferView":14,
			"componentType":5126,
			"count":48,
			"type":"VEC2"
		},
		{
			"bufferView":15,
			"componentType":5123,
			"count":84,
			"type":"SCALAR"
		},
		{
			"bufferView":16,
			"componentType":5126,
			"count":256,
			"max":[
				-9.94967269897461,
				16.112167358398438,
				2.6654815673828125
			],
			"min":[
				-10.098742485046387,
				10.781203269958496,
				-2.6654815673828125
			],
			"type":"VEC3"
		},
		{
			"bufferView":17,
			"componentType":5126,
			"count":256,
			"type":"VEC3"
		},
		{
			"bufferView":18,
			"componentType":5126,
			"count":256,
			"type":"VEC2"
		},
		{
			"bufferView":19,
			"componentType":5123,
			"count":576,
			"type":"SCALAR"
		},
		{
			"bufferView":20,
			"componentType":5126,
			"count":1549,
			"max":[
				50.4057502746582,
				19.265825271606445,
				15.017166137695312
			],
			"min":[
				-11.98202133178711,
				-0.3111533522605896,
				-15.017166137695312
			],
			"type":"VEC3"
		},
		{
			"bufferView":21,
			"componentType":5126,
			"count":1549,
			"type":"VEC3"
		},
		{
			"bufferView":22,
			"componentType":5126,
			"count":1549,
			"type":"VEC2"
		},
		{
			"bufferView":23,
			"componentType":5123,
			"count":4110,
			"type":"SCALAR"
		},
		{
			"bufferView":24,
			"componentType":5126,
			"count":397,
			"max":[
				-8.841382026672363,
				6.9547810554504395,
				13.147848129272461
			],
			"min":[
				-29.15784454345703,
				-3.1867079734802246,
				1.2940692901611328
			],
			"type":"VEC3"
		},
		{
			"bufferView":25,
			"componentType":5126,
			"count":397,
			"type":"VEC3"
		},
		{
			"bufferView":26,
			"componentType":5126,
			"count":397,
			"type":"VEC2"
		},
		{
			"bufferView":27,
			"componentType":5123,
			"count":1344,
			"type":"SCALAR"
		},
		{
			"bufferView":28,
			"componentType":5126,
			"count":125,
			"max":[
				9.199787139892578,
				4.9725565910339355,
				31.83238410949707
			],
			"min":[
				-18.223121643066406,
				-3.1867079734802246,
				8.825540542602539
			],
			"type":"VEC3"
		},
		{
			"bufferView":29,
			"componentType":5126,
			"count":125,
			"type":"VEC3"
		},
		{
			"bufferView":30,
			"componentType":5126,
			"count":125,
			"type":"VEC2"
		},
		{
			"bufferView":31,
			"componentType":5123,
			"count":354,
			"type":"SCALAR"
		},
		{
			"bufferView":32,
			"componentType":5126,
			"count":118,
			"max":[
				-9.759631156921387,
				4.412234306335449,
				5.289284706115723
			],
			"min":[
				-15.911832809448242,
				-3.1867079734802246,
				-1.2923932075500488
			],
			"type":"VEC3"
		},
		{
			"bufferView":33,
			"componentType":5126,
			"count":118,
			"type":"VEC3"
		},
		{
			"bufferView":34,
			"componentType":5126,
			"count":118,
			"type":"VEC2"
		},
		{
			"bufferView":35,
			"componentType":5123,
			"count":264,
			"type":"SCALAR"
		},
		{
			"bufferView":36,
			"componentType":5126,
			"count":393,
			"max":[
				8.63904094696045,
				9.047991752624512,
				-5.103952884674072
			],
			"min":[
				-26.908924102783203,
				-3.1867079734802246,
				-20.20384979248047
			],
			"type":"VEC3"
		},
		{
			"bufferView":37,
			"componentType":5126,
			"count":393,
			"type":"VEC3"
		},
		{
			"bufferView":38,
			"componentType":5126,
			"count":393,
			"type":"VEC2"
		},
		{
			"bufferView":39,
			"componentType":5123,
			"count":1140,
			"type":"SCALAR"
		},
		{
			"bufferView":40,
			"componentType":5126,
			"count":89,
			"max":[
				-17.551513671875,
				3.7093780040740967,
				2.9374122619628906
			],
			"min":[
				-18.210031509399414,
				-0.3425333499908447,
				-3.069729804992676
			],
			"type":"VEC3"
		},
		{
			"bufferView":41,
			"componentType":5126,
			"count":89,
			"type":"VEC3"
		},
		{
			"bufferView":42,
			"componentType":5126,
			"count":89,
			"type":"VEC2"
		},
		{
			"bufferView":43,
			"componentType":5123,
			"count":324,
			"type":"SCALAR"
		},
		{
			"bufferView":44,
			"componentType":5126,
			"count":353,
			"max":[
				-17.6899356842041,
				4.534727096557617,
				2.072032928466797
			],
			"min":[
				-27.93418312072754,
				-3.1884965896606445,
				-13.434300422668457
			],
			"type":"VEC3"
		},
		{
			"bufferView":45,
			"componentType":5126,
			"count":353,
			"type":"VEC3"
		},
		{
			"bufferView":46,
			"componentType":5126,
			"count":353,
			"type":"VEC2"
		},
		{
			"bufferView":47,
			"componentType":5123,
			"count":1314,
			"type":"SCALAR"
		},
		{
			"bufferView":48,
			"componentType":5126,
			"count":199,
			"max":[
				-22.965456008911133,
				9.580829620361328,
				-10.489304542541504
			],
			"min":[
				-25.276594161987305,
				-3.1505775451660156,
				-12.805386543273926
			],
			"type":"VEC3"
		},
		{
			"bufferView":49,
			"componentType":5126,
			"count":199,
			"type":"VEC3"
		},
		{
			"bufferView":50,
			"componentType":5126,
			"count":199,
			"type":"VEC2"
		},
		{
			"bufferView":51,
			"componentType":5123,
			"count":684,
			"type":"SCALAR"
		},
		{
			"bufferView":52,
			"componentType":5126,
			"count":26,
			"max":[
				30.73407745361328,
				16.933456420898438,
				9.879884719848633
			],
			"min":[
				-10.132852554321289,
				1.3784732818603516,
				-10.383050918579102
			],
			"type":"VEC3"
		},
		{
			"bufferView":53,
			"componentType":5126,
			"count":26,
			"type":"VEC3"
		},
		{
			"bufferView":54,
			"componentType":5126,
			"count":26,
			"type":"VEC2"
		},
		{
			"bufferView":55,
			"componentType":5123,
			"count":48,
			"type":"SCALAR"
		},
		{
			"bufferView":56,
			"componentType":5126,
			"count":40,
			"max":[
				-0.16597795486450195,
				15.876120567321777,
				20.80584144592285
			],
			"min":[
				-8.701822280883789,
				-1.0715675354003906,
				12.93485164642334
			],
			"type":"VEC3"
		},
		{
			"bufferView":57,
			"componentType":5126,
			"count":40,
			"type":"VEC3"
		},
		{
			"bufferView":58,
			"componentType":5126,
			"count":40,
			"type":"VEC2"
		},
		{
			"bufferView":59,
			"componentType":5123,
			"count":66,
			"type":"SCALAR"
		},
		{
			"bufferView":60,
			"componentType":5126,
			"count":556,
			"max":[
				35.302276611328125,
				19.620361328125,
				31.62844467163086
			],
			"min":[
				-1.9370564222335815,
				-3.1820411682128906,
				11.874601364135742
			],
			"type":"VEC3"
		},
		{
			"bufferView":61,
			"componentType":5126,
			"count":556,
			"type":"VEC3"
		},
		{
			"bufferView":62,
			"componentType":5126,
			"count":556,
			"type":"VEC2"
		},
		{
			"bufferView":63,
			"componentType":5123,
			"count":1536,
			"type":"SCALAR"
		},
		{
			"bufferView":64,
			"componentType":5126,
			"count":10,
			"max":[
				34.68915939331055,
				4.913063049316406,
				29.433929443359375
			],
			"min":[
				6.276156902313232,
				4.913063049316406,
				11.691601753234863
			],
			"type":"VEC3"
		},
		{
			"bufferView":65,
			"componentType":5126,
			"count":10,
			"type":"VEC3"
		},
		{
			"bufferView":66,
			"componentType":5126,
			"count":10,
			"type":"VEC2"
		},
		{
			"bufferView":67,
			"componentType":5123,
			"count":24,
			"type":"SCALAR"
		},
		{
			"bufferView":68,
			"componentType":5126,
			"count":460,
			"max":[
				8.88122844696045,
				15.473001480102539,
				-18.147132873535156
			],
			"min":[
				6.224900245666504,
				0.8400313854217529,
				-20.80914306640625
			],
			"type":"VEC3"
		},
		{
			"bufferView":69,
			"componentType":5126,
			"count":460,
			"type":"VEC3"
		},
		{
			"bufferView":70,
			"componentType":5126,
			"count":460,
			"type":"VEC2"
		},
		{
			"bufferView":71,
			"componentType":5123,
			"count":684,
			"type":"SCALAR"
		},
		{
			"bufferView":72,
			"componentType":5126,
			"count":272,
			"max":[
				15.689146995544434,
				32.78660583496094,
				-7.408820629119873
			],
			"min":[
				7.247555732727051,
				1.2907629013061523,
				-18.803054809570312
			],
			"type":"VEC3"
		},
		{
			"bufferView":73,
			"componentType":5126,
			"count":272,
			"type":"VEC3"
		},
		{
			"bufferView":74,
			"componentType":5126,
			"count":272,
			"type":"VEC2"
		},
		{
			"bufferView":75,
			"componentType":5123,
			"count":732,
			"type":"SCALAR"
		},
		{
			"bufferView":76,
			"componentType":5126,
			"count":241,
			"max":[
				56.47521209716797,
				45.401954650878906,
				-27.99542999267578
			],
			"min":[
				31.54961395263672,
				0.9016103744506836,
				-53.59629821777344
			],
			"type":"VEC3"
		},
		{
			"bufferView":77,
			"componentType":5126,
			"count":241,
			"type":"VEC3"
		},
		{
			"bufferView":78,
			"componentType":5126,
			"count":241,
			"type":"VEC2"
		},
		{
			"bufferView":79,
			"componentType":5123,
			"count":720,
			"type":"SCALAR"
		},
		{
			"bufferView":80,
			"componentType":5126,
			"count":300,
			"max":[
				39.072025299072266,
				18.319902420043945,
				-18.744163513183594
			],
			"min":[
				8.45986557006836,
				15.699686050415039,
				-43.3759651184082
			],
			"type":"VEC3"
		},
		{
			"bufferView":81,
			"componentType":5126,
			"count":300,
			"type":"VEC3"
		},
		{
			"bufferView":82,
			"componentType":5126,
			"count":300,
			"type":"VEC2"
		},
		{
			"bufferView":83,
			"componentType":5123,
			"count":792,
			"type":"SCALAR"
		},
		{
			"bufferView":84,
			"componentType":5126,
			"count":189,
			"max":[
				-9.728647232055664,
				3.6651015281677246,
				4.151667594909668
			],
			"min":[
				-26.760629653930664,
				0.17270779609680176,
				-12.791831016540527
			],
			"type":"VEC3"
		},
		{
			"bufferView":85,
			"componentType":5126,
			"count":189,
			"type":"VEC3"
		},
		{
			"bufferView":86,
			"componentType":5126,
			"count":189,
			"type":"VEC2"
		},
		{
			"bufferView":87,
			"componentType":5123,
			"count":414,
			"type":"SCALAR"
		},
		{
			"bufferView":88,
			"componentType":5126,
			"count":222,
			"max":[
				8.148578643798828,
				2.0962891578674316,
				32.292442321777344
			],
			"min":[
				-43.939483642578125,
				-2.3495309352874756,
				-22.42880630493164
			],
			"type":"VEC3"
		},
		{
			"bufferView":89,
			"componentType":5126,
			"count":222,
			"type":"VEC3"
		},
		{
			"bufferView":90,
			"componentType":5126,
			"count":222,
			"type":"VEC2"
		},
		{
			"bufferView":91,
			"componentType":5123,
			"count":696,
			"type":"SCALAR"
		},
		{
			"bufferView":92,
			"componentType":5126,
			"count":285,
			"max":[
				8.63904094696045,
				6.661660671234131,
				-5.194302558898926
			],
			"min":[
				-26.094078063964844,
				3.4462971687316895,
				-19.748403549194336
			],
			"type":"VEC3"
		},
		{
			"bufferView":93,
			"componentType":5126,
			"count":285,
			"type":"VEC3"
		},
		{
			"bufferView":94,
			"componentType":5126,
			"count":285,
			"type":"VEC2"
		},
		{
			"bufferView":95,
			"componentType":5123,
			"count":660,
			"type":"SCALAR"
		},
		{
			"bufferView":96,
			"componentType":5126,
			"count":326,
			"max":[
				37.97930145263672,
				20.676368713378906,
				14.495055198669434
			],
			"min":[
				-11.084153175354004,
				15.413300514221191,
				-14.495055198669434
			],
			"type":"VEC3"
		},
		{
			"bufferView":97,
			"componentType":5126,
			"count":326,
			"type":"VEC3"
		},
		{
			"bufferView":98,
			"componentType":5126,
			"count":326,
			"type":"VEC2"
		},
		{
			"bufferView":99,
			"componentType":5123,
			"count":792,
			"type":"SCALAR"
		},
		{
			"bufferView":100,
			"componentType":5126,
			"count":56,
			"max":[
				-9.919168472290039,
				14.750362396240234,
				1.3036770820617676
			],
			"min":[
				-10.080044746398926,
				12.143009185791016,
				-1.3036770820617676
			],
			"type":"VEC3"
		},
		{
			"bufferView":101,
			"componentType":5126,
			"count":56,
			"type":"VEC3"
		},
		{
			"bufferView":102,
			"componentType":5126,
			"count":56,
			"type":"VEC2"
		},
		{
			"bufferView":103,
			"componentType":5123,
			"count":108,
			"type":"SCALAR"
		}
	],
	"bufferViews":[
		{
			"buffer":0,
			"byteLength":48,
			"byteOffset":0,
			"target":34962
		},
		{
			"buffer":0,
			"byteLength":48,
			"byteOffset":48,
			"target":34962
		},
		{
			"buffer":0,
			"byteLength":32,
			"byteOffset":96,
			"target":34962
		},
		{
			"buffer":0,
			"byteLength":12,
			"byteOffset":128,
			"target":34963
		},
		{
			"buffer":0,
			"byteLength":1368,
			"byteOffset":140,
			"target":34962
		},
		{
			"buffer":0,
			"byteLength":1368,
			"byteOffset":1508,
			"target":34962
		},
		{
			"buffer":0,
			"byteLength":912,
			"byteOffset":2876,
			"target":34962
		},
		{
			"buffer":0,
			"byteLength":552,
			"byteOffset":3788,
			"target":34963
		},
		{
			"buffer":0,
			"byteLength":48,
			"byteOffset":4340,
			"target":34962
		},
		{
			"buffer":0,
			"byteLength":48,
			"byteOffset":4388,
			"target":34962
		},
		{
			"buffer":0,
			"byteLength":32,
			"byteOffset":4436,
			"target":34962
		},
		{
			"buffer":0,
			"byteLength":12,
			"byteOffset":4468,
			"target":34963
		},
		{
			"buffer":0,
			"byteLength":576,
			"byteOffset":4480,
			"target":34962
		},
		{
			"buffer":0,
			"byteLength":576,
			"byteOffset":5056,
			"target":34962
		},
		{
			"buffer":0,
			"byteLength":384,
			"byteOffset":5632,
			"target":34962
		},
		{
			"buffer":0,
			"byteLength":168,
			"byteOffset":6016,
			"target":34963
		},
		{
			"buffer":0,
			"byteLength":3072,
			"byteOffset":6184,
			"target":34962
		},
		{
			"buffer":0,
			"byteLength":3072,
			"byteOffset":9256,
			"target":34962
		},
		{
			"buffer":0,
			"byteLength":2048,
			"byteOffset":12328,
			"target":34962
		},
		{
			"buffer":0,
			"byteLength":1152,
			"byteOffset":14376,
			"target":34963
		},
		{
			"buffer":0,
			"byteLength":18588,
			"byteOffset":15528,
			"target":34962
		},
		{
			"buffer":0,
			"byteLength":18588,
			"byteOffset":34116,
			"target":34962
		},
		{
			"buffer":0,
			"byteLength":12392,
			"byteOffset":52704,
			"target":34962
		},
		{
			"buffer":0,
			"byteLength":8220,
			"byteOffset":65096,
			"target":34963
		},
		{
			"buffer":0,
			"byteLength":4764,
			"byteOffset":73316,
			"target":34962
		},
		{
			"buffer":0,
			"byteLength":4764,
			"byteOffset":78080,
			"target":34962
		},
		{
			"buffer":0,
			"byteLength":3176,
			"byteOffset":82844,
			"target":34962
		},
		{
			"buffer":0,
			"byteLength":2688,
			"byteOffset":86020,
			"target":34963
		},
		{
			"buffer":0,
			"byteLength":1500,
			"byteOffset":88708,
			"target":34962
		},
		{
			"buffer":0,
			"byteLength":1500,
			"byteOffset":90208,
			"target":34962
		},
		{
			"buffer":0,
			"byteLength":1000,
			"byteOffset":91708,
			"target":34962
		},
		{
			"buffer":0,
			"byteLength":708,
			"byteOffset":92708,
			"target":34963
		},
		{
			"buffer":0,
			"byteLength":1416,
			"byteOffset":93416,
			"target":34962
		},
		{
			"buffer":0,
			"byteLength":1416,
			"byteOffset":94832,
			"target":34962
		},
		{
			"buffer":0,
			"byteLength":944,
			"byteOffset":96248,
			"target":34962
		},
		{
			"buffer":0,
			"byteLength":528,
			"byteOffset":97192,
			"target":34963
		},
		{
			"buffer":0,
			"byteLength":4716,
			"byteOffset":97720,
			"target":34962
		},
		{
			"buffer":0,
			"byteLength":4716,
			"byteOffset":102436,
			"target":34962
		},
		{
			"buffer":0,
			"byteLength":3144,
			"byteOffset":107152,
			"target":34962
		},
		{
			"buffer":0,
			"byteLength":2280,
			"byteOffset":110296,
			"target":34963
		},
		{
			"buffer":0,
			"byteLength":1068,
			"byteOffset":112576,
			"target":34962
		},
		{
			"buffer":0,
			"byteLength":1068,
			"byteOffset":113644,
			"target":34962
		},
		{
			"buffer":0,
			"byteLength":712,
			"byteOffset":114712,
			"target":34962
		},
		{
			"buffer":0,
			"byteLength":648,
			"byteOffset":115424,
			"target":34963
		},
		{
			"buffer":0,
			"byteLength":4236,
			"byteOffset":116072,
			"target":34962
		},
		{
			"buffer":0,
			"byteLength":4236,
			"byteOffset":120308,
			"target":34962
		},
		{
			"buffer":0,
			"byteLength":2824,
			"byteOffset":124544,
			"target":34962
		},
		{
			"buffer":0,
			"byteLength":2628,
			"byteOffset":127368,
			"target":34963
		},
		{
			"buffer":0,
			"byteLength":2388,
			"byteOffset":129996,
			"target":34962
		},
		{
			"buffer":0,
			"byteLength":2388,
			"byteOffset":132384,
			"target":34962
		},
		{
			"buffer":0,
			"byteLength":1592,
			"byteOffset":134772,
			"target":34962
		},
		{
			"buffer":0,
			"byteLength":1368,
			"byteOffset":136364,
			"target":34963
		},
		{
			"buffer":0,
			"byteLength":312,
			"byteOffset":137732,
			"target":34962
		},
		{
			"buffer":0,
			"byteLength":312,
			"byteOffset":138044,
			"target":34962
		},
		{
			"buffer":0,
			"byteLength":208,
			"byteOffset":138356,
			"target":34962
		},
		{
			"buffer":0,
			"byteLength":96,
			"byteOffset":138564,
			"target":34963
		},
		{
			"buffer":0,
			"byteLength":480,
			"byteOffset":138660,
			"target":34962
		},
		{
			"buffer":0,
			"byteLength":480,
			"byteOffset":139140,
			"target":34962
		},
		{
			"buffer":0,
			"byteLength":320,
			"byteOffset":139620,
			"target":34962
		},
		{
			"buffer":0,
			"byteLength":132,
			"byteOffset":139940,
			"target":34963
		},
		{
			"buffer":0,
			"byteLength":6672,
			"byteOffset":140072,
			"target":34962
		},
		{
			"buffer":0,
			"byteLength":6672,
			"byteOffset":146744,
			"target":34962
		},
		{
			"buffer":0,
			"byteLength":4448,
			"byteOffset":153416,
			"target":34962
		},
		{
			"buffer":0,
			"byteLength":3072,
			"byteOffset":157864,
			"target":34963
		},
		{
			"buffer":0,
			"byteLength":120,
			"byteOffset":160936,
			"target":34962
		},
		{
			"buffer":0,
			"byteLength":120,
			"byteOffset":161056,
			"target":34962
		},
		{
			"buffer":0,
			"byteLength":80,
			"byteOffset":161176,
			"target":34962
		},
		{
			"buffer":0,
			"byteLength":48,
			"byteOffset":161256,
			"target":34963
		},
		{
			"buffer":0,
			"byteLength":5520,
			"byteOffset":161304,
			"target":34962
		},
		{
			"buffer":0,
			"byteLength":5520,
			"byteOffset":166824,
			"target":34962
		},
		{
			"buffer":0,
			"byteLength":3680,
			"byteOffset":172344,
			"target":34962
		},
		{
			"buffer":0,
			"byteLength":1368,
			"byteOffset":176024,
			"target":34963
		},
		{
			"buffer":0,
			"byteLength":3264,
			"byteOffset":177392,
			"target":34962
		},
		{
			"buffer":0,
			"byteLength":3264,
			"byteOffset":180656,
			"target":34962
		},
		{
			"buffer":0,
			"byteLength":2176,
			"byteOffset":183920,
			"target":34962
		},
		{
			"buffer":0,
			"byteLength":1464,
			"byteOffset":186096,
			"target":34963
		},
		{
			"buffer":0,
			"byteLength":2892,
			"byteOffset":187560,
			"target":34962
		},
		{
			"buffer":0,
			"byteLength":2892,
			"byteOffset":190452,
			"target":34962
		},
		{
			"buffer":0,
			"byteLength":1928,
			"byteOffset":193344,
			"target":34962
		},
		{
			"buffer":0,
			"byteLength":1440,
			"byteOffset":195272,
			"target":34963
		},
		{
			"buffer":0,
			"byteLength":3600,
			"byteOffset":196712,
			"target":34962
		},
		{
			"buffer":0,
			"byteLength":3600,
			"byteOffset":200312,
			"target":34962
		},
		{
			"buffer":0,
			"byteLength":2400,
			"byteOffset":203912,
			"target":34962
		},
		{
			"buffer":0,
			"byteLength":1584,
			"byteOffset":206312,
			"target":34963
		},
		{
			"buffer":0,
			"byteLength":2268,
			"byteOffset":207896,
			"target":34962
		},
		{
			"buffer":0,
			"byteLength":2268,
			"byteOffset":210164,
			"target":34962
		},
		{
			"buffer":0,
			"byteLength":1512,
			"byteOffset":212432,
			"target":34962
		},
		{
			"buffer":0,
			"byteLength":828,
			"byteOffset":213944,
			"target":34963
		},
		{
			"buffer":0,
			"byteLength":2664,
			"byteOffset":214772,
			"target":34962
		},
		{
			"buffer":0,
			"byteLength":2664,
			"byteOffset":217436,
			"target":34962
		},
		{
			"buffer":0,
			"byteLength":1776,
			"byteOffset":220100,
			"target":34962
		},
		{
			"buffer":0,
			"byteLength":1392,
			"byteOffset":221876,
			"target":34963
		},
		{
			"buffer":0,
			"byteLength":3420,
			"byteOffset":223268,
			"target":34962
		},
		{
			"buffer":0,
			"byteLength":3420,
			"byteOffset":226688,
			"target":34962
		},
		{
			"buffer":0,
			"byteLength":2280,
			"byteOffset":230108,
			"target":34962
		},
		{
			"buffer":0,
			"byteLength":1320,
			"byteOffset":232388,
			"target":34963
		},
		{
			"buffer":0,
			"byteLength":3912,
			"byteOffset":233708,
			"target":34962
		},
		{
			"buffer":0,
			"byteLength":3912,
			"byteOffset":237620,
			"target":34962
		},
		{
			"buffer":0,
			"byteLength":2608,
			"byteOffset":241532,
			"target":34962
		},
		{
			"buffer":0,
			"byteLength":1584,
			"byteOffset":244140,
			"target":34963
		},
		{
			"buffer":0,
			"byteLength":672,
			"byteOffset":245724,
			"target":34962
		},
		{
			"buffer":0,
			"byteLength":672,
			"byteOffset":246396,
			"target":34962
		},
		{
			"buffer":0,
			"byteLength":448,
			"byteOffset":247068,
			"target":34962
		},
		{
			"buffer":0,
			"byteLength":216,
			"byteOffset":247516,
			"target":34963
		}
	],
	"samplers":[
		{
			"magFilter":9729,
			"minFilter":9987
		}
	],
	"buffers":[
		{
			"byteLength":247732,
			"uri":"church.bin"
		}
	]
}
