{
	"asset":{
		"generator":"Khronos glTF Blender I/O v4.4.56",
		"version":"2.0"
	},
	"scene":0,
	"scenes":[
		{
			"name":"Scene",
			"nodes":[
				0,
				1,
				2,
				3
			]
		}
	],
	"nodes":[
		{
			"mesh":0,
			"name":"Cube",
			"scale":[
				0.16371221840381622,
				0.19221967458724976,
				0.16371221840381622
			]
		},
		{
			"mesh":1,
			"name":"Cube.001",
			"translation":[
				78,
				-1,
				0
			]
		},
		{
			"name":"Plane",
			"translation":[
				0,
				0.32255953550338745,
				0
			]
		},
		{
			"mesh":2,
			"name":"Plane.001"
		}
	],
	"materials":[
		{
			"doubleSided":true,
			"name":"Material",
			"pbrMetallicRoughness":{
				"baseColorTexture":{
					"index":0
				},
				"metallicFactor":0,
				"roughnessFactor":0.5
			}
		}
	],
	"meshes":[
		{
			"name":"Cube",
			"primitives":[
				{
					"attributes":{
						"POSITION":0,
						"NORMAL":1,
						"TEXCOORD_0":2
					},
					"indices":3,
					"material":0
				}
			]
		},
		{
			"name":"Cube.001",
			"primitives":[
				{
					"attributes":{
						"POSITION":4,
						"NORMAL":5,
						"TEXCOORD_0":6
					},
					"indices":7,
					"material":0
				}
			]
		},
		{
			"name":"Plane.001",
			"primitives":[
				{
					"attributes":{
						"POSITION":8,
						"NORMAL":9,
						"TEXCOORD_0":10
					},
					"indices":11,
					"material":0
				}
			]
		}
	],
	"textures":[
		{
			"sampler":0,
			"source":0
		}
	],
	"images":[
		{
			"mimeType":"image/jpeg",
			"name":"MET_METALWEATHERED01",
			"uri":"../textures/MET_METALWEATHERED01.jpg"
		}
	],
	"accessors":[
		{
			"bufferView":0,
			"componentType":5126,
			"count":100,
			"max":[
				1.2121974229812622,
				2.0809526443481445,
				1.2121974229812622
			],
			"min":[
				-1.2121974229812622,
				0,
				-1.2121974229812622
			],
			"type":"VEC3"
		},
		{
			"bufferView":1,
			"componentType":5126,
			"count":100,
			"type":"VEC3"
		},
		{
			"bufferView":2,
			"componentType":5126,
			"count":100,
			"type":"VEC2"
		},
		{
			"bufferView":3,
			"componentType":5123,
			"count":288,
			"type":"SCALAR"
		},
		{
			"bufferView":4,
			"componentType":5126,
			"count":24,
			"max":[
				1,
				2,
				1
			],
			"min":[
				-1,
				0,
				-1
			],
			"type":"VEC3"
		},
		{
			"bufferView":5,
			"componentType":5126,
			"count":24,
			"type":"VEC3"
		},
		{
			"bufferView":6,
			"componentType":5126,
			"count":24,
			"type":"VEC2"
		},
		{
			"bufferView":7,
			"componentType":5123,
			"count":36,
			"type":"SCALAR"
		},
		{
			"bufferView":8,
			"componentType":5126,
			"count":22,
			"max":[
				0.19009673595428467,
				0.3757611811161041,
				0.22984357178211212
			],
			"min":[
				-0.19009673595428467,
				0.18939334154129028,
				-0.013927455991506577
			],
			"type":"VEC3"
		},
		{
			"bufferView":9,
			"componentType":5126,
			"count":22,
			"type":"VEC3"
		},
		{
			"bufferView":10,
			"componentType":5126,
			"count":22,
			"type":"VEC2"
		},
		{
			"bufferView":11,
			"componentType":5123,
			"count":60,
			"type":"SCALAR"
		}
	],
	"bufferViews":[
		{
			"buffer":0,
			"byteLength":1200,
			"byteOffset":0,
			"target":34962
		},
		{
			"buffer":0,
			"byteLength":1200,
			"byteOffset":1200,
			"target":34962
		},
		{
			"buffer":0,
			"byteLength":800,
			"byteOffset":2400,
			"target":34962
		},
		{
			"buffer":0,
			"byteLength":576,
			"byteOffset":3200,
			"target":34963
		},
		{
			"buffer":0,
			"byteLength":288,
			"byteOffset":3776,
			"target":34962
		},
		{
			"buffer":0,
			"byteLength":288,
			"byteOffset":4064,
			"target":34962
		},
		{
			"buffer":0,
			"byteLength":192,
			"byteOffset":4352,
			"target":34962
		},
		{
			"buffer":0,
			"byteLength":72,
			"byteOffset":4544,
			"target":34963
		},
		{
			"buffer":0,
			"byteLength":264,
			"byteOffset":4616,
			"target":34962
		},
		{
			"buffer":0,
			"byteLength":264,
			"byteOffset":4880,
			"target":34962
		},
		{
			"buffer":0,
			"byteLength":176,
			"byteOffset":5144,
			"target":34962
		},
		{
			"buffer":0,
			"byteLength":120,
			"byteOffset":5320,
			"target":34963
		}
	],
	"samplers":[
		{
			"magFilter":9729,
			"minFilter":9987
		}
	],
	"buffers":[
		{
			"byteLength":5440,
			"uri":"bucket01.bin"
		}
	]
}
