{
	"asset":{
		"generator":"Khronos glTF Blender I/O v4.4.56",
		"version":"2.0"
	},
	"extensionsUsed":[
		"KHR_materials_specular",
		"KHR_materials_ior"
	],
	"scene":0,
	"scenes":[
		{
			"name":"Scene",
			"nodes":[
				22,
				23,
				24,
				25,
				26,
				27,
				21
			]
		}
	],
	"nodes":[
		{
			"name":"Trunk.001",
			"rotation":[
				1.043081283569336e-07,
				-7.031035206700735e-23,
				2.812414082680294e-23,
				1
			],
			"translation":[
				-7.940933880509066e-23,
				0.27876055240631104,
				2.384185791015625e-07
			]
		},
		{
			"children":[
				0
			],
			"name":"Trunk.002",
			"rotation":[
				4.842877388000488e-07,
				-3.242618940217201e-16,
				-9.8426869597285e-17,
				1
			],
			"translation":[
				1.5881867761018131e-22,
				0.27876046299934387,
				0
			]
		},
		{
			"children":[
				1
			],
			"name":"Trunk",
			"rotation":[
				-0.1727142482995987,
				9.148311552742427e-10,
				-1.5939608521975401e-09,
				0.9849720001220703
			],
			"scale":[
				1,
				0.9999999403953552,
				1
			],
			"translation":[
				-4.440892098500626e-16,
				0.43116530776023865,
				0
			]
		},
		{
			"mesh":1,
			"name":"Eyes",
			"rotation":[
				0.9056234955787659,
				-1.299543694877059e-09,
				-1.2995435838547564e-09,
				0.4240826368331909
			],
			"scale":[
				1,
				0.9999999403953552,
				1.0000001192092896
			],
			"translation":[
				-5.915668843670119e-09,
				-0.3120969831943512,
				-2.674198865890503
			]
		},
		{
			"children":[
				2,
				3
			],
			"name":"Head",
			"rotation":[
				-0.34050098061561584,
				-3.0528257699558026e-10,
				2.680827559942145e-09,
				0.940244197845459
			],
			"scale":[
				1,
				1,
				0.9999999403953552
			],
			"translation":[
				9.777228518262484e-17,
				0.8310086131095886,
				-4.154992438998306e-08
			]
		},
		{
			"children":[
				4
			],
			"name":"Neck.001",
			"rotation":[
				0.009617011062800884,
				8.621927824470355e-12,
				-8.965292952467507e-10,
				0.9999537467956543
			],
			"scale":[
				1,
				0.9999999403953552,
				1
			],
			"translation":[
				-5.293955920339377e-23,
				1.0837187767028809,
				-3.91155481338501e-08
			]
		},
		{
			"name":"Arm.001.R",
			"rotation":[
				-0.34107235074043274,
				6.551373132879235e-08,
				-0.00683047529309988,
				0.9400122761726379
			],
			"scale":[
				1,
				0.9999998807907104,
				0.9999999403953552
			],
			"translation":[
				2.9802322387695312e-08,
				0.6655017733573914,
				-2.7939677238464355e-08
			]
		},
		{
			"children":[
				6
			],
			"name":"Arm.R",
			"rotation":[
				-0.19782882928848267,
				-0.04395437613129616,
				-0.09471216797828674,
				0.9746596217155457
			],
			"scale":[
				0.9999999403953552,
				1,
				1
			],
			"translation":[
				0.21713468432426453,
				1.0999115705490112,
				-0.5723062753677368
			]
		},
		{
			"name":"Arm.001.L",
			"rotation":[
				-0.34107235074043274,
				-6.551373132879235e-08,
				0.00683047529309988,
				0.9400122761726379
			],
			"scale":[
				1,
				0.9999998807907104,
				0.9999999403953552
			],
			"translation":[
				-2.9802322387695312e-08,
				0.6655017733573914,
				-2.7939677238464355e-08
			]
		},
		{
			"children":[
				8
			],
			"name":"Arm.L",
			"rotation":[
				-0.19782882928848267,
				0.04395437613129616,
				0.09471216797828674,
				0.9746596217155457
			],
			"scale":[
				0.9999999403953552,
				1,
				1
			],
			"translation":[
				-0.21713468432426453,
				1.0999115705490112,
				-0.5723062753677368
			]
		},
		{
			"children":[
				5,
				7,
				9
			],
			"name":"Neck",
			"rotation":[
				-0.7139161825180054,
				2.8949741909256588e-11,
				-3.0101661163683957e-09,
				0.7002311944961548
			],
			"scale":[
				1,
				0.9999999403953552,
				0.9999999403953552
			],
			"translation":[
				-7.291029557876527e-09,
				0.8751013278961182,
				-0.03748060390353203
			]
		},
		{
			"name":"Wing.001.R",
			"rotation":[
				-0.8723785877227783,
				-0.48864978551864624,
				0.013062515296041965,
				0.0025317363906651735
			],
			"scale":[
				0.9999998211860657,
				0.9999998211860657,
				1
			],
			"translation":[
				2.9802322387695312e-08,
				0.9896383881568909,
				1.1175870895385742e-08
			]
		},
		{
			"children":[
				11
			],
			"name":"Wing.R",
			"rotation":[
				0.11658928543329239,
				-0.26666179299354553,
				-0.4055950939655304,
				0.8664820194244385
			],
			"scale":[
				1.0000001192092896,
				1.0000001192092896,
				1.0000001192092896
			],
			"translation":[
				0.43890732526779175,
				1.0822473764419556,
				0.2831960916519165
			]
		},
		{
			"name":"Leg.R",
			"rotation":[
				1,
				9.84455572616838e-17,
				-7.549789415861596e-08,
				0.00011966795136686414
			],
			"scale":[
				1,
				0.9999997615814209,
				1
			],
			"translation":[
				0.32500576972961426,
				-0.16942815482616425,
				-0.3249245285987854
			]
		},
		{
			"name":"Leg.001.R",
			"rotation":[
				1,
				9.84455572616838e-17,
				-7.549789415861596e-08,
				0.00011966795136686414
			],
			"scale":[
				1,
				0.9999997615814209,
				1
			],
			"translation":[
				0.32500576972961426,
				-0.16935046017169952,
				0.3252360224723816
			]
		},
		{
			"name":"Wing.001.L",
			"rotation":[
				-0.8723785877227783,
				0.48864978551864624,
				-0.013062513433396816,
				0.0025317352265119553
			],
			"scale":[
				0.9999998211860657,
				0.9999998211860657,
				1
			],
			"translation":[
				-2.9802322387695312e-08,
				0.9896383881568909,
				1.1175870895385742e-08
			]
		},
		{
			"children":[
				15
			],
			"name":"Wing.L",
			"rotation":[
				0.11658928543329239,
				0.26666179299354553,
				0.4055950939655304,
				0.8664820194244385
			],
			"scale":[
				1.0000001192092896,
				1.0000001192092896,
				1.0000001192092896
			],
			"translation":[
				-0.43890732526779175,
				1.0822473764419556,
				0.2831960916519165
			]
		},
		{
			"name":"Leg.L",
			"rotation":[
				1,
				9.84455572616838e-17,
				-7.549789415861596e-08,
				0.00011966795136686414
			],
			"scale":[
				1,
				0.9999997615814209,
				1
			],
			"translation":[
				-0.32500576972961426,
				-0.16942815482616425,
				-0.3249245285987854
			]
		},
		{
			"name":"Leg.001.L",
			"rotation":[
				1,
				9.84455572616838e-17,
				-7.549789415861596e-08,
				0.00011966795136686414
			],
			"scale":[
				1,
				0.9999997615814209,
				1
			],
			"translation":[
				-0.32500576972961426,
				-0.16935046017169952,
				0.3252360224723816
			]
		},
		{
			"mesh":2,
			"name":"Body",
			"rotation":[
				-5.984583549434319e-05,
				-2.1286075124749004e-09,
				-2.1286075124749004e-09,
				1
			],
			"translation":[
				-1.543392080805006e-08,
				-1,
				0.0002551860234234482
			]
		},
		{
			"children":[
				10,
				12,
				13,
				14,
				16,
				17,
				18,
				19
			],
			"name":"Body",
			"rotation":[
				0.707149088382721,
				-4.709995524634501e-16,
				3.0103051162910788e-09,
				0.7070644497871399
			],
			"translation":[
				1.1175870895385742e-08,
				0.0001354813575744629,
				0.9999999403953552
			]
		},
		{
			"children":[
				20
			],
			"name":"Base",
			"rotation":[
				-0.7071067690849304,
				7.939533629168136e-17,
				7.939533629168136e-17,
				0.7071067690849304
			]
		},
		{
			"mesh":0,
			"name":"Arms",
			"skin":0
		},
		{
			"mesh":3,
			"name":"Feet",
			"skin":0
		},
		{
			"mesh":4,
			"name":"Neck",
			"skin":0
		},
		{
			"mesh":5,
			"name":"Neck.001",
			"skin":0
		},
		{
			"mesh":6,
			"name":"Plane",
			"skin":0
		},
		{
			"mesh":7,
			"name":"Wings",
			"skin":0
		}
	],
	"animations":[
		{
			"channels":[
				{
					"sampler":0,
					"target":{
						"node":21,
						"path":"translation"
					}
				},
				{
					"sampler":1,
					"target":{
						"node":21,
						"path":"rotation"
					}
				},
				{
					"sampler":2,
					"target":{
						"node":21,
						"path":"scale"
					}
				},
				{
					"sampler":3,
					"target":{
						"node":20,
						"path":"translation"
					}
				},
				{
					"sampler":4,
					"target":{
						"node":20,
						"path":"rotation"
					}
				},
				{
					"sampler":5,
					"target":{
						"node":20,
						"path":"scale"
					}
				},
				{
					"sampler":6,
					"target":{
						"node":10,
						"path":"translation"
					}
				},
				{
					"sampler":7,
					"target":{
						"node":10,
						"path":"rotation"
					}
				},
				{
					"sampler":8,
					"target":{
						"node":10,
						"path":"scale"
					}
				},
				{
					"sampler":9,
					"target":{
						"node":5,
						"path":"translation"
					}
				},
				{
					"sampler":10,
					"target":{
						"node":5,
						"path":"rotation"
					}
				},
				{
					"sampler":11,
					"target":{
						"node":5,
						"path":"scale"
					}
				},
				{
					"sampler":12,
					"target":{
						"node":4,
						"path":"translation"
					}
				},
				{
					"sampler":13,
					"target":{
						"node":4,
						"path":"rotation"
					}
				},
				{
					"sampler":14,
					"target":{
						"node":4,
						"path":"scale"
					}
				},
				{
					"sampler":15,
					"target":{
						"node":2,
						"path":"translation"
					}
				},
				{
					"sampler":16,
					"target":{
						"node":2,
						"path":"rotation"
					}
				},
				{
					"sampler":17,
					"target":{
						"node":2,
						"path":"scale"
					}
				},
				{
					"sampler":18,
					"target":{
						"node":1,
						"path":"translation"
					}
				},
				{
					"sampler":19,
					"target":{
						"node":1,
						"path":"rotation"
					}
				},
				{
					"sampler":20,
					"target":{
						"node":1,
						"path":"scale"
					}
				},
				{
					"sampler":21,
					"target":{
						"node":0,
						"path":"translation"
					}
				},
				{
					"sampler":22,
					"target":{
						"node":0,
						"path":"rotation"
					}
				},
				{
					"sampler":23,
					"target":{
						"node":0,
						"path":"scale"
					}
				},
				{
					"sampler":24,
					"target":{
						"node":7,
						"path":"translation"
					}
				},
				{
					"sampler":25,
					"target":{
						"node":7,
						"path":"rotation"
					}
				},
				{
					"sampler":26,
					"target":{
						"node":7,
						"path":"scale"
					}
				},
				{
					"sampler":27,
					"target":{
						"node":6,
						"path":"translation"
					}
				},
				{
					"sampler":28,
					"target":{
						"node":6,
						"path":"rotation"
					}
				},
				{
					"sampler":29,
					"target":{
						"node":6,
						"path":"scale"
					}
				},
				{
					"sampler":30,
					"target":{
						"node":9,
						"path":"translation"
					}
				},
				{
					"sampler":31,
					"target":{
						"node":9,
						"path":"rotation"
					}
				},
				{
					"sampler":32,
					"target":{
						"node":9,
						"path":"scale"
					}
				},
				{
					"sampler":33,
					"target":{
						"node":8,
						"path":"translation"
					}
				},
				{
					"sampler":34,
					"target":{
						"node":8,
						"path":"rotation"
					}
				},
				{
					"sampler":35,
					"target":{
						"node":8,
						"path":"scale"
					}
				},
				{
					"sampler":36,
					"target":{
						"node":12,
						"path":"translation"
					}
				},
				{
					"sampler":37,
					"target":{
						"node":12,
						"path":"rotation"
					}
				},
				{
					"sampler":38,
					"target":{
						"node":12,
						"path":"scale"
					}
				},
				{
					"sampler":39,
					"target":{
						"node":11,
						"path":"translation"
					}
				},
				{
					"sampler":40,
					"target":{
						"node":11,
						"path":"rotation"
					}
				},
				{
					"sampler":41,
					"target":{
						"node":11,
						"path":"scale"
					}
				},
				{
					"sampler":42,
					"target":{
						"node":13,
						"path":"translation"
					}
				},
				{
					"sampler":43,
					"target":{
						"node":13,
						"path":"rotation"
					}
				},
				{
					"sampler":44,
					"target":{
						"node":13,
						"path":"scale"
					}
				},
				{
					"sampler":45,
					"target":{
						"node":14,
						"path":"translation"
					}
				},
				{
					"sampler":46,
					"target":{
						"node":14,
						"path":"rotation"
					}
				},
				{
					"sampler":47,
					"target":{
						"node":14,
						"path":"scale"
					}
				},
				{
					"sampler":48,
					"target":{
						"node":16,
						"path":"translation"
					}
				},
				{
					"sampler":49,
					"target":{
						"node":16,
						"path":"rotation"
					}
				},
				{
					"sampler":50,
					"target":{
						"node":16,
						"path":"scale"
					}
				},
				{
					"sampler":51,
					"target":{
						"node":15,
						"path":"translation"
					}
				},
				{
					"sampler":52,
					"target":{
						"node":15,
						"path":"rotation"
					}
				},
				{
					"sampler":53,
					"target":{
						"node":15,
						"path":"scale"
					}
				},
				{
					"sampler":54,
					"target":{
						"node":17,
						"path":"translation"
					}
				},
				{
					"sampler":55,
					"target":{
						"node":17,
						"path":"rotation"
					}
				},
				{
					"sampler":56,
					"target":{
						"node":17,
						"path":"scale"
					}
				},
				{
					"sampler":57,
					"target":{
						"node":18,
						"path":"translation"
					}
				},
				{
					"sampler":58,
					"target":{
						"node":18,
						"path":"rotation"
					}
				},
				{
					"sampler":59,
					"target":{
						"node":18,
						"path":"scale"
					}
				}
			],
			"name":"Idle",
			"samplers":[
				{
					"input":45,
					"interpolation":"STEP",
					"output":46
				},
				{
					"input":45,
					"interpolation":"STEP",
					"output":47
				},
				{
					"input":45,
					"interpolation":"STEP",
					"output":48
				},
				{
					"input":45,
					"interpolation":"STEP",
					"output":49
				},
				{
					"input":45,
					"interpolation":"STEP",
					"output":50
				},
				{
					"input":45,
					"interpolation":"STEP",
					"output":51
				},
				{
					"input":45,
					"interpolation":"STEP",
					"output":52
				},
				{
					"input":45,
					"interpolation":"STEP",
					"output":53
				},
				{
					"input":45,
					"interpolation":"STEP",
					"output":54
				},
				{
					"input":45,
					"interpolation":"STEP",
					"output":55
				},
				{
					"input":56,
					"interpolation":"LINEAR",
					"output":57
				},
				{
					"input":45,
					"interpolation":"STEP",
					"output":58
				},
				{
					"input":45,
					"interpolation":"LINEAR",
					"output":59
				},
				{
					"input":56,
					"interpolation":"LINEAR",
					"output":60
				},
				{
					"input":45,
					"interpolation":"STEP",
					"output":61
				},
				{
					"input":45,
					"interpolation":"LINEAR",
					"output":62
				},
				{
					"input":45,
					"interpolation":"LINEAR",
					"output":63
				},
				{
					"input":45,
					"interpolation":"STEP",
					"output":64
				},
				{
					"input":45,
					"interpolation":"LINEAR",
					"output":65
				},
				{
					"input":45,
					"interpolation":"LINEAR",
					"output":66
				},
				{
					"input":45,
					"interpolation":"STEP",
					"output":67
				},
				{
					"input":45,
					"interpolation":"LINEAR",
					"output":68
				},
				{
					"input":45,
					"interpolation":"LINEAR",
					"output":69
				},
				{
					"input":45,
					"interpolation":"STEP",
					"output":70
				},
				{
					"input":45,
					"interpolation":"LINEAR",
					"output":71
				},
				{
					"input":56,
					"interpolation":"LINEAR",
					"output":72
				},
				{
					"input":45,
					"interpolation":"STEP",
					"output":73
				},
				{
					"input":45,
					"interpolation":"LINEAR",
					"output":74
				},
				{
					"input":56,
					"interpolation":"LINEAR",
					"output":75
				},
				{
					"input":45,
					"interpolation":"STEP",
					"output":76
				},
				{
					"input":45,
					"interpolation":"LINEAR",
					"output":77
				},
				{
					"input":56,
					"interpolation":"LINEAR",
					"output":78
				},
				{
					"input":45,
					"interpolation":"STEP",
					"output":79
				},
				{
					"input":45,
					"interpolation":"LINEAR",
					"output":80
				},
				{
					"input":56,
					"interpolation":"LINEAR",
					"output":81
				},
				{
					"input":45,
					"interpolation":"STEP",
					"output":82
				},
				{
					"input":45,
					"interpolation":"STEP",
					"output":83
				},
				{
					"input":56,
					"interpolation":"LINEAR",
					"output":84
				},
				{
					"input":45,
					"interpolation":"STEP",
					"output":85
				},
				{
					"input":45,
					"interpolation":"LINEAR",
					"output":86
				},
				{
					"input":56,
					"interpolation":"LINEAR",
					"output":87
				},
				{
					"input":45,
					"interpolation":"LINEAR",
					"output":88
				},
				{
					"input":45,
					"interpolation":"STEP",
					"output":89
				},
				{
					"input":45,
					"interpolation":"STEP",
					"output":90
				},
				{
					"input":45,
					"interpolation":"STEP",
					"output":91
				},
				{
					"input":45,
					"interpolation":"STEP",
					"output":92
				},
				{
					"input":45,
					"interpolation":"STEP",
					"output":93
				},
				{
					"input":45,
					"interpolation":"STEP",
					"output":94
				},
				{
					"input":45,
					"interpolation":"STEP",
					"output":95
				},
				{
					"input":56,
					"interpolation":"LINEAR",
					"output":96
				},
				{
					"input":45,
					"interpolation":"STEP",
					"output":97
				},
				{
					"input":45,
					"interpolation":"LINEAR",
					"output":98
				},
				{
					"input":56,
					"interpolation":"LINEAR",
					"output":99
				},
				{
					"input":45,
					"interpolation":"LINEAR",
					"output":100
				},
				{
					"input":45,
					"interpolation":"STEP",
					"output":101
				},
				{
					"input":45,
					"interpolation":"STEP",
					"output":102
				},
				{
					"input":45,
					"interpolation":"STEP",
					"output":103
				},
				{
					"input":45,
					"interpolation":"STEP",
					"output":104
				},
				{
					"input":45,
					"interpolation":"STEP",
					"output":105
				},
				{
					"input":45,
					"interpolation":"STEP",
					"output":106
				}
			]
		},
		{
			"channels":[
				{
					"sampler":0,
					"target":{
						"node":21,
						"path":"translation"
					}
				},
				{
					"sampler":1,
					"target":{
						"node":21,
						"path":"rotation"
					}
				},
				{
					"sampler":2,
					"target":{
						"node":21,
						"path":"scale"
					}
				},
				{
					"sampler":3,
					"target":{
						"node":20,
						"path":"translation"
					}
				},
				{
					"sampler":4,
					"target":{
						"node":20,
						"path":"rotation"
					}
				},
				{
					"sampler":5,
					"target":{
						"node":20,
						"path":"scale"
					}
				},
				{
					"sampler":6,
					"target":{
						"node":10,
						"path":"translation"
					}
				},
				{
					"sampler":7,
					"target":{
						"node":10,
						"path":"rotation"
					}
				},
				{
					"sampler":8,
					"target":{
						"node":10,
						"path":"scale"
					}
				},
				{
					"sampler":9,
					"target":{
						"node":5,
						"path":"translation"
					}
				},
				{
					"sampler":10,
					"target":{
						"node":5,
						"path":"rotation"
					}
				},
				{
					"sampler":11,
					"target":{
						"node":5,
						"path":"scale"
					}
				},
				{
					"sampler":12,
					"target":{
						"node":4,
						"path":"translation"
					}
				},
				{
					"sampler":13,
					"target":{
						"node":4,
						"path":"rotation"
					}
				},
				{
					"sampler":14,
					"target":{
						"node":4,
						"path":"scale"
					}
				},
				{
					"sampler":15,
					"target":{
						"node":2,
						"path":"translation"
					}
				},
				{
					"sampler":16,
					"target":{
						"node":2,
						"path":"rotation"
					}
				},
				{
					"sampler":17,
					"target":{
						"node":2,
						"path":"scale"
					}
				},
				{
					"sampler":18,
					"target":{
						"node":1,
						"path":"translation"
					}
				},
				{
					"sampler":19,
					"target":{
						"node":1,
						"path":"rotation"
					}
				},
				{
					"sampler":20,
					"target":{
						"node":1,
						"path":"scale"
					}
				},
				{
					"sampler":21,
					"target":{
						"node":0,
						"path":"translation"
					}
				},
				{
					"sampler":22,
					"target":{
						"node":0,
						"path":"rotation"
					}
				},
				{
					"sampler":23,
					"target":{
						"node":0,
						"path":"scale"
					}
				},
				{
					"sampler":24,
					"target":{
						"node":7,
						"path":"translation"
					}
				},
				{
					"sampler":25,
					"target":{
						"node":7,
						"path":"rotation"
					}
				},
				{
					"sampler":26,
					"target":{
						"node":7,
						"path":"scale"
					}
				},
				{
					"sampler":27,
					"target":{
						"node":6,
						"path":"translation"
					}
				},
				{
					"sampler":28,
					"target":{
						"node":6,
						"path":"rotation"
					}
				},
				{
					"sampler":29,
					"target":{
						"node":6,
						"path":"scale"
					}
				},
				{
					"sampler":30,
					"target":{
						"node":9,
						"path":"translation"
					}
				},
				{
					"sampler":31,
					"target":{
						"node":9,
						"path":"rotation"
					}
				},
				{
					"sampler":32,
					"target":{
						"node":9,
						"path":"scale"
					}
				},
				{
					"sampler":33,
					"target":{
						"node":8,
						"path":"translation"
					}
				},
				{
					"sampler":34,
					"target":{
						"node":8,
						"path":"rotation"
					}
				},
				{
					"sampler":35,
					"target":{
						"node":8,
						"path":"scale"
					}
				},
				{
					"sampler":36,
					"target":{
						"node":12,
						"path":"translation"
					}
				},
				{
					"sampler":37,
					"target":{
						"node":12,
						"path":"rotation"
					}
				},
				{
					"sampler":38,
					"target":{
						"node":12,
						"path":"scale"
					}
				},
				{
					"sampler":39,
					"target":{
						"node":11,
						"path":"translation"
					}
				},
				{
					"sampler":40,
					"target":{
						"node":11,
						"path":"rotation"
					}
				},
				{
					"sampler":41,
					"target":{
						"node":11,
						"path":"scale"
					}
				},
				{
					"sampler":42,
					"target":{
						"node":13,
						"path":"translation"
					}
				},
				{
					"sampler":43,
					"target":{
						"node":13,
						"path":"rotation"
					}
				},
				{
					"sampler":44,
					"target":{
						"node":13,
						"path":"scale"
					}
				},
				{
					"sampler":45,
					"target":{
						"node":14,
						"path":"translation"
					}
				},
				{
					"sampler":46,
					"target":{
						"node":14,
						"path":"rotation"
					}
				},
				{
					"sampler":47,
					"target":{
						"node":14,
						"path":"scale"
					}
				},
				{
					"sampler":48,
					"target":{
						"node":16,
						"path":"translation"
					}
				},
				{
					"sampler":49,
					"target":{
						"node":16,
						"path":"rotation"
					}
				},
				{
					"sampler":50,
					"target":{
						"node":16,
						"path":"scale"
					}
				},
				{
					"sampler":51,
					"target":{
						"node":15,
						"path":"translation"
					}
				},
				{
					"sampler":52,
					"target":{
						"node":15,
						"path":"rotation"
					}
				},
				{
					"sampler":53,
					"target":{
						"node":15,
						"path":"scale"
					}
				},
				{
					"sampler":54,
					"target":{
						"node":17,
						"path":"translation"
					}
				},
				{
					"sampler":55,
					"target":{
						"node":17,
						"path":"rotation"
					}
				},
				{
					"sampler":56,
					"target":{
						"node":17,
						"path":"scale"
					}
				},
				{
					"sampler":57,
					"target":{
						"node":18,
						"path":"translation"
					}
				},
				{
					"sampler":58,
					"target":{
						"node":18,
						"path":"rotation"
					}
				},
				{
					"sampler":59,
					"target":{
						"node":18,
						"path":"scale"
					}
				}
			],
			"name":"Walk",
			"samplers":[
				{
					"input":107,
					"interpolation":"STEP",
					"output":108
				},
				{
					"input":107,
					"interpolation":"STEP",
					"output":109
				},
				{
					"input":107,
					"interpolation":"STEP",
					"output":110
				},
				{
					"input":107,
					"interpolation":"STEP",
					"output":111
				},
				{
					"input":107,
					"interpolation":"STEP",
					"output":112
				},
				{
					"input":107,
					"interpolation":"STEP",
					"output":113
				},
				{
					"input":107,
					"interpolation":"STEP",
					"output":114
				},
				{
					"input":115,
					"interpolation":"LINEAR",
					"output":116
				},
				{
					"input":107,
					"interpolation":"STEP",
					"output":117
				},
				{
					"input":107,
					"interpolation":"LINEAR",
					"output":118
				},
				{
					"input":115,
					"interpolation":"LINEAR",
					"output":119
				},
				{
					"input":107,
					"interpolation":"STEP",
					"output":120
				},
				{
					"input":107,
					"interpolation":"LINEAR",
					"output":121
				},
				{
					"input":115,
					"interpolation":"LINEAR",
					"output":122
				},
				{
					"input":107,
					"interpolation":"STEP",
					"output":123
				},
				{
					"input":107,
					"interpolation":"LINEAR",
					"output":124
				},
				{
					"input":107,
					"interpolation":"LINEAR",
					"output":125
				},
				{
					"input":107,
					"interpolation":"STEP",
					"output":126
				},
				{
					"input":107,
					"interpolation":"LINEAR",
					"output":127
				},
				{
					"input":107,
					"interpolation":"LINEAR",
					"output":128
				},
				{
					"input":107,
					"interpolation":"LINEAR",
					"output":129
				},
				{
					"input":107,
					"interpolation":"LINEAR",
					"output":130
				},
				{
					"input":107,
					"interpolation":"LINEAR",
					"output":131
				},
				{
					"input":107,
					"interpolation":"STEP",
					"output":132
				},
				{
					"input":107,
					"interpolation":"STEP",
					"output":133
				},
				{
					"input":115,
					"interpolation":"LINEAR",
					"output":134
				},
				{
					"input":107,
					"interpolation":"STEP",
					"output":135
				},
				{
					"input":107,
					"interpolation":"LINEAR",
					"output":136
				},
				{
					"input":115,
					"interpolation":"LINEAR",
					"output":137
				},
				{
					"input":107,
					"interpolation":"LINEAR",
					"output":138
				},
				{
					"input":107,
					"interpolation":"STEP",
					"output":139
				},
				{
					"input":115,
					"interpolation":"LINEAR",
					"output":140
				},
				{
					"input":107,
					"interpolation":"STEP",
					"output":141
				},
				{
					"input":107,
					"interpolation":"LINEAR",
					"output":142
				},
				{
					"input":115,
					"interpolation":"LINEAR",
					"output":143
				},
				{
					"input":107,
					"interpolation":"STEP",
					"output":144
				},
				{
					"input":115,
					"interpolation":"LINEAR",
					"output":145
				},
				{
					"input":115,
					"interpolation":"LINEAR",
					"output":146
				},
				{
					"input":107,
					"interpolation":"STEP",
					"output":147
				},
				{
					"input":107,
					"interpolation":"LINEAR",
					"output":148
				},
				{
					"input":115,
					"interpolation":"LINEAR",
					"output":149
				},
				{
					"input":107,
					"interpolation":"STEP",
					"output":150
				},
				{
					"input":115,
					"interpolation":"LINEAR",
					"output":151
				},
				{
					"input":107,
					"interpolation":"STEP",
					"output":152
				},
				{
					"input":107,
					"interpolation":"STEP",
					"output":153
				},
				{
					"input":115,
					"interpolation":"LINEAR",
					"output":154
				},
				{
					"input":107,
					"interpolation":"STEP",
					"output":155
				},
				{
					"input":107,
					"interpolation":"STEP",
					"output":156
				},
				{
					"input":115,
					"interpolation":"LINEAR",
					"output":157
				},
				{
					"input":115,
					"interpolation":"LINEAR",
					"output":158
				},
				{
					"input":107,
					"interpolation":"STEP",
					"output":159
				},
				{
					"input":107,
					"interpolation":"LINEAR",
					"output":160
				},
				{
					"input":115,
					"interpolation":"LINEAR",
					"output":161
				},
				{
					"input":107,
					"interpolation":"STEP",
					"output":162
				},
				{
					"input":115,
					"interpolation":"LINEAR",
					"output":163
				},
				{
					"input":107,
					"interpolation":"STEP",
					"output":164
				},
				{
					"input":107,
					"interpolation":"STEP",
					"output":165
				},
				{
					"input":115,
					"interpolation":"LINEAR",
					"output":166
				},
				{
					"input":107,
					"interpolation":"STEP",
					"output":167
				},
				{
					"input":107,
					"interpolation":"STEP",
					"output":168
				}
			]
		}
	],
	"materials":[
		{
			"doubleSided":true,
			"extensions":{
				"KHR_materials_specular":{
					"specularFactor":0
				},
				"KHR_materials_ior":{
					"ior":1.4500000476837158
				}
			},
			"name":"Material",
			"pbrMetallicRoughness":{
				"baseColorTexture":{
					"index":0
				},
				"metallicFactor":0
			}
		}
	],
	"meshes":[
		{
			"name":"Cube.005",
			"primitives":[
				{
					"attributes":{
						"POSITION":0,
						"NORMAL":1,
						"TEXCOORD_0":2,
						"JOINTS_0":3,
						"WEIGHTS_0":4
					},
					"indices":5,
					"material":0
				}
			]
		},
		{
			"name":"Cube.004",
			"primitives":[
				{
					"attributes":{
						"POSITION":7,
						"NORMAL":8,
						"TEXCOORD_0":9
					},
					"indices":10,
					"material":0
				}
			]
		},
		{
			"name":"Cube",
			"primitives":[
				{
					"attributes":{
						"POSITION":11,
						"NORMAL":12,
						"TEXCOORD_0":13
					},
					"indices":14,
					"material":0
				}
			]
		},
		{
			"name":"Cube.008",
			"primitives":[
				{
					"attributes":{
						"POSITION":15,
						"NORMAL":16,
						"TEXCOORD_0":17,
						"JOINTS_0":18,
						"WEIGHTS_0":19
					},
					"indices":20,
					"material":0
				}
			]
		},
		{
			"name":"Cube.001",
			"primitives":[
				{
					"attributes":{
						"POSITION":21,
						"NORMAL":22,
						"TEXCOORD_0":23,
						"JOINTS_0":24,
						"WEIGHTS_0":25
					},
					"indices":26,
					"material":0
				}
			]
		},
		{
			"name":"Cube.002",
			"primitives":[
				{
					"attributes":{
						"POSITION":27,
						"NORMAL":28,
						"TEXCOORD_0":29,
						"JOINTS_0":30,
						"WEIGHTS_0":31
					},
					"indices":32,
					"material":0
				}
			]
		},
		{
			"name":"Plane",
			"primitives":[
				{
					"attributes":{
						"POSITION":33,
						"NORMAL":34,
						"TEXCOORD_0":35,
						"JOINTS_0":36,
						"WEIGHTS_0":37
					},
					"indices":38,
					"material":0
				}
			]
		},
		{
			"name":"Cube.006",
			"primitives":[
				{
					"attributes":{
						"POSITION":39,
						"NORMAL":40,
						"TEXCOORD_0":41,
						"JOINTS_0":42,
						"WEIGHTS_0":43
					},
					"indices":44,
					"material":0
				}
			]
		}
	],
	"textures":[
		{
			"sampler":0,
			"source":0
		}
	],
	"images":[
		{
			"mimeType":"image/png",
			"name":"CHR_CRAB01",
			"uri":"../textures/CHR_CRAB01.png"
		}
	],
	"skins":[
		{
			"inverseBindMatrices":6,
			"joints":[
				21,
				20,
				10,
				5,
				4,
				2,
				1,
				0,
				7,
				6,
				9,
				8,
				12,
				11,
				13,
				14,
				16,
				15,
				17,
				18
			],
			"name":"Armature"
		}
	],
	"accessors":[
		{
			"bufferView":0,
			"componentType":5126,
			"count":74,
			"max":[
				0.4782603085041046,
				1.343072772026062,
				-1.1129611730575562
			],
			"min":[
				-0.4782603085041046,
				0.4543972909450531,
				-1.9919347763061523
			],
			"type":"VEC3"
		},
		{
			"bufferView":1,
			"componentType":5126,
			"count":74,
			"type":"VEC3"
		},
		{
			"bufferView":2,
			"componentType":5126,
			"count":74,
			"type":"VEC2"
		},
		{
			"bufferView":3,
			"componentType":5121,
			"count":74,
			"type":"VEC4"
		},
		{
			"bufferView":4,
			"componentType":5126,
			"count":74,
			"type":"VEC4"
		},
		{
			"bufferView":5,
			"componentType":5123,
			"count":396,
			"type":"SCALAR"
		},
		{
			"bufferView":6,
			"componentType":5126,
			"count":20,
			"type":"MAT4"
		},
		{
			"bufferView":7,
			"componentType":5126,
			"count":72,
			"max":[
				0.29409706592559814,
				2.1059629917144775,
				-2.1699142456054688
			],
			"min":[
				-0.24694646894931793,
				1.7054197788238525,
				-2.387483596801758
			],
			"type":"VEC3"
		},
		{
			"bufferView":8,
			"componentType":5126,
			"count":72,
			"type":"VEC3"
		},
		{
			"bufferView":9,
			"componentType":5126,
			"count":72,
			"type":"VEC2"
		},
		{
			"bufferView":10,
			"componentType":5123,
			"count":240,
			"type":"SCALAR"
		},
		{
			"bufferView":11,
			"componentType":5126,
			"count":292,
			"max":[
				1.2017780542373657,
				2.7011687755584717,
				1.162005066871643
			],
			"min":[
				-1.158553123474121,
				0.19999998807907104,
				-1.1615378856658936
			],
			"type":"VEC3"
		},
		{
			"bufferView":12,
			"componentType":5126,
			"count":292,
			"type":"VEC3"
		},
		{
			"bufferView":13,
			"componentType":5126,
			"count":292,
			"type":"VEC2"
		},
		{
			"bufferView":14,
			"componentType":5123,
			"count":1146,
			"type":"SCALAR"
		},
		{
			"bufferView":15,
			"componentType":5126,
			"count":32,
			"max":[
				0.6111239194869995,
				0.8306105732917786,
				0.611259400844574
			],
			"min":[
				-0.6111239194869995,
				-0.0009399205446243286,
				-0.611259400844574
			],
			"type":"VEC3"
		},
		{
			"bufferView":16,
			"componentType":5126,
			"count":32,
			"type":"VEC3"
		},
		{
			"bufferView":17,
			"componentType":5126,
			"count":32,
			"type":"VEC2"
		},
		{
			"bufferView":18,
			"componentType":5121,
			"count":32,
			"type":"VEC4"
		},
		{
			"bufferView":19,
			"componentType":5126,
			"count":32,
			"type":"VEC4"
		},
		{
			"bufferView":20,
			"componentType":5123,
			"count":120,
			"type":"SCALAR"
		},
		{
			"bufferView":21,
			"componentType":5126,
			"count":84,
			"max":[
				0.5690112709999084,
				2.3123621940612793,
				-0.037511344999074936
			],
			"min":[
				-0.5690112709999084,
				1.0972667932510376,
				-1.4883553981781006
			],
			"type":"VEC3"
		},
		{
			"bufferView":22,
			"componentType":5126,
			"count":84,
			"type":"VEC3"
		},
		{
			"bufferView":23,
			"componentType":5126,
			"count":84,
			"type":"VEC2"
		},
		{
			"bufferView":24,
			"componentType":5121,
			"count":84,
			"type":"VEC4"
		},
		{
			"bufferView":25,
			"componentType":5126,
			"count":84,
			"type":"VEC4"
		},
		{
			"bufferView":26,
			"componentType":5123,
			"count":234,
			"type":"SCALAR"
		},
		{
			"bufferView":27,
			"componentType":5126,
			"count":63,
			"max":[
				0.4467458128929138,
				2.243190288543701,
				-1.1210296154022217
			],
			"min":[
				-0.4467458128929138,
				1.5238734483718872,
				-1.952038049697876
			],
			"type":"VEC3"
		},
		{
			"bufferView":28,
			"componentType":5126,
			"count":63,
			"type":"VEC3"
		},
		{
			"bufferView":29,
			"componentType":5126,
			"count":63,
			"type":"VEC2"
		},
		{
			"bufferView":30,
			"componentType":5121,
			"count":63,
			"type":"VEC4"
		},
		{
			"bufferView":31,
			"componentType":5126,
			"count":63,
			"type":"VEC4"
		},
		{
			"bufferView":32,
			"componentType":5123,
			"count":180,
			"type":"SCALAR"
		},
		{
			"bufferView":33,
			"componentType":5126,
			"count":118,
			"max":[
				0.3576279580593109,
				2.090949773788452,
				-1.4871299266815186
			],
			"min":[
				-0.3576279580593109,
				0.7946857213973999,
				-2.7511513233184814
			],
			"type":"VEC3"
		},
		{
			"bufferView":34,
			"componentType":5126,
			"count":118,
			"type":"VEC3"
		},
		{
			"bufferView":35,
			"componentType":5126,
			"count":118,
			"type":"VEC2"
		},
		{
			"bufferView":36,
			"componentType":5121,
			"count":118,
			"type":"VEC4"
		},
		{
			"bufferView":37,
			"componentType":5126,
			"count":118,
			"type":"VEC4"
		},
		{
			"bufferView":38,
			"componentType":5123,
			"count":504,
			"type":"SCALAR"
		},
		{
			"bufferView":39,
			"componentType":5126,
			"count":152,
			"max":[
				1.6697906255722046,
				2.858846664428711,
				1.4789865016937256
			],
			"min":[
				-1.6697906255722046,
				0.993770182132721,
				0.0036640465259552
			],
			"type":"VEC3"
		},
		{
			"bufferView":40,
			"componentType":5126,
			"count":152,
			"type":"VEC3"
		},
		{
			"bufferView":41,
			"componentType":5126,
			"count":152,
			"type":"VEC2"
		},
		{
			"bufferView":42,
			"componentType":5121,
			"count":152,
			"type":"VEC4"
		},
		{
			"bufferView":43,
			"componentType":5126,
			"count":152,
			"type":"VEC4"
		},
		{
			"bufferView":44,
			"componentType":5123,
			"count":624,
			"type":"SCALAR"
		},
		{
			"bufferView":45,
			"componentType":5126,
			"count":2,
			"max":[
				10.666666666666666
			],
			"min":[
				0
			],
			"type":"SCALAR"
		},
		{
			"bufferView":46,
			"componentType":5126,
			"count":2,
			"type":"VEC3"
		},
		{
			"bufferView":47,
			"componentType":5126,
			"count":2,
			"type":"VEC4"
		},
		{
			"bufferView":48,
			"componentType":5126,
			"count":2,
			"type":"VEC3"
		},
		{
			"bufferView":49,
			"componentType":5126,
			"count":2,
			"type":"VEC3"
		},
		{
			"bufferView":50,
			"componentType":5126,
			"count":2,
			"type":"VEC4"
		},
		{
			"bufferView":51,
			"componentType":5126,
			"count":2,
			"type":"VEC3"
		},
		{
			"bufferView":52,
			"componentType":5126,
			"count":2,
			"type":"VEC3"
		},
		{
			"bufferView":53,
			"componentType":5126,
			"count":2,
			"type":"VEC4"
		},
		{
			"bufferView":54,
			"componentType":5126,
			"count":2,
			"type":"VEC3"
		},
		{
			"bufferView":55,
			"componentType":5126,
			"count":2,
			"type":"VEC3"
		},
		{
			"bufferView":56,
			"componentType":5126,
			"count":257,
			"max":[
				10.666666666666666
			],
			"min":[
				0
			],
			"type":"SCALAR"
		},
		{
			"bufferView":57,
			"componentType":5126,
			"count":257,
			"type":"VEC4"
		},
		{
			"bufferView":58,
			"componentType":5126,
			"count":2,
			"type":"VEC3"
		},
		{
			"bufferView":59,
			"componentType":5126,
			"count":2,
			"type":"VEC3"
		},
		{
			"bufferView":60,
			"componentType":5126,
			"count":257,
			"type":"VEC4"
		},
		{
			"bufferView":61,
			"componentType":5126,
			"count":2,
			"type":"VEC3"
		},
		{
			"bufferView":62,
			"componentType":5126,
			"count":2,
			"type":"VEC3"
		},
		{
			"bufferView":63,
			"componentType":5126,
			"count":2,
			"type":"VEC4"
		},
		{
			"bufferView":64,
			"componentType":5126,
			"count":2,
			"type":"VEC3"
		},
		{
			"bufferView":65,
			"componentType":5126,
			"count":2,
			"type":"VEC3"
		},
		{
			"bufferView":66,
			"componentType":5126,
			"count":2,
			"type":"VEC4"
		},
		{
			"bufferView":67,
			"componentType":5126,
			"count":2,
			"type":"VEC3"
		},
		{
			"bufferView":68,
			"componentType":5126,
			"count":2,
			"type":"VEC3"
		},
		{
			"bufferView":69,
			"componentType":5126,
			"count":2,
			"type":"VEC4"
		},
		{
			"bufferView":70,
			"componentType":5126,
			"count":2,
			"type":"VEC3"
		},
		{
			"bufferView":71,
			"componentType":5126,
			"count":2,
			"type":"VEC3"
		},
		{
			"bufferView":72,
			"componentType":5126,
			"count":257,
			"type":"VEC4"
		},
		{
			"bufferView":73,
			"componentType":5126,
			"count":2,
			"type":"VEC3"
		},
		{
			"bufferView":74,
			"componentType":5126,
			"count":2,
			"type":"VEC3"
		},
		{
			"bufferView":75,
			"componentType":5126,
			"count":257,
			"type":"VEC4"
		},
		{
			"bufferView":76,
			"componentType":5126,
			"count":2,
			"type":"VEC3"
		},
		{
			"bufferView":77,
			"componentType":5126,
			"count":2,
			"type":"VEC3"
		},
		{
			"bufferView":78,
			"componentType":5126,
			"count":257,
			"type":"VEC4"
		},
		{
			"bufferView":79,
			"componentType":5126,
			"count":2,
			"type":"VEC3"
		},
		{
			"bufferView":80,
			"componentType":5126,
			"count":2,
			"type":"VEC3"
		},
		{
			"bufferView":81,
			"componentType":5126,
			"count":257,
			"type":"VEC4"
		},
		{
			"bufferView":82,
			"componentType":5126,
			"count":2,
			"type":"VEC3"
		},
		{
			"bufferView":83,
			"componentType":5126,
			"count":2,
			"type":"VEC3"
		},
		{
			"bufferView":84,
			"componentType":5126,
			"count":257,
			"type":"VEC4"
		},
		{
			"bufferView":85,
			"componentType":5126,
			"count":2,
			"type":"VEC3"
		},
		{
			"bufferView":86,
			"componentType":5126,
			"count":2,
			"type":"VEC3"
		},
		{
			"bufferView":87,
			"componentType":5126,
			"count":257,
			"type":"VEC4"
		},
		{
			"bufferView":88,
			"componentType":5126,
			"count":2,
			"type":"VEC3"
		},
		{
			"bufferView":89,
			"componentType":5126,
			"count":2,
			"type":"VEC3"
		},
		{
			"bufferView":90,
			"componentType":5126,
			"count":2,
			"type":"VEC4"
		},
		{
			"bufferView":91,
			"componentType":5126,
			"count":2,
			"type":"VEC3"
		},
		{
			"bufferView":92,
			"componentType":5126,
			"count":2,
			"type":"VEC3"
		},
		{
			"bufferView":93,
			"componentType":5126,
			"count":2,
			"type":"VEC4"
		},
		{
			"bufferView":94,
			"componentType":5126,
			"count":2,
			"type":"VEC3"
		},
		{
			"bufferView":95,
			"componentType":5126,
			"count":2,
			"type":"VEC3"
		},
		{
			"bufferView":96,
			"componentType":5126,
			"count":257,
			"type":"VEC4"
		},
		{
			"bufferView":97,
			"componentType":5126,
			"count":2,
			"type":"VEC3"
		},
		{
			"bufferView":98,
			"componentType":5126,
			"count":2,
			"type":"VEC3"
		},
		{
			"bufferView":99,
			"componentType":5126,
			"count":257,
			"type":"VEC4"
		},
		{
			"bufferView":100,
			"componentType":5126,
			"count":2,
			"type":"VEC3"
		},
		{
			"bufferView":101,
			"componentType":5126,
			"count":2,
			"type":"VEC3"
		},
		{
			"bufferView":102,
			"componentType":5126,
			"count":2,
			"type":"VEC4"
		},
		{
			"bufferView":103,
			"componentType":5126,
			"count":2,
			"type":"VEC3"
		},
		{
			"bufferView":104,
			"componentType":5126,
			"count":2,
			"type":"VEC3"
		},
		{
			"bufferView":105,
			"componentType":5126,
			"count":2,
			"type":"VEC4"
		},
		{
			"bufferView":106,
			"componentType":5126,
			"count":2,
			"type":"VEC3"
		},
		{
			"bufferView":107,
			"componentType":5126,
			"count":2,
			"max":[
				3.3333333333333335
			],
			"min":[
				0
			],
			"type":"SCALAR"
		},
		{
			"bufferView":108,
			"componentType":5126,
			"count":2,
			"type":"VEC3"
		},
		{
			"bufferView":109,
			"componentType":5126,
			"count":2,
			"type":"VEC4"
		},
		{
			"bufferView":110,
			"componentType":5126,
			"count":2,
			"type":"VEC3"
		},
		{
			"bufferView":111,
			"componentType":5126,
			"count":2,
			"type":"VEC3"
		},
		{
			"bufferView":112,
			"componentType":5126,
			"count":2,
			"type":"VEC4"
		},
		{
			"bufferView":113,
			"componentType":5126,
			"count":2,
			"type":"VEC3"
		},
		{
			"bufferView":114,
			"componentType":5126,
			"count":2,
			"type":"VEC3"
		},
		{
			"bufferView":115,
			"componentType":5126,
			"count":81,
			"max":[
				3.3333333333333335
			],
			"min":[
				0
			],
			"type":"SCALAR"
		},
		{
			"bufferView":116,
			"componentType":5126,
			"count":81,
			"type":"VEC4"
		},
		{
			"bufferView":117,
			"componentType":5126,
			"count":2,
			"type":"VEC3"
		},
		{
			"bufferView":118,
			"componentType":5126,
			"count":2,
			"type":"VEC3"
		},
		{
			"bufferView":119,
			"componentType":5126,
			"count":81,
			"type":"VEC4"
		},
		{
			"bufferView":120,
			"componentType":5126,
			"count":2,
			"type":"VEC3"
		},
		{
			"bufferView":121,
			"componentType":5126,
			"count":2,
			"type":"VEC3"
		},
		{
			"bufferView":122,
			"componentType":5126,
			"count":81,
			"type":"VEC4"
		},
		{
			"bufferView":123,
			"componentType":5126,
			"count":2,
			"type":"VEC3"
		},
		{
			"bufferView":124,
			"componentType":5126,
			"count":2,
			"type":"VEC3"
		},
		{
			"bufferView":125,
			"componentType":5126,
			"count":2,
			"type":"VEC4"
		},
		{
			"bufferView":126,
			"componentType":5126,
			"count":2,
			"type":"VEC3"
		},
		{
			"bufferView":127,
			"componentType":5126,
			"count":2,
			"type":"VEC3"
		},
		{
			"bufferView":128,
			"componentType":5126,
			"count":2,
			"type":"VEC4"
		},
		{
			"bufferView":129,
			"componentType":5126,
			"count":2,
			"type":"VEC3"
		},
		{
			"bufferView":130,
			"componentType":5126,
			"count":2,
			"type":"VEC3"
		},
		{
			"bufferView":131,
			"componentType":5126,
			"count":2,
			"type":"VEC4"
		},
		{
			"bufferView":132,
			"componentType":5126,
			"count":2,
			"type":"VEC3"
		},
		{
			"bufferView":133,
			"componentType":5126,
			"count":2,
			"type":"VEC3"
		},
		{
			"bufferView":134,
			"componentType":5126,
			"count":81,
			"type":"VEC4"
		},
		{
			"bufferView":135,
			"componentType":5126,
			"count":2,
			"type":"VEC3"
		},
		{
			"bufferView":136,
			"componentType":5126,
			"count":2,
			"type":"VEC3"
		},
		{
			"bufferView":137,
			"componentType":5126,
			"count":81,
			"type":"VEC4"
		},
		{
			"bufferView":138,
			"componentType":5126,
			"count":2,
			"type":"VEC3"
		},
		{
			"bufferView":139,
			"componentType":5126,
			"count":2,
			"type":"VEC3"
		},
		{
			"bufferView":140,
			"componentType":5126,
			"count":81,
			"type":"VEC4"
		},
		{
			"bufferView":141,
			"componentType":5126,
			"count":2,
			"type":"VEC3"
		},
		{
			"bufferView":142,
			"componentType":5126,
			"count":2,
			"type":"VEC3"
		},
		{
			"bufferView":143,
			"componentType":5126,
			"count":81,
			"type":"VEC4"
		},
		{
			"bufferView":144,
			"componentType":5126,
			"count":2,
			"type":"VEC3"
		},
		{
			"bufferView":145,
			"componentType":5126,
			"count":81,
			"type":"VEC3"
		},
		{
			"bufferView":146,
			"componentType":5126,
			"count":81,
			"type":"VEC4"
		},
		{
			"bufferView":147,
			"componentType":5126,
			"count":2,
			"type":"VEC3"
		},
		{
			"bufferView":148,
			"componentType":5126,
			"count":2,
			"type":"VEC3"
		},
		{
			"bufferView":149,
			"componentType":5126,
			"count":81,
			"type":"VEC4"
		},
		{
			"bufferView":150,
			"componentType":5126,
			"count":2,
			"type":"VEC3"
		},
		{
			"bufferView":151,
			"componentType":5126,
			"count":81,
			"type":"VEC3"
		},
		{
			"bufferView":152,
			"componentType":5126,
			"count":2,
			"type":"VEC4"
		},
		{
			"bufferView":153,
			"componentType":5126,
			"count":2,
			"type":"VEC3"
		},
		{
			"bufferView":154,
			"componentType":5126,
			"count":81,
			"type":"VEC3"
		},
		{
			"bufferView":155,
			"componentType":5126,
			"count":2,
			"type":"VEC4"
		},
		{
			"bufferView":156,
			"componentType":5126,
			"count":2,
			"type":"VEC3"
		},
		{
			"bufferView":157,
			"componentType":5126,
			"count":81,
			"type":"VEC3"
		},
		{
			"bufferView":158,
			"componentType":5126,
			"count":81,
			"type":"VEC4"
		},
		{
			"bufferView":159,
			"componentType":5126,
			"count":2,
			"type":"VEC3"
		},
		{
			"bufferView":160,
			"componentType":5126,
			"count":2,
			"type":"VEC3"
		},
		{
			"bufferView":161,
			"componentType":5126,
			"count":81,
			"type":"VEC4"
		},
		{
			"bufferView":162,
			"componentType":5126,
			"count":2,
			"type":"VEC3"
		},
		{
			"bufferView":163,
			"componentType":5126,
			"count":81,
			"type":"VEC3"
		},
		{
			"bufferView":164,
			"componentType":5126,
			"count":2,
			"type":"VEC4"
		},
		{
			"bufferView":165,
			"componentType":5126,
			"count":2,
			"type":"VEC3"
		},
		{
			"bufferView":166,
			"componentType":5126,
			"count":81,
			"type":"VEC3"
		},
		{
			"bufferView":167,
			"componentType":5126,
			"count":2,
			"type":"VEC4"
		},
		{
			"bufferView":168,
			"componentType":5126,
			"count":2,
			"type":"VEC3"
		}
	],
	"bufferViews":[
		{
			"buffer":0,
			"byteLength":888,
			"byteOffset":0,
			"target":34962
		},
		{
			"buffer":0,
			"byteLength":888,
			"byteOffset":888,
			"target":34962
		},
		{
			"buffer":0,
			"byteLength":592,
			"byteOffset":1776,
			"target":34962
		},
		{
			"buffer":0,
			"byteLength":296,
			"byteOffset":2368,
			"target":34962
		},
		{
			"buffer":0,
			"byteLength":1184,
			"byteOffset":2664,
			"target":34962
		},
		{
			"buffer":0,
			"byteLength":792,
			"byteOffset":3848,
			"target":34963
		},
		{
			"buffer":0,
			"byteLength":1280,
			"byteOffset":4640
		},
		{
			"buffer":0,
			"byteLength":864,
			"byteOffset":5920,
			"target":34962
		},
		{
			"buffer":0,
			"byteLength":864,
			"byteOffset":6784,
			"target":34962
		},
		{
			"buffer":0,
			"byteLength":576,
			"byteOffset":7648,
			"target":34962
		},
		{
			"buffer":0,
			"byteLength":480,
			"byteOffset":8224,
			"target":34963
		},
		{
			"buffer":0,
			"byteLength":3504,
			"byteOffset":8704,
			"target":34962
		},
		{
			"buffer":0,
			"byteLength":3504,
			"byteOffset":12208,
			"target":34962
		},
		{
			"buffer":0,
			"byteLength":2336,
			"byteOffset":15712,
			"target":34962
		},
		{
			"buffer":0,
			"byteLength":2292,
			"byteOffset":18048,
			"target":34963
		},
		{
			"buffer":0,
			"byteLength":384,
			"byteOffset":20340,
			"target":34962
		},
		{
			"buffer":0,
			"byteLength":384,
			"byteOffset":20724,
			"target":34962
		},
		{
			"buffer":0,
			"byteLength":256,
			"byteOffset":21108,
			"target":34962
		},
		{
			"buffer":0,
			"byteLength":128,
			"byteOffset":21364,
			"target":34962
		},
		{
			"buffer":0,
			"byteLength":512,
			"byteOffset":21492,
			"target":34962
		},
		{
			"buffer":0,
			"byteLength":240,
			"byteOffset":22004,
			"target":34963
		},
		{
			"buffer":0,
			"byteLength":1008,
			"byteOffset":22244,
			"target":34962
		},
		{
			"buffer":0,
			"byteLength":1008,
			"byteOffset":23252,
			"target":34962
		},
		{
			"buffer":0,
			"byteLength":672,
			"byteOffset":24260,
			"target":34962
		},
		{
			"buffer":0,
			"byteLength":336,
			"byteOffset":24932,
			"target":34962
		},
		{
			"buffer":0,
			"byteLength":1344,
			"byteOffset":25268,
			"target":34962
		},
		{
			"buffer":0,
			"byteLength":468,
			"byteOffset":26612,
			"target":34963
		},
		{
			"buffer":0,
			"byteLength":756,
			"byteOffset":27080,
			"target":34962
		},
		{
			"buffer":0,
			"byteLength":756,
			"byteOffset":27836,
			"target":34962
		},
		{
			"buffer":0,
			"byteLength":504,
			"byteOffset":28592,
			"target":34962
		},
		{
			"buffer":0,
			"byteLength":252,
			"byteOffset":29096,
			"target":34962
		},
		{
			"buffer":0,
			"byteLength":1008,
			"byteOffset":29348,
			"target":34962
		},
		{
			"buffer":0,
			"byteLength":360,
			"byteOffset":30356,
			"target":34963
		},
		{
			"buffer":0,
			"byteLength":1416,
			"byteOffset":30716,
			"target":34962
		},
		{
			"buffer":0,
			"byteLength":1416,
			"byteOffset":32132,
			"target":34962
		},
		{
			"buffer":0,
			"byteLength":944,
			"byteOffset":33548,
			"target":34962
		},
		{
			"buffer":0,
			"byteLength":472,
			"byteOffset":34492,
			"target":34962
		},
		{
			"buffer":0,
			"byteLength":1888,
			"byteOffset":34964,
			"target":34962
		},
		{
			"buffer":0,
			"byteLength":1008,
			"byteOffset":36852,
			"target":34963
		},
		{
			"buffer":0,
			"byteLength":1824,
			"byteOffset":37860,
			"target":34962
		},
		{
			"buffer":0,
			"byteLength":1824,
			"byteOffset":39684,
			"target":34962
		},
		{
			"buffer":0,
			"byteLength":1216,
			"byteOffset":41508,
			"target":34962
		},
		{
			"buffer":0,
			"byteLength":608,
			"byteOffset":42724,
			"target":34962
		},
		{
			"buffer":0,
			"byteLength":2432,
			"byteOffset":43332,
			"target":34962
		},
		{
			"buffer":0,
			"byteLength":1248,
			"byteOffset":45764,
			"target":34963
		},
		{
			"buffer":0,
			"byteLength":8,
			"byteOffset":47012
		},
		{
			"buffer":0,
			"byteLength":24,
			"byteOffset":47020
		},
		{
			"buffer":0,
			"byteLength":32,
			"byteOffset":47044
		},
		{
			"buffer":0,
			"byteLength":24,
			"byteOffset":47076
		},
		{
			"buffer":0,
			"byteLength":24,
			"byteOffset":47100
		},
		{
			"buffer":0,
			"byteLength":32,
			"byteOffset":47124
		},
		{
			"buffer":0,
			"byteLength":24,
			"byteOffset":47156
		},
		{
			"buffer":0,
			"byteLength":24,
			"byteOffset":47180
		},
		{
			"buffer":0,
			"byteLength":32,
			"byteOffset":47204
		},
		{
			"buffer":0,
			"byteLength":24,
			"byteOffset":47236
		},
		{
			"buffer":0,
			"byteLength":24,
			"byteOffset":47260
		},
		{
			"buffer":0,
			"byteLength":1028,
			"byteOffset":47284
		},
		{
			"buffer":0,
			"byteLength":4112,
			"byteOffset":48312
		},
		{
			"buffer":0,
			"byteLength":24,
			"byteOffset":52424
		},
		{
			"buffer":0,
			"byteLength":24,
			"byteOffset":52448
		},
		{
			"buffer":0,
			"byteLength":4112,
			"byteOffset":52472
		},
		{
			"buffer":0,
			"byteLength":24,
			"byteOffset":56584
		},
		{
			"buffer":0,
			"byteLength":24,
			"byteOffset":56608
		},
		{
			"buffer":0,
			"byteLength":32,
			"byteOffset":56632
		},
		{
			"buffer":0,
			"byteLength":24,
			"byteOffset":56664
		},
		{
			"buffer":0,
			"byteLength":24,
			"byteOffset":56688
		},
		{
			"buffer":0,
			"byteLength":32,
			"byteOffset":56712
		},
		{
			"buffer":0,
			"byteLength":24,
			"byteOffset":56744
		},
		{
			"buffer":0,
			"byteLength":24,
			"byteOffset":56768
		},
		{
			"buffer":0,
			"byteLength":32,
			"byteOffset":56792
		},
		{
			"buffer":0,
			"byteLength":24,
			"byteOffset":56824
		},
		{
			"buffer":0,
			"byteLength":24,
			"byteOffset":56848
		},
		{
			"buffer":0,
			"byteLength":4112,
			"byteOffset":56872
		},
		{
			"buffer":0,
			"byteLength":24,
			"byteOffset":60984
		},
		{
			"buffer":0,
			"byteLength":24,
			"byteOffset":61008
		},
		{
			"buffer":0,
			"byteLength":4112,
			"byteOffset":61032
		},
		{
			"buffer":0,
			"byteLength":24,
			"byteOffset":65144
		},
		{
			"buffer":0,
			"byteLength":24,
			"byteOffset":65168
		},
		{
			"buffer":0,
			"byteLength":4112,
			"byteOffset":65192
		},
		{
			"buffer":0,
			"byteLength":24,
			"byteOffset":69304
		},
		{
			"buffer":0,
			"byteLength":24,
			"byteOffset":69328
		},
		{
			"buffer":0,
			"byteLength":4112,
			"byteOffset":69352
		},
		{
			"buffer":0,
			"byteLength":24,
			"byteOffset":73464
		},
		{
			"buffer":0,
			"byteLength":24,
			"byteOffset":73488
		},
		{
			"buffer":0,
			"byteLength":4112,
			"byteOffset":73512
		},
		{
			"buffer":0,
			"byteLength":24,
			"byteOffset":77624
		},
		{
			"buffer":0,
			"byteLength":24,
			"byteOffset":77648
		},
		{
			"buffer":0,
			"byteLength":4112,
			"byteOffset":77672
		},
		{
			"buffer":0,
			"byteLength":24,
			"byteOffset":81784
		},
		{
			"buffer":0,
			"byteLength":24,
			"byteOffset":81808
		},
		{
			"buffer":0,
			"byteLength":32,
			"byteOffset":81832
		},
		{
			"buffer":0,
			"byteLength":24,
			"byteOffset":81864
		},
		{
			"buffer":0,
			"byteLength":24,
			"byteOffset":81888
		},
		{
			"buffer":0,
			"byteLength":32,
			"byteOffset":81912
		},
		{
			"buffer":0,
			"byteLength":24,
			"byteOffset":81944
		},
		{
			"buffer":0,
			"byteLength":24,
			"byteOffset":81968
		},
		{
			"buffer":0,
			"byteLength":4112,
			"byteOffset":81992
		},
		{
			"buffer":0,
			"byteLength":24,
			"byteOffset":86104
		},
		{
			"buffer":0,
			"byteLength":24,
			"byteOffset":86128
		},
		{
			"buffer":0,
			"byteLength":4112,
			"byteOffset":86152
		},
		{
			"buffer":0,
			"byteLength":24,
			"byteOffset":90264
		},
		{
			"buffer":0,
			"byteLength":24,
			"byteOffset":90288
		},
		{
			"buffer":0,
			"byteLength":32,
			"byteOffset":90312
		},
		{
			"buffer":0,
			"byteLength":24,
			"byteOffset":90344
		},
		{
			"buffer":0,
			"byteLength":24,
			"byteOffset":90368
		},
		{
			"buffer":0,
			"byteLength":32,
			"byteOffset":90392
		},
		{
			"buffer":0,
			"byteLength":24,
			"byteOffset":90424
		},
		{
			"buffer":0,
			"byteLength":8,
			"byteOffset":90448
		},
		{
			"buffer":0,
			"byteLength":24,
			"byteOffset":90456
		},
		{
			"buffer":0,
			"byteLength":32,
			"byteOffset":90480
		},
		{
			"buffer":0,
			"byteLength":24,
			"byteOffset":90512
		},
		{
			"buffer":0,
			"byteLength":24,
			"byteOffset":90536
		},
		{
			"buffer":0,
			"byteLength":32,
			"byteOffset":90560
		},
		{
			"buffer":0,
			"byteLength":24,
			"byteOffset":90592
		},
		{
			"buffer":0,
			"byteLength":24,
			"byteOffset":90616
		},
		{
			"buffer":0,
			"byteLength":324,
			"byteOffset":90640
		},
		{
			"buffer":0,
			"byteLength":1296,
			"byteOffset":90964
		},
		{
			"buffer":0,
			"byteLength":24,
			"byteOffset":92260
		},
		{
			"buffer":0,
			"byteLength":24,
			"byteOffset":92284
		},
		{
			"buffer":0,
			"byteLength":1296,
			"byteOffset":92308
		},
		{
			"buffer":0,
			"byteLength":24,
			"byteOffset":93604
		},
		{
			"buffer":0,
			"byteLength":24,
			"byteOffset":93628
		},
		{
			"buffer":0,
			"byteLength":1296,
			"byteOffset":93652
		},
		{
			"buffer":0,
			"byteLength":24,
			"byteOffset":94948
		},
		{
			"buffer":0,
			"byteLength":24,
			"byteOffset":94972
		},
		{
			"buffer":0,
			"byteLength":32,
			"byteOffset":94996
		},
		{
			"buffer":0,
			"byteLength":24,
			"byteOffset":95028
		},
		{
			"buffer":0,
			"byteLength":24,
			"byteOffset":95052
		},
		{
			"buffer":0,
			"byteLength":32,
			"byteOffset":95076
		},
		{
			"buffer":0,
			"byteLength":24,
			"byteOffset":95108
		},
		{
			"buffer":0,
			"byteLength":24,
			"byteOffset":95132
		},
		{
			"buffer":0,
			"byteLength":32,
			"byteOffset":95156
		},
		{
			"buffer":0,
			"byteLength":24,
			"byteOffset":95188
		},
		{
			"buffer":0,
			"byteLength":24,
			"byteOffset":95212
		},
		{
			"buffer":0,
			"byteLength":1296,
			"byteOffset":95236
		},
		{
			"buffer":0,
			"byteLength":24,
			"byteOffset":96532
		},
		{
			"buffer":0,
			"byteLength":24,
			"byteOffset":96556
		},
		{
			"buffer":0,
			"byteLength":1296,
			"byteOffset":96580
		},
		{
			"buffer":0,
			"byteLength":24,
			"byteOffset":97876
		},
		{
			"buffer":0,
			"byteLength":24,
			"byteOffset":97900
		},
		{
			"buffer":0,
			"byteLength":1296,
			"byteOffset":97924
		},
		{
			"buffer":0,
			"byteLength":24,
			"byteOffset":99220
		},
		{
			"buffer":0,
			"byteLength":24,
			"byteOffset":99244
		},
		{
			"buffer":0,
			"byteLength":1296,
			"byteOffset":99268
		},
		{
			"buffer":0,
			"byteLength":24,
			"byteOffset":100564
		},
		{
			"buffer":0,
			"byteLength":972,
			"byteOffset":100588
		},
		{
			"buffer":0,
			"byteLength":1296,
			"byteOffset":101560
		},
		{
			"buffer":0,
			"byteLength":24,
			"byteOffset":102856
		},
		{
			"buffer":0,
			"byteLength":24,
			"byteOffset":102880
		},
		{
			"buffer":0,
			"byteLength":1296,
			"byteOffset":102904
		},
		{
			"buffer":0,
			"byteLength":24,
			"byteOffset":104200
		},
		{
			"buffer":0,
			"byteLength":972,
			"byteOffset":104224
		},
		{
			"buffer":0,
			"byteLength":32,
			"byteOffset":105196
		},
		{
			"buffer":0,
			"byteLength":24,
			"byteOffset":105228
		},
		{
			"buffer":0,
			"byteLength":972,
			"byteOffset":105252
		},
		{
			"buffer":0,
			"byteLength":32,
			"byteOffset":106224
		},
		{
			"buffer":0,
			"byteLength":24,
			"byteOffset":106256
		},
		{
			"buffer":0,
			"byteLength":972,
			"byteOffset":106280
		},
		{
			"buffer":0,
			"byteLength":1296,
			"byteOffset":107252
		},
		{
			"buffer":0,
			"byteLength":24,
			"byteOffset":108548
		},
		{
			"buffer":0,
			"byteLength":24,
			"byteOffset":108572
		},
		{
			"buffer":0,
			"byteLength":1296,
			"byteOffset":108596
		},
		{
			"buffer":0,
			"byteLength":24,
			"byteOffset":109892
		},
		{
			"buffer":0,
			"byteLength":972,
			"byteOffset":109916
		},
		{
			"buffer":0,
			"byteLength":32,
			"byteOffset":110888
		},
		{
			"buffer":0,
			"byteLength":24,
			"byteOffset":110920
		},
		{
			"buffer":0,
			"byteLength":972,
			"byteOffset":110944
		},
		{
			"buffer":0,
			"byteLength":32,
			"byteOffset":111916
		},
		{
			"buffer":0,
			"byteLength":24,
			"byteOffset":111948
		}
	],
	"samplers":[
		{
			"magFilter":9729,
			"minFilter":9987
		}
	],
	"buffers":[
		{
			"byteLength":111972,
			"uri":"Crab01.bin"
		}
	]
}
