{
	"asset":{
		"generator":"Khronos glTF Blender I/O v4.4.56",
		"version":"2.0"
	},
	"extensionsUsed":[
		"KHR_materials_specular"
	],
	"scene":0,
	"scenes":[
		{
			"name":"Scene",
			"nodes":[
				0,
				1
			]
		}
	],
	"nodes":[
		{
			"mesh":0,
			"name":"Fountain"
		},
		{
			"mesh":1,
			"name":"Water"
		}
	],
	"materials":[
		{
			"doubleSided":true,
			"name":"Material.001",
			"pbrMetallicRoughness":{
				"baseColorTexture":{
					"index":0
				},
				"metallicFactor":0,
				"roughnessFactor":0.5136363506317139
			}
		},
		{
			"doubleSided":true,
			"extensions":{
				"KHR_materials_specular":{
					"specularFactor":0
				}
			},
			"name":"Material.002",
			"pbrMetallicRoughness":{
				"baseColorTexture":{
					"index":1
				},
				"metallicFactor":0.4227272868156433,
				"roughnessFactor":0
			}
		}
	],
	"meshes":[
		{
			"name":"Cylinder",
			"primitives":[
				{
					"attributes":{
						"POSITION":0,
						"NORMAL":1,
						"TEXCOORD_0":2
					},
					"indices":3,
					"material":0
				}
			]
		},
		{
			"name":"Cylinder.001",
			"primitives":[
				{
					"attributes":{
						"POSITION":4,
						"NORMAL":5,
						"TEXCOORD_0":6
					},
					"indices":7,
					"material":1
				}
			]
		}
	],
	"textures":[
		{
			"sampler":0,
			"source":0
		},
		{
			"sampler":0,
			"source":1
		}
	],
	"images":[
		{
			"mimeType":"image/jpeg",
			"name":"CarvedMarble",
			"uri":"../textures/CarvedMarble.jpg"
		},
		{
			"mimeType":"image/jpeg",
			"name":"WTR_WATER01",
			"uri":"../textures/WTR_WATER01.jpg"
		}
	],
	"accessors":[
		{
			"bufferView":0,
			"componentType":5126,
			"count":1074,
			"max":[
				7.147555351257324,
				7.2259063720703125,
				7.147555351257324
			],
			"min":[
				-7.147555351257324,
				0,
				-7.147555351257324
			],
			"type":"VEC3"
		},
		{
			"bufferView":1,
			"componentType":5126,
			"count":1074,
			"type":"VEC3"
		},
		{
			"bufferView":2,
			"componentType":5126,
			"count":1074,
			"type":"VEC2"
		},
		{
			"bufferView":3,
			"componentType":5123,
			"count":4176,
			"type":"SCALAR"
		},
		{
			"bufferView":4,
			"componentType":5126,
			"count":25,
			"max":[
				6.250990867614746,
				0.6907929182052612,
				6.250990867614746
			],
			"min":[
				-6.250990867614746,
				0.6907929182052612,
				-6.250990867614746
			],
			"type":"VEC3"
		},
		{
			"bufferView":5,
			"componentType":5126,
			"count":25,
			"type":"VEC3"
		},
		{
			"bufferView":6,
			"componentType":5126,
			"count":25,
			"type":"VEC2"
		},
		{
			"bufferView":7,
			"componentType":5123,
			"count":72,
			"type":"SCALAR"
		}
	],
	"bufferViews":[
		{
			"buffer":0,
			"byteLength":12888,
			"byteOffset":0,
			"target":34962
		},
		{
			"buffer":0,
			"byteLength":12888,
			"byteOffset":12888,
			"target":34962
		},
		{
			"buffer":0,
			"byteLength":8592,
			"byteOffset":25776,
			"target":34962
		},
		{
			"buffer":0,
			"byteLength":8352,
			"byteOffset":34368,
			"target":34963
		},
		{
			"buffer":0,
			"byteLength":300,
			"byteOffset":42720,
			"target":34962
		},
		{
			"buffer":0,
			"byteLength":300,
			"byteOffset":43020,
			"target":34962
		},
		{
			"buffer":0,
			"byteLength":200,
			"byteOffset":43320,
			"target":34962
		},
		{
			"buffer":0,
			"byteLength":144,
			"byteOffset":43520,
			"target":34963
		}
	],
	"samplers":[
		{
			"magFilter":9729,
			"minFilter":9987
		}
	],
	"buffers":[
		{
			"byteLength":43664,
			"uri":"Fountain01.bin"
		}
	]
}
