{
	"asset":{
		"generator":"Khronos glTF Blender I/O v4.4.56",
		"version":"2.0"
	},
	"scene":0,
	"scenes":[
		{
			"name":"Scene",
			"nodes":[
				13,
				12
			]
		}
	],
	"nodes":[
		{
			"name":"Lobe.001.L",
			"rotation":[
				0.008136224001646042,
				-0.0364186055958271,
				-0.3784371018409729,
				0.9248745441436768
			],
			"scale":[
				0.9999998807907104,
				0.9999999403953552,
				0.9999999403953552
			],
			"translation":[
				3.632158041000366e-08,
				0.4273424446582794,
				9.313225746154785e-09
			]
		},
		{
			"children":[
				0
			],
			"name":"Lobe.L",
			"rotation":[
				-0.05957823619246483,
				0.06346430629491806,
				0.27892163395881653,
				0.9563605189323425
			],
			"translation":[
				0,
				0.2961801290512085,
				0
			]
		},
		{
			"name":"Lobe.001.R",
			"rotation":[
				0.008136224001646042,
				0.0364186055958271,
				0.3784371018409729,
				0.9248745441436768
			],
			"scale":[
				0.9999998807907104,
				0.9999999403953552,
				0.9999999403953552
			],
			"translation":[
				-3.632158041000366e-08,
				0.4273424446582794,
				9.313225746154785e-09
			]
		},
		{
			"children":[
				2
			],
			"name":"Lobe.R",
			"rotation":[
				-0.05957823619246483,
				-0.06346430629491806,
				-0.27892163395881653,
				0.9563605189323425
			],
			"translation":[
				0,
				0.2961801290512085,
				0
			]
		},
		{
			"children":[
				1,
				3
			],
			"name":"Head",
			"translation":[
				0,
				0.3999999761581421,
				0
			]
		},
		{
			"name":"Arm.003.L",
			"rotation":[
				0.0003291183093097061,
				-0.0014455066993832588,
				0.054809343069791794,
				0.9984957575798035
			],
			"scale":[
				1,
				0.9999999403953552,
				1
			],
			"translation":[
				-1.5976521439142743e-08,
				0.3764764964580536,
				1.2369127944111824e-09
			]
		},
		{
			"children":[
				5
			],
			"name":"Arm.001.L",
			"rotation":[
				-0.004558056127279997,
				0.0029414526652544737,
				0.022478194907307625,
				0.9997326135635376
			],
			"scale":[
				1,
				1.0000001192092896,
				0.9999999403953552
			],
			"translation":[
				1.5133991837501526e-09,
				0.5922859907150269,
				1.280568540096283e-09
			]
		},
		{
			"children":[
				6
			],
			"name":"Arm.L",
			"rotation":[
				-0.0031908575911074877,
				-0.00880736019462347,
				0.7495977878570557,
				0.6618273258209229
			],
			"translation":[
				0,
				0.3999999761581421,
				0
			]
		},
		{
			"name":"Arm.003.R",
			"rotation":[
				0.0003291183093097061,
				0.0014455066993832588,
				-0.054809343069791794,
				0.9984957575798035
			],
			"scale":[
				1,
				0.9999999403953552,
				1
			],
			"translation":[
				1.5976521439142743e-08,
				0.3764764964580536,
				1.2369127944111824e-09
			]
		},
		{
			"children":[
				8
			],
			"name":"Arm.001.R",
			"rotation":[
				-0.004558056127279997,
				-0.0029414526652544737,
				-0.022478194907307625,
				0.9997326135635376
			],
			"scale":[
				1,
				1.0000001192092896,
				0.9999999403953552
			],
			"translation":[
				-1.5133991837501526e-09,
				0.5922859907150269,
				1.280568540096283e-09
			]
		},
		{
			"children":[
				9
			],
			"name":"Arm.R",
			"rotation":[
				-0.0031908575911074877,
				0.00880736019462347,
				-0.7495977878570557,
				0.6618273258209229
			],
			"translation":[
				0,
				0.3999999761581421,
				0
			]
		},
		{
			"children":[
				4,
				7,
				10
			],
			"name":"Spine.001",
			"translation":[
				0,
				0.4000000059604645,
				0
			]
		},
		{
			"children":[
				11
			],
			"name":"Spine",
			"rotation":[
				-0.7071067690849304,
				0,
				0,
				0.7071067690849304
			],
			"translation":[
				0,
				0,
				0.699999988079071
			]
		},
		{
			"mesh":0,
			"name":"Mantaray",
			"skin":0
		}
	],
	"animations":[
		{
			"channels":[
				{
					"sampler":0,
					"target":{
						"node":12,
						"path":"translation"
					}
				},
				{
					"sampler":1,
					"target":{
						"node":12,
						"path":"rotation"
					}
				},
				{
					"sampler":2,
					"target":{
						"node":12,
						"path":"scale"
					}
				},
				{
					"sampler":3,
					"target":{
						"node":11,
						"path":"translation"
					}
				},
				{
					"sampler":4,
					"target":{
						"node":11,
						"path":"rotation"
					}
				},
				{
					"sampler":5,
					"target":{
						"node":11,
						"path":"scale"
					}
				},
				{
					"sampler":6,
					"target":{
						"node":4,
						"path":"translation"
					}
				},
				{
					"sampler":7,
					"target":{
						"node":4,
						"path":"rotation"
					}
				},
				{
					"sampler":8,
					"target":{
						"node":4,
						"path":"scale"
					}
				},
				{
					"sampler":9,
					"target":{
						"node":1,
						"path":"translation"
					}
				},
				{
					"sampler":10,
					"target":{
						"node":1,
						"path":"rotation"
					}
				},
				{
					"sampler":11,
					"target":{
						"node":1,
						"path":"scale"
					}
				},
				{
					"sampler":12,
					"target":{
						"node":0,
						"path":"translation"
					}
				},
				{
					"sampler":13,
					"target":{
						"node":0,
						"path":"rotation"
					}
				},
				{
					"sampler":14,
					"target":{
						"node":0,
						"path":"scale"
					}
				},
				{
					"sampler":15,
					"target":{
						"node":3,
						"path":"translation"
					}
				},
				{
					"sampler":16,
					"target":{
						"node":3,
						"path":"rotation"
					}
				},
				{
					"sampler":17,
					"target":{
						"node":3,
						"path":"scale"
					}
				},
				{
					"sampler":18,
					"target":{
						"node":2,
						"path":"translation"
					}
				},
				{
					"sampler":19,
					"target":{
						"node":2,
						"path":"rotation"
					}
				},
				{
					"sampler":20,
					"target":{
						"node":2,
						"path":"scale"
					}
				},
				{
					"sampler":21,
					"target":{
						"node":7,
						"path":"translation"
					}
				},
				{
					"sampler":22,
					"target":{
						"node":7,
						"path":"rotation"
					}
				},
				{
					"sampler":23,
					"target":{
						"node":7,
						"path":"scale"
					}
				},
				{
					"sampler":24,
					"target":{
						"node":6,
						"path":"translation"
					}
				},
				{
					"sampler":25,
					"target":{
						"node":6,
						"path":"rotation"
					}
				},
				{
					"sampler":26,
					"target":{
						"node":6,
						"path":"scale"
					}
				},
				{
					"sampler":27,
					"target":{
						"node":5,
						"path":"translation"
					}
				},
				{
					"sampler":28,
					"target":{
						"node":5,
						"path":"rotation"
					}
				},
				{
					"sampler":29,
					"target":{
						"node":5,
						"path":"scale"
					}
				},
				{
					"sampler":30,
					"target":{
						"node":10,
						"path":"translation"
					}
				},
				{
					"sampler":31,
					"target":{
						"node":10,
						"path":"rotation"
					}
				},
				{
					"sampler":32,
					"target":{
						"node":10,
						"path":"scale"
					}
				},
				{
					"sampler":33,
					"target":{
						"node":9,
						"path":"translation"
					}
				},
				{
					"sampler":34,
					"target":{
						"node":9,
						"path":"rotation"
					}
				},
				{
					"sampler":35,
					"target":{
						"node":9,
						"path":"scale"
					}
				},
				{
					"sampler":36,
					"target":{
						"node":8,
						"path":"translation"
					}
				},
				{
					"sampler":37,
					"target":{
						"node":8,
						"path":"rotation"
					}
				},
				{
					"sampler":38,
					"target":{
						"node":8,
						"path":"scale"
					}
				}
			],
			"name":"Fly",
			"samplers":[
				{
					"input":9,
					"interpolation":"STEP",
					"output":10
				},
				{
					"input":11,
					"interpolation":"LINEAR",
					"output":12
				},
				{
					"input":9,
					"interpolation":"STEP",
					"output":13
				},
				{
					"input":9,
					"interpolation":"LINEAR",
					"output":14
				},
				{
					"input":11,
					"interpolation":"LINEAR",
					"output":15
				},
				{
					"input":9,
					"interpolation":"STEP",
					"output":16
				},
				{
					"input":9,
					"interpolation":"LINEAR",
					"output":17
				},
				{
					"input":11,
					"interpolation":"LINEAR",
					"output":18
				},
				{
					"input":9,
					"interpolation":"STEP",
					"output":19
				},
				{
					"input":9,
					"interpolation":"LINEAR",
					"output":20
				},
				{
					"input":11,
					"interpolation":"LINEAR",
					"output":21
				},
				{
					"input":9,
					"interpolation":"STEP",
					"output":22
				},
				{
					"input":9,
					"interpolation":"LINEAR",
					"output":23
				},
				{
					"input":11,
					"interpolation":"LINEAR",
					"output":24
				},
				{
					"input":9,
					"interpolation":"STEP",
					"output":25
				},
				{
					"input":9,
					"interpolation":"LINEAR",
					"output":26
				},
				{
					"input":11,
					"interpolation":"LINEAR",
					"output":27
				},
				{
					"input":9,
					"interpolation":"LINEAR",
					"output":28
				},
				{
					"input":9,
					"interpolation":"LINEAR",
					"output":29
				},
				{
					"input":11,
					"interpolation":"LINEAR",
					"output":30
				},
				{
					"input":9,
					"interpolation":"LINEAR",
					"output":31
				},
				{
					"input":9,
					"interpolation":"LINEAR",
					"output":32
				},
				{
					"input":11,
					"interpolation":"LINEAR",
					"output":33
				},
				{
					"input":9,
					"interpolation":"LINEAR",
					"output":34
				},
				{
					"input":9,
					"interpolation":"LINEAR",
					"output":35
				},
				{
					"input":11,
					"interpolation":"LINEAR",
					"output":36
				},
				{
					"input":9,
					"interpolation":"STEP",
					"output":37
				},
				{
					"input":9,
					"interpolation":"LINEAR",
					"output":38
				},
				{
					"input":11,
					"interpolation":"LINEAR",
					"output":39
				},
				{
					"input":9,
					"interpolation":"STEP",
					"output":40
				},
				{
					"input":9,
					"interpolation":"LINEAR",
					"output":41
				},
				{
					"input":11,
					"interpolation":"LINEAR",
					"output":42
				},
				{
					"input":9,
					"interpolation":"STEP",
					"output":43
				},
				{
					"input":9,
					"interpolation":"LINEAR",
					"output":44
				},
				{
					"input":11,
					"interpolation":"LINEAR",
					"output":45
				},
				{
					"input":9,
					"interpolation":"STEP",
					"output":46
				},
				{
					"input":9,
					"interpolation":"LINEAR",
					"output":47
				},
				{
					"input":11,
					"interpolation":"LINEAR",
					"output":48
				},
				{
					"input":9,
					"interpolation":"STEP",
					"output":49
				}
			]
		},
		{
			"channels":[
				{
					"sampler":0,
					"target":{
						"node":12,
						"path":"translation"
					}
				},
				{
					"sampler":1,
					"target":{
						"node":12,
						"path":"rotation"
					}
				},
				{
					"sampler":2,
					"target":{
						"node":12,
						"path":"scale"
					}
				},
				{
					"sampler":3,
					"target":{
						"node":11,
						"path":"translation"
					}
				},
				{
					"sampler":4,
					"target":{
						"node":11,
						"path":"rotation"
					}
				},
				{
					"sampler":5,
					"target":{
						"node":11,
						"path":"scale"
					}
				},
				{
					"sampler":6,
					"target":{
						"node":4,
						"path":"translation"
					}
				},
				{
					"sampler":7,
					"target":{
						"node":4,
						"path":"rotation"
					}
				},
				{
					"sampler":8,
					"target":{
						"node":4,
						"path":"scale"
					}
				},
				{
					"sampler":9,
					"target":{
						"node":1,
						"path":"translation"
					}
				},
				{
					"sampler":10,
					"target":{
						"node":1,
						"path":"rotation"
					}
				},
				{
					"sampler":11,
					"target":{
						"node":1,
						"path":"scale"
					}
				},
				{
					"sampler":12,
					"target":{
						"node":0,
						"path":"translation"
					}
				},
				{
					"sampler":13,
					"target":{
						"node":0,
						"path":"rotation"
					}
				},
				{
					"sampler":14,
					"target":{
						"node":0,
						"path":"scale"
					}
				},
				{
					"sampler":15,
					"target":{
						"node":3,
						"path":"translation"
					}
				},
				{
					"sampler":16,
					"target":{
						"node":3,
						"path":"rotation"
					}
				},
				{
					"sampler":17,
					"target":{
						"node":3,
						"path":"scale"
					}
				},
				{
					"sampler":18,
					"target":{
						"node":2,
						"path":"translation"
					}
				},
				{
					"sampler":19,
					"target":{
						"node":2,
						"path":"rotation"
					}
				},
				{
					"sampler":20,
					"target":{
						"node":2,
						"path":"scale"
					}
				},
				{
					"sampler":21,
					"target":{
						"node":7,
						"path":"translation"
					}
				},
				{
					"sampler":22,
					"target":{
						"node":7,
						"path":"rotation"
					}
				},
				{
					"sampler":23,
					"target":{
						"node":7,
						"path":"scale"
					}
				},
				{
					"sampler":24,
					"target":{
						"node":6,
						"path":"translation"
					}
				},
				{
					"sampler":25,
					"target":{
						"node":6,
						"path":"rotation"
					}
				},
				{
					"sampler":26,
					"target":{
						"node":6,
						"path":"scale"
					}
				},
				{
					"sampler":27,
					"target":{
						"node":5,
						"path":"translation"
					}
				},
				{
					"sampler":28,
					"target":{
						"node":5,
						"path":"rotation"
					}
				},
				{
					"sampler":29,
					"target":{
						"node":5,
						"path":"scale"
					}
				},
				{
					"sampler":30,
					"target":{
						"node":10,
						"path":"translation"
					}
				},
				{
					"sampler":31,
					"target":{
						"node":10,
						"path":"rotation"
					}
				},
				{
					"sampler":32,
					"target":{
						"node":10,
						"path":"scale"
					}
				},
				{
					"sampler":33,
					"target":{
						"node":9,
						"path":"translation"
					}
				},
				{
					"sampler":34,
					"target":{
						"node":9,
						"path":"rotation"
					}
				},
				{
					"sampler":35,
					"target":{
						"node":9,
						"path":"scale"
					}
				},
				{
					"sampler":36,
					"target":{
						"node":8,
						"path":"translation"
					}
				},
				{
					"sampler":37,
					"target":{
						"node":8,
						"path":"rotation"
					}
				},
				{
					"sampler":38,
					"target":{
						"node":8,
						"path":"scale"
					}
				}
			],
			"name":"Idle",
			"samplers":[
				{
					"input":50,
					"interpolation":"STEP",
					"output":51
				},
				{
					"input":50,
					"interpolation":"STEP",
					"output":52
				},
				{
					"input":50,
					"interpolation":"STEP",
					"output":53
				},
				{
					"input":50,
					"interpolation":"STEP",
					"output":54
				},
				{
					"input":50,
					"interpolation":"STEP",
					"output":55
				},
				{
					"input":50,
					"interpolation":"STEP",
					"output":56
				},
				{
					"input":50,
					"interpolation":"STEP",
					"output":57
				},
				{
					"input":50,
					"interpolation":"STEP",
					"output":58
				},
				{
					"input":50,
					"interpolation":"STEP",
					"output":59
				},
				{
					"input":50,
					"interpolation":"STEP",
					"output":60
				},
				{
					"input":61,
					"interpolation":"LINEAR",
					"output":62
				},
				{
					"input":50,
					"interpolation":"STEP",
					"output":63
				},
				{
					"input":50,
					"interpolation":"LINEAR",
					"output":64
				},
				{
					"input":61,
					"interpolation":"LINEAR",
					"output":65
				},
				{
					"input":50,
					"interpolation":"LINEAR",
					"output":66
				},
				{
					"input":50,
					"interpolation":"STEP",
					"output":67
				},
				{
					"input":61,
					"interpolation":"LINEAR",
					"output":68
				},
				{
					"input":50,
					"interpolation":"STEP",
					"output":69
				},
				{
					"input":50,
					"interpolation":"LINEAR",
					"output":70
				},
				{
					"input":61,
					"interpolation":"LINEAR",
					"output":71
				},
				{
					"input":50,
					"interpolation":"LINEAR",
					"output":72
				},
				{
					"input":50,
					"interpolation":"STEP",
					"output":73
				},
				{
					"input":61,
					"interpolation":"LINEAR",
					"output":74
				},
				{
					"input":50,
					"interpolation":"STEP",
					"output":75
				},
				{
					"input":50,
					"interpolation":"LINEAR",
					"output":76
				},
				{
					"input":61,
					"interpolation":"LINEAR",
					"output":77
				},
				{
					"input":50,
					"interpolation":"STEP",
					"output":78
				},
				{
					"input":50,
					"interpolation":"LINEAR",
					"output":79
				},
				{
					"input":61,
					"interpolation":"LINEAR",
					"output":80
				},
				{
					"input":50,
					"interpolation":"STEP",
					"output":81
				},
				{
					"input":50,
					"interpolation":"STEP",
					"output":82
				},
				{
					"input":61,
					"interpolation":"LINEAR",
					"output":83
				},
				{
					"input":50,
					"interpolation":"STEP",
					"output":84
				},
				{
					"input":50,
					"interpolation":"LINEAR",
					"output":85
				},
				{
					"input":61,
					"interpolation":"LINEAR",
					"output":86
				},
				{
					"input":50,
					"interpolation":"STEP",
					"output":87
				},
				{
					"input":50,
					"interpolation":"LINEAR",
					"output":88
				},
				{
					"input":61,
					"interpolation":"LINEAR",
					"output":89
				},
				{
					"input":50,
					"interpolation":"STEP",
					"output":90
				}
			]
		}
	],
	"materials":[
		{
			"doubleSided":true,
			"name":"Manta",
			"pbrMetallicRoughness":{
				"baseColorFactor":[
					0.800000011920929,
					0.800000011920929,
					0.800000011920929,
					1
				],
				"metallicFactor":0,
				"roughnessFactor":0.5
			}
		}
	],
	"meshes":[
		{
			"extras":{
				"targetNames":[
					"Key 1"
				]
			},
			"name":"Cube",
			"primitives":[
				{
					"attributes":{
						"POSITION":0,
						"NORMAL":1,
						"TEXCOORD_0":2,
						"JOINTS_0":3,
						"WEIGHTS_0":4
					},
					"indices":5,
					"material":0,
					"targets":[
						{
							"POSITION":6,
							"NORMAL":7
						}
					]
				}
			],
			"weights":[
				0
			]
		}
	],
	"skins":[
		{
			"inverseBindMatrices":8,
			"joints":[
				12,
				11,
				4,
				1,
				0,
				3,
				2,
				7,
				6,
				5,
				10,
				9,
				8
			],
			"name":"Armature"
		}
	],
	"accessors":[
		{
			"bufferView":0,
			"componentType":5126,
			"count":211,
			"max":[
				1.3454936742782593,
				0.12446289509534836,
				0.7694833278656006
			],
			"min":[
				-1.3454936742782593,
				-0.15067942440509796,
				-0.9746488332748413
			],
			"type":"VEC3"
		},
		{
			"bufferView":1,
			"componentType":5126,
			"count":211,
			"type":"VEC3"
		},
		{
			"bufferView":2,
			"componentType":5126,
			"count":211,
			"type":"VEC2"
		},
		{
			"bufferView":3,
			"componentType":5121,
			"count":211,
			"type":"VEC4"
		},
		{
			"bufferView":4,
			"componentType":5126,
			"count":211,
			"type":"VEC4"
		},
		{
			"bufferView":5,
			"componentType":5123,
			"count":1110,
			"type":"SCALAR"
		},
		{
			"bufferView":6,
			"componentType":5126,
			"count":211,
			"max":[
				1.2302192449569702,
				0.10449521988630295,
				0.8664160966873169
			],
			"min":[
				-1.2302192449569702,
				-0.057811833918094635,
				-0.6546973586082458
			],
			"type":"VEC3"
		},
		{
			"bufferView":7,
			"componentType":5126,
			"count":211,
			"type":"VEC3"
		},
		{
			"bufferView":8,
			"componentType":5126,
			"count":13,
			"type":"MAT4"
		},
		{
			"bufferView":9,
			"componentType":5126,
			"count":2,
			"max":[
				10.416666666666666
			],
			"min":[
				0
			],
			"type":"SCALAR"
		},
		{
			"bufferView":10,
			"componentType":5126,
			"count":2,
			"type":"VEC3"
		},
		{
			"bufferView":11,
			"componentType":5126,
			"count":251,
			"max":[
				10.416666666666666
			],
			"min":[
				0
			],
			"type":"SCALAR"
		},
		{
			"bufferView":12,
			"componentType":5126,
			"count":251,
			"type":"VEC4"
		},
		{
			"bufferView":13,
			"componentType":5126,
			"count":2,
			"type":"VEC3"
		},
		{
			"bufferView":14,
			"componentType":5126,
			"count":2,
			"type":"VEC3"
		},
		{
			"bufferView":15,
			"componentType":5126,
			"count":251,
			"type":"VEC4"
		},
		{
			"bufferView":16,
			"componentType":5126,
			"count":2,
			"type":"VEC3"
		},
		{
			"bufferView":17,
			"componentType":5126,
			"count":2,
			"type":"VEC3"
		},
		{
			"bufferView":18,
			"componentType":5126,
			"count":251,
			"type":"VEC4"
		},
		{
			"bufferView":19,
			"componentType":5126,
			"count":2,
			"type":"VEC3"
		},
		{
			"bufferView":20,
			"componentType":5126,
			"count":2,
			"type":"VEC3"
		},
		{
			"bufferView":21,
			"componentType":5126,
			"count":251,
			"type":"VEC4"
		},
		{
			"bufferView":22,
			"componentType":5126,
			"count":2,
			"type":"VEC3"
		},
		{
			"bufferView":23,
			"componentType":5126,
			"count":2,
			"type":"VEC3"
		},
		{
			"bufferView":24,
			"componentType":5126,
			"count":251,
			"type":"VEC4"
		},
		{
			"bufferView":25,
			"componentType":5126,
			"count":2,
			"type":"VEC3"
		},
		{
			"bufferView":26,
			"componentType":5126,
			"count":2,
			"type":"VEC3"
		},
		{
			"bufferView":27,
			"componentType":5126,
			"count":251,
			"type":"VEC4"
		},
		{
			"bufferView":28,
			"componentType":5126,
			"count":2,
			"type":"VEC3"
		},
		{
			"bufferView":29,
			"componentType":5126,
			"count":2,
			"type":"VEC3"
		},
		{
			"bufferView":30,
			"componentType":5126,
			"count":251,
			"type":"VEC4"
		},
		{
			"bufferView":31,
			"componentType":5126,
			"count":2,
			"type":"VEC3"
		},
		{
			"bufferView":32,
			"componentType":5126,
			"count":2,
			"type":"VEC3"
		},
		{
			"bufferView":33,
			"componentType":5126,
			"count":251,
			"type":"VEC4"
		},
		{
			"bufferView":34,
			"componentType":5126,
			"count":2,
			"type":"VEC3"
		},
		{
			"bufferView":35,
			"componentType":5126,
			"count":2,
			"type":"VEC3"
		},
		{
			"bufferView":36,
			"componentType":5126,
			"count":251,
			"type":"VEC4"
		},
		{
			"bufferView":37,
			"componentType":5126,
			"count":2,
			"type":"VEC3"
		},
		{
			"bufferView":38,
			"componentType":5126,
			"count":2,
			"type":"VEC3"
		},
		{
			"bufferView":39,
			"componentType":5126,
			"count":251,
			"type":"VEC4"
		},
		{
			"bufferView":40,
			"componentType":5126,
			"count":2,
			"type":"VEC3"
		},
		{
			"bufferView":41,
			"componentType":5126,
			"count":2,
			"type":"VEC3"
		},
		{
			"bufferView":42,
			"componentType":5126,
			"count":251,
			"type":"VEC4"
		},
		{
			"bufferView":43,
			"componentType":5126,
			"count":2,
			"type":"VEC3"
		},
		{
			"bufferView":44,
			"componentType":5126,
			"count":2,
			"type":"VEC3"
		},
		{
			"bufferView":45,
			"componentType":5126,
			"count":251,
			"type":"VEC4"
		},
		{
			"bufferView":46,
			"componentType":5126,
			"count":2,
			"type":"VEC3"
		},
		{
			"bufferView":47,
			"componentType":5126,
			"count":2,
			"type":"VEC3"
		},
		{
			"bufferView":48,
			"componentType":5126,
			"count":251,
			"type":"VEC4"
		},
		{
			"bufferView":49,
			"componentType":5126,
			"count":2,
			"type":"VEC3"
		},
		{
			"bufferView":50,
			"componentType":5126,
			"count":2,
			"max":[
				1.3333333333333333
			],
			"min":[
				0
			],
			"type":"SCALAR"
		},
		{
			"bufferView":51,
			"componentType":5126,
			"count":2,
			"type":"VEC3"
		},
		{
			"bufferView":52,
			"componentType":5126,
			"count":2,
			"type":"VEC4"
		},
		{
			"bufferView":53,
			"componentType":5126,
			"count":2,
			"type":"VEC3"
		},
		{
			"bufferView":54,
			"componentType":5126,
			"count":2,
			"type":"VEC3"
		},
		{
			"bufferView":55,
			"componentType":5126,
			"count":2,
			"type":"VEC4"
		},
		{
			"bufferView":56,
			"componentType":5126,
			"count":2,
			"type":"VEC3"
		},
		{
			"bufferView":57,
			"componentType":5126,
			"count":2,
			"type":"VEC3"
		},
		{
			"bufferView":58,
			"componentType":5126,
			"count":2,
			"type":"VEC4"
		},
		{
			"bufferView":59,
			"componentType":5126,
			"count":2,
			"type":"VEC3"
		},
		{
			"bufferView":60,
			"componentType":5126,
			"count":2,
			"type":"VEC3"
		},
		{
			"bufferView":61,
			"componentType":5126,
			"count":33,
			"max":[
				1.3333333333333333
			],
			"min":[
				0
			],
			"type":"SCALAR"
		},
		{
			"bufferView":62,
			"componentType":5126,
			"count":33,
			"type":"VEC4"
		},
		{
			"bufferView":63,
			"componentType":5126,
			"count":2,
			"type":"VEC3"
		},
		{
			"bufferView":64,
			"componentType":5126,
			"count":2,
			"type":"VEC3"
		},
		{
			"bufferView":65,
			"componentType":5126,
			"count":33,
			"type":"VEC4"
		},
		{
			"bufferView":66,
			"componentType":5126,
			"count":2,
			"type":"VEC3"
		},
		{
			"bufferView":67,
			"componentType":5126,
			"count":2,
			"type":"VEC3"
		},
		{
			"bufferView":68,
			"componentType":5126,
			"count":33,
			"type":"VEC4"
		},
		{
			"bufferView":69,
			"componentType":5126,
			"count":2,
			"type":"VEC3"
		},
		{
			"bufferView":70,
			"componentType":5126,
			"count":2,
			"type":"VEC3"
		},
		{
			"bufferView":71,
			"componentType":5126,
			"count":33,
			"type":"VEC4"
		},
		{
			"bufferView":72,
			"componentType":5126,
			"count":2,
			"type":"VEC3"
		},
		{
			"bufferView":73,
			"componentType":5126,
			"count":2,
			"type":"VEC3"
		},
		{
			"bufferView":74,
			"componentType":5126,
			"count":33,
			"type":"VEC4"
		},
		{
			"bufferView":75,
			"componentType":5126,
			"count":2,
			"type":"VEC3"
		},
		{
			"bufferView":76,
			"componentType":5126,
			"count":2,
			"type":"VEC3"
		},
		{
			"bufferView":77,
			"componentType":5126,
			"count":33,
			"type":"VEC4"
		},
		{
			"bufferView":78,
			"componentType":5126,
			"count":2,
			"type":"VEC3"
		},
		{
			"bufferView":79,
			"componentType":5126,
			"count":2,
			"type":"VEC3"
		},
		{
			"bufferView":80,
			"componentType":5126,
			"count":33,
			"type":"VEC4"
		},
		{
			"bufferView":81,
			"componentType":5126,
			"count":2,
			"type":"VEC3"
		},
		{
			"bufferView":82,
			"componentType":5126,
			"count":2,
			"type":"VEC3"
		},
		{
			"bufferView":83,
			"componentType":5126,
			"count":33,
			"type":"VEC4"
		},
		{
			"bufferView":84,
			"componentType":5126,
			"count":2,
			"type":"VEC3"
		},
		{
			"bufferView":85,
			"componentType":5126,
			"count":2,
			"type":"VEC3"
		},
		{
			"bufferView":86,
			"componentType":5126,
			"count":33,
			"type":"VEC4"
		},
		{
			"bufferView":87,
			"componentType":5126,
			"count":2,
			"type":"VEC3"
		},
		{
			"bufferView":88,
			"componentType":5126,
			"count":2,
			"type":"VEC3"
		},
		{
			"bufferView":89,
			"componentType":5126,
			"count":33,
			"type":"VEC4"
		},
		{
			"bufferView":90,
			"componentType":5126,
			"count":2,
			"type":"VEC3"
		}
	],
	"bufferViews":[
		{
			"buffer":0,
			"byteLength":2532,
			"byteOffset":0,
			"target":34962
		},
		{
			"buffer":0,
			"byteLength":2532,
			"byteOffset":2532,
			"target":34962
		},
		{
			"buffer":0,
			"byteLength":1688,
			"byteOffset":5064,
			"target":34962
		},
		{
			"buffer":0,
			"byteLength":844,
			"byteOffset":6752,
			"target":34962
		},
		{
			"buffer":0,
			"byteLength":3376,
			"byteOffset":7596,
			"target":34962
		},
		{
			"buffer":0,
			"byteLength":2220,
			"byteOffset":10972,
			"target":34963
		},
		{
			"buffer":0,
			"byteLength":2532,
			"byteOffset":13192,
			"target":34962
		},
		{
			"buffer":0,
			"byteLength":2532,
			"byteOffset":15724,
			"target":34962
		},
		{
			"buffer":0,
			"byteLength":832,
			"byteOffset":18256
		},
		{
			"buffer":0,
			"byteLength":8,
			"byteOffset":19088
		},
		{
			"buffer":0,
			"byteLength":24,
			"byteOffset":19096
		},
		{
			"buffer":0,
			"byteLength":1004,
			"byteOffset":19120
		},
		{
			"buffer":0,
			"byteLength":4016,
			"byteOffset":20124
		},
		{
			"buffer":0,
			"byteLength":24,
			"byteOffset":24140
		},
		{
			"buffer":0,
			"byteLength":24,
			"byteOffset":24164
		},
		{
			"buffer":0,
			"byteLength":4016,
			"byteOffset":24188
		},
		{
			"buffer":0,
			"byteLength":24,
			"byteOffset":28204
		},
		{
			"buffer":0,
			"byteLength":24,
			"byteOffset":28228
		},
		{
			"buffer":0,
			"byteLength":4016,
			"byteOffset":28252
		},
		{
			"buffer":0,
			"byteLength":24,
			"byteOffset":32268
		},
		{
			"buffer":0,
			"byteLength":24,
			"byteOffset":32292
		},
		{
			"buffer":0,
			"byteLength":4016,
			"byteOffset":32316
		},
		{
			"buffer":0,
			"byteLength":24,
			"byteOffset":36332
		},
		{
			"buffer":0,
			"byteLength":24,
			"byteOffset":36356
		},
		{
			"buffer":0,
			"byteLength":4016,
			"byteOffset":36380
		},
		{
			"buffer":0,
			"byteLength":24,
			"byteOffset":40396
		},
		{
			"buffer":0,
			"byteLength":24,
			"byteOffset":40420
		},
		{
			"buffer":0,
			"byteLength":4016,
			"byteOffset":40444
		},
		{
			"buffer":0,
			"byteLength":24,
			"byteOffset":44460
		},
		{
			"buffer":0,
			"byteLength":24,
			"byteOffset":44484
		},
		{
			"buffer":0,
			"byteLength":4016,
			"byteOffset":44508
		},
		{
			"buffer":0,
			"byteLength":24,
			"byteOffset":48524
		},
		{
			"buffer":0,
			"byteLength":24,
			"byteOffset":48548
		},
		{
			"buffer":0,
			"byteLength":4016,
			"byteOffset":48572
		},
		{
			"buffer":0,
			"byteLength":24,
			"byteOffset":52588
		},
		{
			"buffer":0,
			"byteLength":24,
			"byteOffset":52612
		},
		{
			"buffer":0,
			"byteLength":4016,
			"byteOffset":52636
		},
		{
			"buffer":0,
			"byteLength":24,
			"byteOffset":56652
		},
		{
			"buffer":0,
			"byteLength":24,
			"byteOffset":56676
		},
		{
			"buffer":0,
			"byteLength":4016,
			"byteOffset":56700
		},
		{
			"buffer":0,
			"byteLength":24,
			"byteOffset":60716
		},
		{
			"buffer":0,
			"byteLength":24,
			"byteOffset":60740
		},
		{
			"buffer":0,
			"byteLength":4016,
			"byteOffset":60764
		},
		{
			"buffer":0,
			"byteLength":24,
			"byteOffset":64780
		},
		{
			"buffer":0,
			"byteLength":24,
			"byteOffset":64804
		},
		{
			"buffer":0,
			"byteLength":4016,
			"byteOffset":64828
		},
		{
			"buffer":0,
			"byteLength":24,
			"byteOffset":68844
		},
		{
			"buffer":0,
			"byteLength":24,
			"byteOffset":68868
		},
		{
			"buffer":0,
			"byteLength":4016,
			"byteOffset":68892
		},
		{
			"buffer":0,
			"byteLength":24,
			"byteOffset":72908
		},
		{
			"buffer":0,
			"byteLength":8,
			"byteOffset":72932
		},
		{
			"buffer":0,
			"byteLength":24,
			"byteOffset":72940
		},
		{
			"buffer":0,
			"byteLength":32,
			"byteOffset":72964
		},
		{
			"buffer":0,
			"byteLength":24,
			"byteOffset":72996
		},
		{
			"buffer":0,
			"byteLength":24,
			"byteOffset":73020
		},
		{
			"buffer":0,
			"byteLength":32,
			"byteOffset":73044
		},
		{
			"buffer":0,
			"byteLength":24,
			"byteOffset":73076
		},
		{
			"buffer":0,
			"byteLength":24,
			"byteOffset":73100
		},
		{
			"buffer":0,
			"byteLength":32,
			"byteOffset":73124
		},
		{
			"buffer":0,
			"byteLength":24,
			"byteOffset":73156
		},
		{
			"buffer":0,
			"byteLength":24,
			"byteOffset":73180
		},
		{
			"buffer":0,
			"byteLength":132,
			"byteOffset":73204
		},
		{
			"buffer":0,
			"byteLength":528,
			"byteOffset":73336
		},
		{
			"buffer":0,
			"byteLength":24,
			"byteOffset":73864
		},
		{
			"buffer":0,
			"byteLength":24,
			"byteOffset":73888
		},
		{
			"buffer":0,
			"byteLength":528,
			"byteOffset":73912
		},
		{
			"buffer":0,
			"byteLength":24,
			"byteOffset":74440
		},
		{
			"buffer":0,
			"byteLength":24,
			"byteOffset":74464
		},
		{
			"buffer":0,
			"byteLength":528,
			"byteOffset":74488
		},
		{
			"buffer":0,
			"byteLength":24,
			"byteOffset":75016
		},
		{
			"buffer":0,
			"byteLength":24,
			"byteOffset":75040
		},
		{
			"buffer":0,
			"byteLength":528,
			"byteOffset":75064
		},
		{
			"buffer":0,
			"byteLength":24,
			"byteOffset":75592
		},
		{
			"buffer":0,
			"byteLength":24,
			"byteOffset":75616
		},
		{
			"buffer":0,
			"byteLength":528,
			"byteOffset":75640
		},
		{
			"buffer":0,
			"byteLength":24,
			"byteOffset":76168
		},
		{
			"buffer":0,
			"byteLength":24,
			"byteOffset":76192
		},
		{
			"buffer":0,
			"byteLength":528,
			"byteOffset":76216
		},
		{
			"buffer":0,
			"byteLength":24,
			"byteOffset":76744
		},
		{
			"buffer":0,
			"byteLength":24,
			"byteOffset":76768
		},
		{
			"buffer":0,
			"byteLength":528,
			"byteOffset":76792
		},
		{
			"buffer":0,
			"byteLength":24,
			"byteOffset":77320
		},
		{
			"buffer":0,
			"byteLength":24,
			"byteOffset":77344
		},
		{
			"buffer":0,
			"byteLength":528,
			"byteOffset":77368
		},
		{
			"buffer":0,
			"byteLength":24,
			"byteOffset":77896
		},
		{
			"buffer":0,
			"byteLength":24,
			"byteOffset":77920
		},
		{
			"buffer":0,
			"byteLength":528,
			"byteOffset":77944
		},
		{
			"buffer":0,
			"byteLength":24,
			"byteOffset":78472
		},
		{
			"buffer":0,
			"byteLength":24,
			"byteOffset":78496
		},
		{
			"buffer":0,
			"byteLength":528,
			"byteOffset":78520
		},
		{
			"buffer":0,
			"byteLength":24,
			"byteOffset":79048
		}
	],
	"buffers":[
		{
			"byteLength":79072,
			"uri":"Mantaray.bin"
		}
	]
}
