{
	"asset":{
		"generator":"Khronos glTF Blender I/O v4.4.56",
		"version":"2.0"
	},
	"extensionsUsed":[
		"KHR_materials_specular"
	],
	"scene":0,
	"scenes":[
		{
			"name":"Scene",
			"nodes":[
				14
			]
		}
	],
	"nodes":[
		{
			"name":"Beak",
			"rotation":[
				-0.048857204616069794,
				-1.371812247130677e-10,
				5.746607634193879e-09,
				0.9988057613372803
			],
			"scale":[
				1,
				0.9999999403953552,
				1
			],
			"translation":[
				-6.104487937363956e-08,
				0.6235494017601013,
				-0.22609274089336395
			]
		},
		{
			"children":[
				0
			],
			"name":"Head",
			"rotation":[
				-0.41699448227882385,
				-1.9543834713970807e-15,
				9.941924616896358e-08,
				0.908909022808075
			],
			"scale":[
				1,
				0.9999999403953552,
				0.9999998807907104
			],
			"translation":[
				-3.9968028886505635e-15,
				0.4792005121707916,
				-1.1102230246251565e-15
			]
		},
		{
			"children":[
				1
			],
			"name":"Chest",
			"rotation":[
				-0.3213183283805847,
				-1.2192893586058726e-14,
				7.660825929178827e-08,
				0.9469712376594543
			],
			"scale":[
				1,
				0.9999998807907104,
				1
			],
			"translation":[
				1.7763568394002505e-15,
				0.5578824877738953,
				1.8626440390079324e-09
			]
		},
		{
			"children":[
				2
			],
			"name":"Abdomen",
			"rotation":[
				-0.08075269311666489,
				3.66166763576814e-09,
				2.2950619182893206e-08,
				0.9967342019081116
			],
			"scale":[
				1,
				1.0000001192092896,
				1.0000001192092896
			],
			"translation":[
				-4.440892098500626e-16,
				0.6868339776992798,
				3.7252891882388894e-09
			]
		},
		{
			"name":"Foot.001.L",
			"rotation":[
				-0.6478268504142761,
				0.0022126976400613785,
				-0.2269398272037506,
				0.7271958589553833
			],
			"scale":[
				0.9999999403953552,
				1,
				0.9999999403953552
			],
			"translation":[
				2.60770320892334e-08,
				0.8135653734207153,
				1.862645149230957e-08
			]
		},
		{
			"children":[
				4
			],
			"name":"Foot.L",
			"rotation":[
				-0.11442959308624268,
				0.1363297998905182,
				0.9602709412574768,
				0.21494145691394806
			],
			"scale":[
				0.9999999403953552,
				1,
				0.9999998807907104
			],
			"translation":[
				-4.440892098500626e-16,
				0.6868339776992798,
				3.7252891882388894e-09
			]
		},
		{
			"name":"Foot.001.R",
			"rotation":[
				-0.6478269100189209,
				-0.0022127593401819468,
				0.22693993151187897,
				0.7271957993507385
			],
			"scale":[
				0.9999998211860657,
				0.9999999403953552,
				0.9999999403953552
			],
			"translation":[
				-4.0978193283081055e-08,
				0.8135653138160706,
				1.4901161193847656e-08
			]
		},
		{
			"children":[
				6
			],
			"name":"Foot.R",
			"rotation":[
				-0.11442986130714417,
				-0.1363297402858734,
				-0.960270881652832,
				0.21494141221046448
			],
			"scale":[
				1.000000238418579,
				1.0000001192092896,
				1.0000001192092896
			],
			"translation":[
				-4.440892098500626e-16,
				0.6868339776992798,
				3.7252891882388894e-09
			]
		},
		{
			"children":[
				3,
				5,
				7
			],
			"name":"Pelvis",
			"rotation":[
				0.7587142586708069,
				-7.76557769199826e-08,
				-9.564968195263646e-08,
				0.6514236330986023
			],
			"translation":[
				-1.7137620575102233e-16,
				0,
				0.17326344549655914
			]
		},
		{
			"children":[
				8
			],
			"name":"Bone",
			"rotation":[
				-0.7071067690849304,
				7.419261508418413e-17,
				7.419261508418413e-17,
				0.7071067690849304
			]
		},
		{
			"mesh":0,
			"name":"Cube",
			"skin":0
		},
		{
			"mesh":1,
			"name":"Cube.001",
			"skin":0
		},
		{
			"mesh":2,
			"name":"Plane",
			"skin":0
		},
		{
			"mesh":3,
			"name":"Sphere",
			"skin":0
		},
		{
			"children":[
				10,
				11,
				12,
				13,
				9
			],
			"name":"Base"
		}
	],
	"animations":[
		{
			"channels":[
				{
					"sampler":0,
					"target":{
						"node":9,
						"path":"translation"
					}
				},
				{
					"sampler":1,
					"target":{
						"node":9,
						"path":"rotation"
					}
				},
				{
					"sampler":2,
					"target":{
						"node":9,
						"path":"scale"
					}
				},
				{
					"sampler":3,
					"target":{
						"node":8,
						"path":"translation"
					}
				},
				{
					"sampler":4,
					"target":{
						"node":8,
						"path":"rotation"
					}
				},
				{
					"sampler":5,
					"target":{
						"node":8,
						"path":"scale"
					}
				},
				{
					"sampler":6,
					"target":{
						"node":3,
						"path":"translation"
					}
				},
				{
					"sampler":7,
					"target":{
						"node":3,
						"path":"rotation"
					}
				},
				{
					"sampler":8,
					"target":{
						"node":3,
						"path":"scale"
					}
				},
				{
					"sampler":9,
					"target":{
						"node":2,
						"path":"translation"
					}
				},
				{
					"sampler":10,
					"target":{
						"node":2,
						"path":"rotation"
					}
				},
				{
					"sampler":11,
					"target":{
						"node":2,
						"path":"scale"
					}
				},
				{
					"sampler":12,
					"target":{
						"node":1,
						"path":"translation"
					}
				},
				{
					"sampler":13,
					"target":{
						"node":1,
						"path":"rotation"
					}
				},
				{
					"sampler":14,
					"target":{
						"node":1,
						"path":"scale"
					}
				},
				{
					"sampler":15,
					"target":{
						"node":0,
						"path":"translation"
					}
				},
				{
					"sampler":16,
					"target":{
						"node":0,
						"path":"rotation"
					}
				},
				{
					"sampler":17,
					"target":{
						"node":0,
						"path":"scale"
					}
				},
				{
					"sampler":18,
					"target":{
						"node":5,
						"path":"translation"
					}
				},
				{
					"sampler":19,
					"target":{
						"node":5,
						"path":"rotation"
					}
				},
				{
					"sampler":20,
					"target":{
						"node":5,
						"path":"scale"
					}
				},
				{
					"sampler":21,
					"target":{
						"node":4,
						"path":"translation"
					}
				},
				{
					"sampler":22,
					"target":{
						"node":4,
						"path":"rotation"
					}
				},
				{
					"sampler":23,
					"target":{
						"node":4,
						"path":"scale"
					}
				},
				{
					"sampler":24,
					"target":{
						"node":7,
						"path":"translation"
					}
				},
				{
					"sampler":25,
					"target":{
						"node":7,
						"path":"rotation"
					}
				},
				{
					"sampler":26,
					"target":{
						"node":7,
						"path":"scale"
					}
				},
				{
					"sampler":27,
					"target":{
						"node":6,
						"path":"translation"
					}
				},
				{
					"sampler":28,
					"target":{
						"node":6,
						"path":"rotation"
					}
				},
				{
					"sampler":29,
					"target":{
						"node":6,
						"path":"scale"
					}
				}
			],
			"name":"Idle",
			"samplers":[
				{
					"input":25,
					"interpolation":"STEP",
					"output":26
				},
				{
					"input":25,
					"interpolation":"STEP",
					"output":27
				},
				{
					"input":25,
					"interpolation":"STEP",
					"output":28
				},
				{
					"input":25,
					"interpolation":"STEP",
					"output":29
				},
				{
					"input":25,
					"interpolation":"STEP",
					"output":30
				},
				{
					"input":25,
					"interpolation":"STEP",
					"output":31
				},
				{
					"input":25,
					"interpolation":"STEP",
					"output":32
				},
				{
					"input":33,
					"interpolation":"LINEAR",
					"output":34
				},
				{
					"input":25,
					"interpolation":"STEP",
					"output":35
				},
				{
					"input":25,
					"interpolation":"LINEAR",
					"output":36
				},
				{
					"input":33,
					"interpolation":"LINEAR",
					"output":37
				},
				{
					"input":25,
					"interpolation":"STEP",
					"output":38
				},
				{
					"input":25,
					"interpolation":"LINEAR",
					"output":39
				},
				{
					"input":33,
					"interpolation":"LINEAR",
					"output":40
				},
				{
					"input":25,
					"interpolation":"STEP",
					"output":41
				},
				{
					"input":25,
					"interpolation":"LINEAR",
					"output":42
				},
				{
					"input":25,
					"interpolation":"LINEAR",
					"output":43
				},
				{
					"input":25,
					"interpolation":"STEP",
					"output":44
				},
				{
					"input":25,
					"interpolation":"STEP",
					"output":45
				},
				{
					"input":25,
					"interpolation":"STEP",
					"output":46
				},
				{
					"input":25,
					"interpolation":"STEP",
					"output":47
				},
				{
					"input":25,
					"interpolation":"STEP",
					"output":48
				},
				{
					"input":33,
					"interpolation":"LINEAR",
					"output":49
				},
				{
					"input":25,
					"interpolation":"STEP",
					"output":50
				},
				{
					"input":25,
					"interpolation":"STEP",
					"output":51
				},
				{
					"input":25,
					"interpolation":"STEP",
					"output":52
				},
				{
					"input":25,
					"interpolation":"STEP",
					"output":53
				},
				{
					"input":25,
					"interpolation":"STEP",
					"output":54
				},
				{
					"input":33,
					"interpolation":"LINEAR",
					"output":55
				},
				{
					"input":25,
					"interpolation":"STEP",
					"output":56
				}
			]
		},
		{
			"channels":[
				{
					"sampler":0,
					"target":{
						"node":9,
						"path":"translation"
					}
				},
				{
					"sampler":1,
					"target":{
						"node":9,
						"path":"rotation"
					}
				},
				{
					"sampler":2,
					"target":{
						"node":9,
						"path":"scale"
					}
				},
				{
					"sampler":3,
					"target":{
						"node":8,
						"path":"translation"
					}
				},
				{
					"sampler":4,
					"target":{
						"node":8,
						"path":"rotation"
					}
				},
				{
					"sampler":5,
					"target":{
						"node":8,
						"path":"scale"
					}
				},
				{
					"sampler":6,
					"target":{
						"node":3,
						"path":"translation"
					}
				},
				{
					"sampler":7,
					"target":{
						"node":3,
						"path":"rotation"
					}
				},
				{
					"sampler":8,
					"target":{
						"node":3,
						"path":"scale"
					}
				},
				{
					"sampler":9,
					"target":{
						"node":2,
						"path":"translation"
					}
				},
				{
					"sampler":10,
					"target":{
						"node":2,
						"path":"rotation"
					}
				},
				{
					"sampler":11,
					"target":{
						"node":2,
						"path":"scale"
					}
				},
				{
					"sampler":12,
					"target":{
						"node":1,
						"path":"translation"
					}
				},
				{
					"sampler":13,
					"target":{
						"node":1,
						"path":"rotation"
					}
				},
				{
					"sampler":14,
					"target":{
						"node":1,
						"path":"scale"
					}
				},
				{
					"sampler":15,
					"target":{
						"node":0,
						"path":"translation"
					}
				},
				{
					"sampler":16,
					"target":{
						"node":0,
						"path":"rotation"
					}
				},
				{
					"sampler":17,
					"target":{
						"node":0,
						"path":"scale"
					}
				},
				{
					"sampler":18,
					"target":{
						"node":5,
						"path":"translation"
					}
				},
				{
					"sampler":19,
					"target":{
						"node":5,
						"path":"rotation"
					}
				},
				{
					"sampler":20,
					"target":{
						"node":5,
						"path":"scale"
					}
				},
				{
					"sampler":21,
					"target":{
						"node":4,
						"path":"translation"
					}
				},
				{
					"sampler":22,
					"target":{
						"node":4,
						"path":"rotation"
					}
				},
				{
					"sampler":23,
					"target":{
						"node":4,
						"path":"scale"
					}
				},
				{
					"sampler":24,
					"target":{
						"node":7,
						"path":"translation"
					}
				},
				{
					"sampler":25,
					"target":{
						"node":7,
						"path":"rotation"
					}
				},
				{
					"sampler":26,
					"target":{
						"node":7,
						"path":"scale"
					}
				},
				{
					"sampler":27,
					"target":{
						"node":6,
						"path":"translation"
					}
				},
				{
					"sampler":28,
					"target":{
						"node":6,
						"path":"rotation"
					}
				},
				{
					"sampler":29,
					"target":{
						"node":6,
						"path":"scale"
					}
				}
			],
			"name":"Move",
			"samplers":[
				{
					"input":57,
					"interpolation":"STEP",
					"output":58
				},
				{
					"input":57,
					"interpolation":"STEP",
					"output":59
				},
				{
					"input":57,
					"interpolation":"STEP",
					"output":60
				},
				{
					"input":61,
					"interpolation":"LINEAR",
					"output":62
				},
				{
					"input":57,
					"interpolation":"STEP",
					"output":63
				},
				{
					"input":57,
					"interpolation":"STEP",
					"output":64
				},
				{
					"input":57,
					"interpolation":"LINEAR",
					"output":65
				},
				{
					"input":57,
					"interpolation":"STEP",
					"output":66
				},
				{
					"input":57,
					"interpolation":"STEP",
					"output":67
				},
				{
					"input":57,
					"interpolation":"LINEAR",
					"output":68
				},
				{
					"input":61,
					"interpolation":"LINEAR",
					"output":69
				},
				{
					"input":57,
					"interpolation":"STEP",
					"output":70
				},
				{
					"input":57,
					"interpolation":"LINEAR",
					"output":71
				},
				{
					"input":61,
					"interpolation":"LINEAR",
					"output":72
				},
				{
					"input":57,
					"interpolation":"STEP",
					"output":73
				},
				{
					"input":57,
					"interpolation":"LINEAR",
					"output":74
				},
				{
					"input":57,
					"interpolation":"STEP",
					"output":75
				},
				{
					"input":57,
					"interpolation":"STEP",
					"output":76
				},
				{
					"input":57,
					"interpolation":"LINEAR",
					"output":77
				},
				{
					"input":61,
					"interpolation":"LINEAR",
					"output":78
				},
				{
					"input":57,
					"interpolation":"STEP",
					"output":79
				},
				{
					"input":57,
					"interpolation":"LINEAR",
					"output":80
				},
				{
					"input":61,
					"interpolation":"LINEAR",
					"output":81
				},
				{
					"input":57,
					"interpolation":"LINEAR",
					"output":82
				},
				{
					"input":57,
					"interpolation":"LINEAR",
					"output":83
				},
				{
					"input":61,
					"interpolation":"LINEAR",
					"output":84
				},
				{
					"input":57,
					"interpolation":"STEP",
					"output":85
				},
				{
					"input":57,
					"interpolation":"LINEAR",
					"output":86
				},
				{
					"input":61,
					"interpolation":"LINEAR",
					"output":87
				},
				{
					"input":57,
					"interpolation":"STEP",
					"output":88
				}
			]
		}
	],
	"materials":[
		{
			"doubleSided":true,
			"extensions":{
				"KHR_materials_specular":{
					"specularFactor":0
				}
			},
			"name":"Material",
			"pbrMetallicRoughness":{
				"baseColorTexture":{
					"index":0
				},
				"metallicFactor":0
			}
		}
	],
	"meshes":[
		{
			"name":"Cube.002",
			"primitives":[
				{
					"attributes":{
						"POSITION":0,
						"NORMAL":1,
						"TEXCOORD_0":2,
						"JOINTS_0":3,
						"WEIGHTS_0":4
					},
					"indices":5,
					"material":0
				}
			]
		},
		{
			"name":"Cube.003",
			"primitives":[
				{
					"attributes":{
						"POSITION":7,
						"NORMAL":8,
						"TEXCOORD_0":9,
						"JOINTS_0":10,
						"WEIGHTS_0":11
					},
					"indices":12,
					"material":0
				}
			]
		},
		{
			"name":"Plane",
			"primitives":[
				{
					"attributes":{
						"POSITION":13,
						"NORMAL":14,
						"TEXCOORD_0":15,
						"JOINTS_0":16,
						"WEIGHTS_0":17
					},
					"indices":18,
					"material":0
				}
			]
		},
		{
			"name":"Sphere",
			"primitives":[
				{
					"attributes":{
						"POSITION":19,
						"NORMAL":20,
						"TEXCOORD_0":21,
						"JOINTS_0":22,
						"WEIGHTS_0":23
					},
					"indices":24,
					"material":0
				}
			]
		}
	],
	"textures":[
		{
			"sampler":0,
			"source":0
		}
	],
	"images":[
		{
			"mimeType":"image/png",
			"name":"CHR_MOE01",
			"uri":"../textures/CHR_MOE01.png"
		}
	],
	"skins":[
		{
			"inverseBindMatrices":6,
			"joints":[
				9,
				8,
				3,
				2,
				1,
				0,
				5,
				4,
				7,
				6
			],
			"name":"Base"
		}
	],
	"accessors":[
		{
			"bufferView":0,
			"componentType":5126,
			"count":178,
			"max":[
				1.071245551109314,
				0.4600665867328644,
				0.39146292209625244
			],
			"min":[
				-1.071245551109314,
				-0.06730981916189194,
				-1.2125413417816162
			],
			"type":"VEC3"
		},
		{
			"bufferView":1,
			"componentType":5126,
			"count":178,
			"type":"VEC3"
		},
		{
			"bufferView":2,
			"componentType":5126,
			"count":178,
			"type":"VEC2"
		},
		{
			"bufferView":3,
			"componentType":5121,
			"count":178,
			"type":"VEC4"
		},
		{
			"bufferView":4,
			"componentType":5126,
			"count":178,
			"type":"VEC4"
		},
		{
			"bufferView":5,
			"componentType":5123,
			"count":696,
			"type":"SCALAR"
		},
		{
			"bufferView":6,
			"componentType":5126,
			"count":10,
			"type":"MAT4"
		},
		{
			"bufferView":7,
			"componentType":5126,
			"count":205,
			"max":[
				0.8863099813461304,
				2.3099162578582764,
				0.8952435255050659
			],
			"min":[
				-0.8863099813461304,
				0.1064729169011116,
				-0.9549776315689087
			],
			"type":"VEC3"
		},
		{
			"bufferView":8,
			"componentType":5126,
			"count":205,
			"type":"VEC3"
		},
		{
			"bufferView":9,
			"componentType":5126,
			"count":205,
			"type":"VEC2"
		},
		{
			"bufferView":10,
			"componentType":5121,
			"count":205,
			"type":"VEC4"
		},
		{
			"bufferView":11,
			"componentType":5126,
			"count":205,
			"type":"VEC4"
		},
		{
			"bufferView":12,
			"componentType":5123,
			"count":1032,
			"type":"SCALAR"
		},
		{
			"bufferView":13,
			"componentType":5126,
			"count":91,
			"max":[
				0.2621740400791168,
				2.0913302898406982,
				-0.6232282519340515
			],
			"min":[
				-0.2621740400791168,
				1.5068835020065308,
				-1.551744818687439
			],
			"type":"VEC3"
		},
		{
			"bufferView":14,
			"componentType":5126,
			"count":91,
			"type":"VEC3"
		},
		{
			"bufferView":15,
			"componentType":5126,
			"count":91,
			"type":"VEC2"
		},
		{
			"bufferView":16,
			"componentType":5121,
			"count":91,
			"type":"VEC4"
		},
		{
			"bufferView":17,
			"componentType":5126,
			"count":91,
			"type":"VEC4"
		},
		{
			"bufferView":18,
			"componentType":5123,
			"count":372,
			"type":"SCALAR"
		},
		{
			"bufferView":19,
			"componentType":5126,
			"count":68,
			"max":[
				0.39578917622566223,
				2.230604410171509,
				-0.7609860897064209
			],
			"min":[
				-0.39578917622566223,
				1.9547077417373657,
				-0.8940339684486389
			],
			"type":"VEC3"
		},
		{
			"bufferView":20,
			"componentType":5126,
			"count":68,
			"type":"VEC3"
		},
		{
			"bufferView":21,
			"componentType":5126,
			"count":68,
			"type":"VEC2"
		},
		{
			"bufferView":22,
			"componentType":5121,
			"count":68,
			"type":"VEC4"
		},
		{
			"bufferView":23,
			"componentType":5126,
			"count":68,
			"type":"VEC4"
		},
		{
			"bufferView":24,
			"componentType":5123,
			"count":288,
			"type":"SCALAR"
		},
		{
			"bufferView":25,
			"componentType":5126,
			"count":2,
			"max":[
				1
			],
			"min":[
				0
			],
			"type":"SCALAR"
		},
		{
			"bufferView":26,
			"componentType":5126,
			"count":2,
			"type":"VEC3"
		},
		{
			"bufferView":27,
			"componentType":5126,
			"count":2,
			"type":"VEC4"
		},
		{
			"bufferView":28,
			"componentType":5126,
			"count":2,
			"type":"VEC3"
		},
		{
			"bufferView":29,
			"componentType":5126,
			"count":2,
			"type":"VEC3"
		},
		{
			"bufferView":30,
			"componentType":5126,
			"count":2,
			"type":"VEC4"
		},
		{
			"bufferView":31,
			"componentType":5126,
			"count":2,
			"type":"VEC3"
		},
		{
			"bufferView":32,
			"componentType":5126,
			"count":2,
			"type":"VEC3"
		},
		{
			"bufferView":33,
			"componentType":5126,
			"count":25,
			"max":[
				1
			],
			"min":[
				0
			],
			"type":"SCALAR"
		},
		{
			"bufferView":34,
			"componentType":5126,
			"count":25,
			"type":"VEC4"
		},
		{
			"bufferView":35,
			"componentType":5126,
			"count":2,
			"type":"VEC3"
		},
		{
			"bufferView":36,
			"componentType":5126,
			"count":2,
			"type":"VEC3"
		},
		{
			"bufferView":37,
			"componentType":5126,
			"count":25,
			"type":"VEC4"
		},
		{
			"bufferView":38,
			"componentType":5126,
			"count":2,
			"type":"VEC3"
		},
		{
			"bufferView":39,
			"componentType":5126,
			"count":2,
			"type":"VEC3"
		},
		{
			"bufferView":40,
			"componentType":5126,
			"count":25,
			"type":"VEC4"
		},
		{
			"bufferView":41,
			"componentType":5126,
			"count":2,
			"type":"VEC3"
		},
		{
			"bufferView":42,
			"componentType":5126,
			"count":2,
			"type":"VEC3"
		},
		{
			"bufferView":43,
			"componentType":5126,
			"count":2,
			"type":"VEC4"
		},
		{
			"bufferView":44,
			"componentType":5126,
			"count":2,
			"type":"VEC3"
		},
		{
			"bufferView":45,
			"componentType":5126,
			"count":2,
			"type":"VEC3"
		},
		{
			"bufferView":46,
			"componentType":5126,
			"count":2,
			"type":"VEC4"
		},
		{
			"bufferView":47,
			"componentType":5126,
			"count":2,
			"type":"VEC3"
		},
		{
			"bufferView":48,
			"componentType":5126,
			"count":2,
			"type":"VEC3"
		},
		{
			"bufferView":49,
			"componentType":5126,
			"count":25,
			"type":"VEC4"
		},
		{
			"bufferView":50,
			"componentType":5126,
			"count":2,
			"type":"VEC3"
		},
		{
			"bufferView":51,
			"componentType":5126,
			"count":2,
			"type":"VEC3"
		},
		{
			"bufferView":52,
			"componentType":5126,
			"count":2,
			"type":"VEC4"
		},
		{
			"bufferView":53,
			"componentType":5126,
			"count":2,
			"type":"VEC3"
		},
		{
			"bufferView":54,
			"componentType":5126,
			"count":2,
			"type":"VEC3"
		},
		{
			"bufferView":55,
			"componentType":5126,
			"count":25,
			"type":"VEC4"
		},
		{
			"bufferView":56,
			"componentType":5126,
			"count":2,
			"type":"VEC3"
		},
		{
			"bufferView":57,
			"componentType":5126,
			"count":2,
			"max":[
				0.2916666666666667
			],
			"min":[
				0
			],
			"type":"SCALAR"
		},
		{
			"bufferView":58,
			"componentType":5126,
			"count":2,
			"type":"VEC3"
		},
		{
			"bufferView":59,
			"componentType":5126,
			"count":2,
			"type":"VEC4"
		},
		{
			"bufferView":60,
			"componentType":5126,
			"count":2,
			"type":"VEC3"
		},
		{
			"bufferView":61,
			"componentType":5126,
			"count":8,
			"max":[
				0.2916666666666667
			],
			"min":[
				0
			],
			"type":"SCALAR"
		},
		{
			"bufferView":62,
			"componentType":5126,
			"count":8,
			"type":"VEC3"
		},
		{
			"bufferView":63,
			"componentType":5126,
			"count":2,
			"type":"VEC4"
		},
		{
			"bufferView":64,
			"componentType":5126,
			"count":2,
			"type":"VEC3"
		},
		{
			"bufferView":65,
			"componentType":5126,
			"count":2,
			"type":"VEC3"
		},
		{
			"bufferView":66,
			"componentType":5126,
			"count":2,
			"type":"VEC4"
		},
		{
			"bufferView":67,
			"componentType":5126,
			"count":2,
			"type":"VEC3"
		},
		{
			"bufferView":68,
			"componentType":5126,
			"count":2,
			"type":"VEC3"
		},
		{
			"bufferView":69,
			"componentType":5126,
			"count":8,
			"type":"VEC4"
		},
		{
			"bufferView":70,
			"componentType":5126,
			"count":2,
			"type":"VEC3"
		},
		{
			"bufferView":71,
			"componentType":5126,
			"count":2,
			"type":"VEC3"
		},
		{
			"bufferView":72,
			"componentType":5126,
			"count":8,
			"type":"VEC4"
		},
		{
			"bufferView":73,
			"componentType":5126,
			"count":2,
			"type":"VEC3"
		},
		{
			"bufferView":74,
			"componentType":5126,
			"count":2,
			"type":"VEC3"
		},
		{
			"bufferView":75,
			"componentType":5126,
			"count":2,
			"type":"VEC4"
		},
		{
			"bufferView":76,
			"componentType":5126,
			"count":2,
			"type":"VEC3"
		},
		{
			"bufferView":77,
			"componentType":5126,
			"count":2,
			"type":"VEC3"
		},
		{
			"bufferView":78,
			"componentType":5126,
			"count":8,
			"type":"VEC4"
		},
		{
			"bufferView":79,
			"componentType":5126,
			"count":2,
			"type":"VEC3"
		},
		{
			"bufferView":80,
			"componentType":5126,
			"count":2,
			"type":"VEC3"
		},
		{
			"bufferView":81,
			"componentType":5126,
			"count":8,
			"type":"VEC4"
		},
		{
			"bufferView":82,
			"componentType":5126,
			"count":2,
			"type":"VEC3"
		},
		{
			"bufferView":83,
			"componentType":5126,
			"count":2,
			"type":"VEC3"
		},
		{
			"bufferView":84,
			"componentType":5126,
			"count":8,
			"type":"VEC4"
		},
		{
			"bufferView":85,
			"componentType":5126,
			"count":2,
			"type":"VEC3"
		},
		{
			"bufferView":86,
			"componentType":5126,
			"count":2,
			"type":"VEC3"
		},
		{
			"bufferView":87,
			"componentType":5126,
			"count":8,
			"type":"VEC4"
		},
		{
			"bufferView":88,
			"componentType":5126,
			"count":2,
			"type":"VEC3"
		}
	],
	"bufferViews":[
		{
			"buffer":0,
			"byteLength":2136,
			"byteOffset":0,
			"target":34962
		},
		{
			"buffer":0,
			"byteLength":2136,
			"byteOffset":2136,
			"target":34962
		},
		{
			"buffer":0,
			"byteLength":1424,
			"byteOffset":4272,
			"target":34962
		},
		{
			"buffer":0,
			"byteLength":712,
			"byteOffset":5696,
			"target":34962
		},
		{
			"buffer":0,
			"byteLength":2848,
			"byteOffset":6408,
			"target":34962
		},
		{
			"buffer":0,
			"byteLength":1392,
			"byteOffset":9256,
			"target":34963
		},
		{
			"buffer":0,
			"byteLength":640,
			"byteOffset":10648
		},
		{
			"buffer":0,
			"byteLength":2460,
			"byteOffset":11288,
			"target":34962
		},
		{
			"buffer":0,
			"byteLength":2460,
			"byteOffset":13748,
			"target":34962
		},
		{
			"buffer":0,
			"byteLength":1640,
			"byteOffset":16208,
			"target":34962
		},
		{
			"buffer":0,
			"byteLength":820,
			"byteOffset":17848,
			"target":34962
		},
		{
			"buffer":0,
			"byteLength":3280,
			"byteOffset":18668,
			"target":34962
		},
		{
			"buffer":0,
			"byteLength":2064,
			"byteOffset":21948,
			"target":34963
		},
		{
			"buffer":0,
			"byteLength":1092,
			"byteOffset":24012,
			"target":34962
		},
		{
			"buffer":0,
			"byteLength":1092,
			"byteOffset":25104,
			"target":34962
		},
		{
			"buffer":0,
			"byteLength":728,
			"byteOffset":26196,
			"target":34962
		},
		{
			"buffer":0,
			"byteLength":364,
			"byteOffset":26924,
			"target":34962
		},
		{
			"buffer":0,
			"byteLength":1456,
			"byteOffset":27288,
			"target":34962
		},
		{
			"buffer":0,
			"byteLength":744,
			"byteOffset":28744,
			"target":34963
		},
		{
			"buffer":0,
			"byteLength":816,
			"byteOffset":29488,
			"target":34962
		},
		{
			"buffer":0,
			"byteLength":816,
			"byteOffset":30304,
			"target":34962
		},
		{
			"buffer":0,
			"byteLength":544,
			"byteOffset":31120,
			"target":34962
		},
		{
			"buffer":0,
			"byteLength":272,
			"byteOffset":31664,
			"target":34962
		},
		{
			"buffer":0,
			"byteLength":1088,
			"byteOffset":31936,
			"target":34962
		},
		{
			"buffer":0,
			"byteLength":576,
			"byteOffset":33024,
			"target":34963
		},
		{
			"buffer":0,
			"byteLength":8,
			"byteOffset":33600
		},
		{
			"buffer":0,
			"byteLength":24,
			"byteOffset":33608
		},
		{
			"buffer":0,
			"byteLength":32,
			"byteOffset":33632
		},
		{
			"buffer":0,
			"byteLength":24,
			"byteOffset":33664
		},
		{
			"buffer":0,
			"byteLength":24,
			"byteOffset":33688
		},
		{
			"buffer":0,
			"byteLength":32,
			"byteOffset":33712
		},
		{
			"buffer":0,
			"byteLength":24,
			"byteOffset":33744
		},
		{
			"buffer":0,
			"byteLength":24,
			"byteOffset":33768
		},
		{
			"buffer":0,
			"byteLength":100,
			"byteOffset":33792
		},
		{
			"buffer":0,
			"byteLength":400,
			"byteOffset":33892
		},
		{
			"buffer":0,
			"byteLength":24,
			"byteOffset":34292
		},
		{
			"buffer":0,
			"byteLength":24,
			"byteOffset":34316
		},
		{
			"buffer":0,
			"byteLength":400,
			"byteOffset":34340
		},
		{
			"buffer":0,
			"byteLength":24,
			"byteOffset":34740
		},
		{
			"buffer":0,
			"byteLength":24,
			"byteOffset":34764
		},
		{
			"buffer":0,
			"byteLength":400,
			"byteOffset":34788
		},
		{
			"buffer":0,
			"byteLength":24,
			"byteOffset":35188
		},
		{
			"buffer":0,
			"byteLength":24,
			"byteOffset":35212
		},
		{
			"buffer":0,
			"byteLength":32,
			"byteOffset":35236
		},
		{
			"buffer":0,
			"byteLength":24,
			"byteOffset":35268
		},
		{
			"buffer":0,
			"byteLength":24,
			"byteOffset":35292
		},
		{
			"buffer":0,
			"byteLength":32,
			"byteOffset":35316
		},
		{
			"buffer":0,
			"byteLength":24,
			"byteOffset":35348
		},
		{
			"buffer":0,
			"byteLength":24,
			"byteOffset":35372
		},
		{
			"buffer":0,
			"byteLength":400,
			"byteOffset":35396
		},
		{
			"buffer":0,
			"byteLength":24,
			"byteOffset":35796
		},
		{
			"buffer":0,
			"byteLength":24,
			"byteOffset":35820
		},
		{
			"buffer":0,
			"byteLength":32,
			"byteOffset":35844
		},
		{
			"buffer":0,
			"byteLength":24,
			"byteOffset":35876
		},
		{
			"buffer":0,
			"byteLength":24,
			"byteOffset":35900
		},
		{
			"buffer":0,
			"byteLength":400,
			"byteOffset":35924
		},
		{
			"buffer":0,
			"byteLength":24,
			"byteOffset":36324
		},
		{
			"buffer":0,
			"byteLength":8,
			"byteOffset":36348
		},
		{
			"buffer":0,
			"byteLength":24,
			"byteOffset":36356
		},
		{
			"buffer":0,
			"byteLength":32,
			"byteOffset":36380
		},
		{
			"buffer":0,
			"byteLength":24,
			"byteOffset":36412
		},
		{
			"buffer":0,
			"byteLength":32,
			"byteOffset":36436
		},
		{
			"buffer":0,
			"byteLength":96,
			"byteOffset":36468
		},
		{
			"buffer":0,
			"byteLength":32,
			"byteOffset":36564
		},
		{
			"buffer":0,
			"byteLength":24,
			"byteOffset":36596
		},
		{
			"buffer":0,
			"byteLength":24,
			"byteOffset":36620
		},
		{
			"buffer":0,
			"byteLength":32,
			"byteOffset":36644
		},
		{
			"buffer":0,
			"byteLength":24,
			"byteOffset":36676
		},
		{
			"buffer":0,
			"byteLength":24,
			"byteOffset":36700
		},
		{
			"buffer":0,
			"byteLength":128,
			"byteOffset":36724
		},
		{
			"buffer":0,
			"byteLength":24,
			"byteOffset":36852
		},
		{
			"buffer":0,
			"byteLength":24,
			"byteOffset":36876
		},
		{
			"buffer":0,
			"byteLength":128,
			"byteOffset":36900
		},
		{
			"buffer":0,
			"byteLength":24,
			"byteOffset":37028
		},
		{
			"buffer":0,
			"byteLength":24,
			"byteOffset":37052
		},
		{
			"buffer":0,
			"byteLength":32,
			"byteOffset":37076
		},
		{
			"buffer":0,
			"byteLength":24,
			"byteOffset":37108
		},
		{
			"buffer":0,
			"byteLength":24,
			"byteOffset":37132
		},
		{
			"buffer":0,
			"byteLength":128,
			"byteOffset":37156
		},
		{
			"buffer":0,
			"byteLength":24,
			"byteOffset":37284
		},
		{
			"buffer":0,
			"byteLength":24,
			"byteOffset":37308
		},
		{
			"buffer":0,
			"byteLength":128,
			"byteOffset":37332
		},
		{
			"buffer":0,
			"byteLength":24,
			"byteOffset":37460
		},
		{
			"buffer":0,
			"byteLength":24,
			"byteOffset":37484
		},
		{
			"buffer":0,
			"byteLength":128,
			"byteOffset":37508
		},
		{
			"buffer":0,
			"byteLength":24,
			"byteOffset":37636
		},
		{
			"buffer":0,
			"byteLength":24,
			"byteOffset":37660
		},
		{
			"buffer":0,
			"byteLength":128,
			"byteOffset":37684
		},
		{
			"buffer":0,
			"byteLength":24,
			"byteOffset":37812
		}
	],
	"samplers":[
		{
			"magFilter":9729,
			"minFilter":9987
		}
	],
	"buffers":[
		{
			"byteLength":37836,
			"uri":"Moe.bin"
		}
	]
}
