{
	"asset":{
		"generator":"Khronos glTF Blender I/O v4.4.56",
		"version":"2.0"
	},
	"extensionsUsed":[
		"KHR_materials_emissive_strength"
	],
	"scene":0,
	"scenes":[
		{
			"name":"Scene",
			"nodes":[
				0,
				1
			]
		}
	],
	"nodes":[
		{
			"mesh":0,
			"name":"Lamp",
			"scale":[
				0.9001542329788208,
				0.9001542329788208,
				0.9001542329788208
			]
		},
		{
			"mesh":1,
			"name":"Fire",
			"scale":[
				0.9001542329788208,
				0.9001542329788208,
				0.9001542329788208
			],
			"translation":[
				0,
				0.26777297258377075,
				-0.2674863040447235
			]
		}
	],
	"animations":[
		{
			"channels":[
				{
					"sampler":0,
					"target":{
						"node":1,
						"path":"weights"
					}
				}
			],
			"name":"Fire",
			"samplers":[
				{
					"input":22,
					"interpolation":"LINEAR",
					"output":23
				}
			]
		}
	],
	"materials":[
		{
			"doubleSided":true,
			"name":"Material",
			"pbrMetallicRoughness":{
				"baseColorTexture":{
					"index":0
				},
				"metallicFactor":0
			}
		},
		{
			"doubleSided":true,
			"emissiveFactor":[
				1,
				0.25507885217666626,
				0
			],
			"extensions":{
				"KHR_materials_emissive_strength":{
					"emissiveStrength":1.7999999523162842
				}
			},
			"name":"Material.001",
			"pbrMetallicRoughness":{
				"baseColorFactor":[
					0,
					0,
					0,
					1
				]
			}
		}
	],
	"meshes":[
		{
			"extras":{
				"targetNames":[
					"Key 1",
					"Key 2",
					"Key 3",
					"Key 4"
				]
			},
			"name":"Cube.001",
			"primitives":[
				{
					"attributes":{
						"POSITION":0,
						"NORMAL":1,
						"TEXCOORD_0":2
					},
					"indices":3,
					"material":0,
					"targets":[
						{
							"POSITION":4,
							"NORMAL":5
						},
						{
							"POSITION":6,
							"NORMAL":7
						},
						{
							"POSITION":8,
							"NORMAL":9
						},
						{
							"POSITION":10,
							"NORMAL":11
						}
					]
				}
			],
			"weights":[
				0,
				0,
				0,
				1
			]
		},
		{
			"extras":{
				"targetNames":[
					"Key 1",
					"Key 2",
					"Key 3"
				]
			},
			"name":"Cube.002",
			"primitives":[
				{
					"attributes":{
						"POSITION":12,
						"NORMAL":13,
						"TEXCOORD_0":14
					},
					"indices":15,
					"material":1,
					"targets":[
						{
							"POSITION":16,
							"NORMAL":17
						},
						{
							"POSITION":18,
							"NORMAL":19
						},
						{
							"POSITION":20,
							"NORMAL":21
						}
					]
				}
			],
			"weights":[
				1,
				1,
				0
			]
		}
	],
	"textures":[
		{
			"sampler":0,
			"source":0
		}
	],
	"images":[
		{
			"mimeType":"image/png",
			"name":"STO_GRANITE2",
			"uri":"../textures/STO_GRANITE2.png"
		}
	],
	"accessors":[
		{
			"bufferView":0,
			"componentType":5126,
			"count":228,
			"max":[
				0.18693649768829346,
				0.2715463936328888,
				0.23540373146533966
			],
			"min":[
				-0.18693649768829346,
				0,
				-0.3072544038295746
			],
			"type":"VEC3"
		},
		{
			"bufferView":1,
			"componentType":5126,
			"count":228,
			"type":"VEC3"
		},
		{
			"bufferView":2,
			"componentType":5126,
			"count":228,
			"type":"VEC2"
		},
		{
			"bufferView":3,
			"componentType":5123,
			"count":648,
			"type":"SCALAR"
		},
		{
			"componentType":5126,
			"count":228,
			"max":[
				0,
				0,
				0
			],
			"min":[
				0,
				0,
				0
			],
			"sparse":{
				"count":1,
				"indices":{
					"bufferView":4,
					"componentType":5121
				},
				"values":{
					"bufferView":5
				}
			},
			"type":"VEC3"
		},
		{
			"bufferView":6,
			"componentType":5126,
			"count":228,
			"type":"VEC3"
		},
		{
			"componentType":5126,
			"count":228,
			"max":[
				0,
				0,
				0
			],
			"min":[
				0,
				0,
				0
			],
			"sparse":{
				"count":1,
				"indices":{
					"bufferView":7,
					"componentType":5121
				},
				"values":{
					"bufferView":8
				}
			},
			"type":"VEC3"
		},
		{
			"bufferView":9,
			"componentType":5126,
			"count":228,
			"type":"VEC3"
		},
		{
			"componentType":5126,
			"count":228,
			"max":[
				0,
				0,
				0
			],
			"min":[
				0,
				0,
				0
			],
			"sparse":{
				"count":1,
				"indices":{
					"bufferView":10,
					"componentType":5121
				},
				"values":{
					"bufferView":11
				}
			},
			"type":"VEC3"
		},
		{
			"bufferView":12,
			"componentType":5126,
			"count":228,
			"type":"VEC3"
		},
		{
			"componentType":5126,
			"count":228,
			"max":[
				0,
				0,
				0
			],
			"min":[
				0,
				0,
				0
			],
			"sparse":{
				"count":1,
				"indices":{
					"bufferView":13,
					"componentType":5121
				},
				"values":{
					"bufferView":14
				}
			},
			"type":"VEC3"
		},
		{
			"bufferView":15,
			"componentType":5126,
			"count":228,
			"type":"VEC3"
		},
		{
			"bufferView":16,
			"componentType":5126,
			"count":17,
			"max":[
				0.025882164016366005,
				0.04485517740249634,
				0.025882184505462646
			],
			"min":[
				-0.025882164016366005,
				-0.03606760501861572,
				-0.02588215470314026
			],
			"type":"VEC3"
		},
		{
			"bufferView":17,
			"componentType":5126,
			"count":17,
			"type":"VEC3"
		},
		{
			"bufferView":18,
			"componentType":5126,
			"count":17,
			"type":"VEC2"
		},
		{
			"bufferView":19,
			"componentType":5123,
			"count":48,
			"type":"SCALAR"
		},
		{
			"bufferView":20,
			"componentType":5126,
			"count":17,
			"max":[
				0.035578273236751556,
				0.05319088697433472,
				0.021557241678237915
			],
			"min":[
				-0.0537954680621624,
				-0.0020624101161956787,
				-0.03432655334472656
			],
			"type":"VEC3"
		},
		{
			"bufferView":21,
			"componentType":5126,
			"count":17,
			"type":"VEC3"
		},
		{
			"bufferView":22,
			"componentType":5126,
			"count":17,
			"max":[
				0.018598148599267006,
				0.09456709027290344,
				0.03789430856704712
			],
			"min":[
				-0.046630650758743286,
				-0.004126191139221191,
				-0.01378089189529419
			],
			"type":"VEC3"
		},
		{
			"bufferView":23,
			"componentType":5126,
			"count":17,
			"type":"VEC3"
		},
		{
			"bufferView":24,
			"componentType":5126,
			"count":17,
			"max":[
				0.030590487644076347,
				0.05733036994934082,
				0.04975408315658569
			],
			"min":[
				-0.03817104175686836,
				-0.014011263847351074,
				-0.014142751693725586
			],
			"type":"VEC3"
		},
		{
			"bufferView":25,
			"componentType":5126,
			"count":17,
			"type":"VEC3"
		},
		{
			"bufferView":26,
			"componentType":5126,
			"count":13,
			"max":[
				0.5
			],
			"min":[
				0
			],
			"type":"SCALAR"
		},
		{
			"bufferView":27,
			"componentType":5126,
			"count":39,
			"type":"SCALAR"
		}
	],
	"bufferViews":[
		{
			"buffer":0,
			"byteLength":2736,
			"byteOffset":0,
			"target":34962
		},
		{
			"buffer":0,
			"byteLength":2736,
			"byteOffset":2736,
			"target":34962
		},
		{
			"buffer":0,
			"byteLength":1824,
			"byteOffset":5472,
			"target":34962
		},
		{
			"buffer":0,
			"byteLength":1296,
			"byteOffset":7296,
			"target":34963
		},
		{
			"buffer":0,
			"byteLength":1,
			"byteOffset":8592
		},
		{
			"buffer":0,
			"byteLength":12,
			"byteOffset":8596
		},
		{
			"buffer":0,
			"byteLength":2736,
			"byteOffset":8608,
			"target":34962
		},
		{
			"buffer":0,
			"byteLength":1,
			"byteOffset":11344
		},
		{
			"buffer":0,
			"byteLength":12,
			"byteOffset":11348
		},
		{
			"buffer":0,
			"byteLength":2736,
			"byteOffset":11360,
			"target":34962
		},
		{
			"buffer":0,
			"byteLength":1,
			"byteOffset":14096
		},
		{
			"buffer":0,
			"byteLength":12,
			"byteOffset":14100
		},
		{
			"buffer":0,
			"byteLength":2736,
			"byteOffset":14112,
			"target":34962
		},
		{
			"buffer":0,
			"byteLength":1,
			"byteOffset":16848
		},
		{
			"buffer":0,
			"byteLength":12,
			"byteOffset":16852
		},
		{
			"buffer":0,
			"byteLength":2736,
			"byteOffset":16864,
			"target":34962
		},
		{
			"buffer":0,
			"byteLength":204,
			"byteOffset":19600,
			"target":34962
		},
		{
			"buffer":0,
			"byteLength":204,
			"byteOffset":19804,
			"target":34962
		},
		{
			"buffer":0,
			"byteLength":136,
			"byteOffset":20008,
			"target":34962
		},
		{
			"buffer":0,
			"byteLength":96,
			"byteOffset":20144,
			"target":34963
		},
		{
			"buffer":0,
			"byteLength":204,
			"byteOffset":20240,
			"target":34962
		},
		{
			"buffer":0,
			"byteLength":204,
			"byteOffset":20444,
			"target":34962
		},
		{
			"buffer":0,
			"byteLength":204,
			"byteOffset":20648,
			"target":34962
		},
		{
			"buffer":0,
			"byteLength":204,
			"byteOffset":20852,
			"target":34962
		},
		{
			"buffer":0,
			"byteLength":204,
			"byteOffset":21056,
			"target":34962
		},
		{
			"buffer":0,
			"byteLength":204,
			"byteOffset":21260,
			"target":34962
		},
		{
			"buffer":0,
			"byteLength":52,
			"byteOffset":21464
		},
		{
			"buffer":0,
			"byteLength":156,
			"byteOffset":21516
		}
	],
	"samplers":[
		{
			"magFilter":9729,
			"minFilter":9987
		}
	],
	"buffers":[
		{
			"byteLength":21672,
			"uri":"OilCandle.bin"
		}
	]
}
