{
	"asset":{
		"generator":"Khronos glTF Blender I/O v4.4.56",
		"version":"2.0"
	},
	"extensionsUsed":[
		"KHR_materials_specular",
		"KHR_materials_ior"
	],
	"scene":0,
	"scenes":[
		{
			"name":"Scene",
			"nodes":[
				0,
				1,
				2
			]
		}
	],
	"nodes":[
		{
			"mesh":0,
			"name":"Cube",
			"scale":[
				0.5,
				0.5,
				0.5
			]
		},
		{
			"mesh":1,
			"name":"Circle",
			"scale":[
				0.5,
				0.5,
				0.5
			]
		},
		{
			"mesh":2,
			"name":"Cube.001",
			"scale":[
				0.5,
				0.5,
				0.5
			]
		}
	],
	"materials":[
		{
			"doubleSided":true,
			"extensions":{
				"KHR_materials_specular":{
					"specularFactor":0
				},
				"KHR_materials_ior":{
					"ior":1.4500000476837158
				}
			},
			"name":"Material",
			"pbrMetallicRoughness":{
				"baseColorTexture":{
					"index":0
				},
				"metallicFactor":0
			}
		}
	],
	"meshes":[
		{
			"name":"Cube",
			"primitives":[
				{
					"attributes":{
						"POSITION":0,
						"NORMAL":1,
						"TEXCOORD_0":2
					},
					"indices":3,
					"material":0
				}
			]
		},
		{
			"name":"Circle",
			"primitives":[
				{
					"attributes":{
						"POSITION":4,
						"NORMAL":5,
						"TEXCOORD_0":6
					},
					"indices":7,
					"material":0
				}
			]
		},
		{
			"name":"Cube.002",
			"primitives":[
				{
					"attributes":{
						"POSITION":8,
						"NORMAL":9,
						"TEXCOORD_0":10
					},
					"indices":11,
					"material":0
				}
			]
		}
	],
	"textures":[
		{
			"sampler":0,
			"source":0
		}
	],
	"images":[
		{
			"mimeType":"image/jpeg",
			"name":"WOD_DRIFTWOOD",
			"uri":"../textures/WOD_DRIFTWOOD.jpg"
		}
	],
	"accessors":[
		{
			"bufferView":0,
			"componentType":5126,
			"count":98,
			"max":[
				1.1489605903625488,
				2.024385452270508,
				2.148960590362549
			],
			"min":[
				-1.1489605903625488,
				1.7000000476837158,
				-2.148960590362549
			],
			"type":"VEC3"
		},
		{
			"bufferView":1,
			"componentType":5126,
			"count":98,
			"type":"VEC3"
		},
		{
			"bufferView":2,
			"componentType":5126,
			"count":98,
			"type":"VEC2"
		},
		{
			"bufferView":3,
			"componentType":5123,
			"count":336,
			"type":"SCALAR"
		},
		{
			"bufferView":4,
			"componentType":5126,
			"count":80,
			"max":[
				0.9801864624023438,
				1.6999999284744263,
				2.00032639503479
			],
			"min":[
				-0.9801864624023438,
				0,
				-2.00032639503479
			],
			"type":"VEC3"
		},
		{
			"bufferView":5,
			"componentType":5126,
			"count":80,
			"type":"VEC3"
		},
		{
			"bufferView":6,
			"componentType":5126,
			"count":80,
			"type":"VEC2"
		},
		{
			"bufferView":7,
			"componentType":5123,
			"count":192,
			"type":"SCALAR"
		},
		{
			"bufferView":8,
			"componentType":5126,
			"count":77,
			"max":[
				0.91568523645401,
				1.693871259689331,
				1.9156854152679443
			],
			"min":[
				-0.91568523645401,
				1.4786443710327148,
				-1.9156854152679443
			],
			"type":"VEC3"
		},
		{
			"bufferView":9,
			"componentType":5126,
			"count":77,
			"type":"VEC3"
		},
		{
			"bufferView":10,
			"componentType":5126,
			"count":77,
			"type":"VEC2"
		},
		{
			"bufferView":11,
			"componentType":5123,
			"count":144,
			"type":"SCALAR"
		}
	],
	"bufferViews":[
		{
			"buffer":0,
			"byteLength":1176,
			"byteOffset":0,
			"target":34962
		},
		{
			"buffer":0,
			"byteLength":1176,
			"byteOffset":1176,
			"target":34962
		},
		{
			"buffer":0,
			"byteLength":784,
			"byteOffset":2352,
			"target":34962
		},
		{
			"buffer":0,
			"byteLength":672,
			"byteOffset":3136,
			"target":34963
		},
		{
			"buffer":0,
			"byteLength":960,
			"byteOffset":3808,
			"target":34962
		},
		{
			"buffer":0,
			"byteLength":960,
			"byteOffset":4768,
			"target":34962
		},
		{
			"buffer":0,
			"byteLength":640,
			"byteOffset":5728,
			"target":34962
		},
		{
			"buffer":0,
			"byteLength":384,
			"byteOffset":6368,
			"target":34963
		},
		{
			"buffer":0,
			"byteLength":924,
			"byteOffset":6752,
			"target":34962
		},
		{
			"buffer":0,
			"byteLength":924,
			"byteOffset":7676,
			"target":34962
		},
		{
			"buffer":0,
			"byteLength":616,
			"byteOffset":8600,
			"target":34962
		},
		{
			"buffer":0,
			"byteLength":288,
			"byteOffset":9216,
			"target":34963
		}
	],
	"samplers":[
		{
			"magFilter":9729,
			"minFilter":9987
		}
	],
	"buffers":[
		{
			"byteLength":9504,
			"uri":"Table01.bin"
		}
	]
}
