{
	"asset":{
		"generator":"Khronos glTF Blender I/O v4.4.56",
		"version":"2.0"
	},
	"scene":0,
	"scenes":[
		{
			"name":"Scene",
			"nodes":[
				0,
				1
			]
		}
	],
	"nodes":[
		{
			"mesh":0,
			"name":"Orb"
		},
		{
			"mesh":1,
			"name":"OrbFront"
		}
	],
	"animations":[
		{
			"channels":[
				{
					"sampler":0,
					"target":{
						"node":1,
						"path":"translation"
					}
				},
				{
					"sampler":1,
					"target":{
						"node":1,
						"path":"rotation"
					}
				},
				{
					"sampler":2,
					"target":{
						"node":1,
						"path":"scale"
					}
				},
				{
					"sampler":3,
					"target":{
						"node":1,
						"path":"weights"
					}
				}
			],
			"name":"Fly",
			"samplers":[
				{
					"input":12,
					"interpolation":"STEP",
					"output":13
				},
				{
					"input":12,
					"interpolation":"STEP",
					"output":14
				},
				{
					"input":12,
					"interpolation":"STEP",
					"output":15
				},
				{
					"input":16,
					"interpolation":"LINEAR",
					"output":17
				}
			]
		}
	],
	"materials":[
		{
			"doubleSided":true,
			"name":"Orb",
			"pbrMetallicRoughness":{
				"baseColorFactor":[
					0,
					1,
					1,
					1
				],
				"metallicFactor":0,
				"roughnessFactor":0.5
			}
		},
		{
			"alphaMode":"BLEND",
			"doubleSided":true,
			"name":"Orb2Sided",
			"pbrMetallicRoughness":{
				"baseColorTexture":{
					"index":0
				},
				"metallicFactor":0
			}
		}
	],
	"meshes":[
		{
			"name":"Sphere",
			"primitives":[
				{
					"attributes":{
						"POSITION":0,
						"NORMAL":1,
						"TEXCOORD_0":2
					},
					"indices":3,
					"material":0
				}
			]
		},
		{
			"extras":{
				"targetNames":[
					"Key 1",
					"Key 2"
				]
			},
			"name":"Plane",
			"primitives":[
				{
					"attributes":{
						"POSITION":4,
						"NORMAL":5,
						"TEXCOORD_0":6
					},
					"indices":7,
					"material":1,
					"targets":[
						{
							"POSITION":8,
							"NORMAL":9
						},
						{
							"POSITION":10,
							"NORMAL":11
						}
					]
				}
			],
			"weights":[
				0,
				0
			]
		}
	],
	"textures":[
		{
			"sampler":0,
			"source":0
		}
	],
	"images":[
		{
			"mimeType":"image/png",
			"name":"OrbFront",
			"uri":"../Textures/OrbFront.png"
		}
	],
	"accessors":[
		{
			"bufferView":0,
			"componentType":5126,
			"count":151,
			"max":[
				0.09999999403953552,
				0.09999999403953552,
				0.09999999403953552
			],
			"min":[
				-0.09999998658895493,
				-0.09999999403953552,
				-0.09999999403953552
			],
			"type":"VEC3"
		},
		{
			"bufferView":1,
			"componentType":5126,
			"count":151,
			"type":"VEC3"
		},
		{
			"bufferView":2,
			"componentType":5126,
			"count":151,
			"type":"VEC2"
		},
		{
			"bufferView":3,
			"componentType":5123,
			"count":672,
			"type":"SCALAR"
		},
		{
			"bufferView":4,
			"componentType":5126,
			"count":48,
			"max":[
				0.38944604992866516,
				0.1644376963376999,
				0.36379992961883545
			],
			"min":[
				-0.38944604992866516,
				-0.1644376963376999,
				-0.13746502995491028
			],
			"type":"VEC3"
		},
		{
			"bufferView":5,
			"componentType":5126,
			"count":48,
			"type":"VEC3"
		},
		{
			"bufferView":6,
			"componentType":5126,
			"count":48,
			"type":"VEC2"
		},
		{
			"bufferView":7,
			"componentType":5123,
			"count":72,
			"type":"SCALAR"
		},
		{
			"bufferView":8,
			"componentType":5126,
			"count":48,
			"max":[
				0.023451611399650574,
				0.027932114899158478,
				0.0444224514067173
			],
			"min":[
				-0.02805572748184204,
				-0.05403989553451538,
				-0.025874733924865723
			],
			"type":"VEC3"
		},
		{
			"bufferView":9,
			"componentType":5126,
			"count":48,
			"type":"VEC3"
		},
		{
			"bufferView":10,
			"componentType":5126,
			"count":48,
			"max":[
				0.03979235887527466,
				0.019306600093841553,
				0.0425129234790802
			],
			"min":[
				-0.053532540798187256,
				-0.02899591624736786,
				-0.007401034235954285
			],
			"type":"VEC3"
		},
		{
			"bufferView":11,
			"componentType":5126,
			"count":48,
			"type":"VEC3"
		},
		{
			"bufferView":12,
			"componentType":5126,
			"count":2,
			"max":[
				1.3333333333333333
			],
			"min":[
				0
			],
			"type":"SCALAR"
		},
		{
			"bufferView":13,
			"componentType":5126,
			"count":2,
			"type":"VEC3"
		},
		{
			"bufferView":14,
			"componentType":5126,
			"count":2,
			"type":"VEC4"
		},
		{
			"bufferView":15,
			"componentType":5126,
			"count":2,
			"type":"VEC3"
		},
		{
			"bufferView":16,
			"componentType":5126,
			"count":33,
			"max":[
				1.3333333333333333
			],
			"min":[
				0
			],
			"type":"SCALAR"
		},
		{
			"bufferView":17,
			"componentType":5126,
			"count":66,
			"type":"SCALAR"
		}
	],
	"bufferViews":[
		{
			"buffer":0,
			"byteLength":1812,
			"byteOffset":0,
			"target":34962
		},
		{
			"buffer":0,
			"byteLength":1812,
			"byteOffset":1812,
			"target":34962
		},
		{
			"buffer":0,
			"byteLength":1208,
			"byteOffset":3624,
			"target":34962
		},
		{
			"buffer":0,
			"byteLength":1344,
			"byteOffset":4832,
			"target":34963
		},
		{
			"buffer":0,
			"byteLength":576,
			"byteOffset":6176,
			"target":34962
		},
		{
			"buffer":0,
			"byteLength":576,
			"byteOffset":6752,
			"target":34962
		},
		{
			"buffer":0,
			"byteLength":384,
			"byteOffset":7328,
			"target":34962
		},
		{
			"buffer":0,
			"byteLength":144,
			"byteOffset":7712,
			"target":34963
		},
		{
			"buffer":0,
			"byteLength":576,
			"byteOffset":7856,
			"target":34962
		},
		{
			"buffer":0,
			"byteLength":576,
			"byteOffset":8432,
			"target":34962
		},
		{
			"buffer":0,
			"byteLength":576,
			"byteOffset":9008,
			"target":34962
		},
		{
			"buffer":0,
			"byteLength":576,
			"byteOffset":9584,
			"target":34962
		},
		{
			"buffer":0,
			"byteLength":8,
			"byteOffset":10160
		},
		{
			"buffer":0,
			"byteLength":24,
			"byteOffset":10168
		},
		{
			"buffer":0,
			"byteLength":32,
			"byteOffset":10192
		},
		{
			"buffer":0,
			"byteLength":24,
			"byteOffset":10224
		},
		{
			"buffer":0,
			"byteLength":132,
			"byteOffset":10248
		},
		{
			"buffer":0,
			"byteLength":264,
			"byteOffset":10380
		}
	],
	"samplers":[
		{
			"magFilter":9728,
			"minFilter":9984
		}
	],
	"buffers":[
		{
			"byteLength":10644,
			"uri":"TeleportOrb.bin"
		}
	]
}
