{
	"asset":{
		"generator":"Khronos glTF Blender I/O v5.1.20",
		"version":"2.0"
	},
	"extensionsUsed":[
		"KHR_materials_clearcoat",
		"KHR_materials_specular",
		"KHR_materials_ior"
	],
	"scene":0,
	"scenes":[
		{
			"name":"Scene",
			"nodes":[
				26,
				27,
				28,
				25
			]
		}
	],
	"nodes":[
		{
			"mesh":1,
			"name":"Hat",
			"rotation":[
				0.0005786576657555997,
				-0.6657267808914185,
				0.7461951971054077,
				0.00045505649177357554
			],
			"scale":[
				0.9999999403953552,
				1.0000001192092896,
				1
			],
			"translation":[
				0.0022492692805826664,
				0.1506495624780655,
				1.4771915674209595
			]
		},
		{
			"children":[
				0
			],
			"name":"HeadBone",
			"rotation":[
				0.7220302820205688,
				-0.00032487590215168893,
				-0.0007363808108493686,
				0.6918609738349915
			],
			"translation":[
				-9.440090070711449e-05,
				0.26839035749435425,
				-0.02565714344382286
			]
		},
		{
			"name":"hand.L.001",
			"rotation":[
				0.016115926206111908,
				-0.00025032192934304476,
				0.003030776511877775,
				0.9998655319213867
			],
			"scale":[
				1,
				0.9999999403953552,
				0.9999999403953552
			],
			"translation":[
				1.3969838619232178e-09,
				0.14566844701766968,
				6.091431714594364e-08
			]
		},
		{
			"children":[
				2
			],
			"name":"hand.L",
			"rotation":[
				-0.04602428153157234,
				-0.702328085899353,
				0.08984015136957169,
				0.7046600580215454
			],
			"scale":[
				1.0000001192092896,
				1.000000238418579,
				1.0000001192092896
			],
			"translation":[
				-8.436472853645682e-09,
				0.23915861546993256,
				6.05359673500061e-09
			]
		},
		{
			"children":[
				3
			],
			"name":"forearm.L",
			"rotation":[
				0.1538994014263153,
				-0.00013894904986955225,
				-0.020090924575924873,
				0.9878822565078735
			],
			"scale":[
				1,
				1.0000001192092896,
				1
			],
			"translation":[
				-1.6589183360338211e-09,
				0.2161765694618225,
				3.725290298461914e-09
			]
		},
		{
			"children":[
				4
			],
			"name":"upper_arm.L",
			"rotation":[
				0.15942077338695526,
				0.6525266170501709,
				-0.33258262276649475,
				0.661953866481781
			],
			"scale":[
				1,
				1.0000001192092896,
				0.9999999403953552
			],
			"translation":[
				-1.1175870895385742e-08,
				0.13081471621990204,
				-5.98374754190445e-08
			]
		},
		{
			"children":[
				5
			],
			"name":"shoulder.L",
			"rotation":[
				-0.6603536605834961,
				-0.31987059116363525,
				-0.19412514567375183,
				0.6511001586914062
			],
			"scale":[
				0.9999999403953552,
				0.9999999403953552,
				0.9999999403953552
			],
			"translation":[
				0.01790217123925686,
				0.05571009963750839,
				0.0692567378282547
			]
		},
		{
			"name":"hand.R.001",
			"rotation":[
				0.01611544005572796,
				0.0002499354013707489,
				-0.003030449850484729,
				0.9998655319213867
			],
			"scale":[
				0.9999999403953552,
				0.9999998807907104,
				0.9999999403953552
			],
			"translation":[
				1.3969838619232178e-09,
				0.1456727385520935,
				-1.3671524357050657e-08
			]
		},
		{
			"children":[
				7
			],
			"name":"hand.R",
			"rotation":[
				-0.0460241436958313,
				0.7023284435272217,
				-0.08984073996543884,
				0.704659640789032
			],
			"scale":[
				1,
				1.000000238418579,
				1
			],
			"translation":[
				-6.135451258160174e-08,
				0.23915861546993256,
				1.1175870895385742e-08
			]
		},
		{
			"children":[
				8
			],
			"name":"forearm.R",
			"rotation":[
				0.1538994461297989,
				0.00013861438492313027,
				0.020090946927666664,
				0.9878822565078735
			],
			"scale":[
				0.9999999403953552,
				0.9999999403953552,
				0.9999999403953552
			],
			"translation":[
				-1.0727671906352043e-07,
				0.21617652475833893,
				-1.862645149230957e-09
			]
		},
		{
			"children":[
				9
			],
			"name":"upper_arm.R",
			"rotation":[
				0.15942063927650452,
				-0.6525265574455261,
				0.3325827121734619,
				0.661953866481781
			],
			"scale":[
				0.9999998211860657,
				0.9999998211860657,
				0.9999998807907104
			],
			"translation":[
				-1.30385160446167e-08,
				0.13081474602222443,
				-1.2828968465328217e-07
			]
		},
		{
			"children":[
				10
			],
			"name":"shoulder.R",
			"rotation":[
				-0.6603537201881409,
				0.31987038254737854,
				0.19412454962730408,
				0.6511003375053406
			],
			"translation":[
				-0.017902236431837082,
				0.05571010336279869,
				0.0692567229270935
			]
		},
		{
			"children":[
				1,
				6,
				11
			],
			"name":"Chest",
			"rotation":[
				0.09476543217897415,
				-1.4233366130156355e-07,
				9.206718232235289e-08,
				0.9954996109008789
			],
			"translation":[
				6.750155989720952e-14,
				0.12062384933233261,
				1.8644030763681485e-09
			]
		},
		{
			"children":[
				12
			],
			"name":"Abdomen",
			"rotation":[
				0.045122478157281876,
				1.063780352694721e-08,
				1.4262906233852846e-07,
				0.9989814758300781
			],
			"scale":[
				1,
				0.9999998211860657,
				0.9999999403953552
			],
			"translation":[
				9.14823772291129e-14,
				0.18255719542503357,
				2.7956983394972212e-09
			]
		},
		{
			"name":"toe.L",
			"rotation":[
				0.21972930431365967,
				3.9920539052218373e-07,
				2.633312021771417e-07,
				0.9755609035491943
			],
			"scale":[
				1,
				0.9999999403953552,
				0.9999998807907104
			],
			"translation":[
				-1.723412523801926e-08,
				0.16795523464679718,
				-4.189928404230159e-10
			]
		},
		{
			"children":[
				14
			],
			"name":"foot.L",
			"rotation":[
				0.5957887768745422,
				0.007011612877249718,
				-0.02643723413348198,
				0.8026753067970276
			],
			"scale":[
				1,
				1.0000001192092896,
				1.0000001192092896
			],
			"translation":[
				-1.6763806343078613e-08,
				0.5366647243499756,
				-1.6298145055770874e-08
			]
		},
		{
			"children":[
				15
			],
			"name":"shin.L",
			"rotation":[
				-0.19966137409210205,
				0.011491945944726467,
				-0.01032349094748497,
				0.9797431826591492
			],
			"scale":[
				1,
				0.9999998807907104,
				0.9999998807907104
			],
			"translation":[
				2.0954757928848267e-09,
				0.32363107800483704,
				9.080395102500916e-09
			]
		},
		{
			"children":[
				16
			],
			"name":"thigh.L",
			"rotation":[
				-0.02405443973839283,
				-0.05165601521730423,
				-0.9977521300315857,
				0.035267461091279984
			],
			"scale":[
				0.999997079372406,
				0.9999997019767761,
				0.9999940395355225
			],
			"translation":[
				0.053310420364141464,
				0.023522382602095604,
				-0.006289128214120865
			]
		},
		{
			"name":"toe.R",
			"rotation":[
				0.21973033249378204,
				-1.004525188363914e-06,
				5.478754516730078e-08,
				0.9755606651306152
			],
			"translation":[
				4.3301273677798235e-10,
				0.16795441508293152,
				2.37852759710222e-09
			]
		},
		{
			"children":[
				18
			],
			"name":"foot.R",
			"rotation":[
				0.5957856774330139,
				-0.007011575624346733,
				0.026436999440193176,
				0.8026776909828186
			],
			"scale":[
				1.0000001192092896,
				0.9999999403953552,
				0.9999999403953552
			],
			"translation":[
				2.3283064365386963e-10,
				0.5366637110710144,
				-2.0489096641540527e-08
			]
		},
		{
			"children":[
				19
			],
			"name":"shin.R",
			"rotation":[
				-0.1996598243713379,
				-0.011485474184155464,
				0.010318250395357609,
				0.9797436594963074
			],
			"scale":[
				0.9999998211860657,
				0.9999998211860657,
				0.9999998807907104
			],
			"translation":[
				-6.984919309616089e-10,
				0.32363060116767883,
				-3.259629011154175e-09
			]
		},
		{
			"children":[
				20
			],
			"name":"thigh.R",
			"rotation":[
				-0.024052415043115616,
				0.051655977964401245,
				0.9977523684501648,
				0.03526061028242111
			],
			"scale":[
				1.0000011920928955,
				0.9999998807907104,
				1.0000025033950806
			],
			"translation":[
				-0.05331455543637276,
				0.023522362112998962,
				-0.006289215758442879
			]
		},
		{
			"children":[
				13,
				17,
				21
			],
			"name":"Pelvis",
			"rotation":[
				3.6317712215350184e-07,
				-0.6805127859115601,
				-0.7327361702919006,
				2.1362414770464966e-07
			],
			"translation":[
				3.308537088742014e-08,
				-0.00015687942504882812,
				0.9140787720680237
			]
		},
		{
			"name":"HeadLookAtBone",
			"rotation":[
				0.7071067094802856,
				0,
				0,
				0.7071068286895752
			],
			"scale":[
				1,
				0.9999999403953552,
				0.9999999403953552
			],
			"translation":[
				0,
				1.045522928237915,
				1.3672221899032593
			]
		},
		{
			"name":"MiscObject",
			"translation":[
				2.1028447463322664e-06,
				0.8042813539505005,
				-4.096361226402223e-05
			]
		},
		{
			"children":[
				22,
				23,
				24
			],
			"name":"Base",
			"rotation":[
				-0.7071067690849304,
				0,
				0,
				0.7071067690849304
			],
			"translation":[
				-2.1028447463322664e-06,
				4.096361226402223e-05,
				3.293267582193948e-05
			]
		},
		{
			"mesh":0,
			"name":"Arms",
			"skin":0
		},
		{
			"mesh":2,
			"name":"Body",
			"skin":0
		},
		{
			"mesh":3,
			"name":"Lower",
			"skin":0
		}
	],
	"animations":[
		{
			"channels":[
				{
					"sampler":0,
					"target":{
						"node":25,
						"path":"translation"
					}
				},
				{
					"sampler":1,
					"target":{
						"node":25,
						"path":"rotation"
					}
				},
				{
					"sampler":2,
					"target":{
						"node":25,
						"path":"scale"
					}
				},
				{
					"sampler":3,
					"target":{
						"node":22,
						"path":"translation"
					}
				},
				{
					"sampler":4,
					"target":{
						"node":22,
						"path":"rotation"
					}
				},
				{
					"sampler":5,
					"target":{
						"node":22,
						"path":"scale"
					}
				},
				{
					"sampler":6,
					"target":{
						"node":13,
						"path":"translation"
					}
				},
				{
					"sampler":7,
					"target":{
						"node":13,
						"path":"rotation"
					}
				},
				{
					"sampler":8,
					"target":{
						"node":13,
						"path":"scale"
					}
				},
				{
					"sampler":9,
					"target":{
						"node":12,
						"path":"translation"
					}
				},
				{
					"sampler":10,
					"target":{
						"node":12,
						"path":"rotation"
					}
				},
				{
					"sampler":11,
					"target":{
						"node":12,
						"path":"scale"
					}
				},
				{
					"sampler":12,
					"target":{
						"node":1,
						"path":"translation"
					}
				},
				{
					"sampler":13,
					"target":{
						"node":1,
						"path":"rotation"
					}
				},
				{
					"sampler":14,
					"target":{
						"node":1,
						"path":"scale"
					}
				},
				{
					"sampler":15,
					"target":{
						"node":6,
						"path":"translation"
					}
				},
				{
					"sampler":16,
					"target":{
						"node":6,
						"path":"rotation"
					}
				},
				{
					"sampler":17,
					"target":{
						"node":6,
						"path":"scale"
					}
				},
				{
					"sampler":18,
					"target":{
						"node":5,
						"path":"translation"
					}
				},
				{
					"sampler":19,
					"target":{
						"node":5,
						"path":"rotation"
					}
				},
				{
					"sampler":20,
					"target":{
						"node":5,
						"path":"scale"
					}
				},
				{
					"sampler":21,
					"target":{
						"node":4,
						"path":"translation"
					}
				},
				{
					"sampler":22,
					"target":{
						"node":4,
						"path":"rotation"
					}
				},
				{
					"sampler":23,
					"target":{
						"node":4,
						"path":"scale"
					}
				},
				{
					"sampler":24,
					"target":{
						"node":3,
						"path":"translation"
					}
				},
				{
					"sampler":25,
					"target":{
						"node":3,
						"path":"rotation"
					}
				},
				{
					"sampler":26,
					"target":{
						"node":3,
						"path":"scale"
					}
				},
				{
					"sampler":27,
					"target":{
						"node":2,
						"path":"translation"
					}
				},
				{
					"sampler":28,
					"target":{
						"node":2,
						"path":"rotation"
					}
				},
				{
					"sampler":29,
					"target":{
						"node":2,
						"path":"scale"
					}
				},
				{
					"sampler":30,
					"target":{
						"node":11,
						"path":"translation"
					}
				},
				{
					"sampler":31,
					"target":{
						"node":11,
						"path":"rotation"
					}
				},
				{
					"sampler":32,
					"target":{
						"node":11,
						"path":"scale"
					}
				},
				{
					"sampler":33,
					"target":{
						"node":10,
						"path":"translation"
					}
				},
				{
					"sampler":34,
					"target":{
						"node":10,
						"path":"rotation"
					}
				},
				{
					"sampler":35,
					"target":{
						"node":10,
						"path":"scale"
					}
				},
				{
					"sampler":36,
					"target":{
						"node":9,
						"path":"translation"
					}
				},
				{
					"sampler":37,
					"target":{
						"node":9,
						"path":"rotation"
					}
				},
				{
					"sampler":38,
					"target":{
						"node":9,
						"path":"scale"
					}
				},
				{
					"sampler":39,
					"target":{
						"node":8,
						"path":"translation"
					}
				},
				{
					"sampler":40,
					"target":{
						"node":8,
						"path":"rotation"
					}
				},
				{
					"sampler":41,
					"target":{
						"node":8,
						"path":"scale"
					}
				},
				{
					"sampler":42,
					"target":{
						"node":7,
						"path":"translation"
					}
				},
				{
					"sampler":43,
					"target":{
						"node":7,
						"path":"rotation"
					}
				},
				{
					"sampler":44,
					"target":{
						"node":7,
						"path":"scale"
					}
				},
				{
					"sampler":45,
					"target":{
						"node":17,
						"path":"translation"
					}
				},
				{
					"sampler":46,
					"target":{
						"node":17,
						"path":"rotation"
					}
				},
				{
					"sampler":47,
					"target":{
						"node":17,
						"path":"scale"
					}
				},
				{
					"sampler":48,
					"target":{
						"node":16,
						"path":"translation"
					}
				},
				{
					"sampler":49,
					"target":{
						"node":16,
						"path":"rotation"
					}
				},
				{
					"sampler":50,
					"target":{
						"node":16,
						"path":"scale"
					}
				},
				{
					"sampler":51,
					"target":{
						"node":15,
						"path":"translation"
					}
				},
				{
					"sampler":52,
					"target":{
						"node":15,
						"path":"rotation"
					}
				},
				{
					"sampler":53,
					"target":{
						"node":15,
						"path":"scale"
					}
				},
				{
					"sampler":54,
					"target":{
						"node":14,
						"path":"translation"
					}
				},
				{
					"sampler":55,
					"target":{
						"node":14,
						"path":"rotation"
					}
				},
				{
					"sampler":56,
					"target":{
						"node":14,
						"path":"scale"
					}
				},
				{
					"sampler":57,
					"target":{
						"node":21,
						"path":"translation"
					}
				},
				{
					"sampler":58,
					"target":{
						"node":21,
						"path":"rotation"
					}
				},
				{
					"sampler":59,
					"target":{
						"node":21,
						"path":"scale"
					}
				},
				{
					"sampler":60,
					"target":{
						"node":20,
						"path":"translation"
					}
				},
				{
					"sampler":61,
					"target":{
						"node":20,
						"path":"rotation"
					}
				},
				{
					"sampler":62,
					"target":{
						"node":20,
						"path":"scale"
					}
				},
				{
					"sampler":63,
					"target":{
						"node":19,
						"path":"translation"
					}
				},
				{
					"sampler":64,
					"target":{
						"node":19,
						"path":"rotation"
					}
				},
				{
					"sampler":65,
					"target":{
						"node":19,
						"path":"scale"
					}
				},
				{
					"sampler":66,
					"target":{
						"node":18,
						"path":"translation"
					}
				},
				{
					"sampler":67,
					"target":{
						"node":18,
						"path":"rotation"
					}
				},
				{
					"sampler":68,
					"target":{
						"node":18,
						"path":"scale"
					}
				},
				{
					"sampler":69,
					"target":{
						"node":23,
						"path":"translation"
					}
				},
				{
					"sampler":70,
					"target":{
						"node":23,
						"path":"rotation"
					}
				},
				{
					"sampler":71,
					"target":{
						"node":23,
						"path":"scale"
					}
				},
				{
					"sampler":72,
					"target":{
						"node":24,
						"path":"translation"
					}
				},
				{
					"sampler":73,
					"target":{
						"node":24,
						"path":"rotation"
					}
				},
				{
					"sampler":74,
					"target":{
						"node":24,
						"path":"scale"
					}
				}
			],
			"name":"Idle",
			"samplers":[
				{
					"input":41,
					"interpolation":"STEP",
					"output":42
				},
				{
					"input":41,
					"interpolation":"STEP",
					"output":43
				},
				{
					"input":41,
					"interpolation":"STEP",
					"output":44
				},
				{
					"input":41,
					"interpolation":"STEP",
					"output":45
				},
				{
					"input":41,
					"interpolation":"STEP",
					"output":46
				},
				{
					"input":41,
					"interpolation":"STEP",
					"output":44
				},
				{
					"input":41,
					"interpolation":"STEP",
					"output":47
				},
				{
					"input":48,
					"interpolation":"LINEAR",
					"output":49
				},
				{
					"input":41,
					"interpolation":"STEP",
					"output":50
				},
				{
					"input":41,
					"interpolation":"LINEAR",
					"output":51
				},
				{
					"input":48,
					"interpolation":"LINEAR",
					"output":52
				},
				{
					"input":41,
					"interpolation":"LINEAR",
					"output":53
				},
				{
					"input":41,
					"interpolation":"LINEAR",
					"output":54
				},
				{
					"input":48,
					"interpolation":"LINEAR",
					"output":55
				},
				{
					"input":41,
					"interpolation":"LINEAR",
					"output":56
				},
				{
					"input":41,
					"interpolation":"LINEAR",
					"output":57
				},
				{
					"input":41,
					"interpolation":"LINEAR",
					"output":58
				},
				{
					"input":41,
					"interpolation":"LINEAR",
					"output":59
				},
				{
					"input":41,
					"interpolation":"LINEAR",
					"output":60
				},
				{
					"input":48,
					"interpolation":"LINEAR",
					"output":61
				},
				{
					"input":41,
					"interpolation":"STEP",
					"output":62
				},
				{
					"input":41,
					"interpolation":"LINEAR",
					"output":63
				},
				{
					"input":48,
					"interpolation":"LINEAR",
					"output":64
				},
				{
					"input":41,
					"interpolation":"STEP",
					"output":65
				},
				{
					"input":41,
					"interpolation":"LINEAR",
					"output":66
				},
				{
					"input":48,
					"interpolation":"LINEAR",
					"output":67
				},
				{
					"input":41,
					"interpolation":"STEP",
					"output":68
				},
				{
					"input":41,
					"interpolation":"LINEAR",
					"output":69
				},
				{
					"input":41,
					"interpolation":"LINEAR",
					"output":70
				},
				{
					"input":41,
					"interpolation":"LINEAR",
					"output":71
				},
				{
					"input":41,
					"interpolation":"LINEAR",
					"output":72
				},
				{
					"input":41,
					"interpolation":"LINEAR",
					"output":73
				},
				{
					"input":41,
					"interpolation":"STEP",
					"output":74
				},
				{
					"input":41,
					"interpolation":"LINEAR",
					"output":75
				},
				{
					"input":48,
					"interpolation":"LINEAR",
					"output":76
				},
				{
					"input":41,
					"interpolation":"STEP",
					"output":77
				},
				{
					"input":41,
					"interpolation":"LINEAR",
					"output":78
				},
				{
					"input":48,
					"interpolation":"LINEAR",
					"output":79
				},
				{
					"input":41,
					"interpolation":"STEP",
					"output":80
				},
				{
					"input":41,
					"interpolation":"LINEAR",
					"output":81
				},
				{
					"input":48,
					"interpolation":"LINEAR",
					"output":82
				},
				{
					"input":41,
					"interpolation":"STEP",
					"output":83
				},
				{
					"input":41,
					"interpolation":"LINEAR",
					"output":84
				},
				{
					"input":41,
					"interpolation":"LINEAR",
					"output":85
				},
				{
					"input":41,
					"interpolation":"STEP",
					"output":86
				},
				{
					"input":41,
					"interpolation":"STEP",
					"output":87
				},
				{
					"input":41,
					"interpolation":"STEP",
					"output":88
				},
				{
					"input":41,
					"interpolation":"STEP",
					"output":89
				},
				{
					"input":41,
					"interpolation":"STEP",
					"output":90
				},
				{
					"input":41,
					"interpolation":"STEP",
					"output":91
				},
				{
					"input":41,
					"interpolation":"STEP",
					"output":92
				},
				{
					"input":41,
					"interpolation":"STEP",
					"output":93
				},
				{
					"input":41,
					"interpolation":"STEP",
					"output":94
				},
				{
					"input":41,
					"interpolation":"STEP",
					"output":95
				},
				{
					"input":41,
					"interpolation":"STEP",
					"output":96
				},
				{
					"input":41,
					"interpolation":"STEP",
					"output":97
				},
				{
					"input":41,
					"interpolation":"STEP",
					"output":98
				},
				{
					"input":41,
					"interpolation":"STEP",
					"output":99
				},
				{
					"input":41,
					"interpolation":"STEP",
					"output":100
				},
				{
					"input":41,
					"interpolation":"STEP",
					"output":101
				},
				{
					"input":41,
					"interpolation":"STEP",
					"output":102
				},
				{
					"input":41,
					"interpolation":"STEP",
					"output":103
				},
				{
					"input":41,
					"interpolation":"STEP",
					"output":104
				},
				{
					"input":41,
					"interpolation":"STEP",
					"output":105
				},
				{
					"input":41,
					"interpolation":"STEP",
					"output":106
				},
				{
					"input":41,
					"interpolation":"STEP",
					"output":107
				},
				{
					"input":41,
					"interpolation":"STEP",
					"output":108
				},
				{
					"input":41,
					"interpolation":"STEP",
					"output":109
				},
				{
					"input":41,
					"interpolation":"STEP",
					"output":44
				},
				{
					"input":48,
					"interpolation":"LINEAR",
					"output":110
				},
				{
					"input":41,
					"interpolation":"STEP",
					"output":111
				},
				{
					"input":41,
					"interpolation":"STEP",
					"output":112
				},
				{
					"input":41,
					"interpolation":"STEP",
					"output":113
				},
				{
					"input":41,
					"interpolation":"STEP",
					"output":114
				},
				{
					"input":41,
					"interpolation":"STEP",
					"output":44
				}
			]
		}
	],
	"materials":[
		{
			"doubleSided":true,
			"extensions":{
				"KHR_materials_specular":{
					"specularFactor":0
				},
				"KHR_materials_ior":{
					"ior":1.4500000476837158
				}
			},
			"name":"Glove",
			"pbrMetallicRoughness":{
				"baseColorTexture":{
					"index":0
				},
				"metallicFactor":0
			}
		},
		{
			"doubleSided":true,
			"extensions":{
				"KHR_materials_clearcoat":{
					"clearcoatRoughnessFactor":1
				},
				"KHR_materials_specular":{
					"specularFactor":0,
					"specularColorFactor":[
						0.0,
						0.0,
						0.0
					]
				},
				"KHR_materials_ior":{
					"ior":1
				}
			},
			"name":"Leather",
			"pbrMetallicRoughness":{
				"baseColorTexture":{
					"index":1
				},
				"metallicFactor":0
			}
		},
		{
			"doubleSided":true,
			"extensions":{
				"KHR_materials_specular":{
					"specularColorFactor":[
						1.218181848526001,
						1.218181848526001,
						1.218181848526001
					]
				},
				"KHR_materials_ior":{
					"ior":1.4500000476837158
				}
			},
			"name":"Gold",
			"pbrMetallicRoughness":{
				"baseColorTexture":{
					"index":2
				},
				"roughnessFactor":0.3590909242630005
			}
		},
		{
			"doubleSided":true,
			"extensions":{
				"KHR_materials_clearcoat":{
					"clearcoatRoughnessFactor":1
				},
				"KHR_materials_specular":{
					"specularFactor":0
				}
			},
			"name":"Black",
			"pbrMetallicRoughness":{
				"baseColorFactor":[
					0,
					0,
					0,
					1
				],
				"metallicFactor":0
			}
		}
	],
	"meshes":[
		{
			"name":"Cylinder.003",
			"primitives":[
				{
					"attributes":{
						"POSITION":0,
						"NORMAL":1,
						"TEXCOORD_0":2,
						"JOINTS_0":3,
						"WEIGHTS_0":4
					},
					"indices":5,
					"material":0
				}
			]
		},
		{
			"name":"Cylinder.001",
			"primitives":[
				{
					"attributes":{
						"POSITION":7,
						"NORMAL":8,
						"TEXCOORD_0":9
					},
					"indices":10,
					"material":1
				}
			]
		},
		{
			"name":"Cylinder.007",
			"primitives":[
				{
					"attributes":{
						"POSITION":11,
						"NORMAL":12,
						"TEXCOORD_0":13,
						"JOINTS_0":14,
						"WEIGHTS_0":15
					},
					"indices":16,
					"material":0
				},
				{
					"attributes":{
						"POSITION":17,
						"NORMAL":18,
						"TEXCOORD_0":19,
						"JOINTS_0":20,
						"WEIGHTS_0":21
					},
					"indices":22,
					"material":2
				},
				{
					"attributes":{
						"POSITION":23,
						"NORMAL":24,
						"TEXCOORD_0":25,
						"JOINTS_0":26,
						"WEIGHTS_0":27
					},
					"indices":28,
					"material":3
				}
			]
		},
		{
			"name":"Cylinder.002",
			"primitives":[
				{
					"attributes":{
						"POSITION":29,
						"NORMAL":30,
						"TEXCOORD_0":31,
						"JOINTS_0":32,
						"WEIGHTS_0":33
					},
					"indices":34,
					"material":1
				},
				{
					"attributes":{
						"POSITION":35,
						"NORMAL":36,
						"TEXCOORD_0":37,
						"JOINTS_0":38,
						"WEIGHTS_0":39
					},
					"indices":40,
					"material":0
				}
			]
		}
	],
	"textures":[
		{
			"sampler":0,
			"source":0
		},
		{
			"sampler":1,
			"source":1
		},
		{
			"sampler":0,
			"source":2
		}
	],
	"images":[
		{
			"mimeType":"image/jpeg",
			"name":"CHR_SLINK_FABRIC",
			"uri":"../textures/CHR_SLINK_FABRIC.jpg"
		},
		{
			"mimeType":"image/jpeg",
			"name":"CHR_LUT_LEATHER",
			"uri":"../textures/CHR_LUT_LEATHER.jpg"
		},
		{
			"mimeType":"image/jpeg",
			"name":"CHR_LUT_METAL",
			"uri":"../textures/CHR_LUT_METAL.jpg"
		}
	],
	"skins":[
		{
			"inverseBindMatrices":6,
			"joints":[
				25,
				22,
				13,
				12,
				1,
				6,
				5,
				4,
				3,
				2,
				11,
				10,
				9,
				8,
				7,
				17,
				16,
				15,
				14,
				21,
				20,
				19,
				18,
				23,
				24
			],
			"name":"metarig"
		}
	],
	"accessors":[
		{
			"bufferView":0,
			"componentType":5126,
			"count":474,
			"max":[
				1.002411127090454,
				1.3490359783172607,
				0.08882557600736618
			],
			"min":[
				-1.002411127090454,
				1.1542316675186157,
				-0.12513799965381622
			],
			"type":"VEC3"
		},
		{
			"bufferView":1,
			"componentType":5126,
			"count":474,
			"type":"VEC3"
		},
		{
			"bufferView":2,
			"componentType":5126,
			"count":474,
			"type":"VEC2"
		},
		{
			"bufferView":3,
			"componentType":5121,
			"count":474,
			"type":"VEC4"
		},
		{
			"bufferView":4,
			"componentType":5126,
			"count":474,
			"type":"VEC4"
		},
		{
			"bufferView":5,
			"componentType":5123,
			"count":2364,
			"type":"SCALAR"
		},
		{
			"bufferView":6,
			"componentType":5126,
			"count":25,
			"type":"MAT4"
		},
		{
			"bufferView":7,
			"componentType":5126,
			"count":81,
			"max":[
				0.14788305759429932,
				2.1667113304138184,
				0.5063574314117432
			],
			"min":[
				-0.14788305759429932,
				1.4543263912200928,
				-0.10746832937002182
			],
			"type":"VEC3"
		},
		{
			"bufferView":8,
			"componentType":5126,
			"count":81,
			"type":"VEC3"
		},
		{
			"bufferView":9,
			"componentType":5126,
			"count":81,
			"type":"VEC2"
		},
		{
			"bufferView":10,
			"componentType":5123,
			"count":150,
			"type":"SCALAR"
		},
		{
			"bufferView":11,
			"componentType":5126,
			"count":423,
			"max":[
				0.1584126055240631,
				1.6293166875839233,
				0.13248829543590546
			],
			"min":[
				-0.1584126055240631,
				1.1304079294204712,
				-0.20399369299411774
			],
			"type":"VEC3"
		},
		{
			"bufferView":12,
			"componentType":5126,
			"count":423,
			"type":"VEC3"
		},
		{
			"bufferView":13,
			"componentType":5126,
			"count":423,
			"type":"VEC2"
		},
		{
			"bufferView":14,
			"componentType":5121,
			"count":423,
			"type":"VEC4"
		},
		{
			"bufferView":15,
			"componentType":5126,
			"count":423,
			"type":"VEC4"
		},
		{
			"bufferView":16,
			"componentType":5123,
			"count":1896,
			"type":"SCALAR"
		},
		{
			"bufferView":17,
			"componentType":5126,
			"count":56,
			"max":[
				0.10134772956371307,
				1.4870346784591675,
				-0.15579316020011902
			],
			"min":[
				-0.10134772956371307,
				1.4278569221496582,
				-0.18845142424106598
			],
			"type":"VEC3"
		},
		{
			"bufferView":18,
			"componentType":5126,
			"count":56,
			"type":"VEC3"
		},
		{
			"bufferView":19,
			"componentType":5126,
			"count":56,
			"type":"VEC2"
		},
		{
			"bufferView":20,
			"componentType":5121,
			"count":56,
			"type":"VEC4"
		},
		{
			"bufferView":21,
			"componentType":5126,
			"count":56,
			"type":"VEC4"
		},
		{
			"bufferView":22,
			"componentType":5123,
			"count":168,
			"type":"SCALAR"
		},
		{
			"bufferView":23,
			"componentType":5126,
			"count":30,
			"max":[
				0.09705594182014465,
				1.4852384328842163,
				-0.12790562212467194
			],
			"min":[
				-0.09705594182014465,
				1.4304851293563843,
				-0.18347592651844025
			],
			"type":"VEC3"
		},
		{
			"bufferView":24,
			"componentType":5126,
			"count":30,
			"type":"VEC3"
		},
		{
			"bufferView":25,
			"componentType":5126,
			"count":30,
			"type":"VEC2"
		},
		{
			"bufferView":26,
			"componentType":5121,
			"count":30,
			"type":"VEC4"
		},
		{
			"bufferView":27,
			"componentType":5126,
			"count":30,
			"type":"VEC4"
		},
		{
			"bufferView":28,
			"componentType":5123,
			"count":84,
			"type":"SCALAR"
		},
		{
			"bufferView":29,
			"componentType":5126,
			"count":169,
			"max":[
				0.282656729221344,
				1.1949361562728882,
				0.29743075370788574
			],
			"min":[
				-0.282656729221344,
				0,
				-0.25021982192993164
			],
			"type":"VEC3"
		},
		{
			"bufferView":30,
			"componentType":5126,
			"count":169,
			"type":"VEC3"
		},
		{
			"bufferView":31,
			"componentType":5126,
			"count":169,
			"type":"VEC2"
		},
		{
			"bufferView":32,
			"componentType":5121,
			"count":169,
			"type":"VEC4"
		},
		{
			"bufferView":33,
			"componentType":5126,
			"count":169,
			"type":"VEC4"
		},
		{
			"bufferView":34,
			"componentType":5123,
			"count":570,
			"type":"SCALAR"
		},
		{
			"bufferView":35,
			"componentType":5126,
			"count":124,
			"max":[
				0.11796741932630539,
				1.1246057748794556,
				0.11950923502445221
			],
			"min":[
				-0.11796741932630539,
				1.083256721496582,
				-0.11110260337591171
			],
			"type":"VEC3"
		},
		{
			"bufferView":36,
			"componentType":5126,
			"count":124,
			"type":"VEC3"
		},
		{
			"bufferView":37,
			"componentType":5126,
			"count":124,
			"type":"VEC2"
		},
		{
			"bufferView":38,
			"componentType":5121,
			"count":124,
			"type":"VEC4"
		},
		{
			"bufferView":39,
			"componentType":5126,
			"count":124,
			"type":"VEC4"
		},
		{
			"bufferView":40,
			"componentType":5123,
			"count":384,
			"type":"SCALAR"
		},
		{
			"bufferView":41,
			"componentType":5126,
			"count":2,
			"max":[
				1.3333333333333333
			],
			"min":[
				0
			],
			"type":"SCALAR"
		},
		{
			"bufferView":42,
			"componentType":5126,
			"count":2,
			"type":"VEC3"
		},
		{
			"bufferView":43,
			"componentType":5126,
			"count":2,
			"type":"VEC4"
		},
		{
			"bufferView":44,
			"componentType":5126,
			"count":2,
			"type":"VEC3"
		},
		{
			"bufferView":45,
			"componentType":5126,
			"count":2,
			"type":"VEC3"
		},
		{
			"bufferView":46,
			"componentType":5126,
			"count":2,
			"type":"VEC4"
		},
		{
			"bufferView":47,
			"componentType":5126,
			"count":2,
			"type":"VEC3"
		},
		{
			"bufferView":48,
			"componentType":5126,
			"count":33,
			"max":[
				1.3333333333333333
			],
			"min":[
				0
			],
			"type":"SCALAR"
		},
		{
			"bufferView":49,
			"componentType":5126,
			"count":33,
			"type":"VEC4"
		},
		{
			"bufferView":50,
			"componentType":5126,
			"count":2,
			"type":"VEC3"
		},
		{
			"bufferView":51,
			"componentType":5126,
			"count":2,
			"type":"VEC3"
		},
		{
			"bufferView":52,
			"componentType":5126,
			"count":33,
			"type":"VEC4"
		},
		{
			"bufferView":53,
			"componentType":5126,
			"count":2,
			"type":"VEC3"
		},
		{
			"bufferView":54,
			"componentType":5126,
			"count":2,
			"type":"VEC3"
		},
		{
			"bufferView":55,
			"componentType":5126,
			"count":33,
			"type":"VEC4"
		},
		{
			"bufferView":56,
			"componentType":5126,
			"count":2,
			"type":"VEC3"
		},
		{
			"bufferView":57,
			"componentType":5126,
			"count":2,
			"type":"VEC3"
		},
		{
			"bufferView":58,
			"componentType":5126,
			"count":2,
			"type":"VEC4"
		},
		{
			"bufferView":59,
			"componentType":5126,
			"count":2,
			"type":"VEC3"
		},
		{
			"bufferView":60,
			"componentType":5126,
			"count":2,
			"type":"VEC3"
		},
		{
			"bufferView":61,
			"componentType":5126,
			"count":33,
			"type":"VEC4"
		},
		{
			"bufferView":62,
			"componentType":5126,
			"count":2,
			"type":"VEC3"
		},
		{
			"bufferView":63,
			"componentType":5126,
			"count":2,
			"type":"VEC3"
		},
		{
			"bufferView":64,
			"componentType":5126,
			"count":33,
			"type":"VEC4"
		},
		{
			"bufferView":65,
			"componentType":5126,
			"count":2,
			"type":"VEC3"
		},
		{
			"bufferView":66,
			"componentType":5126,
			"count":2,
			"type":"VEC3"
		},
		{
			"bufferView":67,
			"componentType":5126,
			"count":33,
			"type":"VEC4"
		},
		{
			"bufferView":68,
			"componentType":5126,
			"count":2,
			"type":"VEC3"
		},
		{
			"bufferView":69,
			"componentType":5126,
			"count":2,
			"type":"VEC3"
		},
		{
			"bufferView":70,
			"componentType":5126,
			"count":2,
			"type":"VEC4"
		},
		{
			"bufferView":71,
			"componentType":5126,
			"count":2,
			"type":"VEC3"
		},
		{
			"bufferView":72,
			"componentType":5126,
			"count":2,
			"type":"VEC3"
		},
		{
			"bufferView":73,
			"componentType":5126,
			"count":2,
			"type":"VEC4"
		},
		{
			"bufferView":74,
			"componentType":5126,
			"count":2,
			"type":"VEC3"
		},
		{
			"bufferView":75,
			"componentType":5126,
			"count":2,
			"type":"VEC3"
		},
		{
			"bufferView":76,
			"componentType":5126,
			"count":33,
			"type":"VEC4"
		},
		{
			"bufferView":77,
			"componentType":5126,
			"count":2,
			"type":"VEC3"
		},
		{
			"bufferView":78,
			"componentType":5126,
			"count":2,
			"type":"VEC3"
		},
		{
			"bufferView":79,
			"componentType":5126,
			"count":33,
			"type":"VEC4"
		},
		{
			"bufferView":80,
			"componentType":5126,
			"count":2,
			"type":"VEC3"
		},
		{
			"bufferView":81,
			"componentType":5126,
			"count":2,
			"type":"VEC3"
		},
		{
			"bufferView":82,
			"componentType":5126,
			"count":33,
			"type":"VEC4"
		},
		{
			"bufferView":83,
			"componentType":5126,
			"count":2,
			"type":"VEC3"
		},
		{
			"bufferView":84,
			"componentType":5126,
			"count":2,
			"type":"VEC3"
		},
		{
			"bufferView":85,
			"componentType":5126,
			"count":2,
			"type":"VEC4"
		},
		{
			"bufferView":86,
			"componentType":5126,
			"count":2,
			"type":"VEC3"
		},
		{
			"bufferView":87,
			"componentType":5126,
			"count":2,
			"type":"VEC3"
		},
		{
			"bufferView":88,
			"componentType":5126,
			"count":2,
			"type":"VEC4"
		},
		{
			"bufferView":89,
			"componentType":5126,
			"count":2,
			"type":"VEC3"
		},
		{
			"bufferView":90,
			"componentType":5126,
			"count":2,
			"type":"VEC3"
		},
		{
			"bufferView":91,
			"componentType":5126,
			"count":2,
			"type":"VEC4"
		},
		{
			"bufferView":92,
			"componentType":5126,
			"count":2,
			"type":"VEC3"
		},
		{
			"bufferView":93,
			"componentType":5126,
			"count":2,
			"type":"VEC3"
		},
		{
			"bufferView":94,
			"componentType":5126,
			"count":2,
			"type":"VEC4"
		},
		{
			"bufferView":95,
			"componentType":5126,
			"count":2,
			"type":"VEC3"
		},
		{
			"bufferView":96,
			"componentType":5126,
			"count":2,
			"type":"VEC3"
		},
		{
			"bufferView":97,
			"componentType":5126,
			"count":2,
			"type":"VEC4"
		},
		{
			"bufferView":98,
			"componentType":5126,
			"count":2,
			"type":"VEC3"
		},
		{
			"bufferView":99,
			"componentType":5126,
			"count":2,
			"type":"VEC3"
		},
		{
			"bufferView":100,
			"componentType":5126,
			"count":2,
			"type":"VEC4"
		},
		{
			"bufferView":101,
			"componentType":5126,
			"count":2,
			"type":"VEC3"
		},
		{
			"bufferView":102,
			"componentType":5126,
			"count":2,
			"type":"VEC3"
		},
		{
			"bufferView":103,
			"componentType":5126,
			"count":2,
			"type":"VEC4"
		},
		{
			"bufferView":104,
			"componentType":5126,
			"count":2,
			"type":"VEC3"
		},
		{
			"bufferView":105,
			"componentType":5126,
			"count":2,
			"type":"VEC3"
		},
		{
			"bufferView":106,
			"componentType":5126,
			"count":2,
			"type":"VEC4"
		},
		{
			"bufferView":107,
			"componentType":5126,
			"count":2,
			"type":"VEC3"
		},
		{
			"bufferView":108,
			"componentType":5126,
			"count":2,
			"type":"VEC3"
		},
		{
			"bufferView":109,
			"componentType":5126,
			"count":2,
			"type":"VEC4"
		},
		{
			"bufferView":110,
			"componentType":5126,
			"count":33,
			"type":"VEC3"
		},
		{
			"bufferView":111,
			"componentType":5126,
			"count":2,
			"type":"VEC4"
		},
		{
			"bufferView":112,
			"componentType":5126,
			"count":2,
			"type":"VEC3"
		},
		{
			"bufferView":113,
			"componentType":5126,
			"count":2,
			"type":"VEC3"
		},
		{
			"bufferView":114,
			"componentType":5126,
			"count":2,
			"type":"VEC4"
		}
	],
	"bufferViews":[
		{
			"buffer":0,
			"byteLength":5688,
			"byteOffset":0,
			"target":34962
		},
		{
			"buffer":0,
			"byteLength":5688,
			"byteOffset":5688,
			"target":34962
		},
		{
			"buffer":0,
			"byteLength":3792,
			"byteOffset":11376,
			"target":34962
		},
		{
			"buffer":0,
			"byteLength":1896,
			"byteOffset":15168,
			"target":34962
		},
		{
			"buffer":0,
			"byteLength":7584,
			"byteOffset":17064,
			"target":34962
		},
		{
			"buffer":0,
			"byteLength":4728,
			"byteOffset":24648,
			"target":34963
		},
		{
			"buffer":0,
			"byteLength":1600,
			"byteOffset":29376
		},
		{
			"buffer":0,
			"byteLength":972,
			"byteOffset":30976,
			"target":34962
		},
		{
			"buffer":0,
			"byteLength":972,
			"byteOffset":31948,
			"target":34962
		},
		{
			"buffer":0,
			"byteLength":648,
			"byteOffset":32920,
			"target":34962
		},
		{
			"buffer":0,
			"byteLength":300,
			"byteOffset":33568,
			"target":34963
		},
		{
			"buffer":0,
			"byteLength":5076,
			"byteOffset":33868,
			"target":34962
		},
		{
			"buffer":0,
			"byteLength":5076,
			"byteOffset":38944,
			"target":34962
		},
		{
			"buffer":0,
			"byteLength":3384,
			"byteOffset":44020,
			"target":34962
		},
		{
			"buffer":0,
			"byteLength":1692,
			"byteOffset":47404,
			"target":34962
		},
		{
			"buffer":0,
			"byteLength":6768,
			"byteOffset":49096,
			"target":34962
		},
		{
			"buffer":0,
			"byteLength":3792,
			"byteOffset":55864,
			"target":34963
		},
		{
			"buffer":0,
			"byteLength":672,
			"byteOffset":59656,
			"target":34962
		},
		{
			"buffer":0,
			"byteLength":672,
			"byteOffset":60328,
			"target":34962
		},
		{
			"buffer":0,
			"byteLength":448,
			"byteOffset":61000,
			"target":34962
		},
		{
			"buffer":0,
			"byteLength":224,
			"byteOffset":61448,
			"target":34962
		},
		{
			"buffer":0,
			"byteLength":896,
			"byteOffset":61672,
			"target":34962
		},
		{
			"buffer":0,
			"byteLength":336,
			"byteOffset":62568,
			"target":34963
		},
		{
			"buffer":0,
			"byteLength":360,
			"byteOffset":62904,
			"target":34962
		},
		{
			"buffer":0,
			"byteLength":360,
			"byteOffset":63264,
			"target":34962
		},
		{
			"buffer":0,
			"byteLength":240,
			"byteOffset":63624,
			"target":34962
		},
		{
			"buffer":0,
			"byteLength":120,
			"byteOffset":63864,
			"target":34962
		},
		{
			"buffer":0,
			"byteLength":480,
			"byteOffset":63984,
			"target":34962
		},
		{
			"buffer":0,
			"byteLength":168,
			"byteOffset":64464,
			"target":34963
		},
		{
			"buffer":0,
			"byteLength":2028,
			"byteOffset":64632,
			"target":34962
		},
		{
			"buffer":0,
			"byteLength":2028,
			"byteOffset":66660,
			"target":34962
		},
		{
			"buffer":0,
			"byteLength":1352,
			"byteOffset":68688,
			"target":34962
		},
		{
			"buffer":0,
			"byteLength":676,
			"byteOffset":70040,
			"target":34962
		},
		{
			"buffer":0,
			"byteLength":2704,
			"byteOffset":70716,
			"target":34962
		},
		{
			"buffer":0,
			"byteLength":1140,
			"byteOffset":73420,
			"target":34963
		},
		{
			"buffer":0,
			"byteLength":1488,
			"byteOffset":74560,
			"target":34962
		},
		{
			"buffer":0,
			"byteLength":1488,
			"byteOffset":76048,
			"target":34962
		},
		{
			"buffer":0,
			"byteLength":992,
			"byteOffset":77536,
			"target":34962
		},
		{
			"buffer":0,
			"byteLength":496,
			"byteOffset":78528,
			"target":34962
		},
		{
			"buffer":0,
			"byteLength":1984,
			"byteOffset":79024,
			"target":34962
		},
		{
			"buffer":0,
			"byteLength":768,
			"byteOffset":81008,
			"target":34963
		},
		{
			"buffer":0,
			"byteLength":8,
			"byteOffset":81776
		},
		{
			"buffer":0,
			"byteLength":24,
			"byteOffset":81784
		},
		{
			"buffer":0,
			"byteLength":32,
			"byteOffset":81808
		},
		{
			"buffer":0,
			"byteLength":24,
			"byteOffset":81840
		},
		{
			"buffer":0,
			"byteLength":24,
			"byteOffset":81864
		},
		{
			"buffer":0,
			"byteLength":32,
			"byteOffset":81888
		},
		{
			"buffer":0,
			"byteLength":24,
			"byteOffset":81920
		},
		{
			"buffer":0,
			"byteLength":132,
			"byteOffset":81944
		},
		{
			"buffer":0,
			"byteLength":528,
			"byteOffset":82076
		},
		{
			"buffer":0,
			"byteLength":24,
			"byteOffset":82604
		},
		{
			"buffer":0,
			"byteLength":24,
			"byteOffset":82628
		},
		{
			"buffer":0,
			"byteLength":528,
			"byteOffset":82652
		},
		{
			"buffer":0,
			"byteLength":24,
			"byteOffset":83180
		},
		{
			"buffer":0,
			"byteLength":24,
			"byteOffset":83204
		},
		{
			"buffer":0,
			"byteLength":528,
			"byteOffset":83228
		},
		{
			"buffer":0,
			"byteLength":24,
			"byteOffset":83756
		},
		{
			"buffer":0,
			"byteLength":24,
			"byteOffset":83780
		},
		{
			"buffer":0,
			"byteLength":32,
			"byteOffset":83804
		},
		{
			"buffer":0,
			"byteLength":24,
			"byteOffset":83836
		},
		{
			"buffer":0,
			"byteLength":24,
			"byteOffset":83860
		},
		{
			"buffer":0,
			"byteLength":528,
			"byteOffset":83884
		},
		{
			"buffer":0,
			"byteLength":24,
			"byteOffset":84412
		},
		{
			"buffer":0,
			"byteLength":24,
			"byteOffset":84436
		},
		{
			"buffer":0,
			"byteLength":528,
			"byteOffset":84460
		},
		{
			"buffer":0,
			"byteLength":24,
			"byteOffset":84988
		},
		{
			"buffer":0,
			"byteLength":24,
			"byteOffset":85012
		},
		{
			"buffer":0,
			"byteLength":528,
			"byteOffset":85036
		},
		{
			"buffer":0,
			"byteLength":24,
			"byteOffset":85564
		},
		{
			"buffer":0,
			"byteLength":24,
			"byteOffset":85588
		},
		{
			"buffer":0,
			"byteLength":32,
			"byteOffset":85612
		},
		{
			"buffer":0,
			"byteLength":24,
			"byteOffset":85644
		},
		{
			"buffer":0,
			"byteLength":24,
			"byteOffset":85668
		},
		{
			"buffer":0,
			"byteLength":32,
			"byteOffset":85692
		},
		{
			"buffer":0,
			"byteLength":24,
			"byteOffset":85724
		},
		{
			"buffer":0,
			"byteLength":24,
			"byteOffset":85748
		},
		{
			"buffer":0,
			"byteLength":528,
			"byteOffset":85772
		},
		{
			"buffer":0,
			"byteLength":24,
			"byteOffset":86300
		},
		{
			"buffer":0,
			"byteLength":24,
			"byteOffset":86324
		},
		{
			"buffer":0,
			"byteLength":528,
			"byteOffset":86348
		},
		{
			"buffer":0,
			"byteLength":24,
			"byteOffset":86876
		},
		{
			"buffer":0,
			"byteLength":24,
			"byteOffset":86900
		},
		{
			"buffer":0,
			"byteLength":528,
			"byteOffset":86924
		},
		{
			"buffer":0,
			"byteLength":24,
			"byteOffset":87452
		},
		{
			"buffer":0,
			"byteLength":24,
			"byteOffset":87476
		},
		{
			"buffer":0,
			"byteLength":32,
			"byteOffset":87500
		},
		{
			"buffer":0,
			"byteLength":24,
			"byteOffset":87532
		},
		{
			"buffer":0,
			"byteLength":24,
			"byteOffset":87556
		},
		{
			"buffer":0,
			"byteLength":32,
			"byteOffset":87580
		},
		{
			"buffer":0,
			"byteLength":24,
			"byteOffset":87612
		},
		{
			"buffer":0,
			"byteLength":24,
			"byteOffset":87636
		},
		{
			"buffer":0,
			"byteLength":32,
			"byteOffset":87660
		},
		{
			"buffer":0,
			"byteLength":24,
			"byteOffset":87692
		},
		{
			"buffer":0,
			"byteLength":24,
			"byteOffset":87716
		},
		{
			"buffer":0,
			"byteLength":32,
			"byteOffset":87740
		},
		{
			"buffer":0,
			"byteLength":24,
			"byteOffset":87772
		},
		{
			"buffer":0,
			"byteLength":24,
			"byteOffset":87796
		},
		{
			"buffer":0,
			"byteLength":32,
			"byteOffset":87820
		},
		{
			"buffer":0,
			"byteLength":24,
			"byteOffset":87852
		},
		{
			"buffer":0,
			"byteLength":24,
			"byteOffset":87876
		},
		{
			"buffer":0,
			"byteLength":32,
			"byteOffset":87900
		},
		{
			"buffer":0,
			"byteLength":24,
			"byteOffset":87932
		},
		{
			"buffer":0,
			"byteLength":24,
			"byteOffset":87956
		},
		{
			"buffer":0,
			"byteLength":32,
			"byteOffset":87980
		},
		{
			"buffer":0,
			"byteLength":24,
			"byteOffset":88012
		},
		{
			"buffer":0,
			"byteLength":24,
			"byteOffset":88036
		},
		{
			"buffer":0,
			"byteLength":32,
			"byteOffset":88060
		},
		{
			"buffer":0,
			"byteLength":24,
			"byteOffset":88092
		},
		{
			"buffer":0,
			"byteLength":24,
			"byteOffset":88116
		},
		{
			"buffer":0,
			"byteLength":32,
			"byteOffset":88140
		},
		{
			"buffer":0,
			"byteLength":396,
			"byteOffset":88172
		},
		{
			"buffer":0,
			"byteLength":32,
			"byteOffset":88568
		},
		{
			"buffer":0,
			"byteLength":24,
			"byteOffset":88600
		},
		{
			"buffer":0,
			"byteLength":24,
			"byteOffset":88624
		},
		{
			"buffer":0,
			"byteLength":32,
			"byteOffset":88648
		}
	],
	"samplers":[
		{
			"magFilter":9729,
			"minFilter":9987
		},
		{
			"magFilter":9728,
			"minFilter":9984
		}
	],
	"buffers":[
		{
			"byteLength":88680,
			"uri":"Veksas.bin"
		}
	]
}
