{
	"asset":{
		"generator":"Khronos glTF Blender I/O v5.1.20",
		"version":"2.0"
	},
	"extensionsUsed":[
		"KHR_materials_specular",
		"KHR_lights_punctual"
	],
	"extensionsRequired":[
		"KHR_lights_punctual"
	],
	"extensions":{
		"KHR_lights_punctual":{
			"lights":[
				{
					"color":[
						1,
						0.7835379838943481,
						0.45641106367111206
					],
					"intensity":54.35141306588226,
					"spot":{
						"innerConeAngle":0,
						"outerConeAngle":0.287979394197464
					},
					"type":"spot",
					"range":40,
					"name":"Spot.003"
				}
			]
		}
	},
	"scene":0,
	"scenes":[
		{
			"extras":{
				"level_design_props":{
					"pixels_per_meter":128,
					"default_interpolation":1,
					"default_texture_as_alpha":0,
					"default_vertex_colors":0,
					"default_roughness":0.800000011920929,
					"default_metallic":0.0,
					"default_emission_strength":0.0,
					"default_emission_color":[
						1.0,
						1.0,
						1.0,
						1.0
					],
					"default_specular":0.5,
					"anvil_grid_scale":1.0,
					"texture_scale_u":4.0,
					"texture_scale_v":3.999999761581421,
					"texture_rotation":90.0,
					"texture_offset_x":0.0,
					"texture_offset_y":0.800000011920929,
					"last_export_filepath":"C:\\Users\\lil ktg\\Documents\\GitHub\\gamma\\gammaproject\\assets\\map-models\\level4.gltf",
					"projection_scale":4.0
				},
				"hotspot_mapping_props":{}
			},
			"name":"Scene",
			"nodes":[
				0,
				1
			]
		}
	],
	"nodes":[
		{
			"extras":{
				"anvil_uv_map_settings":[
					{
						"name":"UVMap"
					}
				]
			},
			"mesh":0,
			"name":"level-col",
			"scale":[
				0.6000000238418579,
				0.6000000238418579,
				0.6000000238418579
			]
		},
		{
			"extensions":{
				"KHR_lights_punctual":{
					"light":0
				}
			},
			"name":"Spot",
			"rotation":[
				-0.7071068286895752,
				0,
				0,
				0.7071068286895752
			],
			"translation":[
				0.056278079748153687,
				12.428668975830078,
				-11.589716911315918
			]
		}
	],
	"materials":[
		{
			"name":"IMG_STO_GRANITE2.png",
			"pbrMetallicRoughness":{
				"baseColorTexture":{
					"index":0
				},
				"metallicFactor":0
			}
		},
		{
			"extensions":{
				"KHR_materials_specular":{
					"specularFactor":0
				}
			},
			"name":"IMG_STO_ANCIENTBRICK01.png",
			"pbrMetallicRoughness":{
				"baseColorTexture":{
					"index":1
				},
				"metallicFactor":0,
				"roughnessFactor":0.800000011920929
			}
		}
	],
	"meshes":[
		{
			"name":"Cube",
			"primitives":[
				{
					"attributes":{
						"POSITION":0,
						"NORMAL":1,
						"TEXCOORD_0":2,
						"COLOR_0":3,
						"COLOR_1":4
					},
					"indices":5,
					"material":0
				},
				{
					"attributes":{
						"POSITION":6,
						"NORMAL":7,
						"TEXCOORD_0":8,
						"COLOR_0":9,
						"COLOR_1":10
					},
					"indices":11,
					"material":1
				}
			]
		}
	],
	"textures":[
		{
			"sampler":0,
			"source":0
		},
		{
			"sampler":0,
			"source":1
		}
	],
	"images":[
		{
			"mimeType":"image/png",
			"name":"STO_GRANITE2",
			"uri":"../textures/STO_GRANITE2.png"
		},
		{
			"mimeType":"image/png",
			"name":"STO_ANCIENTBRICK01",
			"uri":"../textures/STO_ANCIENTBRICK01.png"
		}
	],
	"accessors":[
		{
			"bufferView":0,
			"componentType":5126,
			"count":138,
			"max":[
				12,
				0,
				4
			],
			"min":[
				-40,
				-5,
				-56.36652374267578
			],
			"type":"VEC3"
		},
		{
			"bufferView":1,
			"componentType":5126,
			"count":138,
			"type":"VEC3"
		},
		{
			"bufferView":2,
			"componentType":5126,
			"count":138,
			"type":"VEC2"
		},
		{
			"bufferView":3,
			"componentType":5121,
			"count":138,
			"normalized":true,
			"type":"VEC4"
		},
		{
			"bufferView":4,
			"componentType":5123,
			"count":138,
			"normalized":true,
			"type":"VEC4"
		},
		{
			"bufferView":5,
			"componentType":5123,
			"count":360,
			"type":"SCALAR"
		},
		{
			"bufferView":6,
			"componentType":5126,
			"count":213,
			"max":[
				17,
				21,
				4
			],
			"min":[
				-40,
				-5,
				-56.36652374267578
			],
			"type":"VEC3"
		},
		{
			"bufferView":7,
			"componentType":5126,
			"count":213,
			"type":"VEC3"
		},
		{
			"bufferView":8,
			"componentType":5126,
			"count":213,
			"type":"VEC2"
		},
		{
			"bufferView":9,
			"componentType":5121,
			"count":213,
			"normalized":true,
			"type":"VEC4"
		},
		{
			"bufferView":10,
			"componentType":5123,
			"count":213,
			"normalized":true,
			"type":"VEC4"
		},
		{
			"bufferView":11,
			"componentType":5123,
			"count":549,
			"type":"SCALAR"
		}
	],
	"bufferViews":[
		{
			"buffer":0,
			"byteLength":1656,
			"byteOffset":0,
			"target":34962
		},
		{
			"buffer":0,
			"byteLength":1656,
			"byteOffset":1656,
			"target":34962
		},
		{
			"buffer":0,
			"byteLength":1104,
			"byteOffset":3312,
			"target":34962
		},
		{
			"buffer":0,
			"byteLength":552,
			"byteOffset":4416,
			"target":34962
		},
		{
			"buffer":0,
			"byteLength":1104,
			"byteOffset":4968,
			"target":34962
		},
		{
			"buffer":0,
			"byteLength":720,
			"byteOffset":6072,
			"target":34963
		},
		{
			"buffer":0,
			"byteLength":2556,
			"byteOffset":6792,
			"target":34962
		},
		{
			"buffer":0,
			"byteLength":2556,
			"byteOffset":9348,
			"target":34962
		},
		{
			"buffer":0,
			"byteLength":1704,
			"byteOffset":11904,
			"target":34962
		},
		{
			"buffer":0,
			"byteLength":852,
			"byteOffset":13608,
			"target":34962
		},
		{
			"buffer":0,
			"byteLength":1704,
			"byteOffset":14460,
			"target":34962
		},
		{
			"buffer":0,
			"byteLength":1098,
			"byteOffset":16164,
			"target":34963
		}
	],
	"samplers":[
		{
			"magFilter":9729,
			"minFilter":9987
		}
	],
	"buffers":[
		{
			"byteLength":17264,
			"uri":"level4.bin"
		}
	]
}
