{
	"asset":{
		"generator":"Khronos glTF Blender I/O v5.1.20",
		"version":"2.0"
	},
	"extensionsUsed":[
		"KHR_materials_specular"
	],
	"scene":0,
	"scenes":[
		{
			"name":"Scene",
			"nodes":[
				64
			]
		}
	],
	"nodes":[
		{
			"name":"Environment"
		},
		{
			"name":"Plane",
			"translation":[
				0,
				0.3225595951080322,
				0
			]
		},
		{
			"children":[
				1
			],
			"name":"bucket01"
		},
		{
			"name":"CollisionShape3D11",
			"translation":[
				0,
				0.20000004768371582,
				0
			]
		},
		{
			"children":[
				3
			],
			"name":"StaticBody3D11"
		},
		{
			"children":[
				2,
				4
			],
			"name":"Bucket01",
			"translation":[
				-3.299999952316284,
				1,
				6.799999713897705
			]
		},
		{
			"name":"Fountain01"
		},
		{
			"children":[
				6
			],
			"name":"Bucket03",
			"translation":[
				27,
				0,
				6
			]
		},
		{
			"name":"Crate01"
		},
		{
			"name":"StaticBody3D12"
		},
		{
			"children":[
				8,
				9
			],
			"name":"Crate",
			"translation":[
				-21,
				0,
				28
			]
		},
		{
			"name":"Crate013"
		},
		{
			"name":"StaticBody3D14"
		},
		{
			"children":[
				11,
				12
			],
			"name":"Crate2",
			"scale":[
				2,
				2,
				2
			],
			"translation":[
				-22.5,
				0,
				27.5
			]
		},
		{
			"name":"Crate014"
		},
		{
			"name":"StaticBody3D15"
		},
		{
			"children":[
				14,
				15
			],
			"name":"Crate3",
			"scale":[
				3,
				3,
				3
			],
			"translation":[
				-22,
				0,
				30
			]
		},
		{
			"name":"Crate015"
		},
		{
			"name":"CollisionShape3D16",
			"translation":[
				0,
				0.5,
				0
			]
		},
		{
			"children":[
				18
			],
			"name":"StaticBody3D16"
		},
		{
			"children":[
				17,
				19
			],
			"name":"Crate5",
			"rotation":[
				0,
				0.2588191032409668,
				0,
				0.9659258127212524
			],
			"scale":[
				2,
				2,
				2
			],
			"translation":[
				-4.699999809265137,
				0,
				9.499999046325684
			]
		},
		{
			"name":"MultiMeshInstance3D"
		},
		{
			"mesh":0,
			"name":"CSGBox3D62.001",
			"rotation":[
				0,
				-1,
				0,
				4.3711398944878965e-08
			],
			"translation":[
				-4.5,
				2,
				-13
			]
		},
		{
			"mesh":1,
			"name":"CSGBox3D62.002",
			"rotation":[
				0,
				-1,
				0,
				4.3711398944878965e-08
			],
			"translation":[
				-4.5,
				2,
				-13
			]
		},
		{
			"mesh":2,
			"name":"CSGBox3D62.003",
			"rotation":[
				0,
				-1,
				0,
				4.3711398944878965e-08
			],
			"translation":[
				-4.5,
				2,
				-13
			]
		},
		{
			"mesh":3,
			"name":"CSGBox3D62.007",
			"rotation":[
				0,
				-1,
				0,
				4.3711398944878965e-08
			],
			"translation":[
				-4.5,
				2,
				-13
			]
		},
		{
			"mesh":4,
			"name":"CSGBox3D62.015",
			"rotation":[
				0,
				-1,
				0,
				4.3711398944878965e-08
			],
			"translation":[
				-4.5,
				2,
				-13
			]
		},
		{
			"mesh":5,
			"name":"CSGBox3D62.030",
			"rotation":[
				0,
				-1,
				0,
				4.3711398944878965e-08
			],
			"translation":[
				-4.5,
				2,
				-13
			]
		},
		{
			"mesh":6,
			"name":"CSGBox3D62.033",
			"rotation":[
				0,
				-1,
				0,
				4.3711398944878965e-08
			],
			"translation":[
				-4.5,
				2,
				-13
			]
		},
		{
			"mesh":7,
			"name":"CSGBox3D62.034",
			"rotation":[
				0,
				-1,
				0,
				4.3711398944878965e-08
			],
			"translation":[
				-4.5,
				2,
				-13
			]
		},
		{
			"mesh":8,
			"name":"CSGBox3D62.036",
			"rotation":[
				0,
				-1,
				0,
				4.3711398944878965e-08
			],
			"translation":[
				-4.5,
				2,
				-13
			]
		},
		{
			"mesh":9,
			"name":"CSGBox3D62.037",
			"rotation":[
				0,
				-1,
				0,
				4.3711398944878965e-08
			],
			"translation":[
				-4.5,
				2,
				-13
			]
		},
		{
			"mesh":10,
			"name":"CSGBox3D62.038",
			"rotation":[
				0,
				-1,
				0,
				4.3711398944878965e-08
			],
			"translation":[
				-4.5,
				2,
				-13
			]
		},
		{
			"mesh":11,
			"name":"CSGBox3D62.039",
			"rotation":[
				0,
				-1,
				0,
				4.3711398944878965e-08
			],
			"translation":[
				-4.5,
				2,
				-13
			]
		},
		{
			"mesh":12,
			"name":"CSGBox3D62.040",
			"rotation":[
				0,
				-1,
				0,
				4.3711398944878965e-08
			],
			"translation":[
				-4.5,
				2,
				-13
			]
		},
		{
			"mesh":13,
			"name":"CSGBox3D62.041",
			"rotation":[
				0,
				-1,
				0,
				4.3711398944878965e-08
			],
			"translation":[
				-4.5,
				2,
				-13
			]
		},
		{
			"mesh":14,
			"name":"CSGBox3D62.042",
			"rotation":[
				0,
				-1,
				0,
				4.3711398944878965e-08
			],
			"translation":[
				-4.5,
				2,
				-13
			]
		},
		{
			"mesh":15,
			"name":"CSGBox3D62.045",
			"rotation":[
				0,
				-1,
				0,
				4.3711398944878965e-08
			],
			"translation":[
				-4.5,
				2,
				-13
			]
		},
		{
			"mesh":16,
			"name":"CSGBox3D62.046",
			"rotation":[
				0,
				-1,
				0,
				4.3711398944878965e-08
			],
			"translation":[
				-4.5,
				2,
				-13
			]
		},
		{
			"mesh":17,
			"name":"CSGBox3D62.046",
			"rotation":[
				0,
				-1,
				0,
				4.3711398944878965e-08
			],
			"translation":[
				-4.5,
				2,
				-13
			]
		},
		{
			"mesh":18,
			"name":"CSGBox3D62.046",
			"rotation":[
				0,
				-1,
				0,
				4.3711398944878965e-08
			],
			"translation":[
				-4.5,
				2,
				-13
			]
		},
		{
			"mesh":19,
			"name":"CSGBox3D62.046",
			"rotation":[
				0,
				-1,
				0,
				4.3711398944878965e-08
			],
			"translation":[
				-4.5,
				2,
				-13
			]
		},
		{
			"mesh":20,
			"name":"CSGBox3D62.046",
			"rotation":[
				0,
				-1,
				0,
				4.3711398944878965e-08
			],
			"translation":[
				-4.5,
				2,
				-13
			]
		},
		{
			"mesh":21,
			"name":"CSGBox3D62.046",
			"rotation":[
				0,
				-1,
				0,
				4.3711398944878965e-08
			],
			"translation":[
				-4.5,
				2,
				-13
			]
		},
		{
			"mesh":22,
			"name":"CSGBox3D62.046",
			"rotation":[
				0,
				-1,
				0,
				4.3711398944878965e-08
			],
			"translation":[
				-4.5,
				2,
				-13
			]
		},
		{
			"mesh":23,
			"name":"CSGBox3D62.046",
			"rotation":[
				0,
				-1,
				0,
				4.3711398944878965e-08
			],
			"translation":[
				-4.5,
				2,
				-13
			]
		},
		{
			"mesh":24,
			"name":"CSGBox3D62.046",
			"rotation":[
				0,
				-1,
				0,
				4.3711398944878965e-08
			],
			"translation":[
				-4.5,
				2,
				-13
			]
		},
		{
			"mesh":25,
			"name":"CSGBox3D62.046",
			"rotation":[
				0,
				-1,
				0,
				4.3711398944878965e-08
			],
			"translation":[
				-4.5,
				2,
				-13
			]
		},
		{
			"mesh":26,
			"name":"CSGBox3D62.046",
			"rotation":[
				0,
				-1,
				0,
				4.3711398944878965e-08
			],
			"translation":[
				-4.5,
				2,
				-13
			]
		},
		{
			"mesh":27,
			"name":"CSGBox3D62.046",
			"rotation":[
				0,
				-1,
				0,
				4.3711398944878965e-08
			],
			"translation":[
				-4.5,
				2,
				-13
			]
		},
		{
			"mesh":28,
			"name":"CSGBox3D62.046",
			"rotation":[
				0,
				-1,
				0,
				4.3711398944878965e-08
			],
			"translation":[
				-4.5,
				2,
				-13
			]
		},
		{
			"mesh":29,
			"name":"CSGBox3D62.046",
			"rotation":[
				0,
				-1,
				0,
				4.3711398944878965e-08
			],
			"translation":[
				-4.5,
				2,
				-13
			]
		},
		{
			"mesh":30,
			"name":"CSGBox3D62.046",
			"rotation":[
				0,
				-1,
				0,
				4.3711398944878965e-08
			],
			"translation":[
				-4.5,
				2,
				-13
			]
		},
		{
			"mesh":31,
			"name":"CSGBox3D62.046",
			"rotation":[
				0,
				-1,
				0,
				4.3711398944878965e-08
			],
			"translation":[
				-4.5,
				2,
				-13
			]
		},
		{
			"mesh":32,
			"name":"CSGBox3D62.046",
			"rotation":[
				0,
				-1,
				0,
				4.3711398944878965e-08
			],
			"translation":[
				-4.5,
				2,
				-13
			]
		},
		{
			"mesh":33,
			"name":"CSGBox3D62.046",
			"rotation":[
				0,
				-1,
				0,
				4.3711398944878965e-08
			],
			"translation":[
				-4.5,
				2,
				-13
			]
		},
		{
			"mesh":34,
			"name":"CSGBox3D62.046",
			"rotation":[
				0,
				-1,
				0,
				4.3711398944878965e-08
			],
			"translation":[
				-4.5,
				2,
				-13
			]
		},
		{
			"mesh":35,
			"name":"CSGBox3D62.046",
			"rotation":[
				0,
				-1,
				0,
				4.3711398944878965e-08
			],
			"translation":[
				-4.5,
				2,
				-13
			]
		},
		{
			"children":[
				22,
				23,
				24,
				25,
				26,
				27,
				28,
				29,
				30,
				31,
				32,
				33,
				34,
				35,
				36,
				37,
				38,
				39,
				40,
				41,
				42,
				43,
				44,
				45,
				46,
				47,
				48,
				49,
				50,
				51,
				52,
				53,
				54,
				55,
				56,
				57
			],
			"name":"Playtest"
		},
		{
			"name":"CollisionShape3D17",
			"translation":[
				0,
				0.5,
				0
			]
		},
		{
			"children":[
				59
			],
			"name":"StaticBody3D17"
		},
		{
			"name":"Table01"
		},
		{
			"children":[
				60,
				61
			],
			"name":"Table",
			"translation":[
				-3,
				0,
				6
			]
		},
		{
			"children":[
				5,
				7,
				10,
				13,
				16,
				20,
				21,
				58,
				62
			],
			"name":"Geometry"
		},
		{
			"children":[
				0,
				63
			],
			"name":"Level"
		}
	],
	"materials":[
		{
			"name":"IMG_FLR_TILE10.JPG",
			"pbrMetallicRoughness":{
				"baseColorTexture":{
					"index":0
				},
				"metallicFactor":0,
				"roughnessFactor":0.5
			}
		},
		{
			"name":"IMG_WOD_CRATE.png",
			"pbrMetallicRoughness":{
				"baseColorTexture":{
					"index":1
				},
				"metallicFactor":0,
				"roughnessFactor":0.5
			}
		},
		{
			"name":"IMG_MET_OLDDIRTYMETALGREEN_SEAMLESS.jpg",
			"pbrMetallicRoughness":{
				"baseColorTexture":{
					"index":2
				},
				"metallicFactor":0,
				"roughnessFactor":0.5
			}
		},
		{
			"extensions":{
				"KHR_materials_specular":{
					"specularFactor":0
				}
			},
			"name":"IMG_NA_MISSINGTEXTURE.png",
			"pbrMetallicRoughness":{
				"baseColorTexture":{
					"index":3
				},
				"metallicFactor":0
			}
		},
		{
			"name":"IMG_OrbFront.png",
			"pbrMetallicRoughness":{
				"baseColorTexture":{
					"index":4
				},
				"metallicFactor":0,
				"roughnessFactor":0.5
			}
		}
	],
	"meshes":[
		{
			"name":"CSGBox3D62.001",
			"primitives":[
				{
					"attributes":{
						"POSITION":0,
						"NORMAL":1,
						"TEXCOORD_0":2,
						"COLOR_0":3,
						"COLOR_1":4
					},
					"indices":5,
					"material":0
				}
			]
		},
		{
			"name":"CSGBox3D62.002",
			"primitives":[
				{
					"attributes":{
						"POSITION":6,
						"NORMAL":7,
						"TEXCOORD_0":8,
						"COLOR_0":9,
						"COLOR_1":10
					},
					"indices":11,
					"material":1
				}
			]
		},
		{
			"name":"CSGBox3D62.003",
			"primitives":[
				{
					"attributes":{
						"POSITION":12,
						"NORMAL":13,
						"TEXCOORD_0":14,
						"COLOR_0":15,
						"COLOR_1":16
					},
					"indices":17,
					"material":1
				}
			]
		},
		{
			"name":"CSGBox3D62.007",
			"primitives":[
				{
					"attributes":{
						"POSITION":18,
						"NORMAL":19,
						"TEXCOORD_0":20,
						"COLOR_0":21,
						"COLOR_1":22
					},
					"indices":23,
					"material":2
				}
			]
		},
		{
			"name":"CSGBox3D62.015",
			"primitives":[
				{
					"attributes":{
						"POSITION":24,
						"NORMAL":25,
						"TEXCOORD_0":26,
						"COLOR_0":27,
						"COLOR_1":28
					},
					"indices":29,
					"material":3
				}
			]
		},
		{
			"name":"CSGBox3D62.030",
			"primitives":[
				{
					"attributes":{
						"POSITION":30,
						"NORMAL":31,
						"TEXCOORD_0":32,
						"COLOR_0":33,
						"COLOR_1":34
					},
					"indices":35,
					"material":4
				}
			]
		},
		{
			"name":"CSGBox3D62.033",
			"primitives":[
				{
					"attributes":{
						"POSITION":36,
						"NORMAL":37,
						"TEXCOORD_0":38,
						"COLOR_0":39
					},
					"indices":40
				}
			]
		},
		{
			"name":"CSGBox3D62.034",
			"primitives":[
				{
					"attributes":{
						"POSITION":41,
						"NORMAL":42,
						"TEXCOORD_0":43,
						"COLOR_0":44
					},
					"indices":45
				}
			]
		},
		{
			"name":"CSGBox3D62.036",
			"primitives":[
				{
					"attributes":{
						"POSITION":46,
						"NORMAL":47,
						"TEXCOORD_0":48,
						"COLOR_0":49
					},
					"indices":50
				}
			]
		},
		{
			"name":"CSGBox3D62.037",
			"primitives":[
				{
					"attributes":{
						"POSITION":51,
						"NORMAL":52,
						"TEXCOORD_0":53,
						"COLOR_0":54
					},
					"indices":55
				}
			]
		},
		{
			"name":"CSGBox3D62.038",
			"primitives":[
				{
					"attributes":{
						"POSITION":56,
						"NORMAL":57,
						"TEXCOORD_0":58,
						"COLOR_0":59
					},
					"indices":60
				}
			]
		},
		{
			"name":"CSGBox3D62.039",
			"primitives":[
				{
					"attributes":{
						"POSITION":61,
						"NORMAL":62,
						"TEXCOORD_0":63,
						"COLOR_0":64
					},
					"indices":65
				}
			]
		},
		{
			"name":"CSGBox3D62.040",
			"primitives":[
				{
					"attributes":{
						"POSITION":66,
						"NORMAL":67,
						"TEXCOORD_0":68,
						"COLOR_0":69
					},
					"indices":65
				}
			]
		},
		{
			"name":"CSGBox3D62.041",
			"primitives":[
				{
					"attributes":{
						"POSITION":70,
						"NORMAL":71,
						"TEXCOORD_0":72,
						"COLOR_0":73
					},
					"indices":60
				}
			]
		},
		{
			"name":"CSGBox3D62.042",
			"primitives":[
				{
					"attributes":{
						"POSITION":74,
						"NORMAL":75,
						"TEXCOORD_0":76,
						"COLOR_0":77
					},
					"indices":78
				}
			]
		},
		{
			"name":"CSGBox3D62.045",
			"primitives":[
				{
					"attributes":{
						"POSITION":79,
						"NORMAL":80,
						"TEXCOORD_0":81,
						"COLOR_0":82
					},
					"indices":83
				}
			]
		},
		{
			"name":"CSGBox3D62.046",
			"primitives":[
				{
					"attributes":{
						"POSITION":84,
						"NORMAL":85,
						"TEXCOORD_0":86,
						"COLOR_0":87
					},
					"indices":88
				}
			]
		},
		{
			"name":"CSGBox3D62.046",
			"primitives":[
				{
					"attributes":{
						"POSITION":89,
						"NORMAL":90,
						"TEXCOORD_0":91,
						"COLOR_0":92,
						"COLOR_1":93
					},
					"indices":94,
					"material":2
				}
			]
		},
		{
			"name":"CSGBox3D62.046",
			"primitives":[
				{
					"attributes":{
						"POSITION":95,
						"NORMAL":96,
						"TEXCOORD_0":97,
						"COLOR_0":98,
						"COLOR_1":99
					},
					"indices":100,
					"material":2
				}
			]
		},
		{
			"name":"CSGBox3D62.046",
			"primitives":[
				{
					"attributes":{
						"POSITION":101,
						"NORMAL":102,
						"TEXCOORD_0":103,
						"COLOR_0":104,
						"COLOR_1":105
					},
					"indices":94,
					"material":2
				}
			]
		},
		{
			"name":"CSGBox3D62.046",
			"primitives":[
				{
					"attributes":{
						"POSITION":106,
						"NORMAL":107,
						"TEXCOORD_0":108,
						"COLOR_0":109,
						"COLOR_1":110
					},
					"indices":111,
					"material":2
				}
			]
		},
		{
			"name":"CSGBox3D62.046",
			"primitives":[
				{
					"attributes":{
						"POSITION":112,
						"NORMAL":113,
						"TEXCOORD_0":114,
						"COLOR_0":115,
						"COLOR_1":116
					},
					"indices":117,
					"material":3
				}
			]
		},
		{
			"name":"CSGBox3D62.046",
			"primitives":[
				{
					"attributes":{
						"POSITION":118,
						"NORMAL":119,
						"TEXCOORD_0":120,
						"COLOR_0":121,
						"COLOR_1":122
					},
					"indices":94,
					"material":3
				}
			]
		},
		{
			"name":"CSGBox3D62.046",
			"primitives":[
				{
					"attributes":{
						"POSITION":123,
						"NORMAL":124,
						"TEXCOORD_0":125,
						"COLOR_0":126,
						"COLOR_1":127
					},
					"indices":94,
					"material":3
				}
			]
		},
		{
			"name":"CSGBox3D62.046",
			"primitives":[
				{
					"attributes":{
						"POSITION":128,
						"NORMAL":129,
						"TEXCOORD_0":130,
						"COLOR_0":131,
						"COLOR_1":132
					},
					"indices":94,
					"material":3
				}
			]
		},
		{
			"name":"CSGBox3D62.046",
			"primitives":[
				{
					"attributes":{
						"POSITION":133,
						"NORMAL":134,
						"TEXCOORD_0":135,
						"COLOR_0":136,
						"COLOR_1":137
					},
					"indices":117,
					"material":3
				}
			]
		},
		{
			"name":"CSGBox3D62.046",
			"primitives":[
				{
					"attributes":{
						"POSITION":138,
						"NORMAL":139,
						"TEXCOORD_0":140,
						"COLOR_0":141,
						"COLOR_1":142
					},
					"indices":94,
					"material":3
				}
			]
		},
		{
			"name":"CSGBox3D62.046",
			"primitives":[
				{
					"attributes":{
						"POSITION":143,
						"NORMAL":144,
						"TEXCOORD_0":145,
						"COLOR_0":146,
						"COLOR_1":147
					},
					"indices":94,
					"material":3
				}
			]
		},
		{
			"name":"CSGBox3D62.046",
			"primitives":[
				{
					"attributes":{
						"POSITION":148,
						"NORMAL":149,
						"TEXCOORD_0":150,
						"COLOR_0":151,
						"COLOR_1":152
					},
					"indices":94,
					"material":3
				}
			]
		},
		{
			"name":"CSGBox3D62.046",
			"primitives":[
				{
					"attributes":{
						"POSITION":153,
						"NORMAL":154,
						"TEXCOORD_0":155,
						"COLOR_0":156,
						"COLOR_1":157
					},
					"indices":94,
					"material":3
				}
			]
		},
		{
			"name":"CSGBox3D62.046",
			"primitives":[
				{
					"attributes":{
						"POSITION":158,
						"NORMAL":159,
						"TEXCOORD_0":160,
						"COLOR_0":161,
						"COLOR_1":162
					},
					"indices":117,
					"material":3
				}
			]
		},
		{
			"name":"CSGBox3D62.046",
			"primitives":[
				{
					"attributes":{
						"POSITION":163,
						"NORMAL":164,
						"TEXCOORD_0":165,
						"COLOR_0":166,
						"COLOR_1":167
					},
					"indices":168,
					"material":3
				}
			]
		},
		{
			"name":"CSGBox3D62.046",
			"primitives":[
				{
					"attributes":{
						"POSITION":169,
						"NORMAL":170,
						"TEXCOORD_0":171,
						"COLOR_0":172,
						"COLOR_1":173
					},
					"indices":94,
					"material":3
				}
			]
		},
		{
			"name":"CSGBox3D62.046",
			"primitives":[
				{
					"attributes":{
						"POSITION":174,
						"NORMAL":175,
						"TEXCOORD_0":176,
						"COLOR_0":177,
						"COLOR_1":178
					},
					"indices":94,
					"material":3
				}
			]
		},
		{
			"name":"CSGBox3D62.046",
			"primitives":[
				{
					"attributes":{
						"POSITION":179,
						"NORMAL":180,
						"TEXCOORD_0":181,
						"COLOR_0":182,
						"COLOR_1":183
					},
					"indices":94,
					"material":3
				}
			]
		},
		{
			"name":"CSGBox3D62.046",
			"primitives":[
				{
					"attributes":{
						"POSITION":184,
						"NORMAL":185,
						"TEXCOORD_0":186,
						"COLOR_0":187,
						"COLOR_1":188
					},
					"indices":94,
					"material":3
				}
			]
		}
	],
	"textures":[
		{
			"sampler":0,
			"source":0
		},
		{
			"sampler":0,
			"source":1
		},
		{
			"sampler":0,
			"source":2
		},
		{
			"sampler":1,
			"source":3
		},
		{
			"sampler":0,
			"source":4
		}
	],
	"images":[
		{
			"mimeType":"image/jpeg",
			"name":"FLR_TILE10",
			"uri":"../textures/FLR_TILE10.jpg"
		},
		{
			"mimeType":"image/png",
			"name":"WOD_CRATE",
			"uri":"../textures/WOD_CRATE.png"
		},
		{
			"mimeType":"image/jpeg",
			"name":"MET_OLDDIRTYMETALGREEN_SEAMLESS",
			"uri":"../textures/MET_OLDDIRTYMETALGREEN_SEAMLESS.jpg"
		},
		{
			"mimeType":"image/png",
			"name":"NA_MISSINGTEXTURE",
			"uri":"../textures/NA_MISSINGTEXTURE.png"
		},
		{
			"mimeType":"image/png",
			"name":"OrbFront",
			"uri":"../textures/OrbFront.png"
		}
	],
	"accessors":[
		{
			"bufferView":0,
			"componentType":5126,
			"count":996,
			"max":[
				20.500001907348633,
				-2,
				83
			],
			"min":[
				-44.50000762939453,
				-6,
				-77
			],
			"type":"VEC3"
		},
		{
			"bufferView":1,
			"componentType":5126,
			"count":996,
			"type":"VEC3"
		},
		{
			"bufferView":2,
			"componentType":5126,
			"count":996,
			"type":"VEC2"
		},
		{
			"bufferView":3,
			"componentType":5121,
			"count":996,
			"normalized":true,
			"type":"VEC4"
		},
		{
			"bufferView":4,
			"componentType":5123,
			"count":996,
			"normalized":true,
			"type":"VEC4"
		},
		{
			"bufferView":5,
			"componentType":5123,
			"count":1506,
			"type":"SCALAR"
		},
		{
			"bufferView":6,
			"componentType":5126,
			"count":160,
			"max":[
				-8.500001907348633,
				2,
				31
			],
			"min":[
				-16.500003814697266,
				-2,
				11
			],
			"type":"VEC3"
		},
		{
			"bufferView":7,
			"componentType":5126,
			"count":160,
			"type":"VEC3"
		},
		{
			"bufferView":8,
			"componentType":5126,
			"count":160,
			"type":"VEC2"
		},
		{
			"bufferView":9,
			"componentType":5121,
			"count":160,
			"normalized":true,
			"type":"VEC4"
		},
		{
			"bufferView":10,
			"componentType":5123,
			"count":160,
			"normalized":true,
			"type":"VEC4"
		},
		{
			"bufferView":11,
			"componentType":5123,
			"count":240,
			"type":"SCALAR"
		},
		{
			"bufferView":12,
			"componentType":5126,
			"count":20,
			"max":[
				-0.5000026226043701,
				2,
				31
			],
			"min":[
				-4.500002861022949,
				-2,
				27
			],
			"type":"VEC3"
		},
		{
			"bufferView":13,
			"componentType":5126,
			"count":20,
			"type":"VEC3"
		},
		{
			"bufferView":14,
			"componentType":5126,
			"count":20,
			"type":"VEC2"
		},
		{
			"bufferView":15,
			"componentType":5121,
			"count":20,
			"normalized":true,
			"type":"VEC4"
		},
		{
			"bufferView":16,
			"componentType":5123,
			"count":20,
			"normalized":true,
			"type":"VEC4"
		},
		{
			"bufferView":17,
			"componentType":5123,
			"count":30,
			"type":"SCALAR"
		},
		{
			"bufferView":18,
			"componentType":5126,
			"count":20,
			"max":[
				3.5000016689300537,
				4,
				-17
			],
			"min":[
				1.5000011920928955,
				-2,
				-24
			],
			"type":"VEC3"
		},
		{
			"bufferView":19,
			"componentType":5126,
			"count":20,
			"type":"VEC3"
		},
		{
			"bufferView":20,
			"componentType":5126,
			"count":20,
			"type":"VEC2"
		},
		{
			"bufferView":21,
			"componentType":5121,
			"count":20,
			"normalized":true,
			"type":"VEC4"
		},
		{
			"bufferView":22,
			"componentType":5123,
			"count":20,
			"normalized":true,
			"type":"VEC4"
		},
		{
			"bufferView":23,
			"componentType":5123,
			"count":30,
			"type":"SCALAR"
		},
		{
			"bufferView":24,
			"componentType":5126,
			"count":20,
			"max":[
				-33,
				14.100001335144043,
				10.999999046325684
			],
			"min":[
				-45,
				-2.1000003814697266,
				-5.000003814697266
			],
			"type":"VEC3"
		},
		{
			"bufferView":25,
			"componentType":5126,
			"count":20,
			"type":"VEC3"
		},
		{
			"bufferView":26,
			"componentType":5126,
			"count":20,
			"type":"VEC2"
		},
		{
			"bufferView":27,
			"componentType":5121,
			"count":20,
			"normalized":true,
			"type":"VEC4"
		},
		{
			"bufferView":28,
			"componentType":5123,
			"count":20,
			"normalized":true,
			"type":"VEC4"
		},
		{
			"bufferView":29,
			"componentType":5123,
			"count":30,
			"type":"SCALAR"
		},
		{
			"bufferView":30,
			"componentType":5126,
			"count":325,
			"max":[
				-16.499998092651367,
				18.200000762939453,
				-31
			],
			"min":[
				-28.499998092651367,
				6.200000286102295,
				-35
			],
			"type":"VEC3"
		},
		{
			"bufferView":31,
			"componentType":5126,
			"count":325,
			"type":"VEC3"
		},
		{
			"bufferView":32,
			"componentType":5126,
			"count":325,
			"type":"VEC2"
		},
		{
			"bufferView":33,
			"componentType":5121,
			"count":325,
			"normalized":true,
			"type":"VEC4"
		},
		{
			"bufferView":34,
			"componentType":5123,
			"count":325,
			"normalized":true,
			"type":"VEC4"
		},
		{
			"bufferView":35,
			"componentType":5123,
			"count":1728,
			"type":"SCALAR"
		},
		{
			"bufferView":36,
			"componentType":5126,
			"count":83,
			"max":[
				-1.00154709815979,
				-0.5999999642372131,
				-19.601547241210938
			],
			"min":[
				-1.3984501361846924,
				-1,
				-19.998451232910156
			],
			"type":"VEC3"
		},
		{
			"bufferView":37,
			"componentType":5126,
			"count":83,
			"type":"VEC3"
		},
		{
			"bufferView":38,
			"componentType":5126,
			"count":83,
			"type":"VEC2"
		},
		{
			"bufferView":39,
			"componentType":5123,
			"count":83,
			"normalized":true,
			"type":"VEC4"
		},
		{
			"bufferView":40,
			"componentType":5123,
			"count":240,
			"type":"SCALAR"
		},
		{
			"bufferView":41,
			"componentType":5126,
			"count":22,
			"max":[
				-1.0099018812179565,
				-0.6242388486862183,
				-19.78607177734375
			],
			"min":[
				-1.3900953531265259,
				-0.8106066584587097,
				-20.029842376708984
			],
			"type":"VEC3"
		},
		{
			"bufferView":42,
			"componentType":5126,
			"count":22,
			"type":"VEC3"
		},
		{
			"bufferView":43,
			"componentType":5126,
			"count":22,
			"type":"VEC2"
		},
		{
			"bufferView":44,
			"componentType":5123,
			"count":22,
			"normalized":true,
			"type":"VEC4"
		},
		{
			"bufferView":45,
			"componentType":5123,
			"count":60,
			"type":"SCALAR"
		},
		{
			"bufferView":46,
			"componentType":5126,
			"count":20,
			"max":[
				1.5660271644592285,
				0,
				-21.133975982666016
			],
			"min":[
				-1.1660237312316895,
				-2,
				-23.866025924682617
			],
			"type":"VEC3"
		},
		{
			"bufferView":47,
			"componentType":5126,
			"count":20,
			"type":"VEC3"
		},
		{
			"bufferView":48,
			"componentType":5126,
			"count":20,
			"type":"VEC2"
		},
		{
			"bufferView":49,
			"componentType":5123,
			"count":20,
			"normalized":true,
			"type":"VEC4"
		},
		{
			"bufferView":50,
			"componentType":5123,
			"count":30,
			"type":"SCALAR"
		},
		{
			"bufferView":51,
			"componentType":5126,
			"count":81,
			"max":[
				-0.925518274307251,
				-0.9878072738647461,
				-17.925519943237305
			],
			"min":[
				-2.0744788646698,
				-1.149999976158142,
				-20.074480056762695
			],
			"type":"VEC3"
		},
		{
			"bufferView":52,
			"componentType":5126,
			"count":81,
			"type":"VEC3"
		},
		{
			"bufferView":53,
			"componentType":5126,
			"count":81,
			"type":"VEC2"
		},
		{
			"bufferView":54,
			"componentType":5123,
			"count":81,
			"normalized":true,
			"type":"VEC4"
		},
		{
			"bufferView":55,
			"componentType":5123,
			"count":288,
			"type":"SCALAR"
		},
		{
			"bufferView":56,
			"componentType":5126,
			"count":14,
			"max":[
				-1.859893798828125,
				-1.1500000953674316,
				-19.849807739257812
			],
			"min":[
				-1.9900916814804077,
				-2,
				-20.000164031982422
			],
			"type":"VEC3"
		},
		{
			"bufferView":57,
			"componentType":5126,
			"count":14,
			"type":"VEC3"
		},
		{
			"bufferView":58,
			"componentType":5126,
			"count":14,
			"type":"VEC2"
		},
		{
			"bufferView":59,
			"componentType":5123,
			"count":14,
			"normalized":true,
			"type":"VEC4"
		},
		{
			"bufferView":60,
			"componentType":5123,
			"count":36,
			"type":"SCALAR"
		},
		{
			"bufferView":61,
			"componentType":5126,
			"count":12,
			"max":[
				-1.009905219078064,
				-1.1500000953674316,
				-19.84980583190918
			],
			"min":[
				-1.1400882005691528,
				-2,
				-20.000164031982422
			],
			"type":"VEC3"
		},
		{
			"bufferView":62,
			"componentType":5126,
			"count":12,
			"type":"VEC3"
		},
		{
			"bufferView":63,
			"componentType":5126,
			"count":12,
			"type":"VEC2"
		},
		{
			"bufferView":64,
			"componentType":5123,
			"count":12,
			"normalized":true,
			"type":"VEC4"
		},
		{
			"bufferView":65,
			"componentType":5123,
			"count":36,
			"type":"SCALAR"
		},
		{
			"bufferView":66,
			"componentType":5126,
			"count":12,
			"max":[
				-1.8598939180374146,
				-1.1500000953674316,
				-17.999835968017578
			],
			"min":[
				-1.9900919198989868,
				-2,
				-18.150165557861328
			],
			"type":"VEC3"
		},
		{
			"bufferView":67,
			"componentType":5126,
			"count":12,
			"type":"VEC3"
		},
		{
			"bufferView":68,
			"componentType":5126,
			"count":12,
			"type":"VEC2"
		},
		{
			"bufferView":69,
			"componentType":5123,
			"count":12,
			"normalized":true,
			"type":"VEC4"
		},
		{
			"bufferView":70,
			"componentType":5126,
			"count":14,
			"max":[
				-1.009905457496643,
				-1.1500000953674316,
				-17.999835968017578
			],
			"min":[
				-1.140088438987732,
				-2,
				-18.150161743164062
			],
			"type":"VEC3"
		},
		{
			"bufferView":71,
			"componentType":5126,
			"count":14,
			"type":"VEC3"
		},
		{
			"bufferView":72,
			"componentType":5126,
			"count":14,
			"type":"VEC2"
		},
		{
			"bufferView":73,
			"componentType":5123,
			"count":14,
			"normalized":true,
			"type":"VEC4"
		},
		{
			"bufferView":74,
			"componentType":5126,
			"count":64,
			"max":[
				-1.0421558618545532,
				-1.1530643701553345,
				-18.042158126831055
			],
			"min":[
				-1.9578412771224976,
				-1.2606778144836426,
				-19.957843780517578
			],
			"type":"VEC3"
		},
		{
			"bufferView":75,
			"componentType":5126,
			"count":64,
			"type":"VEC3"
		},
		{
			"bufferView":76,
			"componentType":5126,
			"count":64,
			"type":"VEC2"
		},
		{
			"bufferView":77,
			"componentType":5123,
			"count":64,
			"normalized":true,
			"type":"VEC4"
		},
		{
			"bufferView":78,
			"componentType":5123,
			"count":144,
			"type":"SCALAR"
		},
		{
			"bufferView":79,
			"componentType":5126,
			"count":1058,
			"max":[
				-24.35244369506836,
				5.2259063720703125,
				-11.852446556091309
			],
			"min":[
				-38.64755630493164,
				-2,
				-26.14755630493164
			],
			"type":"VEC3"
		},
		{
			"bufferView":80,
			"componentType":5126,
			"count":1058,
			"type":"VEC3"
		},
		{
			"bufferView":81,
			"componentType":5126,
			"count":1058,
			"type":"VEC2"
		},
		{
			"bufferView":82,
			"componentType":5123,
			"count":1058,
			"normalized":true,
			"type":"VEC4"
		},
		{
			"bufferView":83,
			"componentType":5123,
			"count":4020,
			"type":"SCALAR"
		},
		{
			"bufferView":84,
			"componentType":5126,
			"count":25,
			"max":[
				-25.249008178710938,
				-1.3092070817947388,
				-12.749011039733887
			],
			"min":[
				-37.75099182128906,
				-1.3092070817947388,
				-25.250991821289062
			],
			"type":"VEC3"
		},
		{
			"bufferView":85,
			"componentType":5126,
			"count":25,
			"type":"VEC3"
		},
		{
			"bufferView":86,
			"componentType":5126,
			"count":25,
			"type":"VEC2"
		},
		{
			"bufferView":87,
			"componentType":5123,
			"count":25,
			"normalized":true,
			"type":"VEC4"
		},
		{
			"bufferView":88,
			"componentType":5123,
			"count":72,
			"type":"SCALAR"
		},
		{
			"bufferView":89,
			"componentType":5126,
			"count":20,
			"max":[
				-10.49999713897705,
				1,
				-13
			],
			"min":[
				-12.499999046325684,
				-2,
				-29
			],
			"type":"VEC3"
		},
		{
			"bufferView":90,
			"componentType":5126,
			"count":20,
			"type":"VEC3"
		},
		{
			"bufferView":91,
			"componentType":5126,
			"count":20,
			"type":"VEC2"
		},
		{
			"bufferView":92,
			"componentType":5121,
			"count":20,
			"normalized":true,
			"type":"VEC4"
		},
		{
			"bufferView":93,
			"componentType":5123,
			"count":20,
			"normalized":true,
			"type":"VEC4"
		},
		{
			"bufferView":94,
			"componentType":5123,
			"count":30,
			"type":"SCALAR"
		},
		{
			"bufferView":95,
			"componentType":5126,
			"count":386,
			"max":[
				8.5,
				4,
				5.000001907348633
			],
			"min":[
				-8.5,
				-2,
				-9.000001907348633
			],
			"type":"VEC3"
		},
		{
			"bufferView":96,
			"componentType":5126,
			"count":386,
			"type":"VEC3"
		},
		{
			"bufferView":97,
			"componentType":5126,
			"count":386,
			"type":"VEC2"
		},
		{
			"bufferView":98,
			"componentType":5121,
			"count":386,
			"normalized":true,
			"type":"VEC4"
		},
		{
			"bufferView":99,
			"componentType":5123,
			"count":386,
			"normalized":true,
			"type":"VEC4"
		},
		{
			"bufferView":100,
			"componentType":5123,
			"count":660,
			"type":"SCALAR"
		},
		{
			"bufferView":101,
			"componentType":5126,
			"count":20,
			"max":[
				11.50000286102295,
				4,
				-24
			],
			"min":[
				-4.499998092651367,
				-2,
				-26
			],
			"type":"VEC3"
		},
		{
			"bufferView":102,
			"componentType":5126,
			"count":20,
			"type":"VEC3"
		},
		{
			"bufferView":103,
			"componentType":5126,
			"count":20,
			"type":"VEC2"
		},
		{
			"bufferView":104,
			"componentType":5121,
			"count":20,
			"normalized":true,
			"type":"VEC4"
		},
		{
			"bufferView":105,
			"componentType":5123,
			"count":20,
			"normalized":true,
			"type":"VEC4"
		},
		{
			"bufferView":106,
			"componentType":5126,
			"count":59,
			"max":[
				3.5000030994415283,
				5,
				-5
			],
			"min":[
				-14.499999046325684,
				-2,
				-37
			],
			"type":"VEC3"
		},
		{
			"bufferView":107,
			"componentType":5126,
			"count":59,
			"type":"VEC3"
		},
		{
			"bufferView":108,
			"componentType":5126,
			"count":59,
			"type":"VEC2"
		},
		{
			"bufferView":109,
			"componentType":5121,
			"count":59,
			"normalized":true,
			"type":"VEC4"
		},
		{
			"bufferView":110,
			"componentType":5123,
			"count":59,
			"normalized":true,
			"type":"VEC4"
		},
		{
			"bufferView":111,
			"componentType":5123,
			"count":102,
			"type":"SCALAR"
		},
		{
			"bufferView":112,
			"componentType":5126,
			"count":24,
			"max":[
				-39,
				16,
				-11.50000286102295
			],
			"min":[
				-40,
				12,
				-12.50000286102295
			],
			"type":"VEC3"
		},
		{
			"bufferView":113,
			"componentType":5126,
			"count":24,
			"type":"VEC3"
		},
		{
			"bufferView":114,
			"componentType":5126,
			"count":24,
			"type":"VEC2"
		},
		{
			"bufferView":115,
			"componentType":5121,
			"count":24,
			"normalized":true,
			"type":"VEC4"
		},
		{
			"bufferView":116,
			"componentType":5123,
			"count":24,
			"normalized":true,
			"type":"VEC4"
		},
		{
			"bufferView":117,
			"componentType":5123,
			"count":36,
			"type":"SCALAR"
		},
		{
			"bufferView":118,
			"componentType":5126,
			"count":20,
			"max":[
				8.000001907348633,
				19,
				-16.5
			],
			"min":[
				7.000000953674316,
				-5,
				-17.5
			],
			"type":"VEC3"
		},
		{
			"bufferView":119,
			"componentType":5126,
			"count":20,
			"type":"VEC3"
		},
		{
			"bufferView":120,
			"componentType":5126,
			"count":20,
			"type":"VEC2"
		},
		{
			"bufferView":121,
			"componentType":5121,
			"count":20,
			"normalized":true,
			"type":"VEC4"
		},
		{
			"bufferView":122,
			"componentType":5123,
			"count":20,
			"normalized":true,
			"type":"VEC4"
		},
		{
			"bufferView":123,
			"componentType":5126,
			"count":20,
			"max":[
				-25,
				59,
				14.499999046325684
			],
			"min":[
				-26,
				-5,
				13.499998092651367
			],
			"type":"VEC3"
		},
		{
			"bufferView":124,
			"componentType":5126,
			"count":20,
			"type":"VEC3"
		},
		{
			"bufferView":125,
			"componentType":5126,
			"count":20,
			"type":"VEC2"
		},
		{
			"bufferView":126,
			"componentType":5121,
			"count":20,
			"normalized":true,
			"type":"VEC4"
		},
		{
			"bufferView":127,
			"componentType":5123,
			"count":20,
			"normalized":true,
			"type":"VEC4"
		},
		{
			"bufferView":128,
			"componentType":5126,
			"count":20,
			"max":[
				-25,
				13,
				-6.500001430511475
			],
			"min":[
				-26,
				-5,
				-7.500001907348633
			],
			"type":"VEC3"
		},
		{
			"bufferView":129,
			"componentType":5126,
			"count":20,
			"type":"VEC3"
		},
		{
			"bufferView":130,
			"componentType":5126,
			"count":20,
			"type":"VEC2"
		},
		{
			"bufferView":131,
			"componentType":5121,
			"count":20,
			"normalized":true,
			"type":"VEC4"
		},
		{
			"bufferView":132,
			"componentType":5123,
			"count":20,
			"normalized":true,
			"type":"VEC4"
		},
		{
			"bufferView":133,
			"componentType":5126,
			"count":24,
			"max":[
				-30,
				16,
				-6.500002861022949
			],
			"min":[
				-31,
				6,
				-7.500002861022949
			],
			"type":"VEC3"
		},
		{
			"bufferView":134,
			"componentType":5126,
			"count":24,
			"type":"VEC3"
		},
		{
			"bufferView":135,
			"componentType":5126,
			"count":24,
			"type":"VEC2"
		},
		{
			"bufferView":136,
			"componentType":5121,
			"count":24,
			"normalized":true,
			"type":"VEC4"
		},
		{
			"bufferView":137,
			"componentType":5123,
			"count":24,
			"normalized":true,
			"type":"VEC4"
		},
		{
			"bufferView":138,
			"componentType":5126,
			"count":20,
			"max":[
				-22,
				17,
				-3.500001907348633
			],
			"min":[
				-23,
				-5,
				-4.500001907348633
			],
			"type":"VEC3"
		},
		{
			"bufferView":139,
			"componentType":5126,
			"count":20,
			"type":"VEC3"
		},
		{
			"bufferView":140,
			"componentType":5126,
			"count":20,
			"type":"VEC2"
		},
		{
			"bufferView":141,
			"componentType":5121,
			"count":20,
			"normalized":true,
			"type":"VEC4"
		},
		{
			"bufferView":142,
			"componentType":5123,
			"count":20,
			"normalized":true,
			"type":"VEC4"
		},
		{
			"bufferView":143,
			"componentType":5126,
			"count":20,
			"max":[
				-22,
				7,
				-10.500001907348633
			],
			"min":[
				-23,
				-5,
				-11.50000286102295
			],
			"type":"VEC3"
		},
		{
			"bufferView":144,
			"componentType":5126,
			"count":20,
			"type":"VEC3"
		},
		{
			"bufferView":145,
			"componentType":5126,
			"count":20,
			"type":"VEC2"
		},
		{
			"bufferView":146,
			"componentType":5121,
			"count":20,
			"normalized":true,
			"type":"VEC4"
		},
		{
			"bufferView":147,
			"componentType":5123,
			"count":20,
			"normalized":true,
			"type":"VEC4"
		},
		{
			"bufferView":148,
			"componentType":5126,
			"count":20,
			"max":[
				-18,
				4,
				-6.500001430511475
			],
			"min":[
				-19,
				-5,
				-7.500001430511475
			],
			"type":"VEC3"
		},
		{
			"bufferView":149,
			"componentType":5126,
			"count":20,
			"type":"VEC3"
		},
		{
			"bufferView":150,
			"componentType":5126,
			"count":20,
			"type":"VEC2"
		},
		{
			"bufferView":151,
			"componentType":5121,
			"count":20,
			"normalized":true,
			"type":"VEC4"
		},
		{
			"bufferView":152,
			"componentType":5123,
			"count":20,
			"normalized":true,
			"type":"VEC4"
		},
		{
			"bufferView":153,
			"componentType":5126,
			"count":20,
			"max":[
				-38,
				15,
				-24.500003814697266
			],
			"min":[
				-39,
				-5,
				-25.5000057220459
			],
			"type":"VEC3"
		},
		{
			"bufferView":154,
			"componentType":5126,
			"count":20,
			"type":"VEC3"
		},
		{
			"bufferView":155,
			"componentType":5126,
			"count":20,
			"type":"VEC2"
		},
		{
			"bufferView":156,
			"componentType":5121,
			"count":20,
			"normalized":true,
			"type":"VEC4"
		},
		{
			"bufferView":157,
			"componentType":5123,
			"count":20,
			"normalized":true,
			"type":"VEC4"
		},
		{
			"bufferView":158,
			"componentType":5126,
			"count":24,
			"max":[
				-39.999996185302734,
				19,
				-38.500003814697266
			],
			"min":[
				-41,
				5,
				-39.50000762939453
			],
			"type":"VEC3"
		},
		{
			"bufferView":159,
			"componentType":5126,
			"count":24,
			"type":"VEC3"
		},
		{
			"bufferView":160,
			"componentType":5126,
			"count":24,
			"type":"VEC2"
		},
		{
			"bufferView":161,
			"componentType":5121,
			"count":24,
			"normalized":true,
			"type":"VEC4"
		},
		{
			"bufferView":162,
			"componentType":5123,
			"count":24,
			"normalized":true,
			"type":"VEC4"
		},
		{
			"bufferView":163,
			"componentType":5126,
			"count":24,
			"max":[
				-31.999996185302734,
				10,
				-25.500003814697266
			],
			"min":[
				-33,
				4,
				-26.5000057220459
			],
			"type":"VEC3"
		},
		{
			"bufferView":164,
			"componentType":5126,
			"count":24,
			"type":"VEC3"
		},
		{
			"bufferView":165,
			"componentType":5126,
			"count":24,
			"type":"VEC2"
		},
		{
			"bufferView":166,
			"componentType":5121,
			"count":24,
			"normalized":true,
			"type":"VEC4"
		},
		{
			"bufferView":167,
			"componentType":5123,
			"count":24,
			"normalized":true,
			"type":"VEC4"
		},
		{
			"bufferView":168,
			"componentType":5123,
			"count":36,
			"type":"SCALAR"
		},
		{
			"bufferView":169,
			"componentType":5126,
			"count":20,
			"max":[
				-23.999996185302734,
				19,
				-25.500003814697266
			],
			"min":[
				-24.999998092651367,
				-5,
				-26.500003814697266
			],
			"type":"VEC3"
		},
		{
			"bufferView":170,
			"componentType":5126,
			"count":20,
			"type":"VEC3"
		},
		{
			"bufferView":171,
			"componentType":5126,
			"count":20,
			"type":"VEC2"
		},
		{
			"bufferView":172,
			"componentType":5121,
			"count":20,
			"normalized":true,
			"type":"VEC4"
		},
		{
			"bufferView":173,
			"componentType":5123,
			"count":20,
			"normalized":true,
			"type":"VEC4"
		},
		{
			"bufferView":174,
			"componentType":5126,
			"count":20,
			"max":[
				-40,
				2,
				-21.500003814697266
			],
			"min":[
				-41,
				-5,
				-22.5000057220459
			],
			"type":"VEC3"
		},
		{
			"bufferView":175,
			"componentType":5126,
			"count":20,
			"type":"VEC3"
		},
		{
			"bufferView":176,
			"componentType":5126,
			"count":20,
			"type":"VEC2"
		},
		{
			"bufferView":177,
			"componentType":5121,
			"count":20,
			"normalized":true,
			"type":"VEC4"
		},
		{
			"bufferView":178,
			"componentType":5123,
			"count":20,
			"normalized":true,
			"type":"VEC4"
		},
		{
			"bufferView":179,
			"componentType":5126,
			"count":20,
			"max":[
				-26,
				10,
				-9.500001907348633
			],
			"min":[
				-27,
				-5,
				-10.500001907348633
			],
			"type":"VEC3"
		},
		{
			"bufferView":180,
			"componentType":5126,
			"count":20,
			"type":"VEC3"
		},
		{
			"bufferView":181,
			"componentType":5126,
			"count":20,
			"type":"VEC2"
		},
		{
			"bufferView":182,
			"componentType":5121,
			"count":20,
			"normalized":true,
			"type":"VEC4"
		},
		{
			"bufferView":183,
			"componentType":5123,
			"count":20,
			"normalized":true,
			"type":"VEC4"
		},
		{
			"bufferView":184,
			"componentType":5126,
			"count":20,
			"max":[
				-40,
				10,
				-14.50000286102295
			],
			"min":[
				-41,
				-5,
				-15.50000286102295
			],
			"type":"VEC3"
		},
		{
			"bufferView":185,
			"componentType":5126,
			"count":20,
			"type":"VEC3"
		},
		{
			"bufferView":186,
			"componentType":5126,
			"count":20,
			"type":"VEC2"
		},
		{
			"bufferView":187,
			"componentType":5121,
			"count":20,
			"normalized":true,
			"type":"VEC4"
		},
		{
			"bufferView":188,
			"componentType":5123,
			"count":20,
			"normalized":true,
			"type":"VEC4"
		}
	],
	"bufferViews":[
		{
			"buffer":0,
			"byteLength":11952,
			"byteOffset":0,
			"target":34962
		},
		{
			"buffer":0,
			"byteLength":11952,
			"byteOffset":11952,
			"target":34962
		},
		{
			"buffer":0,
			"byteLength":7968,
			"byteOffset":23904,
			"target":34962
		},
		{
			"buffer":0,
			"byteLength":3984,
			"byteOffset":31872,
			"target":34962
		},
		{
			"buffer":0,
			"byteLength":7968,
			"byteOffset":35856,
			"target":34962
		},
		{
			"buffer":0,
			"byteLength":3012,
			"byteOffset":43824,
			"target":34963
		},
		{
			"buffer":0,
			"byteLength":1920,
			"byteOffset":46836,
			"target":34962
		},
		{
			"buffer":0,
			"byteLength":1920,
			"byteOffset":48756,
			"target":34962
		},
		{
			"buffer":0,
			"byteLength":1280,
			"byteOffset":50676,
			"target":34962
		},
		{
			"buffer":0,
			"byteLength":640,
			"byteOffset":51956,
			"target":34962
		},
		{
			"buffer":0,
			"byteLength":1280,
			"byteOffset":52596,
			"target":34962
		},
		{
			"buffer":0,
			"byteLength":480,
			"byteOffset":53876,
			"target":34963
		},
		{
			"buffer":0,
			"byteLength":240,
			"byteOffset":54356,
			"target":34962
		},
		{
			"buffer":0,
			"byteLength":240,
			"byteOffset":54596,
			"target":34962
		},
		{
			"buffer":0,
			"byteLength":160,
			"byteOffset":54836,
			"target":34962
		},
		{
			"buffer":0,
			"byteLength":80,
			"byteOffset":54996,
			"target":34962
		},
		{
			"buffer":0,
			"byteLength":160,
			"byteOffset":55076,
			"target":34962
		},
		{
			"buffer":0,
			"byteLength":60,
			"byteOffset":55236,
			"target":34963
		},
		{
			"buffer":0,
			"byteLength":240,
			"byteOffset":55296,
			"target":34962
		},
		{
			"buffer":0,
			"byteLength":240,
			"byteOffset":55536,
			"target":34962
		},
		{
			"buffer":0,
			"byteLength":160,
			"byteOffset":55776,
			"target":34962
		},
		{
			"buffer":0,
			"byteLength":80,
			"byteOffset":55936,
			"target":34962
		},
		{
			"buffer":0,
			"byteLength":160,
			"byteOffset":56016,
			"target":34962
		},
		{
			"buffer":0,
			"byteLength":60,
			"byteOffset":56176,
			"target":34963
		},
		{
			"buffer":0,
			"byteLength":240,
			"byteOffset":56236,
			"target":34962
		},
		{
			"buffer":0,
			"byteLength":240,
			"byteOffset":56476,
			"target":34962
		},
		{
			"buffer":0,
			"byteLength":160,
			"byteOffset":56716,
			"target":34962
		},
		{
			"buffer":0,
			"byteLength":80,
			"byteOffset":56876,
			"target":34962
		},
		{
			"buffer":0,
			"byteLength":160,
			"byteOffset":56956,
			"target":34962
		},
		{
			"buffer":0,
			"byteLength":60,
			"byteOffset":57116,
			"target":34963
		},
		{
			"buffer":0,
			"byteLength":3900,
			"byteOffset":57176,
			"target":34962
		},
		{
			"buffer":0,
			"byteLength":3900,
			"byteOffset":61076,
			"target":34962
		},
		{
			"buffer":0,
			"byteLength":2600,
			"byteOffset":64976,
			"target":34962
		},
		{
			"buffer":0,
			"byteLength":1300,
			"byteOffset":67576,
			"target":34962
		},
		{
			"buffer":0,
			"byteLength":2600,
			"byteOffset":68876,
			"target":34962
		},
		{
			"buffer":0,
			"byteLength":3456,
			"byteOffset":71476,
			"target":34963
		},
		{
			"buffer":0,
			"byteLength":996,
			"byteOffset":74932,
			"target":34962
		},
		{
			"buffer":0,
			"byteLength":996,
			"byteOffset":75928,
			"target":34962
		},
		{
			"buffer":0,
			"byteLength":664,
			"byteOffset":76924,
			"target":34962
		},
		{
			"buffer":0,
			"byteLength":664,
			"byteOffset":77588,
			"target":34962
		},
		{
			"buffer":0,
			"byteLength":480,
			"byteOffset":78252,
			"target":34963
		},
		{
			"buffer":0,
			"byteLength":264,
			"byteOffset":78732,
			"target":34962
		},
		{
			"buffer":0,
			"byteLength":264,
			"byteOffset":78996,
			"target":34962
		},
		{
			"buffer":0,
			"byteLength":176,
			"byteOffset":79260,
			"target":34962
		},
		{
			"buffer":0,
			"byteLength":176,
			"byteOffset":79436,
			"target":34962
		},
		{
			"buffer":0,
			"byteLength":120,
			"byteOffset":79612,
			"target":34963
		},
		{
			"buffer":0,
			"byteLength":240,
			"byteOffset":79732,
			"target":34962
		},
		{
			"buffer":0,
			"byteLength":240,
			"byteOffset":79972,
			"target":34962
		},
		{
			"buffer":0,
			"byteLength":160,
			"byteOffset":80212,
			"target":34962
		},
		{
			"buffer":0,
			"byteLength":160,
			"byteOffset":80372,
			"target":34962
		},
		{
			"buffer":0,
			"byteLength":60,
			"byteOffset":80532,
			"target":34963
		},
		{
			"buffer":0,
			"byteLength":972,
			"byteOffset":80592,
			"target":34962
		},
		{
			"buffer":0,
			"byteLength":972,
			"byteOffset":81564,
			"target":34962
		},
		{
			"buffer":0,
			"byteLength":648,
			"byteOffset":82536,
			"target":34962
		},
		{
			"buffer":0,
			"byteLength":648,
			"byteOffset":83184,
			"target":34962
		},
		{
			"buffer":0,
			"byteLength":576,
			"byteOffset":83832,
			"target":34963
		},
		{
			"buffer":0,
			"byteLength":168,
			"byteOffset":84408,
			"target":34962
		},
		{
			"buffer":0,
			"byteLength":168,
			"byteOffset":84576,
			"target":34962
		},
		{
			"buffer":0,
			"byteLength":112,
			"byteOffset":84744,
			"target":34962
		},
		{
			"buffer":0,
			"byteLength":112,
			"byteOffset":84856,
			"target":34962
		},
		{
			"buffer":0,
			"byteLength":72,
			"byteOffset":84968,
			"target":34963
		},
		{
			"buffer":0,
			"byteLength":144,
			"byteOffset":85040,
			"target":34962
		},
		{
			"buffer":0,
			"byteLength":144,
			"byteOffset":85184,
			"target":34962
		},
		{
			"buffer":0,
			"byteLength":96,
			"byteOffset":85328,
			"target":34962
		},
		{
			"buffer":0,
			"byteLength":96,
			"byteOffset":85424,
			"target":34962
		},
		{
			"buffer":0,
			"byteLength":72,
			"byteOffset":85520,
			"target":34963
		},
		{
			"buffer":0,
			"byteLength":144,
			"byteOffset":85592,
			"target":34962
		},
		{
			"buffer":0,
			"byteLength":144,
			"byteOffset":85736,
			"target":34962
		},
		{
			"buffer":0,
			"byteLength":96,
			"byteOffset":85880,
			"target":34962
		},
		{
			"buffer":0,
			"byteLength":96,
			"byteOffset":85976,
			"target":34962
		},
		{
			"buffer":0,
			"byteLength":168,
			"byteOffset":86072,
			"target":34962
		},
		{
			"buffer":0,
			"byteLength":168,
			"byteOffset":86240,
			"target":34962
		},
		{
			"buffer":0,
			"byteLength":112,
			"byteOffset":86408,
			"target":34962
		},
		{
			"buffer":0,
			"byteLength":112,
			"byteOffset":86520,
			"target":34962
		},
		{
			"buffer":0,
			"byteLength":768,
			"byteOffset":86632,
			"target":34962
		},
		{
			"buffer":0,
			"byteLength":768,
			"byteOffset":87400,
			"target":34962
		},
		{
			"buffer":0,
			"byteLength":512,
			"byteOffset":88168,
			"target":34962
		},
		{
			"buffer":0,
			"byteLength":512,
			"byteOffset":88680,
			"target":34962
		},
		{
			"buffer":0,
			"byteLength":288,
			"byteOffset":89192,
			"target":34963
		},
		{
			"buffer":0,
			"byteLength":12696,
			"byteOffset":89480,
			"target":34962
		},
		{
			"buffer":0,
			"byteLength":12696,
			"byteOffset":102176,
			"target":34962
		},
		{
			"buffer":0,
			"byteLength":8464,
			"byteOffset":114872,
			"target":34962
		},
		{
			"buffer":0,
			"byteLength":8464,
			"byteOffset":123336,
			"target":34962
		},
		{
			"buffer":0,
			"byteLength":8040,
			"byteOffset":131800,
			"target":34963
		},
		{
			"buffer":0,
			"byteLength":300,
			"byteOffset":139840,
			"target":34962
		},
		{
			"buffer":0,
			"byteLength":300,
			"byteOffset":140140,
			"target":34962
		},
		{
			"buffer":0,
			"byteLength":200,
			"byteOffset":140440,
			"target":34962
		},
		{
			"buffer":0,
			"byteLength":200,
			"byteOffset":140640,
			"target":34962
		},
		{
			"buffer":0,
			"byteLength":144,
			"byteOffset":140840,
			"target":34963
		},
		{
			"buffer":0,
			"byteLength":240,
			"byteOffset":140984,
			"target":34962
		},
		{
			"buffer":0,
			"byteLength":240,
			"byteOffset":141224,
			"target":34962
		},
		{
			"buffer":0,
			"byteLength":160,
			"byteOffset":141464,
			"target":34962
		},
		{
			"buffer":0,
			"byteLength":80,
			"byteOffset":141624,
			"target":34962
		},
		{
			"buffer":0,
			"byteLength":160,
			"byteOffset":141704,
			"target":34962
		},
		{
			"buffer":0,
			"byteLength":60,
			"byteOffset":141864,
			"target":34963
		},
		{
			"buffer":0,
			"byteLength":4632,
			"byteOffset":141924,
			"target":34962
		},
		{
			"buffer":0,
			"byteLength":4632,
			"byteOffset":146556,
			"target":34962
		},
		{
			"buffer":0,
			"byteLength":3088,
			"byteOffset":151188,
			"target":34962
		},
		{
			"buffer":0,
			"byteLength":1544,
			"byteOffset":154276,
			"target":34962
		},
		{
			"buffer":0,
			"byteLength":3088,
			"byteOffset":155820,
			"target":34962
		},
		{
			"buffer":0,
			"byteLength":1320,
			"byteOffset":158908,
			"target":34963
		},
		{
			"buffer":0,
			"byteLength":240,
			"byteOffset":160228,
			"target":34962
		},
		{
			"buffer":0,
			"byteLength":240,
			"byteOffset":160468,
			"target":34962
		},
		{
			"buffer":0,
			"byteLength":160,
			"byteOffset":160708,
			"target":34962
		},
		{
			"buffer":0,
			"byteLength":80,
			"byteOffset":160868,
			"target":34962
		},
		{
			"buffer":0,
			"byteLength":160,
			"byteOffset":160948,
			"target":34962
		},
		{
			"buffer":0,
			"byteLength":708,
			"byteOffset":161108,
			"target":34962
		},
		{
			"buffer":0,
			"byteLength":708,
			"byteOffset":161816,
			"target":34962
		},
		{
			"buffer":0,
			"byteLength":472,
			"byteOffset":162524,
			"target":34962
		},
		{
			"buffer":0,
			"byteLength":236,
			"byteOffset":162996,
			"target":34962
		},
		{
			"buffer":0,
			"byteLength":472,
			"byteOffset":163232,
			"target":34962
		},
		{
			"buffer":0,
			"byteLength":204,
			"byteOffset":163704,
			"target":34963
		},
		{
			"buffer":0,
			"byteLength":288,
			"byteOffset":163908,
			"target":34962
		},
		{
			"buffer":0,
			"byteLength":288,
			"byteOffset":164196,
			"target":34962
		},
		{
			"buffer":0,
			"byteLength":192,
			"byteOffset":164484,
			"target":34962
		},
		{
			"buffer":0,
			"byteLength":96,
			"byteOffset":164676,
			"target":34962
		},
		{
			"buffer":0,
			"byteLength":192,
			"byteOffset":164772,
			"target":34962
		},
		{
			"buffer":0,
			"byteLength":72,
			"byteOffset":164964,
			"target":34963
		},
		{
			"buffer":0,
			"byteLength":240,
			"byteOffset":165036,
			"target":34962
		},
		{
			"buffer":0,
			"byteLength":240,
			"byteOffset":165276,
			"target":34962
		},
		{
			"buffer":0,
			"byteLength":160,
			"byteOffset":165516,
			"target":34962
		},
		{
			"buffer":0,
			"byteLength":80,
			"byteOffset":165676,
			"target":34962
		},
		{
			"buffer":0,
			"byteLength":160,
			"byteOffset":165756,
			"target":34962
		},
		{
			"buffer":0,
			"byteLength":240,
			"byteOffset":165916,
			"target":34962
		},
		{
			"buffer":0,
			"byteLength":240,
			"byteOffset":166156,
			"target":34962
		},
		{
			"buffer":0,
			"byteLength":160,
			"byteOffset":166396,
			"target":34962
		},
		{
			"buffer":0,
			"byteLength":80,
			"byteOffset":166556,
			"target":34962
		},
		{
			"buffer":0,
			"byteLength":160,
			"byteOffset":166636,
			"target":34962
		},
		{
			"buffer":0,
			"byteLength":240,
			"byteOffset":166796,
			"target":34962
		},
		{
			"buffer":0,
			"byteLength":240,
			"byteOffset":167036,
			"target":34962
		},
		{
			"buffer":0,
			"byteLength":160,
			"byteOffset":167276,
			"target":34962
		},
		{
			"buffer":0,
			"byteLength":80,
			"byteOffset":167436,
			"target":34962
		},
		{
			"buffer":0,
			"byteLength":160,
			"byteOffset":167516,
			"target":34962
		},
		{
			"buffer":0,
			"byteLength":288,
			"byteOffset":167676,
			"target":34962
		},
		{
			"buffer":0,
			"byteLength":288,
			"byteOffset":167964,
			"target":34962
		},
		{
			"buffer":0,
			"byteLength":192,
			"byteOffset":168252,
			"target":34962
		},
		{
			"buffer":0,
			"byteLength":96,
			"byteOffset":168444,
			"target":34962
		},
		{
			"buffer":0,
			"byteLength":192,
			"byteOffset":168540,
			"target":34962
		},
		{
			"buffer":0,
			"byteLength":240,
			"byteOffset":168732,
			"target":34962
		},
		{
			"buffer":0,
			"byteLength":240,
			"byteOffset":168972,
			"target":34962
		},
		{
			"buffer":0,
			"byteLength":160,
			"byteOffset":169212,
			"target":34962
		},
		{
			"buffer":0,
			"byteLength":80,
			"byteOffset":169372,
			"target":34962
		},
		{
			"buffer":0,
			"byteLength":160,
			"byteOffset":169452,
			"target":34962
		},
		{
			"buffer":0,
			"byteLength":240,
			"byteOffset":169612,
			"target":34962
		},
		{
			"buffer":0,
			"byteLength":240,
			"byteOffset":169852,
			"target":34962
		},
		{
			"buffer":0,
			"byteLength":160,
			"byteOffset":170092,
			"target":34962
		},
		{
			"buffer":0,
			"byteLength":80,
			"byteOffset":170252,
			"target":34962
		},
		{
			"buffer":0,
			"byteLength":160,
			"byteOffset":170332,
			"target":34962
		},
		{
			"buffer":0,
			"byteLength":240,
			"byteOffset":170492,
			"target":34962
		},
		{
			"buffer":0,
			"byteLength":240,
			"byteOffset":170732,
			"target":34962
		},
		{
			"buffer":0,
			"byteLength":160,
			"byteOffset":170972,
			"target":34962
		},
		{
			"buffer":0,
			"byteLength":80,
			"byteOffset":171132,
			"target":34962
		},
		{
			"buffer":0,
			"byteLength":160,
			"byteOffset":171212,
			"target":34962
		},
		{
			"buffer":0,
			"byteLength":240,
			"byteOffset":171372,
			"target":34962
		},
		{
			"buffer":0,
			"byteLength":240,
			"byteOffset":171612,
			"target":34962
		},
		{
			"buffer":0,
			"byteLength":160,
			"byteOffset":171852,
			"target":34962
		},
		{
			"buffer":0,
			"byteLength":80,
			"byteOffset":172012,
			"target":34962
		},
		{
			"buffer":0,
			"byteLength":160,
			"byteOffset":172092,
			"target":34962
		},
		{
			"buffer":0,
			"byteLength":288,
			"byteOffset":172252,
			"target":34962
		},
		{
			"buffer":0,
			"byteLength":288,
			"byteOffset":172540,
			"target":34962
		},
		{
			"buffer":0,
			"byteLength":192,
			"byteOffset":172828,
			"target":34962
		},
		{
			"buffer":0,
			"byteLength":96,
			"byteOffset":173020,
			"target":34962
		},
		{
			"buffer":0,
			"byteLength":192,
			"byteOffset":173116,
			"target":34962
		},
		{
			"buffer":0,
			"byteLength":288,
			"byteOffset":173308,
			"target":34962
		},
		{
			"buffer":0,
			"byteLength":288,
			"byteOffset":173596,
			"target":34962
		},
		{
			"buffer":0,
			"byteLength":192,
			"byteOffset":173884,
			"target":34962
		},
		{
			"buffer":0,
			"byteLength":96,
			"byteOffset":174076,
			"target":34962
		},
		{
			"buffer":0,
			"byteLength":192,
			"byteOffset":174172,
			"target":34962
		},
		{
			"buffer":0,
			"byteLength":72,
			"byteOffset":174364,
			"target":34963
		},
		{
			"buffer":0,
			"byteLength":240,
			"byteOffset":174436,
			"target":34962
		},
		{
			"buffer":0,
			"byteLength":240,
			"byteOffset":174676,
			"target":34962
		},
		{
			"buffer":0,
			"byteLength":160,
			"byteOffset":174916,
			"target":34962
		},
		{
			"buffer":0,
			"byteLength":80,
			"byteOffset":175076,
			"target":34962
		},
		{
			"buffer":0,
			"byteLength":160,
			"byteOffset":175156,
			"target":34962
		},
		{
			"buffer":0,
			"byteLength":240,
			"byteOffset":175316,
			"target":34962
		},
		{
			"buffer":0,
			"byteLength":240,
			"byteOffset":175556,
			"target":34962
		},
		{
			"buffer":0,
			"byteLength":160,
			"byteOffset":175796,
			"target":34962
		},
		{
			"buffer":0,
			"byteLength":80,
			"byteOffset":175956,
			"target":34962
		},
		{
			"buffer":0,
			"byteLength":160,
			"byteOffset":176036,
			"target":34962
		},
		{
			"buffer":0,
			"byteLength":240,
			"byteOffset":176196,
			"target":34962
		},
		{
			"buffer":0,
			"byteLength":240,
			"byteOffset":176436,
			"target":34962
		},
		{
			"buffer":0,
			"byteLength":160,
			"byteOffset":176676,
			"target":34962
		},
		{
			"buffer":0,
			"byteLength":80,
			"byteOffset":176836,
			"target":34962
		},
		{
			"buffer":0,
			"byteLength":160,
			"byteOffset":176916,
			"target":34962
		},
		{
			"buffer":0,
			"byteLength":240,
			"byteOffset":177076,
			"target":34962
		},
		{
			"buffer":0,
			"byteLength":240,
			"byteOffset":177316,
			"target":34962
		},
		{
			"buffer":0,
			"byteLength":160,
			"byteOffset":177556,
			"target":34962
		},
		{
			"buffer":0,
			"byteLength":80,
			"byteOffset":177716,
			"target":34962
		},
		{
			"buffer":0,
			"byteLength":160,
			"byteOffset":177796,
			"target":34962
		}
	],
	"samplers":[
		{
			"magFilter":9729,
			"minFilter":9987
		},
		{
			"magFilter":9728,
			"minFilter":9984
		}
	],
	"buffers":[
		{
			"byteLength":177956,
			"uri":"playtest-new.bin"
		}
	]
}
