{
	"asset":{
		"generator":"Khronos glTF Blender I/O v4.4.56",
		"version":"2.0"
	},
	"extensionsUsed":[
		"KHR_materials_specular"
	],
	"scene":0,
	"scenes":[
		{
			"name":"Scene",
			"nodes":[
				26,
				25
			]
		}
	],
	"nodes":[
		{
			"name":"Jaw",
			"rotation":[
				-0.20740634202957153,
				3.4985126262654376e-07,
				-1.0549177176244484e-07,
				0.9782548546791077
			],
			"scale":[
				1,
				1,
				0.9999999403953552
			],
			"translation":[
				-2.460582670948952e-08,
				0.414187490940094,
				0.16295701265335083
			]
		},
		{
			"name":"Ear.L",
			"rotation":[
				-0.42684680223464966,
				0.020313454791903496,
				-0.6279151439666748,
				0.6504704356193542
			],
			"translation":[
				0.17851735651493073,
				0.1865437626838684,
				-0.0722554624080658
			]
		},
		{
			"name":"Ear.R",
			"rotation":[
				-0.42684683203697205,
				-0.020313527435064316,
				0.62791508436203,
				0.650470495223999
			],
			"scale":[
				1,
				1,
				0.9999999403953552
			],
			"translation":[
				-0.17851735651493073,
				0.18654382228851318,
				-0.07225558161735535
			]
		},
		{
			"children":[
				0,
				1,
				2
			],
			"name":"Head",
			"rotation":[
				0.20136071741580963,
				1.1787767044749414e-14,
				3.040462104308972e-08,
				0.9795171618461609
			],
			"scale":[
				1,
				0.9999999403953552,
				1
			],
			"translation":[
				2.6650578784288316e-15,
				0.5648381114006042,
				1.4901161193847656e-08
			]
		},
		{
			"name":"front_toe.L",
			"rotation":[
				0.18504677712917328,
				0.8684775233268738,
				-0.4469774663448334,
				0.10823895782232285
			],
			"scale":[
				0.9999999403953552,
				1.0000001192092896,
				0.9999999403953552
			],
			"translation":[
				-4.6566128730773926e-09,
				0.14754141867160797,
				1.30385160446167e-08
			]
		},
		{
			"children":[
				4
			],
			"name":"front_foot.L",
			"rotation":[
				-0.006675880402326584,
				0.030010057613253593,
				-0.03378092497587204,
				0.9989563226699829
			],
			"scale":[
				1,
				0.9999999403953552,
				0.9999999403953552
			],
			"translation":[
				-2.1420419216156006e-08,
				0.3680044412612915,
				1.862645149230957e-08
			]
		},
		{
			"children":[
				5
			],
			"name":"front_shin.L",
			"rotation":[
				-0.31108564138412476,
				-0.04656447097659111,
				-0.25717681646347046,
				0.9137382507324219
			],
			"scale":[
				1,
				1.0000001192092896,
				0.9999999403953552
			],
			"translation":[
				0,
				0.38979294896125793,
				7.450580596923828e-09
			]
		},
		{
			"children":[
				6
			],
			"name":"front_thigh.L",
			"rotation":[
				0.6009975075721741,
				0.08845923840999603,
				0.1970583200454712,
				0.7695096135139465
			],
			"scale":[
				0.9999998807907104,
				1,
				0.9999999403953552
			],
			"translation":[
				-0.0010145902633666992,
				0.258831262588501,
				0.05001504719257355
			]
		},
		{
			"children":[
				7
			],
			"name":"shoulder.L",
			"rotation":[
				0.2651105225086212,
				-0.01179565116763115,
				0.07798925042152405,
				0.9609864354133606
			],
			"scale":[
				0.9999999403953552,
				1,
				1
			],
			"translation":[
				-0.1506561040878296,
				0.25690358877182007,
				0.028034470975399017
			]
		},
		{
			"name":"front_toe.R",
			"rotation":[
				0.1850467026233673,
				-0.868477463722229,
				0.44697752594947815,
				0.10823915898799896
			],
			"scale":[
				1.0000001192092896,
				1.0000001192092896,
				1
			],
			"translation":[
				1.1175870895385742e-08,
				0.14754143357276917,
				-3.725290298461914e-09
			]
		},
		{
			"children":[
				9
			],
			"name":"front_foot.R",
			"rotation":[
				-0.006675883196294308,
				-0.030010081827640533,
				0.03378096967935562,
				0.9989563226699829
			],
			"scale":[
				0.9999999403953552,
				0.9999999403953552,
				0.9999999403953552
			],
			"translation":[
				1.862645149230957e-08,
				0.3680044710636139,
				-7.450580596923828e-09
			]
		},
		{
			"children":[
				10
			],
			"name":"front_shin.R",
			"rotation":[
				-0.3110855519771576,
				0.04656457528471947,
				0.25717681646347046,
				0.9137383103370667
			],
			"scale":[
				1.0000001192092896,
				1,
				1
			],
			"translation":[
				2.2351741790771484e-08,
				0.38979285955429077,
				0
			]
		},
		{
			"children":[
				11
			],
			"name":"front_thigh.R",
			"rotation":[
				0.6009974479675293,
				-0.08845936506986618,
				-0.1970583200454712,
				0.7695096135139465
			],
			"scale":[
				1,
				1.0000001192092896,
				1
			],
			"translation":[
				0.0010145865380764008,
				0.258831262588501,
				0.05001501739025116
			]
		},
		{
			"children":[
				12
			],
			"name":"shoulder.R",
			"rotation":[
				0.2651105225086212,
				0.011795519851148129,
				-0.07798928022384644,
				0.9609864354133606
			],
			"scale":[
				1,
				1.0000001192092896,
				1
			],
			"translation":[
				0.1506560742855072,
				0.2569035589694977,
				0.0280345156788826
			]
		},
		{
			"children":[
				3,
				8,
				13
			],
			"name":"Spine.001",
			"rotation":[
				0.08215866982936859,
				-6.294038827316583e-15,
				1.2405622307198882e-08,
				0.9966192841529846
			],
			"translation":[
				6.22192455976972e-15,
				0.5108553171157837,
				-1.3504177331924438e-08
			]
		},
		{
			"children":[
				14
			],
			"name":"Spine",
			"rotation":[
				0.1946524977684021,
				-2.1287016593873886e-09,
				-2.1204741074143385e-08,
				0.9808722734451294
			],
			"scale":[
				1,
				1.0000001192092896,
				1
			],
			"translation":[
				7.105427357601002e-15,
				0.5955342054367065,
				-8.940696716308594e-08
			]
		},
		{
			"name":"toe.L",
			"rotation":[
				0.08417634665966034,
				0.8122448325157166,
				-0.5740863084793091,
				0.059979770332574844
			],
			"scale":[
				0.9999999403953552,
				1.0000001192092896,
				1
			],
			"translation":[
				1.932494342327118e-08,
				0.26287251710891724,
				-2.2351741790771484e-08
			]
		},
		{
			"children":[
				16
			],
			"name":"foot.L",
			"rotation":[
				-0.36706921458244324,
				0.07357504218816757,
				-0.008503873832523823,
				0.9272403120994568
			],
			"scale":[
				0.9999998807907104,
				0.9999999403953552,
				1
			],
			"translation":[
				4.377216100692749e-08,
				0.3156633973121643,
				1.3969838619232178e-08
			]
		},
		{
			"children":[
				17
			],
			"name":"shin.L",
			"rotation":[
				0.5270714163780212,
				-0.026145601645112038,
				-0.17659078538417816,
				0.8308597207069397
			],
			"scale":[
				1,
				1,
				0.9999999403953552
			],
			"translation":[
				1.4901161193847656e-08,
				0.43507707118988037,
				-4.470348358154297e-08
			]
		},
		{
			"children":[
				18
			],
			"name":"thigh.L",
			"rotation":[
				0.6448392868041992,
				-0.12823408842086792,
				0.06804497539997101,
				0.7504053711891174
			],
			"scale":[
				1,
				0.9999999403953552,
				1
			],
			"translation":[
				-0.19113966822624207,
				0.06339751929044724,
				0.13786020874977112
			]
		},
		{
			"name":"toe.R",
			"rotation":[
				0.0841764360666275,
				-0.8122448325157166,
				0.5740863680839539,
				0.059979647397994995
			],
			"scale":[
				1,
				0.9999997019767761,
				0.9999999403953552
			],
			"translation":[
				-2.1653249859809875e-08,
				0.2628723978996277,
				4.7497451305389404e-08
			]
		},
		{
			"children":[
				20
			],
			"name":"foot.R",
			"rotation":[
				-0.3670691251754761,
				-0.07357502728700638,
				0.00850384496152401,
				0.9272403120994568
			],
			"scale":[
				0.9999998807907104,
				0.9999998807907104,
				0.9999998807907104
			],
			"translation":[
				9.313225746154785e-09,
				0.31566330790519714,
				-3.3527612686157227e-08
			]
		},
		{
			"children":[
				21
			],
			"name":"shin.R",
			"rotation":[
				0.5270712971687317,
				0.02614557556807995,
				0.17659077048301697,
				0.8308597803115845
			],
			"scale":[
				1,
				0.9999999403953552,
				1
			],
			"translation":[
				3.5390257835388184e-08,
				0.43507692217826843,
				-2.9802322387695312e-08
			]
		},
		{
			"children":[
				22
			],
			"name":"thigh.R",
			"rotation":[
				0.6448394060134888,
				0.1282339096069336,
				-0.06804493814706802,
				0.7504053711891174
			],
			"translation":[
				0.19113951921463013,
				0.06339747458696365,
				0.13786032795906067
			]
		},
		{
			"children":[
				15,
				19,
				23
			],
			"name":"Pelvis",
			"rotation":[
				-3.907119605628395e-08,
				-0.9881874918937683,
				-0.15324953198432922,
				7.460609197096346e-08
			],
			"scale":[
				1,
				0.9999998807907104,
				0.9999999403953552
			],
			"translation":[
				-5.960464477539063e-08,
				-0.9911550283432007,
				1.066908597946167
			]
		},
		{
			"children":[
				24
			],
			"name":"Root",
			"rotation":[
				-0.7071067690849304,
				0,
				0,
				0.7071067690849304
			]
		},
		{
			"mesh":0,
			"name":"Bear",
			"skin":0
		}
	],
	"animations":[
		{
			"channels":[
				{
					"sampler":0,
					"target":{
						"node":25,
						"path":"translation"
					}
				},
				{
					"sampler":1,
					"target":{
						"node":25,
						"path":"rotation"
					}
				},
				{
					"sampler":2,
					"target":{
						"node":25,
						"path":"scale"
					}
				},
				{
					"sampler":3,
					"target":{
						"node":24,
						"path":"translation"
					}
				},
				{
					"sampler":4,
					"target":{
						"node":24,
						"path":"rotation"
					}
				},
				{
					"sampler":5,
					"target":{
						"node":24,
						"path":"scale"
					}
				},
				{
					"sampler":6,
					"target":{
						"node":15,
						"path":"translation"
					}
				},
				{
					"sampler":7,
					"target":{
						"node":15,
						"path":"rotation"
					}
				},
				{
					"sampler":8,
					"target":{
						"node":15,
						"path":"scale"
					}
				},
				{
					"sampler":9,
					"target":{
						"node":14,
						"path":"translation"
					}
				},
				{
					"sampler":10,
					"target":{
						"node":14,
						"path":"rotation"
					}
				},
				{
					"sampler":11,
					"target":{
						"node":14,
						"path":"scale"
					}
				},
				{
					"sampler":12,
					"target":{
						"node":3,
						"path":"translation"
					}
				},
				{
					"sampler":13,
					"target":{
						"node":3,
						"path":"rotation"
					}
				},
				{
					"sampler":14,
					"target":{
						"node":3,
						"path":"scale"
					}
				},
				{
					"sampler":15,
					"target":{
						"node":0,
						"path":"translation"
					}
				},
				{
					"sampler":16,
					"target":{
						"node":0,
						"path":"rotation"
					}
				},
				{
					"sampler":17,
					"target":{
						"node":0,
						"path":"scale"
					}
				},
				{
					"sampler":18,
					"target":{
						"node":1,
						"path":"translation"
					}
				},
				{
					"sampler":19,
					"target":{
						"node":1,
						"path":"rotation"
					}
				},
				{
					"sampler":20,
					"target":{
						"node":1,
						"path":"scale"
					}
				},
				{
					"sampler":21,
					"target":{
						"node":2,
						"path":"translation"
					}
				},
				{
					"sampler":22,
					"target":{
						"node":2,
						"path":"rotation"
					}
				},
				{
					"sampler":23,
					"target":{
						"node":2,
						"path":"scale"
					}
				},
				{
					"sampler":24,
					"target":{
						"node":8,
						"path":"translation"
					}
				},
				{
					"sampler":25,
					"target":{
						"node":8,
						"path":"rotation"
					}
				},
				{
					"sampler":26,
					"target":{
						"node":8,
						"path":"scale"
					}
				},
				{
					"sampler":27,
					"target":{
						"node":7,
						"path":"translation"
					}
				},
				{
					"sampler":28,
					"target":{
						"node":7,
						"path":"rotation"
					}
				},
				{
					"sampler":29,
					"target":{
						"node":7,
						"path":"scale"
					}
				},
				{
					"sampler":30,
					"target":{
						"node":6,
						"path":"translation"
					}
				},
				{
					"sampler":31,
					"target":{
						"node":6,
						"path":"rotation"
					}
				},
				{
					"sampler":32,
					"target":{
						"node":6,
						"path":"scale"
					}
				},
				{
					"sampler":33,
					"target":{
						"node":5,
						"path":"translation"
					}
				},
				{
					"sampler":34,
					"target":{
						"node":5,
						"path":"rotation"
					}
				},
				{
					"sampler":35,
					"target":{
						"node":5,
						"path":"scale"
					}
				},
				{
					"sampler":36,
					"target":{
						"node":4,
						"path":"translation"
					}
				},
				{
					"sampler":37,
					"target":{
						"node":4,
						"path":"rotation"
					}
				},
				{
					"sampler":38,
					"target":{
						"node":4,
						"path":"scale"
					}
				},
				{
					"sampler":39,
					"target":{
						"node":13,
						"path":"translation"
					}
				},
				{
					"sampler":40,
					"target":{
						"node":13,
						"path":"rotation"
					}
				},
				{
					"sampler":41,
					"target":{
						"node":13,
						"path":"scale"
					}
				},
				{
					"sampler":42,
					"target":{
						"node":12,
						"path":"translation"
					}
				},
				{
					"sampler":43,
					"target":{
						"node":12,
						"path":"rotation"
					}
				},
				{
					"sampler":44,
					"target":{
						"node":12,
						"path":"scale"
					}
				},
				{
					"sampler":45,
					"target":{
						"node":11,
						"path":"translation"
					}
				},
				{
					"sampler":46,
					"target":{
						"node":11,
						"path":"rotation"
					}
				},
				{
					"sampler":47,
					"target":{
						"node":11,
						"path":"scale"
					}
				},
				{
					"sampler":48,
					"target":{
						"node":10,
						"path":"translation"
					}
				},
				{
					"sampler":49,
					"target":{
						"node":10,
						"path":"rotation"
					}
				},
				{
					"sampler":50,
					"target":{
						"node":10,
						"path":"scale"
					}
				},
				{
					"sampler":51,
					"target":{
						"node":9,
						"path":"translation"
					}
				},
				{
					"sampler":52,
					"target":{
						"node":9,
						"path":"rotation"
					}
				},
				{
					"sampler":53,
					"target":{
						"node":9,
						"path":"scale"
					}
				},
				{
					"sampler":54,
					"target":{
						"node":19,
						"path":"translation"
					}
				},
				{
					"sampler":55,
					"target":{
						"node":19,
						"path":"rotation"
					}
				},
				{
					"sampler":56,
					"target":{
						"node":19,
						"path":"scale"
					}
				},
				{
					"sampler":57,
					"target":{
						"node":18,
						"path":"translation"
					}
				},
				{
					"sampler":58,
					"target":{
						"node":18,
						"path":"rotation"
					}
				},
				{
					"sampler":59,
					"target":{
						"node":18,
						"path":"scale"
					}
				},
				{
					"sampler":60,
					"target":{
						"node":17,
						"path":"translation"
					}
				},
				{
					"sampler":61,
					"target":{
						"node":17,
						"path":"rotation"
					}
				},
				{
					"sampler":62,
					"target":{
						"node":17,
						"path":"scale"
					}
				},
				{
					"sampler":63,
					"target":{
						"node":16,
						"path":"translation"
					}
				},
				{
					"sampler":64,
					"target":{
						"node":16,
						"path":"rotation"
					}
				},
				{
					"sampler":65,
					"target":{
						"node":16,
						"path":"scale"
					}
				},
				{
					"sampler":66,
					"target":{
						"node":23,
						"path":"translation"
					}
				},
				{
					"sampler":67,
					"target":{
						"node":23,
						"path":"rotation"
					}
				},
				{
					"sampler":68,
					"target":{
						"node":23,
						"path":"scale"
					}
				},
				{
					"sampler":69,
					"target":{
						"node":22,
						"path":"translation"
					}
				},
				{
					"sampler":70,
					"target":{
						"node":22,
						"path":"rotation"
					}
				},
				{
					"sampler":71,
					"target":{
						"node":22,
						"path":"scale"
					}
				},
				{
					"sampler":72,
					"target":{
						"node":21,
						"path":"translation"
					}
				},
				{
					"sampler":73,
					"target":{
						"node":21,
						"path":"rotation"
					}
				},
				{
					"sampler":74,
					"target":{
						"node":21,
						"path":"scale"
					}
				},
				{
					"sampler":75,
					"target":{
						"node":20,
						"path":"translation"
					}
				},
				{
					"sampler":76,
					"target":{
						"node":20,
						"path":"rotation"
					}
				},
				{
					"sampler":77,
					"target":{
						"node":20,
						"path":"scale"
					}
				},
				{
					"sampler":78,
					"target":{
						"path":"translation"
					}
				},
				{
					"sampler":79,
					"target":{
						"path":"rotation"
					}
				},
				{
					"sampler":80,
					"target":{
						"path":"scale"
					}
				}
			],
			"name":"Idle",
			"samplers":[
				{
					"input":13,
					"interpolation":"STEP",
					"output":14
				},
				{
					"input":13,
					"interpolation":"STEP",
					"output":15
				},
				{
					"input":13,
					"interpolation":"STEP",
					"output":16
				},
				{
					"input":13,
					"interpolation":"STEP",
					"output":17
				},
				{
					"input":13,
					"interpolation":"STEP",
					"output":18
				},
				{
					"input":13,
					"interpolation":"STEP",
					"output":19
				},
				{
					"input":13,
					"interpolation":"STEP",
					"output":20
				},
				{
					"input":13,
					"interpolation":"STEP",
					"output":21
				},
				{
					"input":13,
					"interpolation":"STEP",
					"output":22
				},
				{
					"input":13,
					"interpolation":"STEP",
					"output":23
				},
				{
					"input":13,
					"interpolation":"STEP",
					"output":24
				},
				{
					"input":13,
					"interpolation":"STEP",
					"output":25
				},
				{
					"input":13,
					"interpolation":"STEP",
					"output":26
				},
				{
					"input":27,
					"interpolation":"LINEAR",
					"output":28
				},
				{
					"input":13,
					"interpolation":"LINEAR",
					"output":29
				},
				{
					"input":27,
					"interpolation":"LINEAR",
					"output":30
				},
				{
					"input":27,
					"interpolation":"LINEAR",
					"output":31
				},
				{
					"input":13,
					"interpolation":"STEP",
					"output":32
				},
				{
					"input":13,
					"interpolation":"LINEAR",
					"output":33
				},
				{
					"input":13,
					"interpolation":"LINEAR",
					"output":34
				},
				{
					"input":13,
					"interpolation":"STEP",
					"output":35
				},
				{
					"input":13,
					"interpolation":"LINEAR",
					"output":36
				},
				{
					"input":13,
					"interpolation":"LINEAR",
					"output":37
				},
				{
					"input":13,
					"interpolation":"LINEAR",
					"output":38
				},
				{
					"input":13,
					"interpolation":"STEP",
					"output":39
				},
				{
					"input":13,
					"interpolation":"STEP",
					"output":40
				},
				{
					"input":13,
					"interpolation":"STEP",
					"output":41
				},
				{
					"input":13,
					"interpolation":"STEP",
					"output":42
				},
				{
					"input":13,
					"interpolation":"STEP",
					"output":43
				},
				{
					"input":13,
					"interpolation":"STEP",
					"output":44
				},
				{
					"input":13,
					"interpolation":"STEP",
					"output":45
				},
				{
					"input":13,
					"interpolation":"STEP",
					"output":46
				},
				{
					"input":13,
					"interpolation":"STEP",
					"output":47
				},
				{
					"input":13,
					"interpolation":"STEP",
					"output":48
				},
				{
					"input":13,
					"interpolation":"STEP",
					"output":49
				},
				{
					"input":13,
					"interpolation":"STEP",
					"output":50
				},
				{
					"input":13,
					"interpolation":"STEP",
					"output":51
				},
				{
					"input":13,
					"interpolation":"STEP",
					"output":52
				},
				{
					"input":13,
					"interpolation":"STEP",
					"output":53
				},
				{
					"input":13,
					"interpolation":"STEP",
					"output":54
				},
				{
					"input":13,
					"interpolation":"STEP",
					"output":55
				},
				{
					"input":13,
					"interpolation":"STEP",
					"output":56
				},
				{
					"input":13,
					"interpolation":"STEP",
					"output":57
				},
				{
					"input":13,
					"interpolation":"STEP",
					"output":58
				},
				{
					"input":13,
					"interpolation":"STEP",
					"output":59
				},
				{
					"input":13,
					"interpolation":"STEP",
					"output":60
				},
				{
					"input":13,
					"interpolation":"STEP",
					"output":61
				},
				{
					"input":13,
					"interpolation":"STEP",
					"output":62
				},
				{
					"input":13,
					"interpolation":"STEP",
					"output":63
				},
				{
					"input":13,
					"interpolation":"STEP",
					"output":64
				},
				{
					"input":13,
					"interpolation":"STEP",
					"output":65
				},
				{
					"input":13,
					"interpolation":"STEP",
					"output":66
				},
				{
					"input":13,
					"interpolation":"STEP",
					"output":67
				},
				{
					"input":13,
					"interpolation":"STEP",
					"output":68
				},
				{
					"input":13,
					"interpolation":"STEP",
					"output":69
				},
				{
					"input":13,
					"interpolation":"STEP",
					"output":70
				},
				{
					"input":13,
					"interpolation":"STEP",
					"output":71
				},
				{
					"input":13,
					"interpolation":"STEP",
					"output":72
				},
				{
					"input":13,
					"interpolation":"STEP",
					"output":73
				},
				{
					"input":13,
					"interpolation":"STEP",
					"output":74
				},
				{
					"input":13,
					"interpolation":"STEP",
					"output":75
				},
				{
					"input":13,
					"interpolation":"STEP",
					"output":76
				},
				{
					"input":13,
					"interpolation":"STEP",
					"output":77
				},
				{
					"input":13,
					"interpolation":"STEP",
					"output":78
				},
				{
					"input":13,
					"interpolation":"STEP",
					"output":79
				},
				{
					"input":13,
					"interpolation":"STEP",
					"output":80
				},
				{
					"input":13,
					"interpolation":"STEP",
					"output":81
				},
				{
					"input":13,
					"interpolation":"STEP",
					"output":82
				},
				{
					"input":13,
					"interpolation":"STEP",
					"output":83
				},
				{
					"input":13,
					"interpolation":"STEP",
					"output":84
				},
				{
					"input":13,
					"interpolation":"STEP",
					"output":85
				},
				{
					"input":13,
					"interpolation":"STEP",
					"output":86
				},
				{
					"input":13,
					"interpolation":"STEP",
					"output":87
				},
				{
					"input":13,
					"interpolation":"STEP",
					"output":88
				},
				{
					"input":13,
					"interpolation":"STEP",
					"output":89
				},
				{
					"input":13,
					"interpolation":"STEP",
					"output":90
				},
				{
					"input":13,
					"interpolation":"STEP",
					"output":91
				},
				{
					"input":13,
					"interpolation":"STEP",
					"output":92
				},
				{
					"input":13,
					"interpolation":"STEP",
					"output":93
				},
				{
					"input":13,
					"interpolation":"STEP",
					"output":94
				},
				{
					"input":13,
					"interpolation":"STEP",
					"output":95
				}
			]
		},
		{
			"channels":[
				{
					"sampler":0,
					"target":{
						"node":25,
						"path":"translation"
					}
				},
				{
					"sampler":1,
					"target":{
						"node":25,
						"path":"rotation"
					}
				},
				{
					"sampler":2,
					"target":{
						"node":25,
						"path":"scale"
					}
				},
				{
					"sampler":3,
					"target":{
						"node":24,
						"path":"translation"
					}
				},
				{
					"sampler":4,
					"target":{
						"node":24,
						"path":"rotation"
					}
				},
				{
					"sampler":5,
					"target":{
						"node":24,
						"path":"scale"
					}
				},
				{
					"sampler":6,
					"target":{
						"node":15,
						"path":"translation"
					}
				},
				{
					"sampler":7,
					"target":{
						"node":15,
						"path":"rotation"
					}
				},
				{
					"sampler":8,
					"target":{
						"node":15,
						"path":"scale"
					}
				},
				{
					"sampler":9,
					"target":{
						"node":14,
						"path":"translation"
					}
				},
				{
					"sampler":10,
					"target":{
						"node":14,
						"path":"rotation"
					}
				},
				{
					"sampler":11,
					"target":{
						"node":14,
						"path":"scale"
					}
				},
				{
					"sampler":12,
					"target":{
						"node":3,
						"path":"translation"
					}
				},
				{
					"sampler":13,
					"target":{
						"node":3,
						"path":"rotation"
					}
				},
				{
					"sampler":14,
					"target":{
						"node":3,
						"path":"scale"
					}
				},
				{
					"sampler":15,
					"target":{
						"node":0,
						"path":"translation"
					}
				},
				{
					"sampler":16,
					"target":{
						"node":0,
						"path":"rotation"
					}
				},
				{
					"sampler":17,
					"target":{
						"node":0,
						"path":"scale"
					}
				},
				{
					"sampler":18,
					"target":{
						"node":1,
						"path":"translation"
					}
				},
				{
					"sampler":19,
					"target":{
						"node":1,
						"path":"rotation"
					}
				},
				{
					"sampler":20,
					"target":{
						"node":1,
						"path":"scale"
					}
				},
				{
					"sampler":21,
					"target":{
						"node":2,
						"path":"translation"
					}
				},
				{
					"sampler":22,
					"target":{
						"node":2,
						"path":"rotation"
					}
				},
				{
					"sampler":23,
					"target":{
						"node":2,
						"path":"scale"
					}
				},
				{
					"sampler":24,
					"target":{
						"node":8,
						"path":"translation"
					}
				},
				{
					"sampler":25,
					"target":{
						"node":8,
						"path":"rotation"
					}
				},
				{
					"sampler":26,
					"target":{
						"node":8,
						"path":"scale"
					}
				},
				{
					"sampler":27,
					"target":{
						"node":7,
						"path":"translation"
					}
				},
				{
					"sampler":28,
					"target":{
						"node":7,
						"path":"rotation"
					}
				},
				{
					"sampler":29,
					"target":{
						"node":7,
						"path":"scale"
					}
				},
				{
					"sampler":30,
					"target":{
						"node":6,
						"path":"translation"
					}
				},
				{
					"sampler":31,
					"target":{
						"node":6,
						"path":"rotation"
					}
				},
				{
					"sampler":32,
					"target":{
						"node":6,
						"path":"scale"
					}
				},
				{
					"sampler":33,
					"target":{
						"node":5,
						"path":"translation"
					}
				},
				{
					"sampler":34,
					"target":{
						"node":5,
						"path":"rotation"
					}
				},
				{
					"sampler":35,
					"target":{
						"node":5,
						"path":"scale"
					}
				},
				{
					"sampler":36,
					"target":{
						"node":4,
						"path":"translation"
					}
				},
				{
					"sampler":37,
					"target":{
						"node":4,
						"path":"rotation"
					}
				},
				{
					"sampler":38,
					"target":{
						"node":4,
						"path":"scale"
					}
				},
				{
					"sampler":39,
					"target":{
						"node":13,
						"path":"translation"
					}
				},
				{
					"sampler":40,
					"target":{
						"node":13,
						"path":"rotation"
					}
				},
				{
					"sampler":41,
					"target":{
						"node":13,
						"path":"scale"
					}
				},
				{
					"sampler":42,
					"target":{
						"node":12,
						"path":"translation"
					}
				},
				{
					"sampler":43,
					"target":{
						"node":12,
						"path":"rotation"
					}
				},
				{
					"sampler":44,
					"target":{
						"node":12,
						"path":"scale"
					}
				},
				{
					"sampler":45,
					"target":{
						"node":11,
						"path":"translation"
					}
				},
				{
					"sampler":46,
					"target":{
						"node":11,
						"path":"rotation"
					}
				},
				{
					"sampler":47,
					"target":{
						"node":11,
						"path":"scale"
					}
				},
				{
					"sampler":48,
					"target":{
						"node":10,
						"path":"translation"
					}
				},
				{
					"sampler":49,
					"target":{
						"node":10,
						"path":"rotation"
					}
				},
				{
					"sampler":50,
					"target":{
						"node":10,
						"path":"scale"
					}
				},
				{
					"sampler":51,
					"target":{
						"node":9,
						"path":"translation"
					}
				},
				{
					"sampler":52,
					"target":{
						"node":9,
						"path":"rotation"
					}
				},
				{
					"sampler":53,
					"target":{
						"node":9,
						"path":"scale"
					}
				},
				{
					"sampler":54,
					"target":{
						"node":19,
						"path":"translation"
					}
				},
				{
					"sampler":55,
					"target":{
						"node":19,
						"path":"rotation"
					}
				},
				{
					"sampler":56,
					"target":{
						"node":19,
						"path":"scale"
					}
				},
				{
					"sampler":57,
					"target":{
						"node":18,
						"path":"translation"
					}
				},
				{
					"sampler":58,
					"target":{
						"node":18,
						"path":"rotation"
					}
				},
				{
					"sampler":59,
					"target":{
						"node":18,
						"path":"scale"
					}
				},
				{
					"sampler":60,
					"target":{
						"node":17,
						"path":"translation"
					}
				},
				{
					"sampler":61,
					"target":{
						"node":17,
						"path":"rotation"
					}
				},
				{
					"sampler":62,
					"target":{
						"node":17,
						"path":"scale"
					}
				},
				{
					"sampler":63,
					"target":{
						"node":16,
						"path":"translation"
					}
				},
				{
					"sampler":64,
					"target":{
						"node":16,
						"path":"rotation"
					}
				},
				{
					"sampler":65,
					"target":{
						"node":16,
						"path":"scale"
					}
				},
				{
					"sampler":66,
					"target":{
						"node":23,
						"path":"translation"
					}
				},
				{
					"sampler":67,
					"target":{
						"node":23,
						"path":"rotation"
					}
				},
				{
					"sampler":68,
					"target":{
						"node":23,
						"path":"scale"
					}
				},
				{
					"sampler":69,
					"target":{
						"node":22,
						"path":"translation"
					}
				},
				{
					"sampler":70,
					"target":{
						"node":22,
						"path":"rotation"
					}
				},
				{
					"sampler":71,
					"target":{
						"node":22,
						"path":"scale"
					}
				},
				{
					"sampler":72,
					"target":{
						"node":21,
						"path":"translation"
					}
				},
				{
					"sampler":73,
					"target":{
						"node":21,
						"path":"rotation"
					}
				},
				{
					"sampler":74,
					"target":{
						"node":21,
						"path":"scale"
					}
				},
				{
					"sampler":75,
					"target":{
						"node":20,
						"path":"translation"
					}
				},
				{
					"sampler":76,
					"target":{
						"node":20,
						"path":"rotation"
					}
				},
				{
					"sampler":77,
					"target":{
						"node":20,
						"path":"scale"
					}
				}
			],
			"name":"Move",
			"samplers":[
				{
					"input":96,
					"interpolation":"STEP",
					"output":97
				},
				{
					"input":96,
					"interpolation":"STEP",
					"output":98
				},
				{
					"input":96,
					"interpolation":"STEP",
					"output":99
				},
				{
					"input":100,
					"interpolation":"LINEAR",
					"output":101
				},
				{
					"input":96,
					"interpolation":"STEP",
					"output":102
				},
				{
					"input":96,
					"interpolation":"STEP",
					"output":103
				},
				{
					"input":96,
					"interpolation":"LINEAR",
					"output":104
				},
				{
					"input":100,
					"interpolation":"LINEAR",
					"output":105
				},
				{
					"input":96,
					"interpolation":"STEP",
					"output":106
				},
				{
					"input":96,
					"interpolation":"LINEAR",
					"output":107
				},
				{
					"input":100,
					"interpolation":"LINEAR",
					"output":108
				},
				{
					"input":96,
					"interpolation":"STEP",
					"output":109
				},
				{
					"input":96,
					"interpolation":"LINEAR",
					"output":110
				},
				{
					"input":100,
					"interpolation":"LINEAR",
					"output":111
				},
				{
					"input":96,
					"interpolation":"STEP",
					"output":112
				},
				{
					"input":96,
					"interpolation":"LINEAR",
					"output":113
				},
				{
					"input":96,
					"interpolation":"LINEAR",
					"output":114
				},
				{
					"input":96,
					"interpolation":"STEP",
					"output":115
				},
				{
					"input":96,
					"interpolation":"LINEAR",
					"output":116
				},
				{
					"input":96,
					"interpolation":"LINEAR",
					"output":117
				},
				{
					"input":96,
					"interpolation":"STEP",
					"output":118
				},
				{
					"input":96,
					"interpolation":"LINEAR",
					"output":119
				},
				{
					"input":96,
					"interpolation":"LINEAR",
					"output":120
				},
				{
					"input":96,
					"interpolation":"LINEAR",
					"output":121
				},
				{
					"input":96,
					"interpolation":"LINEAR",
					"output":122
				},
				{
					"input":96,
					"interpolation":"LINEAR",
					"output":123
				},
				{
					"input":96,
					"interpolation":"LINEAR",
					"output":124
				},
				{
					"input":96,
					"interpolation":"LINEAR",
					"output":125
				},
				{
					"input":100,
					"interpolation":"LINEAR",
					"output":126
				},
				{
					"input":96,
					"interpolation":"STEP",
					"output":127
				},
				{
					"input":96,
					"interpolation":"LINEAR",
					"output":128
				},
				{
					"input":100,
					"interpolation":"LINEAR",
					"output":129
				},
				{
					"input":96,
					"interpolation":"STEP",
					"output":130
				},
				{
					"input":96,
					"interpolation":"LINEAR",
					"output":131
				},
				{
					"input":100,
					"interpolation":"LINEAR",
					"output":132
				},
				{
					"input":96,
					"interpolation":"LINEAR",
					"output":133
				},
				{
					"input":96,
					"interpolation":"LINEAR",
					"output":134
				},
				{
					"input":100,
					"interpolation":"LINEAR",
					"output":135
				},
				{
					"input":96,
					"interpolation":"LINEAR",
					"output":136
				},
				{
					"input":96,
					"interpolation":"LINEAR",
					"output":137
				},
				{
					"input":96,
					"interpolation":"LINEAR",
					"output":138
				},
				{
					"input":96,
					"interpolation":"STEP",
					"output":139
				},
				{
					"input":96,
					"interpolation":"LINEAR",
					"output":140
				},
				{
					"input":100,
					"interpolation":"LINEAR",
					"output":141
				},
				{
					"input":96,
					"interpolation":"LINEAR",
					"output":142
				},
				{
					"input":96,
					"interpolation":"LINEAR",
					"output":143
				},
				{
					"input":100,
					"interpolation":"LINEAR",
					"output":144
				},
				{
					"input":96,
					"interpolation":"LINEAR",
					"output":145
				},
				{
					"input":96,
					"interpolation":"LINEAR",
					"output":146
				},
				{
					"input":100,
					"interpolation":"LINEAR",
					"output":147
				},
				{
					"input":96,
					"interpolation":"STEP",
					"output":148
				},
				{
					"input":96,
					"interpolation":"LINEAR",
					"output":149
				},
				{
					"input":96,
					"interpolation":"LINEAR",
					"output":150
				},
				{
					"input":96,
					"interpolation":"LINEAR",
					"output":151
				},
				{
					"input":96,
					"interpolation":"LINEAR",
					"output":152
				},
				{
					"input":100,
					"interpolation":"LINEAR",
					"output":153
				},
				{
					"input":96,
					"interpolation":"STEP",
					"output":154
				},
				{
					"input":96,
					"interpolation":"LINEAR",
					"output":155
				},
				{
					"input":100,
					"interpolation":"LINEAR",
					"output":156
				},
				{
					"input":96,
					"interpolation":"LINEAR",
					"output":157
				},
				{
					"input":96,
					"interpolation":"LINEAR",
					"output":158
				},
				{
					"input":100,
					"interpolation":"LINEAR",
					"output":159
				},
				{
					"input":96,
					"interpolation":"STEP",
					"output":160
				},
				{
					"input":96,
					"interpolation":"LINEAR",
					"output":161
				},
				{
					"input":100,
					"interpolation":"LINEAR",
					"output":162
				},
				{
					"input":96,
					"interpolation":"STEP",
					"output":163
				},
				{
					"input":96,
					"interpolation":"LINEAR",
					"output":164
				},
				{
					"input":100,
					"interpolation":"LINEAR",
					"output":165
				},
				{
					"input":96,
					"interpolation":"STEP",
					"output":166
				},
				{
					"input":96,
					"interpolation":"LINEAR",
					"output":167
				},
				{
					"input":100,
					"interpolation":"LINEAR",
					"output":168
				},
				{
					"input":96,
					"interpolation":"STEP",
					"output":169
				},
				{
					"input":96,
					"interpolation":"LINEAR",
					"output":170
				},
				{
					"input":100,
					"interpolation":"LINEAR",
					"output":171
				},
				{
					"input":96,
					"interpolation":"STEP",
					"output":172
				},
				{
					"input":96,
					"interpolation":"LINEAR",
					"output":173
				},
				{
					"input":100,
					"interpolation":"LINEAR",
					"output":174
				},
				{
					"input":96,
					"interpolation":"LINEAR",
					"output":175
				}
			]
		}
	],
	"materials":[
		{
			"doubleSided":true,
			"name":"Material.002",
			"pbrMetallicRoughness":{
				"baseColorTexture":{
					"index":0
				},
				"metallicFactor":0
			}
		},
		{
			"doubleSided":true,
			"extensions":{
				"KHR_materials_specular":{
					"specularFactor":0.4727272093296051
				}
			},
			"name":"Material.001",
			"pbrMetallicRoughness":{
				"baseColorFactor":[
					0.017513858154416084,
					0.01170407421886921,
					0.009083898738026619,
					1
				],
				"metallicFactor":0,
				"roughnessFactor":0.07727271318435669
			}
		}
	],
	"meshes":[
		{
			"name":"Cube.001",
			"primitives":[
				{
					"attributes":{
						"POSITION":0,
						"NORMAL":1,
						"TEXCOORD_0":2,
						"JOINTS_0":3,
						"WEIGHTS_0":4
					},
					"indices":5,
					"material":0
				},
				{
					"attributes":{
						"POSITION":6,
						"NORMAL":7,
						"TEXCOORD_0":8,
						"JOINTS_0":9,
						"WEIGHTS_0":10
					},
					"indices":11,
					"material":1
				}
			]
		}
	],
	"textures":[
		{
			"sampler":0,
			"source":0
		}
	],
	"images":[
		{
			"mimeType":"image/png",
			"name":"CHR_BLACKBEAR_FUR",
			"uri":"textures/CHR_BLACKBEAR_FUR.png"
		}
	],
	"skins":[
		{
			"inverseBindMatrices":12,
			"joints":[
				25,
				24,
				15,
				14,
				3,
				0,
				1,
				2,
				8,
				7,
				6,
				5,
				4,
				13,
				12,
				11,
				10,
				9,
				19,
				18,
				17,
				16,
				23,
				22,
				21,
				20
			],
			"name":"BearRig"
		}
	],
	"accessors":[
		{
			"bufferView":0,
			"componentType":5126,
			"count":1512,
			"max":[
				0.4388560652732849,
				1.3360435962677002,
				1.1532059907913208
			],
			"min":[
				-0.4388560652732849,
				0.013116592541337013,
				-1.1445726156234741
			],
			"type":"VEC3"
		},
		{
			"bufferView":1,
			"componentType":5126,
			"count":1512,
			"type":"VEC3"
		},
		{
			"bufferView":2,
			"componentType":5126,
			"count":1512,
			"type":"VEC2"
		},
		{
			"bufferView":3,
			"componentType":5121,
			"count":1512,
			"type":"VEC4"
		},
		{
			"bufferView":4,
			"componentType":5126,
			"count":1512,
			"type":"VEC4"
		},
		{
			"bufferView":5,
			"componentType":5123,
			"count":3816,
			"type":"SCALAR"
		},
		{
			"bufferView":6,
			"componentType":5126,
			"count":33,
			"max":[
				0.11390835791826248,
				0.8753818273544312,
				-0.9919473528862
			],
			"min":[
				-0.11390835791826248,
				0.8485480546951294,
				-1.0120147466659546
			],
			"type":"VEC3"
		},
		{
			"bufferView":7,
			"componentType":5126,
			"count":33,
			"type":"VEC3"
		},
		{
			"bufferView":8,
			"componentType":5126,
			"count":33,
			"type":"VEC2"
		},
		{
			"bufferView":9,
			"componentType":5121,
			"count":33,
			"type":"VEC4"
		},
		{
			"bufferView":10,
			"componentType":5126,
			"count":33,
			"type":"VEC4"
		},
		{
			"bufferView":11,
			"componentType":5123,
			"count":48,
			"type":"SCALAR"
		},
		{
			"bufferView":12,
			"componentType":5126,
			"count":26,
			"type":"MAT4"
		},
		{
			"bufferView":13,
			"componentType":5126,
			"count":2,
			"max":[
				10.666666666666666
			],
			"min":[
				0
			],
			"type":"SCALAR"
		},
		{
			"bufferView":14,
			"componentType":5126,
			"count":2,
			"type":"VEC3"
		},
		{
			"bufferView":15,
			"componentType":5126,
			"count":2,
			"type":"VEC4"
		},
		{
			"bufferView":16,
			"componentType":5126,
			"count":2,
			"type":"VEC3"
		},
		{
			"bufferView":17,
			"componentType":5126,
			"count":2,
			"type":"VEC3"
		},
		{
			"bufferView":18,
			"componentType":5126,
			"count":2,
			"type":"VEC4"
		},
		{
			"bufferView":19,
			"componentType":5126,
			"count":2,
			"type":"VEC3"
		},
		{
			"bufferView":20,
			"componentType":5126,
			"count":2,
			"type":"VEC3"
		},
		{
			"bufferView":21,
			"componentType":5126,
			"count":2,
			"type":"VEC4"
		},
		{
			"bufferView":22,
			"componentType":5126,
			"count":2,
			"type":"VEC3"
		},
		{
			"bufferView":23,
			"componentType":5126,
			"count":2,
			"type":"VEC3"
		},
		{
			"bufferView":24,
			"componentType":5126,
			"count":2,
			"type":"VEC4"
		},
		{
			"bufferView":25,
			"componentType":5126,
			"count":2,
			"type":"VEC3"
		},
		{
			"bufferView":26,
			"componentType":5126,
			"count":2,
			"type":"VEC3"
		},
		{
			"bufferView":27,
			"componentType":5126,
			"count":257,
			"max":[
				10.666666666666666
			],
			"min":[
				0
			],
			"type":"SCALAR"
		},
		{
			"bufferView":28,
			"componentType":5126,
			"count":257,
			"type":"VEC4"
		},
		{
			"bufferView":29,
			"componentType":5126,
			"count":2,
			"type":"VEC3"
		},
		{
			"bufferView":30,
			"componentType":5126,
			"count":257,
			"type":"VEC3"
		},
		{
			"bufferView":31,
			"componentType":5126,
			"count":257,
			"type":"VEC4"
		},
		{
			"bufferView":32,
			"componentType":5126,
			"count":2,
			"type":"VEC3"
		},
		{
			"bufferView":33,
			"componentType":5126,
			"count":2,
			"type":"VEC3"
		},
		{
			"bufferView":34,
			"componentType":5126,
			"count":2,
			"type":"VEC4"
		},
		{
			"bufferView":35,
			"componentType":5126,
			"count":2,
			"type":"VEC3"
		},
		{
			"bufferView":36,
			"componentType":5126,
			"count":2,
			"type":"VEC3"
		},
		{
			"bufferView":37,
			"componentType":5126,
			"count":2,
			"type":"VEC4"
		},
		{
			"bufferView":38,
			"componentType":5126,
			"count":2,
			"type":"VEC3"
		},
		{
			"bufferView":39,
			"componentType":5126,
			"count":2,
			"type":"VEC3"
		},
		{
			"bufferView":40,
			"componentType":5126,
			"count":2,
			"type":"VEC4"
		},
		{
			"bufferView":41,
			"componentType":5126,
			"count":2,
			"type":"VEC3"
		},
		{
			"bufferView":42,
			"componentType":5126,
			"count":2,
			"type":"VEC3"
		},
		{
			"bufferView":43,
			"componentType":5126,
			"count":2,
			"type":"VEC4"
		},
		{
			"bufferView":44,
			"componentType":5126,
			"count":2,
			"type":"VEC3"
		},
		{
			"bufferView":45,
			"componentType":5126,
			"count":2,
			"type":"VEC3"
		},
		{
			"bufferView":46,
			"componentType":5126,
			"count":2,
			"type":"VEC4"
		},
		{
			"bufferView":47,
			"componentType":5126,
			"count":2,
			"type":"VEC3"
		},
		{
			"bufferView":48,
			"componentType":5126,
			"count":2,
			"type":"VEC3"
		},
		{
			"bufferView":49,
			"componentType":5126,
			"count":2,
			"type":"VEC4"
		},
		{
			"bufferView":50,
			"componentType":5126,
			"count":2,
			"type":"VEC3"
		},
		{
			"bufferView":51,
			"componentType":5126,
			"count":2,
			"type":"VEC3"
		},
		{
			"bufferView":52,
			"componentType":5126,
			"count":2,
			"type":"VEC4"
		},
		{
			"bufferView":53,
			"componentType":5126,
			"count":2,
			"type":"VEC3"
		},
		{
			"bufferView":54,
			"componentType":5126,
			"count":2,
			"type":"VEC3"
		},
		{
			"bufferView":55,
			"componentType":5126,
			"count":2,
			"type":"VEC4"
		},
		{
			"bufferView":56,
			"componentType":5126,
			"count":2,
			"type":"VEC3"
		},
		{
			"bufferView":57,
			"componentType":5126,
			"count":2,
			"type":"VEC3"
		},
		{
			"bufferView":58,
			"componentType":5126,
			"count":2,
			"type":"VEC4"
		},
		{
			"bufferView":59,
			"componentType":5126,
			"count":2,
			"type":"VEC3"
		},
		{
			"bufferView":60,
			"componentType":5126,
			"count":2,
			"type":"VEC3"
		},
		{
			"bufferView":61,
			"componentType":5126,
			"count":2,
			"type":"VEC4"
		},
		{
			"bufferView":62,
			"componentType":5126,
			"count":2,
			"type":"VEC3"
		},
		{
			"bufferView":63,
			"componentType":5126,
			"count":2,
			"type":"VEC3"
		},
		{
			"bufferView":64,
			"componentType":5126,
			"count":2,
			"type":"VEC4"
		},
		{
			"bufferView":65,
			"componentType":5126,
			"count":2,
			"type":"VEC3"
		},
		{
			"bufferView":66,
			"componentType":5126,
			"count":2,
			"type":"VEC3"
		},
		{
			"bufferView":67,
			"componentType":5126,
			"count":2,
			"type":"VEC4"
		},
		{
			"bufferView":68,
			"componentType":5126,
			"count":2,
			"type":"VEC3"
		},
		{
			"bufferView":69,
			"componentType":5126,
			"count":2,
			"type":"VEC3"
		},
		{
			"bufferView":70,
			"componentType":5126,
			"count":2,
			"type":"VEC4"
		},
		{
			"bufferView":71,
			"componentType":5126,
			"count":2,
			"type":"VEC3"
		},
		{
			"bufferView":72,
			"componentType":5126,
			"count":2,
			"type":"VEC3"
		},
		{
			"bufferView":73,
			"componentType":5126,
			"count":2,
			"type":"VEC4"
		},
		{
			"bufferView":74,
			"componentType":5126,
			"count":2,
			"type":"VEC3"
		},
		{
			"bufferView":75,
			"componentType":5126,
			"count":2,
			"type":"VEC3"
		},
		{
			"bufferView":76,
			"componentType":5126,
			"count":2,
			"type":"VEC4"
		},
		{
			"bufferView":77,
			"componentType":5126,
			"count":2,
			"type":"VEC3"
		},
		{
			"bufferView":78,
			"componentType":5126,
			"count":2,
			"type":"VEC3"
		},
		{
			"bufferView":79,
			"componentType":5126,
			"count":2,
			"type":"VEC4"
		},
		{
			"bufferView":80,
			"componentType":5126,
			"count":2,
			"type":"VEC3"
		},
		{
			"bufferView":81,
			"componentType":5126,
			"count":2,
			"type":"VEC3"
		},
		{
			"bufferView":82,
			"componentType":5126,
			"count":2,
			"type":"VEC4"
		},
		{
			"bufferView":83,
			"componentType":5126,
			"count":2,
			"type":"VEC3"
		},
		{
			"bufferView":84,
			"componentType":5126,
			"count":2,
			"type":"VEC3"
		},
		{
			"bufferView":85,
			"componentType":5126,
			"count":2,
			"type":"VEC4"
		},
		{
			"bufferView":86,
			"componentType":5126,
			"count":2,
			"type":"VEC3"
		},
		{
			"bufferView":87,
			"componentType":5126,
			"count":2,
			"type":"VEC3"
		},
		{
			"bufferView":88,
			"componentType":5126,
			"count":2,
			"type":"VEC4"
		},
		{
			"bufferView":89,
			"componentType":5126,
			"count":2,
			"type":"VEC3"
		},
		{
			"bufferView":90,
			"componentType":5126,
			"count":2,
			"type":"VEC3"
		},
		{
			"bufferView":91,
			"componentType":5126,
			"count":2,
			"type":"VEC4"
		},
		{
			"bufferView":92,
			"componentType":5126,
			"count":2,
			"type":"VEC3"
		},
		{
			"bufferView":93,
			"componentType":5126,
			"count":2,
			"type":"VEC3"
		},
		{
			"bufferView":94,
			"componentType":5126,
			"count":2,
			"type":"VEC4"
		},
		{
			"bufferView":95,
			"componentType":5126,
			"count":2,
			"type":"VEC3"
		},
		{
			"bufferView":96,
			"componentType":5126,
			"count":2,
			"max":[
				1
			],
			"min":[
				0
			],
			"type":"SCALAR"
		},
		{
			"bufferView":97,
			"componentType":5126,
			"count":2,
			"type":"VEC3"
		},
		{
			"bufferView":98,
			"componentType":5126,
			"count":2,
			"type":"VEC4"
		},
		{
			"bufferView":99,
			"componentType":5126,
			"count":2,
			"type":"VEC3"
		},
		{
			"bufferView":100,
			"componentType":5126,
			"count":25,
			"max":[
				1
			],
			"min":[
				0
			],
			"type":"SCALAR"
		},
		{
			"bufferView":101,
			"componentType":5126,
			"count":25,
			"type":"VEC3"
		},
		{
			"bufferView":102,
			"componentType":5126,
			"count":2,
			"type":"VEC4"
		},
		{
			"bufferView":103,
			"componentType":5126,
			"count":2,
			"type":"VEC3"
		},
		{
			"bufferView":104,
			"componentType":5126,
			"count":2,
			"type":"VEC3"
		},
		{
			"bufferView":105,
			"componentType":5126,
			"count":25,
			"type":"VEC4"
		},
		{
			"bufferView":106,
			"componentType":5126,
			"count":2,
			"type":"VEC3"
		},
		{
			"bufferView":107,
			"componentType":5126,
			"count":2,
			"type":"VEC3"
		},
		{
			"bufferView":108,
			"componentType":5126,
			"count":25,
			"type":"VEC4"
		},
		{
			"bufferView":109,
			"componentType":5126,
			"count":2,
			"type":"VEC3"
		},
		{
			"bufferView":110,
			"componentType":5126,
			"count":2,
			"type":"VEC3"
		},
		{
			"bufferView":111,
			"componentType":5126,
			"count":25,
			"type":"VEC4"
		},
		{
			"bufferView":112,
			"componentType":5126,
			"count":2,
			"type":"VEC3"
		},
		{
			"bufferView":113,
			"componentType":5126,
			"count":2,
			"type":"VEC3"
		},
		{
			"bufferView":114,
			"componentType":5126,
			"count":2,
			"type":"VEC4"
		},
		{
			"bufferView":115,
			"componentType":5126,
			"count":2,
			"type":"VEC3"
		},
		{
			"bufferView":116,
			"componentType":5126,
			"count":2,
			"type":"VEC3"
		},
		{
			"bufferView":117,
			"componentType":5126,
			"count":2,
			"type":"VEC4"
		},
		{
			"bufferView":118,
			"componentType":5126,
			"count":2,
			"type":"VEC3"
		},
		{
			"bufferView":119,
			"componentType":5126,
			"count":2,
			"type":"VEC3"
		},
		{
			"bufferView":120,
			"componentType":5126,
			"count":2,
			"type":"VEC4"
		},
		{
			"bufferView":121,
			"componentType":5126,
			"count":2,
			"type":"VEC3"
		},
		{
			"bufferView":122,
			"componentType":5126,
			"count":2,
			"type":"VEC3"
		},
		{
			"bufferView":123,
			"componentType":5126,
			"count":2,
			"type":"VEC4"
		},
		{
			"bufferView":124,
			"componentType":5126,
			"count":2,
			"type":"VEC3"
		},
		{
			"bufferView":125,
			"componentType":5126,
			"count":2,
			"type":"VEC3"
		},
		{
			"bufferView":126,
			"componentType":5126,
			"count":25,
			"type":"VEC4"
		},
		{
			"bufferView":127,
			"componentType":5126,
			"count":2,
			"type":"VEC3"
		},
		{
			"bufferView":128,
			"componentType":5126,
			"count":2,
			"type":"VEC3"
		},
		{
			"bufferView":129,
			"componentType":5126,
			"count":25,
			"type":"VEC4"
		},
		{
			"bufferView":130,
			"componentType":5126,
			"count":2,
			"type":"VEC3"
		},
		{
			"bufferView":131,
			"componentType":5126,
			"count":2,
			"type":"VEC3"
		},
		{
			"bufferView":132,
			"componentType":5126,
			"count":25,
			"type":"VEC4"
		},
		{
			"bufferView":133,
			"componentType":5126,
			"count":2,
			"type":"VEC3"
		},
		{
			"bufferView":134,
			"componentType":5126,
			"count":2,
			"type":"VEC3"
		},
		{
			"bufferView":135,
			"componentType":5126,
			"count":25,
			"type":"VEC4"
		},
		{
			"bufferView":136,
			"componentType":5126,
			"count":2,
			"type":"VEC3"
		},
		{
			"bufferView":137,
			"componentType":5126,
			"count":2,
			"type":"VEC3"
		},
		{
			"bufferView":138,
			"componentType":5126,
			"count":2,
			"type":"VEC4"
		},
		{
			"bufferView":139,
			"componentType":5126,
			"count":2,
			"type":"VEC3"
		},
		{
			"bufferView":140,
			"componentType":5126,
			"count":2,
			"type":"VEC3"
		},
		{
			"bufferView":141,
			"componentType":5126,
			"count":25,
			"type":"VEC4"
		},
		{
			"bufferView":142,
			"componentType":5126,
			"count":2,
			"type":"VEC3"
		},
		{
			"bufferView":143,
			"componentType":5126,
			"count":2,
			"type":"VEC3"
		},
		{
			"bufferView":144,
			"componentType":5126,
			"count":25,
			"type":"VEC4"
		},
		{
			"bufferView":145,
			"componentType":5126,
			"count":2,
			"type":"VEC3"
		},
		{
			"bufferView":146,
			"componentType":5126,
			"count":2,
			"type":"VEC3"
		},
		{
			"bufferView":147,
			"componentType":5126,
			"count":25,
			"type":"VEC4"
		},
		{
			"bufferView":148,
			"componentType":5126,
			"count":2,
			"type":"VEC3"
		},
		{
			"bufferView":149,
			"componentType":5126,
			"count":2,
			"type":"VEC3"
		},
		{
			"bufferView":150,
			"componentType":5126,
			"count":2,
			"type":"VEC4"
		},
		{
			"bufferView":151,
			"componentType":5126,
			"count":2,
			"type":"VEC3"
		},
		{
			"bufferView":152,
			"componentType":5126,
			"count":2,
			"type":"VEC3"
		},
		{
			"bufferView":153,
			"componentType":5126,
			"count":25,
			"type":"VEC4"
		},
		{
			"bufferView":154,
			"componentType":5126,
			"count":2,
			"type":"VEC3"
		},
		{
			"bufferView":155,
			"componentType":5126,
			"count":2,
			"type":"VEC3"
		},
		{
			"bufferView":156,
			"componentType":5126,
			"count":25,
			"type":"VEC4"
		},
		{
			"bufferView":157,
			"componentType":5126,
			"count":2,
			"type":"VEC3"
		},
		{
			"bufferView":158,
			"componentType":5126,
			"count":2,
			"type":"VEC3"
		},
		{
			"bufferView":159,
			"componentType":5126,
			"count":25,
			"type":"VEC4"
		},
		{
			"bufferView":160,
			"componentType":5126,
			"count":2,
			"type":"VEC3"
		},
		{
			"bufferView":161,
			"componentType":5126,
			"count":2,
			"type":"VEC3"
		},
		{
			"bufferView":162,
			"componentType":5126,
			"count":25,
			"type":"VEC4"
		},
		{
			"bufferView":163,
			"componentType":5126,
			"count":2,
			"type":"VEC3"
		},
		{
			"bufferView":164,
			"componentType":5126,
			"count":2,
			"type":"VEC3"
		},
		{
			"bufferView":165,
			"componentType":5126,
			"count":25,
			"type":"VEC4"
		},
		{
			"bufferView":166,
			"componentType":5126,
			"count":2,
			"type":"VEC3"
		},
		{
			"bufferView":167,
			"componentType":5126,
			"count":2,
			"type":"VEC3"
		},
		{
			"bufferView":168,
			"componentType":5126,
			"count":25,
			"type":"VEC4"
		},
		{
			"bufferView":169,
			"componentType":5126,
			"count":2,
			"type":"VEC3"
		},
		{
			"bufferView":170,
			"componentType":5126,
			"count":2,
			"type":"VEC3"
		},
		{
			"bufferView":171,
			"componentType":5126,
			"count":25,
			"type":"VEC4"
		},
		{
			"bufferView":172,
			"componentType":5126,
			"count":2,
			"type":"VEC3"
		},
		{
			"bufferView":173,
			"componentType":5126,
			"count":2,
			"type":"VEC3"
		},
		{
			"bufferView":174,
			"componentType":5126,
			"count":25,
			"type":"VEC4"
		},
		{
			"bufferView":175,
			"componentType":5126,
			"count":2,
			"type":"VEC3"
		}
	],
	"bufferViews":[
		{
			"buffer":0,
			"byteLength":18144,
			"byteOffset":0,
			"target":34962
		},
		{
			"buffer":0,
			"byteLength":18144,
			"byteOffset":18144,
			"target":34962
		},
		{
			"buffer":0,
			"byteLength":12096,
			"byteOffset":36288,
			"target":34962
		},
		{
			"buffer":0,
			"byteLength":6048,
			"byteOffset":48384,
			"target":34962
		},
		{
			"buffer":0,
			"byteLength":24192,
			"byteOffset":54432,
			"target":34962
		},
		{
			"buffer":0,
			"byteLength":7632,
			"byteOffset":78624,
			"target":34963
		},
		{
			"buffer":0,
			"byteLength":396,
			"byteOffset":86256,
			"target":34962
		},
		{
			"buffer":0,
			"byteLength":396,
			"byteOffset":86652,
			"target":34962
		},
		{
			"buffer":0,
			"byteLength":264,
			"byteOffset":87048,
			"target":34962
		},
		{
			"buffer":0,
			"byteLength":132,
			"byteOffset":87312,
			"target":34962
		},
		{
			"buffer":0,
			"byteLength":528,
			"byteOffset":87444,
			"target":34962
		},
		{
			"buffer":0,
			"byteLength":96,
			"byteOffset":87972,
			"target":34963
		},
		{
			"buffer":0,
			"byteLength":1664,
			"byteOffset":88068
		},
		{
			"buffer":0,
			"byteLength":8,
			"byteOffset":89732
		},
		{
			"buffer":0,
			"byteLength":24,
			"byteOffset":89740
		},
		{
			"buffer":0,
			"byteLength":32,
			"byteOffset":89764
		},
		{
			"buffer":0,
			"byteLength":24,
			"byteOffset":89796
		},
		{
			"buffer":0,
			"byteLength":24,
			"byteOffset":89820
		},
		{
			"buffer":0,
			"byteLength":32,
			"byteOffset":89844
		},
		{
			"buffer":0,
			"byteLength":24,
			"byteOffset":89876
		},
		{
			"buffer":0,
			"byteLength":24,
			"byteOffset":89900
		},
		{
			"buffer":0,
			"byteLength":32,
			"byteOffset":89924
		},
		{
			"buffer":0,
			"byteLength":24,
			"byteOffset":89956
		},
		{
			"buffer":0,
			"byteLength":24,
			"byteOffset":89980
		},
		{
			"buffer":0,
			"byteLength":32,
			"byteOffset":90004
		},
		{
			"buffer":0,
			"byteLength":24,
			"byteOffset":90036
		},
		{
			"buffer":0,
			"byteLength":24,
			"byteOffset":90060
		},
		{
			"buffer":0,
			"byteLength":1028,
			"byteOffset":90084
		},
		{
			"buffer":0,
			"byteLength":4112,
			"byteOffset":91112
		},
		{
			"buffer":0,
			"byteLength":24,
			"byteOffset":95224
		},
		{
			"buffer":0,
			"byteLength":3084,
			"byteOffset":95248
		},
		{
			"buffer":0,
			"byteLength":4112,
			"byteOffset":98332
		},
		{
			"buffer":0,
			"byteLength":24,
			"byteOffset":102444
		},
		{
			"buffer":0,
			"byteLength":24,
			"byteOffset":102468
		},
		{
			"buffer":0,
			"byteLength":32,
			"byteOffset":102492
		},
		{
			"buffer":0,
			"byteLength":24,
			"byteOffset":102524
		},
		{
			"buffer":0,
			"byteLength":24,
			"byteOffset":102548
		},
		{
			"buffer":0,
			"byteLength":32,
			"byteOffset":102572
		},
		{
			"buffer":0,
			"byteLength":24,
			"byteOffset":102604
		},
		{
			"buffer":0,
			"byteLength":24,
			"byteOffset":102628
		},
		{
			"buffer":0,
			"byteLength":32,
			"byteOffset":102652
		},
		{
			"buffer":0,
			"byteLength":24,
			"byteOffset":102684
		},
		{
			"buffer":0,
			"byteLength":24,
			"byteOffset":102708
		},
		{
			"buffer":0,
			"byteLength":32,
			"byteOffset":102732
		},
		{
			"buffer":0,
			"byteLength":24,
			"byteOffset":102764
		},
		{
			"buffer":0,
			"byteLength":24,
			"byteOffset":102788
		},
		{
			"buffer":0,
			"byteLength":32,
			"byteOffset":102812
		},
		{
			"buffer":0,
			"byteLength":24,
			"byteOffset":102844
		},
		{
			"buffer":0,
			"byteLength":24,
			"byteOffset":102868
		},
		{
			"buffer":0,
			"byteLength":32,
			"byteOffset":102892
		},
		{
			"buffer":0,
			"byteLength":24,
			"byteOffset":102924
		},
		{
			"buffer":0,
			"byteLength":24,
			"byteOffset":102948
		},
		{
			"buffer":0,
			"byteLength":32,
			"byteOffset":102972
		},
		{
			"buffer":0,
			"byteLength":24,
			"byteOffset":103004
		},
		{
			"buffer":0,
			"byteLength":24,
			"byteOffset":103028
		},
		{
			"buffer":0,
			"byteLength":32,
			"byteOffset":103052
		},
		{
			"buffer":0,
			"byteLength":24,
			"byteOffset":103084
		},
		{
			"buffer":0,
			"byteLength":24,
			"byteOffset":103108
		},
		{
			"buffer":0,
			"byteLength":32,
			"byteOffset":103132
		},
		{
			"buffer":0,
			"byteLength":24,
			"byteOffset":103164
		},
		{
			"buffer":0,
			"byteLength":24,
			"byteOffset":103188
		},
		{
			"buffer":0,
			"byteLength":32,
			"byteOffset":103212
		},
		{
			"buffer":0,
			"byteLength":24,
			"byteOffset":103244
		},
		{
			"buffer":0,
			"byteLength":24,
			"byteOffset":103268
		},
		{
			"buffer":0,
			"byteLength":32,
			"byteOffset":103292
		},
		{
			"buffer":0,
			"byteLength":24,
			"byteOffset":103324
		},
		{
			"buffer":0,
			"byteLength":24,
			"byteOffset":103348
		},
		{
			"buffer":0,
			"byteLength":32,
			"byteOffset":103372
		},
		{
			"buffer":0,
			"byteLength":24,
			"byteOffset":103404
		},
		{
			"buffer":0,
			"byteLength":24,
			"byteOffset":103428
		},
		{
			"buffer":0,
			"byteLength":32,
			"byteOffset":103452
		},
		{
			"buffer":0,
			"byteLength":24,
			"byteOffset":103484
		},
		{
			"buffer":0,
			"byteLength":24,
			"byteOffset":103508
		},
		{
			"buffer":0,
			"byteLength":32,
			"byteOffset":103532
		},
		{
			"buffer":0,
			"byteLength":24,
			"byteOffset":103564
		},
		{
			"buffer":0,
			"byteLength":24,
			"byteOffset":103588
		},
		{
			"buffer":0,
			"byteLength":32,
			"byteOffset":103612
		},
		{
			"buffer":0,
			"byteLength":24,
			"byteOffset":103644
		},
		{
			"buffer":0,
			"byteLength":24,
			"byteOffset":103668
		},
		{
			"buffer":0,
			"byteLength":32,
			"byteOffset":103692
		},
		{
			"buffer":0,
			"byteLength":24,
			"byteOffset":103724
		},
		{
			"buffer":0,
			"byteLength":24,
			"byteOffset":103748
		},
		{
			"buffer":0,
			"byteLength":32,
			"byteOffset":103772
		},
		{
			"buffer":0,
			"byteLength":24,
			"byteOffset":103804
		},
		{
			"buffer":0,
			"byteLength":24,
			"byteOffset":103828
		},
		{
			"buffer":0,
			"byteLength":32,
			"byteOffset":103852
		},
		{
			"buffer":0,
			"byteLength":24,
			"byteOffset":103884
		},
		{
			"buffer":0,
			"byteLength":24,
			"byteOffset":103908
		},
		{
			"buffer":0,
			"byteLength":32,
			"byteOffset":103932
		},
		{
			"buffer":0,
			"byteLength":24,
			"byteOffset":103964
		},
		{
			"buffer":0,
			"byteLength":24,
			"byteOffset":103988
		},
		{
			"buffer":0,
			"byteLength":32,
			"byteOffset":104012
		},
		{
			"buffer":0,
			"byteLength":24,
			"byteOffset":104044
		},
		{
			"buffer":0,
			"byteLength":24,
			"byteOffset":104068
		},
		{
			"buffer":0,
			"byteLength":32,
			"byteOffset":104092
		},
		{
			"buffer":0,
			"byteLength":24,
			"byteOffset":104124
		},
		{
			"buffer":0,
			"byteLength":8,
			"byteOffset":104148
		},
		{
			"buffer":0,
			"byteLength":24,
			"byteOffset":104156
		},
		{
			"buffer":0,
			"byteLength":32,
			"byteOffset":104180
		},
		{
			"buffer":0,
			"byteLength":24,
			"byteOffset":104212
		},
		{
			"buffer":0,
			"byteLength":100,
			"byteOffset":104236
		},
		{
			"buffer":0,
			"byteLength":300,
			"byteOffset":104336
		},
		{
			"buffer":0,
			"byteLength":32,
			"byteOffset":104636
		},
		{
			"buffer":0,
			"byteLength":24,
			"byteOffset":104668
		},
		{
			"buffer":0,
			"byteLength":24,
			"byteOffset":104692
		},
		{
			"buffer":0,
			"byteLength":400,
			"byteOffset":104716
		},
		{
			"buffer":0,
			"byteLength":24,
			"byteOffset":105116
		},
		{
			"buffer":0,
			"byteLength":24,
			"byteOffset":105140
		},
		{
			"buffer":0,
			"byteLength":400,
			"byteOffset":105164
		},
		{
			"buffer":0,
			"byteLength":24,
			"byteOffset":105564
		},
		{
			"buffer":0,
			"byteLength":24,
			"byteOffset":105588
		},
		{
			"buffer":0,
			"byteLength":400,
			"byteOffset":105612
		},
		{
			"buffer":0,
			"byteLength":24,
			"byteOffset":106012
		},
		{
			"buffer":0,
			"byteLength":24,
			"byteOffset":106036
		},
		{
			"buffer":0,
			"byteLength":32,
			"byteOffset":106060
		},
		{
			"buffer":0,
			"byteLength":24,
			"byteOffset":106092
		},
		{
			"buffer":0,
			"byteLength":24,
			"byteOffset":106116
		},
		{
			"buffer":0,
			"byteLength":32,
			"byteOffset":106140
		},
		{
			"buffer":0,
			"byteLength":24,
			"byteOffset":106172
		},
		{
			"buffer":0,
			"byteLength":24,
			"byteOffset":106196
		},
		{
			"buffer":0,
			"byteLength":32,
			"byteOffset":106220
		},
		{
			"buffer":0,
			"byteLength":24,
			"byteOffset":106252
		},
		{
			"buffer":0,
			"byteLength":24,
			"byteOffset":106276
		},
		{
			"buffer":0,
			"byteLength":32,
			"byteOffset":106300
		},
		{
			"buffer":0,
			"byteLength":24,
			"byteOffset":106332
		},
		{
			"buffer":0,
			"byteLength":24,
			"byteOffset":106356
		},
		{
			"buffer":0,
			"byteLength":400,
			"byteOffset":106380
		},
		{
			"buffer":0,
			"byteLength":24,
			"byteOffset":106780
		},
		{
			"buffer":0,
			"byteLength":24,
			"byteOffset":106804
		},
		{
			"buffer":0,
			"byteLength":400,
			"byteOffset":106828
		},
		{
			"buffer":0,
			"byteLength":24,
			"byteOffset":107228
		},
		{
			"buffer":0,
			"byteLength":24,
			"byteOffset":107252
		},
		{
			"buffer":0,
			"byteLength":400,
			"byteOffset":107276
		},
		{
			"buffer":0,
			"byteLength":24,
			"byteOffset":107676
		},
		{
			"buffer":0,
			"byteLength":24,
			"byteOffset":107700
		},
		{
			"buffer":0,
			"byteLength":400,
			"byteOffset":107724
		},
		{
			"buffer":0,
			"byteLength":24,
			"byteOffset":108124
		},
		{
			"buffer":0,
			"byteLength":24,
			"byteOffset":108148
		},
		{
			"buffer":0,
			"byteLength":32,
			"byteOffset":108172
		},
		{
			"buffer":0,
			"byteLength":24,
			"byteOffset":108204
		},
		{
			"buffer":0,
			"byteLength":24,
			"byteOffset":108228
		},
		{
			"buffer":0,
			"byteLength":400,
			"byteOffset":108252
		},
		{
			"buffer":0,
			"byteLength":24,
			"byteOffset":108652
		},
		{
			"buffer":0,
			"byteLength":24,
			"byteOffset":108676
		},
		{
			"buffer":0,
			"byteLength":400,
			"byteOffset":108700
		},
		{
			"buffer":0,
			"byteLength":24,
			"byteOffset":109100
		},
		{
			"buffer":0,
			"byteLength":24,
			"byteOffset":109124
		},
		{
			"buffer":0,
			"byteLength":400,
			"byteOffset":109148
		},
		{
			"buffer":0,
			"byteLength":24,
			"byteOffset":109548
		},
		{
			"buffer":0,
			"byteLength":24,
			"byteOffset":109572
		},
		{
			"buffer":0,
			"byteLength":32,
			"byteOffset":109596
		},
		{
			"buffer":0,
			"byteLength":24,
			"byteOffset":109628
		},
		{
			"buffer":0,
			"byteLength":24,
			"byteOffset":109652
		},
		{
			"buffer":0,
			"byteLength":400,
			"byteOffset":109676
		},
		{
			"buffer":0,
			"byteLength":24,
			"byteOffset":110076
		},
		{
			"buffer":0,
			"byteLength":24,
			"byteOffset":110100
		},
		{
			"buffer":0,
			"byteLength":400,
			"byteOffset":110124
		},
		{
			"buffer":0,
			"byteLength":24,
			"byteOffset":110524
		},
		{
			"buffer":0,
			"byteLength":24,
			"byteOffset":110548
		},
		{
			"buffer":0,
			"byteLength":400,
			"byteOffset":110572
		},
		{
			"buffer":0,
			"byteLength":24,
			"byteOffset":110972
		},
		{
			"buffer":0,
			"byteLength":24,
			"byteOffset":110996
		},
		{
			"buffer":0,
			"byteLength":400,
			"byteOffset":111020
		},
		{
			"buffer":0,
			"byteLength":24,
			"byteOffset":111420
		},
		{
			"buffer":0,
			"byteLength":24,
			"byteOffset":111444
		},
		{
			"buffer":0,
			"byteLength":400,
			"byteOffset":111468
		},
		{
			"buffer":0,
			"byteLength":24,
			"byteOffset":111868
		},
		{
			"buffer":0,
			"byteLength":24,
			"byteOffset":111892
		},
		{
			"buffer":0,
			"byteLength":400,
			"byteOffset":111916
		},
		{
			"buffer":0,
			"byteLength":24,
			"byteOffset":112316
		},
		{
			"buffer":0,
			"byteLength":24,
			"byteOffset":112340
		},
		{
			"buffer":0,
			"byteLength":400,
			"byteOffset":112364
		},
		{
			"buffer":0,
			"byteLength":24,
			"byteOffset":112764
		},
		{
			"buffer":0,
			"byteLength":24,
			"byteOffset":112788
		},
		{
			"buffer":0,
			"byteLength":400,
			"byteOffset":112812
		},
		{
			"buffer":0,
			"byteLength":24,
			"byteOffset":113212
		}
	],
	"samplers":[
		{
			"magFilter":9729,
			"minFilter":9987
		}
	],
	"buffers":[
		{
			"byteLength":113236,
			"uri":"bear.bin"
		}
	]
}
