{
	"asset":{
		"generator":"Khronos glTF Blender I/O v4.4.56",
		"version":"2.0"
	},
	"extensionsUsed":[
		"KHR_materials_specular"
	],
	"scene":0,
	"scenes":[
		{
			"name":"Scene",
			"nodes":[
				0,
				1
			]
		}
	],
	"nodes":[
		{
			"mesh":0,
			"name":"Cylinder",
			"scale":[
				0.5697369575500488,
				0.5697369575500488,
				0.5697369575500488
			]
		},
		{
			"mesh":1,
			"name":"Cylinder.002",
			"scale":[
				0.5697369575500488,
				0.5697369575500488,
				0.5697369575500488
			]
		}
	],
	"materials":[
		{
			"doubleSided":true,
			"extensions":{
				"KHR_materials_specular":{
					"specularFactor":0
				}
			},
			"name":"Pot",
			"pbrMetallicRoughness":{
				"baseColorTexture":{
					"index":0
				},
				"metallicFactor":0
			}
		}
	],
	"meshes":[
		{
			"name":"Cylinder",
			"primitives":[
				{
					"attributes":{
						"POSITION":0,
						"NORMAL":1,
						"TEXCOORD_0":2
					},
					"indices":3,
					"material":0
				}
			]
		},
		{
			"name":"Cylinder.002",
			"primitives":[
				{
					"attributes":{
						"POSITION":4,
						"NORMAL":5,
						"TEXCOORD_0":6
					},
					"indices":7,
					"material":0
				}
			]
		}
	],
	"textures":[
		{
			"sampler":0,
			"source":0
		}
	],
	"images":[
		{
			"mimeType":"image/png",
			"name":"BUILD264",
			"uri":"textures/BUILD264.png"
		}
	],
	"accessors":[
		{
			"bufferView":0,
			"componentType":5126,
			"count":478,
			"max":[
				1.0514893531799316,
				1.3135716915130615,
				1.051489233970642
			],
			"min":[
				-1.0514893531799316,
				0.024827711284160614,
				-1.0514894723892212
			],
			"type":"VEC3"
		},
		{
			"bufferView":1,
			"componentType":5126,
			"count":478,
			"type":"VEC3"
		},
		{
			"bufferView":2,
			"componentType":5126,
			"count":478,
			"type":"VEC2"
		},
		{
			"bufferView":3,
			"componentType":5123,
			"count":1056,
			"type":"SCALAR"
		},
		{
			"bufferView":4,
			"componentType":5126,
			"count":373,
			"max":[
				0.7135025262832642,
				1.7331308126449585,
				0.7135024070739746
			],
			"min":[
				-0.7135025262832642,
				1.3135716915130615,
				-0.7135026454925537
			],
			"type":"VEC3"
		},
		{
			"bufferView":5,
			"componentType":5126,
			"count":373,
			"type":"VEC3"
		},
		{
			"bufferView":6,
			"componentType":5126,
			"count":373,
			"type":"VEC2"
		},
		{
			"bufferView":7,
			"componentType":5123,
			"count":858,
			"type":"SCALAR"
		}
	],
	"bufferViews":[
		{
			"buffer":0,
			"byteLength":5736,
			"byteOffset":0,
			"target":34962
		},
		{
			"buffer":0,
			"byteLength":5736,
			"byteOffset":5736,
			"target":34962
		},
		{
			"buffer":0,
			"byteLength":3824,
			"byteOffset":11472,
			"target":34962
		},
		{
			"buffer":0,
			"byteLength":2112,
			"byteOffset":15296,
			"target":34963
		},
		{
			"buffer":0,
			"byteLength":4476,
			"byteOffset":17408,
			"target":34962
		},
		{
			"buffer":0,
			"byteLength":4476,
			"byteOffset":21884,
			"target":34962
		},
		{
			"buffer":0,
			"byteLength":2984,
			"byteOffset":26360,
			"target":34962
		},
		{
			"buffer":0,
			"byteLength":1716,
			"byteOffset":29344,
			"target":34963
		}
	],
	"samplers":[
		{
			"magFilter":9729,
			"minFilter":9987
		}
	],
	"buffers":[
		{
			"byteLength":31060,
			"uri":"Pot.bin"
		}
	]
}
