{
	"asset":{
		"generator":"Khronos glTF Blender I/O v4.4.56",
		"version":"2.0"
	},
	"scene":0,
	"scenes":[
		{
			"name":"Scene",
			"nodes":[
				0,
				1,
				2,
				3
			]
		}
	],
	"nodes":[
		{
			"mesh":0,
			"name":"Plane"
		},
		{
			"mesh":1,
			"name":"Cube.001"
		},
		{
			"mesh":2,
			"name":"Plane.002"
		},
		{
			"mesh":3,
			"name":"Plane.001"
		}
	],
	"materials":[
		{
			"doubleSided":true,
			"name":"Popcorn",
			"pbrMetallicRoughness":{
				"baseColorTexture":{
					"index":0
				},
				"metallicFactor":0,
				"roughnessFactor":0.8681818246841431
			}
		},
		{
			"doubleSided":true,
			"name":"RustyMetal",
			"pbrMetallicRoughness":{
				"baseColorTexture":{
					"index":1
				},
				"metallicFactor":0.7954545617103577,
				"roughnessFactor":0.5999999642372131
			}
		},
		{
			"doubleSided":true,
			"name":"Wall",
			"pbrMetallicRoughness":{
				"baseColorTexture":{
					"index":2
				},
				"metallicFactor":0
			}
		},
		{
			"doubleSided":true,
			"name":"Floor",
			"pbrMetallicRoughness":{
				"baseColorTexture":{
					"index":3
				},
				"metallicFactor":0
			}
		}
	],
	"meshes":[
		{
			"name":"Plane.006",
			"primitives":[
				{
					"attributes":{
						"POSITION":0,
						"NORMAL":1,
						"TEXCOORD_0":2
					},
					"indices":3,
					"material":0
				}
			]
		},
		{
			"name":"Cube.001",
			"primitives":[
				{
					"attributes":{
						"POSITION":4,
						"NORMAL":5,
						"TEXCOORD_0":6
					},
					"indices":7,
					"material":1
				}
			]
		},
		{
			"name":"Plane",
			"primitives":[
				{
					"attributes":{
						"POSITION":8,
						"NORMAL":9,
						"TEXCOORD_0":10
					},
					"indices":11,
					"material":1
				}
			]
		},
		{
			"name":"Plane.069",
			"primitives":[
				{
					"attributes":{
						"POSITION":12,
						"NORMAL":13,
						"TEXCOORD_0":14
					},
					"indices":15,
					"material":2
				},
				{
					"attributes":{
						"POSITION":16,
						"NORMAL":17,
						"TEXCOORD_0":18
					},
					"indices":19,
					"material":3
				}
			]
		}
	],
	"textures":[
		{
			"sampler":0,
			"source":0
		},
		{
			"sampler":0,
			"source":1
		},
		{
			"sampler":0,
			"source":2
		},
		{
			"sampler":0,
			"source":3
		}
	],
	"images":[
		{
			"mimeType":"image/jpeg",
			"name":"popcorn",
			"uri":"textures/popcorn.jpg"
		},
		{
			"mimeType":"image/jpeg",
			"name":"39_old dirty metal texture-seamless",
			"uri":"textures/39_old%20dirty%20metal%20texture-seamless.jpg"
		},
		{
			"mimeType":"image/jpeg",
			"name":"metal1",
			"uri":"textures/metal1.jpg"
		},
		{
			"mimeType":"image/jpeg",
			"name":"Subtle-Grunge-Texture-1-Seamless",
			"uri":"textures/Subtle-Grunge-Texture-1-Seamless.jpg"
		}
	],
	"accessors":[
		{
			"bufferView":0,
			"componentType":5126,
			"count":221,
			"max":[
				99.93228149414062,
				40,
				67
			],
			"min":[
				-99.93228149414062,
				-99.98734283447266,
				-110
			],
			"type":"VEC3"
		},
		{
			"bufferView":1,
			"componentType":5126,
			"count":221,
			"type":"VEC3"
		},
		{
			"bufferView":2,
			"componentType":5126,
			"count":221,
			"type":"VEC2"
		},
		{
			"bufferView":3,
			"componentType":5123,
			"count":534,
			"type":"SCALAR"
		},
		{
			"bufferView":4,
			"componentType":5126,
			"count":72,
			"max":[
				40.00510787963867,
				10.971515655517578,
				58
			],
			"min":[
				-49.99489212036133,
				9.971515655517578,
				-33.72126388549805
			],
			"type":"VEC3"
		},
		{
			"bufferView":5,
			"componentType":5126,
			"count":72,
			"type":"VEC3"
		},
		{
			"bufferView":6,
			"componentType":5126,
			"count":72,
			"type":"VEC2"
		},
		{
			"bufferView":7,
			"componentType":5123,
			"count":108,
			"type":"SCALAR"
		},
		{
			"bufferView":8,
			"componentType":5126,
			"count":8,
			"max":[
				0.01974617689847946,
				11.104098320007324,
				58.02886962890625
			],
			"min":[
				0.00510778184980154,
				9.85195541381836,
				-33.47113037109375
			],
			"type":"VEC3"
		},
		{
			"bufferView":9,
			"componentType":5126,
			"count":8,
			"type":"VEC3"
		},
		{
			"bufferView":10,
			"componentType":5126,
			"count":8,
			"type":"VEC2"
		},
		{
			"bufferView":11,
			"componentType":5123,
			"count":12,
			"type":"SCALAR"
		},
		{
			"bufferView":12,
			"componentType":5126,
			"count":3660,
			"max":[
				13.000003814697266,
				20.00265884399414,
				59.63794708251953
			],
			"min":[
				-13.000003814697266,
				-12.837345123291016,
				-24.637954711914062
			],
			"type":"VEC3"
		},
		{
			"bufferView":13,
			"componentType":5126,
			"count":3660,
			"type":"VEC3"
		},
		{
			"bufferView":14,
			"componentType":5126,
			"count":3660,
			"type":"VEC2"
		},
		{
			"bufferView":15,
			"componentType":5123,
			"count":8436,
			"type":"SCALAR"
		},
		{
			"bufferView":16,
			"componentType":5126,
			"count":296,
			"max":[
				13,
				20.00265884399414,
				67
			],
			"min":[
				-13,
				-9.997344970703125,
				-27.00000762939453
			],
			"type":"VEC3"
		},
		{
			"bufferView":17,
			"componentType":5126,
			"count":296,
			"type":"VEC3"
		},
		{
			"bufferView":18,
			"componentType":5126,
			"count":296,
			"type":"VEC2"
		},
		{
			"bufferView":19,
			"componentType":5123,
			"count":552,
			"type":"SCALAR"
		}
	],
	"bufferViews":[
		{
			"buffer":0,
			"byteLength":2652,
			"byteOffset":0,
			"target":34962
		},
		{
			"buffer":0,
			"byteLength":2652,
			"byteOffset":2652,
			"target":34962
		},
		{
			"buffer":0,
			"byteLength":1768,
			"byteOffset":5304,
			"target":34962
		},
		{
			"buffer":0,
			"byteLength":1068,
			"byteOffset":7072,
			"target":34963
		},
		{
			"buffer":0,
			"byteLength":864,
			"byteOffset":8140,
			"target":34962
		},
		{
			"buffer":0,
			"byteLength":864,
			"byteOffset":9004,
			"target":34962
		},
		{
			"buffer":0,
			"byteLength":576,
			"byteOffset":9868,
			"target":34962
		},
		{
			"buffer":0,
			"byteLength":216,
			"byteOffset":10444,
			"target":34963
		},
		{
			"buffer":0,
			"byteLength":96,
			"byteOffset":10660,
			"target":34962
		},
		{
			"buffer":0,
			"byteLength":96,
			"byteOffset":10756,
			"target":34962
		},
		{
			"buffer":0,
			"byteLength":64,
			"byteOffset":10852,
			"target":34962
		},
		{
			"buffer":0,
			"byteLength":24,
			"byteOffset":10916,
			"target":34963
		},
		{
			"buffer":0,
			"byteLength":43920,
			"byteOffset":10940,
			"target":34962
		},
		{
			"buffer":0,
			"byteLength":43920,
			"byteOffset":54860,
			"target":34962
		},
		{
			"buffer":0,
			"byteLength":29280,
			"byteOffset":98780,
			"target":34962
		},
		{
			"buffer":0,
			"byteLength":16872,
			"byteOffset":128060,
			"target":34963
		},
		{
			"buffer":0,
			"byteLength":3552,
			"byteOffset":144932,
			"target":34962
		},
		{
			"buffer":0,
			"byteLength":3552,
			"byteOffset":148484,
			"target":34962
		},
		{
			"buffer":0,
			"byteLength":2368,
			"byteOffset":152036,
			"target":34962
		},
		{
			"buffer":0,
			"byteLength":1104,
			"byteOffset":154404,
			"target":34963
		}
	],
	"samplers":[
		{
			"magFilter":9729,
			"minFilter":9987
		}
	],
	"buffers":[
		{
			"byteLength":155508,
			"uri":"prison.bin"
		}
	]
}
